<?xml version="1.0" encoding="UTF-8"?>
<svg id="Layer_2" xmlns="http://www.w3.org/2000/svg" viewBox="0 0 255.88 411.47">
  <defs>
    <style>
      .cls-1 {
        fill: #ff9b9f;
      }

      .cls-2 {
        fill: #520815;
      }
    </style>
  </defs>
  <g id="Layer_1-2" data-name="Layer_1">
    <g>
      <path class="cls-2" d="M134.51,387.88c-.42-.74-1.44-.91-2.21-1.09-.55-.13-1.11-.26-1.66-.39-1.17-.27-2.38-.39-3.58-.45-.41-.02-.85.39-.91.79-.07.43.12.87.52,1.08,1.08.57,2.22,1.05,3.39,1.41.55.17,1.09.34,1.64.51.28.09.57.17.85.23.55.13,1.03.11,1.54-.18.67-.39.77-1.29.42-1.91Z"/>
      <g>
        <path class="cls-2" d="M95.02,318.3c-.19.33-6.59,2.12-7.03,2.23-.07.03-.14.04-.22.05-2.92.35-5.7,1.31-8.41,2.44-2.03.82-4.03,1.74-6.04,2.56-4.1,1.68-8.34,2.81-12.81,2.48-1.36-.1-2.72-.35-4.02-.78-.79-.25-1.57-.57-2.29-.97-1.2-.65-2.31-1.49-3.23-2.55-2.89-3.31-3.39-7.74-3.16-11.97.27-5.03.89-10.06,1.56-15.06.67-5.07,1.47-10.13,2.46-15.15,1.62-8.22,4.22-17.18,10.83-22.84,2.93-2.51,6.45-4.28,10.26-4.97,3.63-.66,7.94-.36,10.83,2.14.86.74.11,2.48-1.06,2.09-1.79-.59-3.6-1.23-5.49-1.37-1.88-.13-3.78.15-5.57.71-3.77,1.17-7.05,3.52-9.49,6.61-5.07,6.41-6.6,14.9-7.96,22.75-.83,4.78-1.53,9.59-2.11,14.41-.51,4.37-1.21,8.86-1.06,13.28.12,3.5,1.2,7.05,4.4,8.89.31.18.62.34.94.48.63.3,1.29.51,1.96.69,2.04.52,4.22.53,6.3.29,3.83-.45,7.38-2.09,10.89-3.61,3.35-1.46,6.72-2.85,10.33-3.47.57-.1,7.24-1.72,7.83-1.78,1.49-.14,1.97,1.46,1.36,2.44Z"/>
        <path class="cls-2" d="M74.81,275.45c-.35,2.81-.75,5.61-1.15,8.41-.21,1.5-.43,3-.63,4.5-.13.98-.26,1.95-.39,2.92-.34,2.65-.62,5.29-.84,7.95-.11,1.29-.21,2.58-.31,3.88-.08.88,0,1.99-.19,2.94-.07.37-.19.72-.38,1.03-.46.74-1.81,1.1-2.29.11-.16-.32-.25-.66-.29-.99-.17-1,.03-2.07.08-3.1.09-1.36.2-2.71.34-4.07.27-2.65.59-5.28.96-7.91.38-2.7.81-5.4,1.36-8.07.56-2.7,1.28-5.29,2.12-7.91.32-1,1.74-.73,1.61.33Z"/>
        <path class="cls-2" d="M125.6,305.98c-.04-.08-.08-.16-.11-.24-1.2-3.4-4.98-5.19-8.39-5.3-4.46-.15-8.68,1.67-12.84,2.99-4.23,1.35-8.49,2.56-12.85,3.43-1.14.23-2.28.44-3.43.63-.71.13-1.42.24-2.12.35-2.53.4-5.07.71-7.63.94-4.4.4-9.04.79-13.42-.03-1.35-.25-1.05-2.06.16-2.24,1.12-.17,2.24-.26,3.36-.33.99-.06,1.97-.1,2.97-.14.53-.02,1.06-.04,1.59-.08,2.65-.16,5.29-.35,7.92-.65,4.69-.52,9.29-1.36,13.9-2.38,4.59-1.01,9.01-2.45,13.5-3.86,1.34-.42,2.73-.81,4.14-1.09,1.04-.21,2.08-.35,3.14-.41,1.73-.11,3.45.03,5.14.54,2.38.72,4.58,2.05,6.04,3.98.62.82,1.12,1.74,1.44,2.78.5,1.6-1.77,2.43-2.5,1.1Z"/>
        <path class="cls-2" d="M125.73,308.86c-.87-2.72-3.34-4.95-5.87-6.12-2.58-1.19-5.81-1.66-8.33-.11-.65.4-.29,1.41.45,1.38,2.35-.1,4.67-.03,6.83.99,1.04.49,1.96,1.14,2.78,1.94.86.86,1.43,1.88,1.98,2.95.64,1.24,2.57.25,2.16-1.02Z"/>
        <path class="cls-2" d="M122.25,311.4c-.87-2.2-3.15-3.89-5.15-5-2.08-1.15-4.44-1.7-6.81-1.47-.99.1-1.16,1.59-.13,1.78,1.99.37,3.9,1.03,5.66,2.02.87.49,1.57.99,2.32,1.68.8.73,1.37,1.53,2.17,2.25.85.76,2.39-.11,1.94-1.25Z"/>
        <g>
          <path class="cls-2" d="M113.96,309.64c-.21-.34-.55-.65-.85-.92-.32-.28-.68-.54-1.04-.76-.74-.46-1.62-.72-2.49-.8-.25-.02-.48-.01-.7.13-.2.13-.38.37-.42.61-.08.52.22,1,.74,1.12.16.04.33.08.49.13.03.01.08.03.12.04.05.03.13.06.21.09.32.14.64.32.94.5.07.04.13.08.19.12.19.14.34.26.48.39.12.11.24.23.36.35.03.03.05.06.08.09.11.13.2.24.3.33.27.25.58.48.97.46.08-.02.17-.03.25-.05-.04,0-.08.01-.13.02.02-.03.17-.03.21-.04.05-.02.11-.04.16-.07.12-.08.16-.16.25-.27.06-.08-.03.08-.06.09.11-.07.23-.38.24-.47.06-.38-.09-.77-.29-1.09Z"/>
          <path class="cls-2" d="M112.16,310.84s-.06-.06-.09-.1c-.04-.04-.07-.04.09.1Z"/>
        </g>
        <path class="cls-2" d="M183.55,286.08c-.19,1.59-.94,3.12-1.55,4.58-.72,1.75-1.43,3.5-2.16,5.24l-5.56,14.76-.58,1.55-2.81,7.45-.2.55c-.6,1.47-2.5.78-2.71-.5-.05-.26-.03-.54.09-.83,1.53-3.76,7.74-20.97,9.27-24.72.74-1.81,1.47-3.63,2.22-5.44.43-1.06,1.4-2.92.72-4.05-.52-.85-1.84-.76-2.69-.7-1.61.11-3.22.36-4.83.56-3.55.41-7.1.83-10.65,1.25-3.56.42-7.1.83-10.65,1.26-3.23.38-6.56.56-9.73,1.31-2.74.67-5.04,2-6.88,4.15-1.72,2.01-2.9,4.45-3.83,6.91-1.51,4.01-2.15,8.68-3.94,12.69-.47,1.06-1.03,2.08-1.69,3.03-.8-.26-1.62-.5-2.44-.7.35-1.08.71-2.16,1.05-3.24.08-.24.16-.5.24-.74.31-.97.61-1.94.9-2.92.15-.51.3-1.02.45-1.53.15-.53.3-1.06.44-1.6.2-.76.41-1.52.62-2.27.77-2.65,1.66-5.28,2.95-7.72,1.26-2.38,2.9-4.59,5.01-6.29.19-.16.38-.31.57-.45.74-.55,1.53-.99,2.34-1.37,2.2-1.02,4.63-1.48,7.04-1.79,7.58-.98,15.18-1.79,22.78-2.68,1.95-.23,3.89-.46,5.85-.69,1.67-.19,3.4-.53,5.08-.51,1.45.03,2.98.32,4.04,1.39,1.09,1.1,1.41,2.59,1.23,4.09Z"/>
        <path class="cls-2" d="M171.46,323.97c-1.59,2.13-5.04,1.93-7.42,2.21-3.12.37-6.24.74-9.36,1.1-1.19.14-2.38.28-3.57.4-.34.04-.67.08-1,.11-1.47.15-2.99.56-4.26-.35-.43-.3-.36-.99-.06-1.34.61-.7,1.42-.88,2.27-.99.14-.03.29-.04.43-.06,1.1-.15,2.22-.32,3.32-.46,2.22-.29,4.44-.53,6.66-.8,2.22-.27,4.44-.53,6.66-.8.99-.12,2.03-.15,2.99-.39.31-.08.52-.24.76-.37-1.2-.17-1.74-1.68-.88-2.5.14-.15.34-.27.58-.36.8-.3,1.65-.15,2.33.31.35.23.65.54.87.9.65,1.08.43,2.42-.3,3.4Z"/>
        <path class="cls-2" d="M118.01,346.09c-.48.43-1.03.91-1.62,1.43-4.54,4.03-11.91,10.51-15.44,13.98-3.74,3.68-7.54,7.32-11.72,10.51-6.93,5.28-15.22,9.39-24.11,9.27-8.17-.11-16.19-3.66-20.43-10.88-4.05-6.89-4.39-15.59-2.22-23.16,1.29-4.51,3.37-8.74,5.81-12.73,1.23-2.01,2.6-3.94,3.99-5.84.61-.82,1.25-1.6,1.9-2.37.72-.85,1.45-1.69,2.15-2.56.63.3,1.29.51,1.96.69-.63.93-1.23,1.88-1.82,2.84-.71,1.16-1.42,2.34-2.17,3.48-1.36,2.06-2.66,4.15-3.88,6.29-2.36,4.12-4.36,8.52-5.36,13.18-1.5,7.04-.69,15.08,3.95,20.84,4.76,5.91,12.85,7.77,20.1,6.82,8.28-1.09,15.67-5.94,21.88-11.27,3.45-2.96,6.67-6.17,9.92-9.35,2.76-2.7,8.89-8.24,13.02-11.61.83-.68,1.59-1.28,2.22-1.74.1-.08.21-.13.32-.18.62.35,1.25.7,1.86,1.07.14.44.08.92-.34,1.29Z"/>
        <path class="cls-2" d="M191.56,328.32c-.76-5.85-4.05-11.15-8.89-14.51-2.56-1.78-5.92-3.28-9.1-3.14-.69.03-.98,1.11-.29,1.38,3.09,1.22,6.01,2.29,8.65,4.39,2.55,2.03,4.64,4.68,5.84,7.73,2.53,6.4,1.17,13.98-3.33,19.16-1.18,1.36.9,3.26,2.07,1.89,3.95-4.61,5.84-10.87,5.06-16.9Z"/>
        <path class="cls-2" d="M154.49,367.08c-1.5.51-2.99,1.01-4.48,1.53-.58.19-1.16.4-1.74.6-7.39,2.59-14.84,5.15-22.07,8.17-1.92.8-3-2.39-1-3.1,7.07-2.54,14.06-5.31,21.14-7.85.31-.11.62-.22.93-.33,1.16-.41,2.33-.83,3.5-1.24,1.24.73,2.49,1.47,3.73,2.21Z"/>
        <path class="cls-2" d="M130.36,364.92c-.89-4.57-4.65-7.93-9.16-8.8-2.6-.5-5.21-.13-7.56,1.05-.72.36-.85,1.43-.45,2.06.48.74,1.33.8,2.06.45,3.97-1.94,9.35-.14,11.39,3.76,1.03,1.96,1.11,4.3.55,6.41-.28,1.04-.76,2.03-1.35,2.94-.31.48-.69.99-.9,1.53-.13.33-.22,1.18.2,1.4,2.14,1.12,4.04-2.36,4.64-3.98.81-2.19,1.04-4.52.59-6.81Z"/>
        <path class="cls-2" d="M122.59,350.71c-.93.4-1.77,1.05-2.61,1.6-.76.49-1.53.99-2.29,1.48-1.58,1.02-3.37,1.94-4.61,3.38-.65.75.08,1.85,1.02,1.59,1.82-.51,3.42-1.75,5.01-2.74.77-.48,1.54-.96,2.31-1.44.86-.54,1.8-1.02,2.56-1.69.98-.87-.2-2.68-1.4-2.17Z"/>
        <path class="cls-2" d="M118.05,357.39c-4.92,3.47-11.04.96-16.39,2.95-3.42,1.28-5.17,4.15-6.11,7.55-1.15,4.16-2.01,8.43-2.86,12.66-.88,4.43-1.6,8.89-1.94,13.4-.31,4.05-.63,8.46.23,12.46.7,3.24,3.46,6.19,6.99,4.62,1.71-.76,2.9-2.24,3.94-3.74,1.17-1.69,2.3-3.41,3.37-5.17,4.78-7.83,8.34-16.38,10.64-25.26.49-1.88-2.47-2.49-2.96-.61-1.89,7.24-4.68,14.21-8.29,20.77-1.75,3.17-3.62,6.4-5.88,9.23-.67.84-1.94,2.41-3.2,1.91-1.01-.4-1.35-1.89-1.52-2.83-.31-1.77-.29-3.64-.3-5.44,0-2.04.08-4.08.25-6.11.36-4.16,1.03-8.29,1.85-12.38.79-3.98,1.71-7.95,2.66-11.9.67-2.78,1.68-5.32,4.6-6.26,2.78-.9,5.88-.7,8.76-1,2.89-.29,5.92-1.02,7.41-3.75.41-.75-.54-1.62-1.24-1.13Z"/>
        <path class="cls-2" d="M128.71,371.81c-.24-.75-1.14-1.26-1.9-.97-2.12.81-4.23,1.63-6.34,2.44-2.12.82-4.4,1.49-6.34,2.68-1.01.62-.53,2.56.76,2.33,2.25-.41,4.37-1.38,6.5-2.18,2.12-.8,4.24-1.59,6.36-2.4.76-.29,1.23-1.1.97-1.9Z"/>
        <path class="cls-2" d="M110,361.14c-6.73.06-9.84,7.45-11.51,12.88-1.2,3.91-1.93,7.94-2.61,11.96-.62,3.65-1.46,7.67-.31,11.31,1.1,3.43,4.11,6.25,7.82,6.26,1.79,0,1.63-2.79-.16-2.78-2.58.01-4.47-2.32-5.16-4.61-.99-3.27-.18-6.78.35-10.06,1-6.19,1.9-13,5.29-18.41,1.5-2.38,3.75-4.43,6.57-5,.93-.19.57-1.57-.29-1.56Z"/>
        <path class="cls-2" d="M113.1,377.35c-.85-.73-1.8-1.26-2.86-1.59-.57-.18-1.15-.28-1.74-.3-.57-.02-1.12.08-1.67.24-1.03.3-.88,1.8.11,2.02.43.1.86.22,1.28.35.2.06.4.14.6.19-.4-.09-.04-.01.06.03.11.04.22.09.33.14.4.19.8.4,1.17.64.12.09.19.13.25.18.19.15.36.3.54.47.22.21.45.44.72.59.72.4,1.61.15,2.02-.55.54-.91-.14-1.84-.82-2.42Z"/>
        <path class="cls-2" d="M122.8,363.93c-1.01-1.47-2.24-2.72-3.73-3.71-.73-.49-1.48-.87-2.31-1.16-.86-.29-1.61-.37-2.51-.38-1.01-.02-1.17,1.39-.38,1.83.61.34,1.21.73,1.8,1.11.56.36,1.05.67,1.57,1.09,1.11.91,2.04,1.85,2.81,3,1.47,2.2,2.26,4.93,1.95,7.5-.11.88.36,1.75,1.28,1.94.82.17,1.82-.4,1.94-1.28.47-3.5-.39-7.02-2.4-9.92Z"/>
        <path class="cls-2" d="M179.56,288.72c-.74,1.81-1.47,3.63-2.22,5.44-1.53,3.76-7.74,20.97-9.27,24.72-.12.29-.14.57-.09.83-.85.83-.31,2.33.88,2.5-.24.14-.45.29-.76.37-.96.24-2.01.27-2.99.39-2.22.27-4.43.53-6.66.8-2.22.27-4.43.51-6.66.8-1.1.14-2.22.3-3.32.46-.14.02-.29.03-.43.06-1.85-1.55-3.75-3.06-5.69-4.5-4.69-3.48-9.68-6.56-15.21-8.49,1.72-4.04,2.36-8.7,3.87-12.72.93-2.46,2.11-4.9,3.83-6.91,1.84-2.15,4.14-3.48,6.88-4.15,3.17-.76,6.51-.94,9.73-1.31,3.55-.42,7.1-.83,10.65-1.26,3.55-.41,7.1-.83,10.65-1.25,1.61-.19,3.22-.45,4.83-.56.85-.06,2.17-.15,2.69.7.68,1.14-.29,2.99-.72,4.05Z"/>
        <path class="cls-2" d="M197.87,367.94c-2.12-.29-4.27-.54-6.39-.94-1.32-1.12-2.64-2.26-3.95-3.4-6.88-5.92-13.75-11.84-20.63-17.76l-15.48-13.33c-4.42-3.81-8.81-7.67-13.61-10.98-3.83-2.65-7.98-4.97-12.42-6.42-.8-.26-1.62-.5-2.44-.7-.06-.02-.13-.03-.19-.05-5.93-1.43-12.18-1.17-18,.63-19.15,5.92-29.92,25.49-48.56,32.33-1.24.46-2.19-1.5-.99-2.11,10.06-5.15,18.21-12.99,26.76-20.21,7.88-6.64,16.47-12.67,26.84-14.47.89-.15,1.79-.27,2.69-.35.88-.09,1.77-.14,2.65-.15,1.23-.03,2.46,0,3.69.11,1.37.1,2.71.29,4.06.56.71.13,1.41.29,2.1.46,1.04.26,2.06.57,3.08.92,5.6,1.96,10.59,5.03,15.28,8.51,1.94,1.44,3.83,2.95,5.69,4.5,1.03.85,2.05,1.71,3.06,2.58,1.79,1.53,3.56,3.08,5.35,4.63,5.22,4.48,10.43,8.97,15.65,13.47,7.01,6.02,14.01,12.06,21.02,18.08,1.58,1.37,3.17,2.73,4.74,4.09Z"/>
        <path class="cls-2" d="M164.91,377.06c-3.97-2.16-7.9-4.37-11.81-6.64-1.04-.6-2.07-1.2-3.1-1.81-1.23-.72-2.45-1.44-3.67-2.17-4.63-2.76-9.24-5.56-13.82-8.42-3.38-2.1-6.73-4.23-10.05-6.42-2.03-1.34-4.1-2.65-6.07-4.08-.83-.59-1.65-1.21-2.44-1.87-.4-.33-.79-.67-1.17-1.01-1.09-.99.16-2.68,1.44-2.07.77.36,1.53.75,2.27,1.16.62.35,1.25.7,1.86,1.07,2.51,1.52,4.95,3.18,7.42,4.74,8.27,5.22,16.59,10.34,24.99,15.33,1.24.73,2.49,1.47,3.73,2.21,3.98,2.33,7.97,4.64,11.98,6.93,1.91,1.09.39,4.12-1.56,3.06Z"/>
        <path class="cls-2" d="M184.66,359.03c-.37-.57-1.26-.99-1.92-.69-.96.44-1.75,1.15-2.57,1.82-.82.67-1.64,1.35-2.44,2.04-1.54,1.31-3.04,2.67-4.49,4.08-1.41,1.38-2.79,2.79-4.12,4.24-1.38,1.5-3.05,3.13-3.72,5.09-.39,1.14,1.1,1.81,1.95,1.34,1.63-.89,2.91-2.7,4.17-4.03,1.35-1.44,2.74-2.84,4.17-4.19,1.39-1.32,2.81-2.62,4.26-3.88.69-.6,1.39-1.18,2.09-1.76.79-.64,1.79-1.24,2.43-2.03.47-.58.59-1.38.17-2.03Z"/>
        <path class="cls-2" d="M223.38,381.04c-1.05-.22-2.12.04-3.17.17-1.19.15-2.37.34-3.55.54-2.1.37-4.19.8-6.28,1.25-4.3.93-8.58,1.96-12.95,2.55-3.8.52-7.95,1.01-10.76-2.14-2.23-2.51-3.2-5.87-4.98-8.67-1.86-2.92-5.47-6.77-9.34-5.22-.92.37-.86,1.63.11,1.89,1.55.42,3,.99,4.23,2.06,1.24,1.08,2.18,2.45,2.97,3.88,1.64,2.98,2.77,6.24,5.2,8.71,2.95,2.99,7.01,3.29,10.97,2.86,4.38-.47,8.69-1.41,12.98-2.36,2.41-.53,4.82-1.07,7.24-1.51,1.18-.22,2.36-.41,3.55-.57,1.27-.18,2.75-.09,3.94-.55,1.35-.52,1.35-2.56-.16-2.88Z"/>
        <path class="cls-2" d="M189.86,364.24c-.05,0-.05.08,0,.08s.05-.08,0-.08Z"/>
        <path class="cls-2" d="M231.26,377.43c-1.03,2.82-3.98,5.05-6.95,5.83-.49.13-.98.22-1.46.27-1.42.14-1.98-1.61-1.15-2.53.07-.08.16-.17.26-.24,1.47-1,3.26-1.33,4.66-2.47,1.08-.88,2.01-2.34,1.54-3.77-.95-2.92-5.06-3.15-7.56-3.5-3.67-.5-7.33-.99-10.99-1.49-3.73-.51-7.47-1-11.2-1.53-.18-.03-.35-.05-.54-.08-2.12-.29-4.27-.54-6.39-.94-1.32-1.12-2.64-2.26-3.95-3.4,1.85-.06,3.72.05,5.6.24,2.97.3,5.95.83,8.86,1.23l19.29,2.64c1.89.25,3.78.51,5.57,1.23,3.36,1.37,5.74,4.85,4.41,8.49Z"/>
        <path class="cls-2" d="M218.22,368.78c-2.16,2.09-3.37,5.23-3.37,8.24-2.56.89-5.22,1.61-7.83,2.29-3,.77-6.06,1.37-9.15,1.61-2.75.21-5.53.09-8.26-.38-2.74-.48-5.26-1.68-7.96-2.22-.71-.14-1.05.71-.61,1.19,1.95,2.12,5.16,2.97,7.88,3.5,2.87.56,5.82.65,8.73.47,3.17-.2,6.3-.78,9.38-1.53,3.23-.78,6.36-1.9,9.57-2.74.59-.15.9-.76.9-1.32.02-2.78.99-5.11,2.79-7.2,1.19-1.38-.78-3.14-2.07-1.89Z"/>
        <path class="cls-2" d="M195.31,366.32c-.57-.2-1.2.05-1.48.59-.45.85-.75,1.76-1.06,2.67l-.41,1.22c-.21.61-.46,1.34,0,1.92.36.45.82.64,1.39.5.82-.21,1.04-1.08,1.27-1.77.13-.41.27-.81.4-1.22.27-.83.54-1.65.69-2.51.1-.6-.21-1.18-.79-1.38Z"/>
        <path class="cls-2" d="M202.04,366.9c-.58-.2-1.3.03-1.56.62-.38.82-.76,1.65-1.09,2.49-.16.41-.32.81-.49,1.22-.23.57-.57,1.24-.49,1.87.08.55.36,1,.91,1.19.55.19,1.02,0,1.44-.35.41-.35.58-.99.76-1.48.15-.41.3-.83.44-1.24.34-.94.63-1.89.92-2.85.18-.61-.29-1.27-.84-1.46Z"/>
        <path class="cls-2" d="M187.65,363.3c.59-.89-.84-1.84-1.53-1.06-2.89,3.31-3.21,7.99-1.39,11.86l-.73.54c-.68.5-1.24.86-1.5,1.7-.24.77.54,1.47,1.25,1.45.77-.03,1.24-.49,1.81-.95.52-.41,1.03-.83,1.55-1.24.53-.42.84-1.19.39-1.81-2.2-3.06-1.9-7.41.15-10.48Z"/>
        <path class="cls-2" d="M120.13,369.67c-1.15-.76-2.56-1.05-3.88-1.39-1.22-.32-2.44-.64-3.65-.95.38-1.86.96-3.65,1.76-5.38.75-1.62-1.72-2.89-2.48-1.26-1.08,2.33-1.81,4.81-2.15,7.36-.1.74.3,1.41,1.05,1.59,2.32.55,4.73.93,7,1.66.68.22,1.5.57,1.81,1.26.26.58.13,1.23-.13,1.78-.24.5.13,1.28.77,1.18,1.31-.21,1.97-1.37,1.89-2.66-.08-1.35-.89-2.45-1.99-3.18Z"/>
        <path class="cls-2" d="M186.61,343.9c-.08-.62-.61-1.29-1.33-1.18-1.27.2-1.96,1.46-2.76,2.36-.69.77-1.42,1.51-2.18,2.22-.19.17-.37.34-.56.51-.09.08-.19.17-.29.25,0,0-.29.24-.2.17-.07.06-.39.32-.56.45-.2.16-.4.31-.6.46-1,.75-1.91,1.29-2.59,2.32-.46.7.27,1.64,1.03,1.58,1.16-.09,2.2-.79,3.13-1.45.95-.68,1.85-1.41,2.73-2.18.8-.7,1.55-1.46,2.26-2.25.35-.4.7-.8,1.03-1.21.45-.56.99-1.28.89-2.05Z"/>
        <path class="cls-2" d="M135.49,289.09c-.3-.32-.6-.66-.88-.99-1.04-1.21-1.99-2.52-2.99-3.75-1.28-1.57-2.58-3.12-3.88-4.66-2.59-3.05-5.23-6.04-7.93-9-2.38-2.61-4.84-5.34-7.9-7.19-1.51-.91-3.12-1.58-4.86-1.87-.54-.09-1.07-.13-1.58-.12-.96.03-1.9.19-2.87.3-.07,0-.14.02-.2.03-.15.02-.3.03-.45.05-.33.03-.61-.05-.85-.2-.66-.44-.85-1.47-.35-2.12.09-.12.21-.23.35-.31.06-.04.12-.08.19-.1,3.15-1.87,7.81-.76,10.89.72,3.54,1.69,6.37,4.52,9.01,7.36,2.92,3.15,5.78,6.38,8.58,9.66,1.42,1.65,2.82,3.32,4.2,5,1.19,1.44,2.49,2.87,3.58,4.39.17.23.33.46.48.69,1.02,1.54-1.22,3.51-2.52,2.12Z"/>
        <path class="cls-2" d="M115.48,297.58c-.09.48-.24.93-.47,1.31-.75,1.24-2.4.81-2.63-.56-.03-.12-.03-.23-.03-.34-.04-.72.16-1.46.19-2.17.04-.78.02-1.56-.04-2.33-.13-1.58-.44-3.13-.84-4.65-.82-3.1-1.74-6.32-2.93-9.3-1.28-3.19-2.44-6.37-3.56-9.61-.92-2.68-1.92-5.35-2.57-8.11-.12-.46-.22-.93-.3-1.4-.23-1.21,1.73-1.8,2.29-.74.31.6.61,1.21.88,1.84,1.15,2.6,2.01,5.35,2.95,8.02.57,1.64,1.17,3.28,1.72,4.94.55,1.65.93,3.36,1.48,5.01,1.11,3.26,2.48,6.4,3.25,9.77.35,1.52.62,3.08.71,4.65.06,1.07.15,2.49-.09,3.68Z"/>
        <path class="cls-2" d="M83.81,264.75c.04,2.36-.21,4.74-.72,7.05-.69,3.1-1.85,6.13-3.42,8.89-.78,1.35-1.64,2.64-2.6,3.86-.96,1.23-2.1,2.71-3.42,3.57-.21.14-.42.21-.62.24-1.2.18-2.06-1.38-1.25-2.45.56-.73,1.24-1.37,1.88-2.05.35-.35.69-.71.99-1.09.83-1.04,1.58-2.15,2.26-3.3,1.36-2.34,2.38-4.85,3.04-7.48.67-2.68.95-5.44.83-8.2-.11-2.38-.32-4.97-2.16-6.7-.09-.09-.17-.19-.22-.31-.08-.16-.13-.35-.13-.54,0-.73.56-1.48,1.39-1.21.36.12.68.27.98.46.96.59,1.61,1.47,2.05,2.5.07.17.13.34.2.51.44,1.22.62,2.58.76,3.82.08.81.13,1.63.15,2.44Z"/>
        <path class="cls-2" d="M88.75,317.32c-.09-.19-.17-.38-.25-.58-.17-.43-.32-.86-.44-1.3-.26-.9-.41-1.82-.47-2.76-.06-.99,0-1.95.09-2.94.08-.95.16-1.88.44-2.79.28-.93-1.2-1.43-1.61-.56-.46.97-.91,1.94-1.19,2.99-.28,1.07-.31,2.25-.29,3.35.03,1.09.19,2.18.43,3.25.12.51.26,1.01.44,1.51.2.59.4,1.33.92,1.7.38.28.79.43,1.26.27.39-.13.83-.52.86-.96.03-.46.02-.75-.18-1.18Z"/>
        <path class="cls-1" d="M112.53,295.82c-.03.72-.24,1.46-.19,2.17-1.41.28-2.8.67-4.14,1.09-4.49,1.41-8.91,2.85-13.5,3.86-4.6,1.02-9.21,1.85-13.9,2.38-2.63.3-5.28.49-7.92.65-.53.03-1.06.06-1.59.08.19-.95.11-2.06.19-2.94.1-1.3.2-2.59.31-3.88.23-2.65.51-5.3.84-7.95.13-.98.25-1.95.39-2.92.2-.03.41-.1.62-.24,1.32-.86,2.46-2.34,3.42-3.57.96-1.22,1.83-2.51,2.6-3.86,1.58-2.76,2.73-5.79,3.42-8.89.51-2.31.76-4.69.72-7.05.1.31.21.62.32.93.87,2.36,2.25,4.66,4.26,6.22,4.15,3.23,10.56,2.8,13.03-2.27.66-1.35.96-2.81,1.06-4.3.07-1.12.07-2.33-.08-3.49.07,0,.13-.02.2-.03.65,2.76,1.65,5.44,2.57,8.11,1.11,3.24,2.28,6.43,3.56,9.61,1.2,2.97,2.11,6.19,2.93,9.3.4,1.53.72,3.08.84,4.65.06.78.08,1.56.04,2.33Z"/>
        <path class="cls-2" d="M102.47,265.33c-.1,1.49-.4,2.95-1.06,4.3-2.47,5.07-8.87,5.5-13.03,2.27-2.01-1.56-3.39-3.86-4.26-6.22-.11-.3-.22-.62-.32-.93-.35-1.12-.61-2.28-.78-3.44-.1-.74-.17-1.48-.17-2.23,0-.2.02-.4.03-.58.02-.16.03-.31.06-.46.05-.35.11-.69.17-1.06.08-.52.62-.62.98-.4.12.08.23.19.29.33.33.8.67,1.52.88,2.38.18.72.32,1.46.47,2.18.32,1.46.72,2.92,1.35,4.26,1.03,2.19,2.76,4.33,5.12,5.12,2.26.75,4.9.24,6.24-1.84.7-1.09,1.03-2.39,1.11-3.67.08-1.07-.08-2.12-.19-3.17-.06-.54-.11-1.08-.12-1.62,0-.86.69-1.41,1.39-1.47.21-.03.42,0,.62.08.35.13.63.4.77.87.17.57.29,1.19.35,1.81.15,1.16.15,2.37.08,3.49Z"/>
        <path class="cls-2" d="M85.32,323.34c-.68-.18-1.42-.18-2.12-.32-.7-.14-1.38-.33-2.06-.55-.07-.03-.14-.05-.21-.08-.26-.1-.53-.2-.79-.29.42.14-.14-.06-.21-.09-.17-.07-.33-.13-.5-.2-.22-.1-.45-.18-.67-.26-.11-.04-.65-.23-.57-.21-.7-.16-1.57.19-1.75.94-.29,1.23.88,1.94,1.79,2.47.69.4,1.4.7,2.15.96.72.25,1.46.47,2.21.64.78.17,1.69.38,2.49.3.83-.09,1.5-.7,1.56-1.55.06-.85-.5-1.54-1.32-1.76Z"/>
        <path class="cls-2" d="M101.29,259.74c-.18-.05-.36-.09-.55-.13-.07-.42-.15-.85-.18-1.3-.05-.76-.05-1.57.03-2.25.18-1.64.6-3.07,1.29-4.49.34-.71.07-1.6-.64-1.97-.7-.36-1.61-.07-1.97.64-.83,1.66-1.36,3.47-1.53,5.32-.09.94-.12,1.88-.04,2.83.08.94.18,1.97.53,2.85.29.74.98,1.07,1.74.89.57-.13,1.11-.45,1.63-.71.77-.39.39-1.49-.31-1.67Z"/>
        <path class="cls-2" d="M120.52,230.15c-.25-6.32-2.57-12.57-6.94-17.2-3.99-4.23-9.68-7.03-15.47-7.58-2.93-.28-5.88-.05-8.7.84-3.16,1-5.95,2.82-8.92,4.23-1.39.66-2.88,1.26-4.4,1.51-1.69.28-3.35.06-5-.34-3.29-.79-6.53-2.03-9.98-1.48-5.8.92-9.89,5.38-14.48,8.62-2.55,1.8-5.25,3.03-8.39,3.38-3.58.39-7.21.08-10.78.63-11.52,1.78-21.96,11.53-23.82,23.2-.23,1.45-.31,2.93-.29,4.4.02,1.61,2.74,1.87,2.87.21.82-10.6,8-20.37,18.25-23.61,6.12-1.93,12.81-.42,18.85-2.7,5.04-1.9,8.69-5.98,13.15-8.83,2.09-1.34,4.38-2.29,6.9-2.22,3.33.09,6.44,1.68,9.75,1.97,6.47.56,11.19-3.94,16.96-5.91,10.58-3.62,22.28,3.14,25.98,13.3,2.02,5.56,2,11.78.19,17.4-1.53,4.75-5.36,11.45-11.32,10.46-1.23-.2-2.3-.75-3.18-1.64-1.1-1.11-3.15.56-2.13,1.79,1.93,2.33,4.88,3.29,7.86,2.84,3.24-.49,5.91-2.46,7.82-5.07,3.76-5.14,5.45-11.9,5.2-18.21Z"/>
        <path class="cls-2" d="M118.16,226.42c.8-.94-.31-2.2-1.36-1.62-2.37,1.31-3.69,4.16-4.07,6.75-.39,2.71.13,5.53,1.69,7.81,1,1.46,3.33-.04,2.31-1.48-1.2-1.7-1.69-3.81-1.4-5.88.31-2.2,1.4-3.92,2.82-5.58Z"/>
        <path class="cls-2" d="M114.06,215.46c-2.21-.43-4.45.43-6.42,1.37-1.99.95-3.84,2.13-5.65,3.37-3.53,2.43-7.19,5.24-11.56,5.87-1.82.26-1.68,3.14.17,2.88,4.52-.63,8.32-3.06,12.02-5.58,1.82-1.24,3.63-2.52,5.56-3.58,1.92-1.06,4.01-1.58,5.99-2.46.83-.37.92-1.67-.1-1.87Z"/>
        <path class="cls-2" d="M85.3,232.04c0-.05.02-.18.02-.19.04-.34.1-.68.17-1.01.03-.15.07-.29.11-.43.02-.06.11-.33.12-.39.1-.26.21-.51.34-.75.08-.15.17-.3.26-.45.05-.08.1-.14.14-.19.09-.11.19-.21.29-.32.26-.21.4-.29.53-.38.06-.02.12-.05.18-.06.06-.02.12-.03.18-.05.19-.01.33-.02.48-.03.05,0,.1,0,.16,0,.17.03.33.05.49.09.06.01.11.03.17.04.14.05.25.11.36.17.05.03.09.06.14.09.1.13.2.31.21.32.43.87,2.01.37,1.84-.6-.15-.82-.46-1.6-1.12-2.16-.74-.63-1.64-.93-2.6-.93-1.96,0-3.62,1.36-4.5,3.04-1.74,3.32-1.62,8.48,1.94,10.54,1.81,1.05,4.7,1.07,5.82-.97.52-.95-.52-2.29-1.58-1.85-.25.1-.5.19-.75.28-.12.05-.24.09-.36.13-.04.01-.09.03-.14.04-.18,0-.32.02-.46.02-.06,0-.11-.01-.17-.03-.12-.03-.26-.08-.39-.09-.08-.03-.16-.06-.24-.1-.12-.06-.24-.12-.36-.19-.03-.02-.06-.04-.1-.06-.1-.11-.24-.22-.35-.32-.06-.08-.13-.17-.15-.18-.35-.5-.54-.97-.64-1.53-.02-.14-.07-.63-.08-.91,0-.16,0-.32,0-.48,0,0,0-.07,0-.12Z"/>
        <path class="cls-2" d="M91.39,232.63c-.03-.22-.1-.42-.22-.62-.07-.12-.17-.23-.26-.34-.29-.35-.59-.67-.97-.92-.54-.36-1.16-.61-1.79-.75-.41-.09-.83.16-.97.55-.13.38.02.86.41,1.03.21.09.41.21.61.34.18.13.35.27.51.42.17.16.33.32.49.5.07.09.13.17.2.26.11.16.23.3.4.41.09.06.19.12.28.18.26.17.66.11.9-.05.28-.18.43-.49.42-.82,0-.07,0-.14-.01-.21Z"/>
        <path class="cls-2" d="M108.5,225.51c.1-.94-.85-1.85-1.51-2.38-.7-.56-1.46-.98-2.31-1.27-.83-.29-1.69-.42-2.58-.39-.94.03-1.73.35-2.5.86-.37.25-.55.73-.41,1.16.13.39.58.77,1.02.69.13-.02.26-.03.39-.04.05,0,.3,0,.33,0,.08,0,.16-.01.24-.02.33-.02.66-.02.99-.01.06,0,.39.03.05,0,.07,0,.13.01.2.02.16.02.33.05.49.08.16.03.32.07.48.12.1.03.19.05.29.08.03,0,.13.04.17.06.13.05.2.09.28.12.15.07.3.14.45.22.14.08.27.16.4.24.07.06.14.11.2.16.13.1.25.21.37.33.06.06.12.12.17.18.03.03.23.24.08.08-.21-.21.16.2.24.29.05.06.11.12.17.18.15.14.37.28.59.36.14.09.28.16.46.21.58.15,1.08-.29,1.23-.81.05-.17.04-.33.01-.5Z"/>
        <path class="cls-2" d="M107.41,232.09c-.2-.31-.62-.33-.94-.21-.12.04-.23.1-.34.14-.08.03-.15.06-.23.1-.33.13-.58.24-.83.33-.11.04-.23.08-.34.11-.29.05-.41.05-.53.06-.05,0-.11,0-.16,0-.23-.03-.36-.05-.49-.08-.06-.01-.11-.03-.17-.05-.19-.09-.33-.15-.45-.22-.03-.02-.06-.03-.09-.05-.19-.14-.29-.22-.39-.31-.04-.04-.08-.08-.12-.12-.23-.3-.41-.53-.57-.77-.24-.37-.74-.52-1.14-.32-.43.21-.56.63-.47,1.08.22,1.14,1.19,2.09,2.21,2.58,1.09.53,2.37.59,3.5.13.64-.26,1.18-.69,1.49-1.31.17-.32.27-.73.06-1.06Z"/>
        <path class="cls-2" d="M113.74,243.41c-.24-.39-.62-.56-1.06-.67-.13-.03-.26-.04-.39-.04-.13,0-.25-.02-.39-.01-.19,0-.38,0-.57,0-.14-.01-.23-.03-.31-.04-.17-.03-.33-.03-.5-.05.38.03.02,0-.05-.01-.18-.02-.36-.04-.54-.07-.35-.05-.71-.17-1.05-.27-.58-.18-1.12.62-.75,1.1.6.78,1.45,1.44,2.4,1.72.39.11.78.19,1.19.22.38.03.73.04,1.1-.08.17-.05.35-.15.5-.24.24-.15.38-.36.48-.61.17-.33.14-.68-.06-.96Z"/>
        <path class="cls-2" d="M91.32,237.08c-.46-.37-1.01-.32-1.44.06-.66.59-.69,1.83-.84,2.66-.17.9-.38,1.8-.65,2.68-.49,1.61-1.29,3.2-2.26,4.57-2.04,2.87-4.93,5.07-8.33,6.01-2.02.56-1.01,3.71,1.01,3.1,3.99-1.21,7.53-3.78,9.93-7.19,1.25-1.76,2.18-3.65,2.79-5.73.3-1.03.47-2.04.52-3.11.05-.96.09-2.4-.73-3.06Z"/>
        <path class="cls-2" d="M58.24,264.64c-7.37-.2-9.49,7.69-12.69,12.73-.75,1.19-1.68,2.34-2.83,3.17-1.3.94-2.78,1.28-4.32,1.61-1.55.33-3.1.72-4.44,1.6-1.21.8-2.58,2.14-2.45,3.7.1,1.29,1.66,1.81,2.55.91.45-.46.66-1.06,1.12-1.51.43-.41.96-.72,1.5-.95,1.31-.55,2.75-.72,4.11-1.08,2.91-.77,5.14-2.6,6.84-5.05,1.73-2.49,2.79-5.33,4.35-7.92,1.37-2.28,3.6-4.83,6.38-5.24,1.26-.19,1.17-1.94-.11-1.97Z"/>
        <path class="cls-2" d="M80.33,216.59c-1.6,1.94-4.73,2.46-7.11,2.44-3.37-.03-6.61-1.24-9.99-1.27-5.8-.05-9.77,3.92-13.56,7.77-1.79,1.81-3.62,3.62-5.87,4.87-2.56,1.42-5.54,1.82-8.4,2.11-5.83.58-11.91.97-16.13,5.57-2.09,2.27-3.39,5.11-4.31,8.02-.48,1.51-.84,3.06-1.15,4.62-.31,1.6-.62,3.11-.32,4.73.2,1.06,1.75,1.01,2.18.17.65-1.27.77-2.61,1.02-4,.24-1.36.53-2.72.9-4.06.67-2.44,1.64-4.91,3.23-6.9,3.79-4.78,9.84-4.83,15.41-5.45,2.95-.33,5.89-.87,8.56-2.23,2.31-1.18,4.26-2.97,6.08-4.79,3.7-3.69,7.21-7.93,12.91-7.75,3.56.11,7.03,1.33,10.62.98,2.99-.29,5.41-1.51,6.76-4.26.24-.5-.45-1.02-.82-.57Z"/>
        <path class="cls-2" d="M57.02,227.46c-2.48,3.1-5.02,6.36-8.02,8.99-3.08,2.71-6.59,4.04-10.6,4.67-3.92.62-8.03,1.14-11.08,3.94-3.01,2.77-3.98,6.92-5.09,10.69-1.06,3.61-2.81,8.04-6.92,8.92-1.93.41-.98,3.37.95,2.93,3.81-.87,6.25-4.27,7.63-7.72,1.48-3.69,1.85-7.94,4.14-11.28,2.39-3.48,6.67-3.99,10.52-4.62,2.04-.33,4.09-.7,6.02-1.49,1.89-.77,3.6-1.86,5.17-3.16,3.66-3.05,6.18-6.89,8.6-10.94.47-.79-.76-1.65-1.34-.93Z"/>
        <path class="cls-2" d="M55.83,238.35c-3.31,5.67-8.82,10.34-15.01,12.55-3.25,1.16-6.78,1.67-9.41,4.11-2.52,2.34-3.22,5.88-4.12,9.05-.47,1.67-1.11,3.29-2.26,4.61-.52.59-1.11,1.15-1.83,1.49-.32.15-.69.25-1.03.36-.41.12-.86.36-1.27.42-.92.14-1.31,1.38-.39,1.85.73.37,1.35.68,2.2.62.89-.06,1.76-.44,2.51-.91,1.41-.87,2.5-2.19,3.35-3.59,1.82-3.02,1.92-6.7,3.54-9.8,1.8-3.46,5.65-4.02,9.01-5.17,3.37-1.15,6.47-2.94,9.19-5.23,3.1-2.61,5.44-5.85,7.13-9.52.49-1.07-1.03-1.83-1.62-.83Z"/>
        <path class="cls-2" d="M60.02,253.27c-.71,1.16-1.4,2.36-2.32,3.36-.95,1.04-2.1,1.86-3.31,2.56-2.53,1.46-5.32,2.29-8.09,3.16-2.9.92-5.87,1.93-8.41,3.64-2.74,1.84-4.3,4.35-5.7,7.28-.76,1.6-1.55,3.29-3.02,4.37-1.15.84-2.91,1.42-4.27.73-.91-.46-1.83.8-1.04,1.5,2.56,2.24,6.1.97,8.21-1.32,2.43-2.64,3.07-6.41,5.66-8.94,2.34-2.29,5.59-3.44,8.64-4.43,3.14-1.03,6.3-1.94,9.2-3.58,2.98-1.68,6.07-4.31,6.31-7.94.07-1.07-1.42-1.13-1.87-.39Z"/>
        <path class="cls-2" d="M169.01,228.34c-.67,2.07-1.34,4.14-2.01,6.21-.37,1.14-.69,2.33-1.1,3.47-.13.38-.27.76-.42,1.13-.2.51-.43.99-.68,1.45-.18.32-.43.5-.7.55-.02-.38-.07-.74-.17-1.08-.16-.52-.53-.8-1.02-.92.05-.3.11-.61.19-.91.14-.61.32-1.2.51-1.8.28-.88.57-1.75.84-2.62.46-1.48.92-2.97,1.38-4.47-4.71-.2-9.46-.09-14.14.32-1.81.16-3.75.13-4.66,1.96-.96,1.94-1.39,4.22-2.01,6.29-1.38,4.58-2.77,9.16-4.15,13.74-.68,2.26-1.37,4.51-2.05,6.77-.2.69-.94,2.15-.29,2.72.55.5,1.79.53,2.46.63,2.28.37,4.58.52,6.88.48,1.13-.02,2.27-.05,3.4-.11.09,0,.18,0,.27-.02,1.15-.08,2.19-.26,3.35-.14.29.02.53.19.7.41.39.55.35,1.46-.29,1.78-1.38.68-2.87.83-4.39,1.04-1.55.22-3.11.25-4.67.22-.3,0-.62-.02-.94-.03-.87-.03-1.76-.07-2.65-.14-1.69-.13-3.37-.4-4.88-.97-2.44-.92-3.03-3.19-2.36-5.54.73-2.6,1.55-5.17,2.33-7.74,1.59-5.31,3.19-10.62,4.79-15.93.65-2.16,1.1-4.73,2.65-6.45,1.63-1.8,4.08-1.95,6.35-2.12,5.49-.42,10.94-.29,16.43.19.68.06,1.28.98,1.07,1.63Z"/>
        <path class="cls-2" d="M148.47,276.75c-.02-2.21-.19-4.96-1.26-6.93-.55-1.01-.84-2.19-1.32-3.25-.52-1.15-1.12-2-2.03-2.86-.66-.64-1.65.11-1.43.92.31,1.14.71,2.17,1.17,3.27.21.51.41,1.03.58,1.56.19.58.2,1.04.26,1.63.11,1.16.46,2.29.58,3.46.12,1.16.16,2.34.13,3.51-.14,4.91-1.75,9.64-.48,14.54.51,1.96,3.37.96,2.95-.96-1.08-4.9.89-9.95.85-14.88Z"/>
        <path class="cls-2" d="M165.82,229.35c-.46,1.49-.93,2.98-1.38,4.47-.45,1.46-.99,2.92-1.35,4.42-.37-.09-.75-.15-1.13-.19-4.93-.47-8.76,2.89-12.09,6.06-.57.54-.48,1.2-.08,1.66-.28.15-.56.32-.8.52-.83.67-1.41,1.58-1.42,2.67,0,1,.52,1.99,1.28,2.63.15.13.3.24.46.34-.45.66-.75,1.42-.83,2.28-.13,1.35.31,2.7,1.32,3.63.13.12.26.23.41.32-.73,1.41-.26,3.04,1.03,3.98-1.13.06-2.27.08-3.4.11-2.31.04-4.61-.11-6.88-.48-.67-.1-1.91-.13-2.46-.63-.65-.57.09-2.03.29-2.72.68-2.26,1.37-4.51,2.05-6.77,1.38-4.58,2.77-9.16,4.15-13.74.62-2.06,1.05-4.35,2.01-6.29.91-1.84,2.85-1.8,4.66-1.96,4.68-.41,9.43-.52,14.14-.32Z"/>
        <path class="cls-2" d="M164.85,285.17c.47,1.25-1.42,2.13-2.08.99-2.32-3.98-2.95-8.79-2.89-13.33.11-8.9,3.02-17.41,3.95-26.21.12-1.15.19-2.28.23-3.43.02-.64.08-1.36.04-2.05-.02-.38-.07-.74-.17-1.08-.16-.52-.53-.8-1.02-.92-1.1-.3-2.76.18-3.59.39-1.99.48-3.88,1.21-5.61,2.29-1.36.86-3.25,2.08-3.21,3.9.03,1.29-1.35,1.74-2.18,1.24-.34-.19-.58-.56-.62-1.07-.33-5.1,6.2-8.19,10.31-9.2,1.73-.42,3.81-.78,5.59-.26.24.07.46.15.68.25.72.32,1.25.78,1.62,1.33.77,1.1.92,2.56.93,4.01.02,5.15-.94,10.21-1.97,15.24-.97,4.73-2.01,9.48-2.21,14.31-.19,4.74.54,9.17,2.2,13.59Z"/>
        <path class="cls-2" d="M160.55,243.16c-.81-.04-1.7.19-2.51.32-.84.14-1.68.3-2.51.47-1.51.32-3.05.73-4.49,1.3-2.38.94-5.38,3.38-4.27,6.29.22.57,1.19.63,1.28-.07.13-1.1.56-2.15,1.38-2.91.88-.82,2.08-1.26,3.21-1.61,1.3-.39,2.62-.68,3.93-1,.7-.17,1.4-.32,2.1-.47.73-.15,1.53-.19,2.23-.44,1.09-.38.71-1.83-.35-1.89Z"/>
        <path class="cls-2" d="M159.25,247.59c-2.52.37-5.15.7-7.48,1.77-1.03.47-2.01,1.02-2.88,1.74-.45.37-.92.76-1.29,1.22-.42.53-.58,1.09-.77,1.71-.27.84.86,1.15,1.37.7.36-.31.8-.58,1.17-.92.33-.31.65-.62,1.02-.89.77-.56,1.61-1.01,2.49-1.36,2.09-.84,4.3-1.19,6.52-1.52.65-.1,1.19-.59,1.15-1.29-.04-.62-.64-1.25-1.29-1.15Z"/>
        <path class="cls-2" d="M159.31,254.86c-.64-.26-1.23-.16-1.89-.06-.59.09-1.18.2-1.76.33-1.07.24-2.13.58-3.15,1-1.03.43-2.04.92-2.97,1.54-.95.64-1.88,1.52-1.68,2.78.07.44.33.82.79.91.4.08.91-.12,1.08-.52.26-.63.93-1.02,1.57-1.37.8-.44,1.61-.84,2.46-1.17.86-.34,1.75-.61,2.66-.82.44-.1.87-.18,1.31-.24.58-.08,1.17-.07,1.68-.38.7-.43.72-1.67-.1-2Z"/>
        <path class="cls-2" d="M157.5,262.67c-.15-.2-.28-.34-.51-.45-.04-.02-.09-.04-.14-.06-.08-.04-.16-.07-.24-.1-.26-.1-.53-.2-.81-.26-.26-.06-.54-.04-.8-.01-.25.03-.51.07-.75.13-.07.03-.14.06-.2.1-.1.06-.18.14-.24.24-.11.16-.18.35-.16.55.02.15.06.29.14.42.11.19.31.29.51.36.2.08.33.13.45.19.08.04.15.08.23.12.1.05.21.08.32.12.11.04.21.08.32.13.22.1.44.27.68.29.2.02.39.03.59-.03.24-.08.44-.24.59-.45.12-.18.19-.36.2-.57.02-.23-.02-.51-.17-.71Z"/>
        <path class="cls-2" d="M152.46,264.21c.23-.4.06-.95-.31-1.2-.41-.27-.88-.2-1.24.13-1,.95-1.7,2.08-1.98,3.44-.27,1.34-.22,2.74.14,4.06.2.73.57,1.77,1.29,2.14.51.26,1.18.28,1.59-.18.46-.53.43-1.22.14-1.81-.04-.09-.07-.15-.07-.17-.05-.13-.1-.26-.15-.39-.11-.3-.21-.6-.28-.91-.01-.06-.03-.12-.04-.18-.02-.16-.05-.31-.06-.47-.03-.3-.04-.6-.03-.89,0-.04,0-.09,0-.13,0,.02.01-.14.02-.18.02-.18.05-.35.08-.53.06-.33.13-.66.22-.99.01-.06.03-.11.05-.17,0,0,.03-.11.05-.17.03-.08.1-.28.08-.23.04-.12.08-.25.12-.37.07-.23.19-.48.38-.79Z"/>
        <path class="cls-1" d="M214.69,212.06c-2.59,8.46-9.99,15.17-19.04,15.55-8.29.34-16.61-4.03-20.62-11.31-2.68,1.47-5.37,2.92-8.05,4.39-1.03.56-2.04-.41-1.63-1.47,1.31-3.32,2.51-6.67,3.93-9.94.12-.27.34-.42.57-.49-3.02-3.82-3.77-8.81-2.47-13.52,1.45-5.22,5.01-9.36,9.91-11.66,9.21-4.32,20.57-1.95,28.57,3.85,3.99,2.89,7.29,6.99,8.81,11.72,1.33,4.14,1.26,8.73,0,12.88Z"/>
        <path class="cls-2" d="M162.34,303.93c-.03.15-.07.31-.12.46-1.41,4.69-9.19,7.08-11.23,1.71-1.46-3.85,2.13-8.81,6.06-9,3.82-.17,6.08,3.31,5.29,6.82Z"/>
        <path class="cls-2" d="M50.54,373.12c-1.06-1.31-2.56-2.24-4.27-2.33-1.35-.07-2.54.56-3.3,1.5-.22-.46-.45-.91-.76-1.31-1.13-1.43-3.2-2.56-4.97-1.57-1.94,1.09-1.79,3.71-1.39,5.58.38,1.76,1.39,4.26,3.38,4.64.53.1,1.12-.33,1.05-.91-.17-1.45-1.2-2.65-1.59-4.05-.18-.65-.27-1.35-.24-2.02.01-.23.02-.53.16-.73,0,.01-.11-.05.1,0,.02,0,.2.05.35.12.24.11.41.25.61.44.36.35.57.83.79,1.28.65,1.36,1.31,2.7,2.73,3.39,1.36.66,2.59-1.12,1.5-2.17-.05-.11-.06-.14-.08-.1,0,0-.01-.33-.01-.32.03-.28.15-.55.32-.76.47-.61,1.29-.63,1.96-.37.93.36,1.56,1.12,2.04,1.96.56.99.73,2.17,1.38,3.11.68.99,2.26.5,2.22-.72-.06-1.59-1.01-3.45-2-4.67Z"/>
        <path class="cls-2" d="M73.83,378.18c-1.11-.06-2.21.3-3.07,1-.33.27-.62.58-.85.93-.47-.48-1.02-.87-1.64-1.14-1.64-.72-3.62-.69-5.08.43-1.2.92-.08,2.59,1.25,1.94.88-.43,1.87-.12,2.58.26.27.15.78.59.93.8.34.47.54,1.18,1.03,1.52.46.32,1,.45,1.51.13.18-.11.32-.29.42-.49.3-.43.31-.96.18-1.49.31-.2.59-.36.89-.51.49-.24,1.01-.36,1.46-.28.6.11.89.26,1.3.71-.1-.11.18.24.19.25,0,0,.15.28.17.29.15.32.2.68.34,1,.27.64.83,1.11,1.57,1.07.68-.04,1.3-.57,1.43-1.24.51-2.55-2.2-5.06-4.59-5.19Z"/>
        <path class="cls-2" d="M88.58,375.64c-.15-.7-.54-1.29-1-1.81-.46-.52-1.1-.82-1.77-1-.32-.09-.66-.11-.99-.1-.1,0-.2.02-.3.03-.28.05-.47.09-.69.19-.28.11-.55.22-.8.39-.41.27-.65.84-.47,1.32.18.47.63.83,1.16.79.07,0,.14,0,.21,0,.04,0,.07,0,.11.02.06.02.11.04.17.06.19.07.36.16.54.26.11.09.21.18.31.27.05.07.09.13.13.2.03.08.05.16.07.24.04.32.06.64.13.96-.06.41,0,.74.2,1.11.06.12.15.21.24.31-.34-.4-.07-.07.01.01.16.16.14.12.23.16.46.21.98.15,1.41-.1.28-.16.47-.45.64-.73.29-.32.46-.72.52-1.15.08-.52.04-.94-.06-1.44Z"/>
        <g>
          <path class="cls-2" d="M39.81,358.78c.09.08.14.12.14.11-.07-.06-.1-.09-.14-.11Z"/>
          <path class="cls-2" d="M42.01,356.68c-.87-.94-2.09-1.43-3.36-1.48-2.35-.1-4.37,1.97-4.57,4.25-.07.83.03,1.6.41,2.34.15.29.3.56.53.79.29.29.7.44,1.11.41.03,0,.07,0,.1-.01-.05.01.05,0,.1,0,.37-.02.64-.24.81-.53.06-.09.12-.19.13-.21.22-.39.16-.82.04-1.23-.01-.02-.03-.06-.03-.12,0-.04-.02-.08-.03-.11.02-.05,0-.18,0-.31,0-.07,0-.13,0-.2.01-.12.02-.19.03-.25.03-.18.07-.36.13-.54.07-.18.16-.35.26-.51.05-.06.09-.12.14-.17.03-.03.07-.07.1-.1.08-.06.16-.12.25-.17-.03.01-.06.02-.11.04.04-.01.08-.03.13-.05.09-.05.2-.08.13-.05.03-.01.07-.02.1-.03.15-.04.21-.03.16-.01.07,0,.14-.01.21-.01.22.04.33.07.45.11.2.08.39.17.58.28.11.06.15.11.16.12.1.09.19.18.28.27.04.06.08.11.12.17.03.05.07.11.1.16.05.08.06.14.06.16.03.06.05.13.07.19.05.19.02.14,0,.06,0,.07.02.14.02.19.04.72.72,1.37,1.45,1.29.35-.04.7-.17.93-.44.25-.3.33-.62.36-1.01.07-1.23-.52-2.38-1.33-3.26Z"/>
          <path class="cls-2" d="M40.45,359.5c.03.14.06.18.06.16-.02-.05-.04-.1-.05-.15,0,0,0,0,0-.01Z"/>
          <path class="cls-2" d="M38.4,358.41c.08,0,.13,0,.16-.01-.05,0-.1,0-.15.01,0,0,0,0,0,0Z"/>
          <path class="cls-2" d="M37.3,360.96c.02.06.02.02-.02-.11,0,.06.02.08.02.11Z"/>
          <path class="cls-2" d="M38.16,358.49c.06-.02.11-.04.13-.05-.09.03-.11.04-.13.05Z"/>
        </g>
        <path class="cls-2" d="M23.01,360.7c-.24-.79-.73-1.53-1.15-2.23-.4-.67-.81-1.33-1.25-1.98-1.44-2.17-3.91-6.33-7.08-4.52-1.3.74-2.02,2.42-1.82,3.88.25,1.8,1.43,3.09,2.69,4.3.39.37,1.03.37,1.43.02.37-.33.56-.98.22-1.41-.43-.54-.85-1.08-1.2-1.68-.28-.48-.53-.99-.56-1.49,0-.06,0-.13,0-.19.02-.13.05-.26.08-.39.03-.09.05-.14.05-.16.02-.05.05-.1.07-.16,0-.02.05-.09.08-.14.04-.05.11-.14.14-.16.01-.01.05-.05.08-.07.06-.03.11-.06.13-.07.08-.02.11-.03.14-.03.04.02.2.05.2.03.1.04.19.09.28.14.24.13.08.06.04.02.05.04.11.09.16.13.14.12.27.25.4.39.04.04.07.08.11.12.02.02.07.08.08.09.09.12.18.23.27.35.25.33.5.67.74,1.01.92,1.29,1.78,2.64,2.56,4.02.41.72.81,1.64,1.6,2.02.43.2.97.14,1.3-.22.41-.44.37-1.08.2-1.61Z"/>
        <path class="cls-2" d="M30.63,359.03c-.92-1.23-2.62-1.95-4.1-1.29-.09.04-.16.1-.24.15-.13-.18-.27-.36-.44-.53-.89-.93-2.25-1.41-3.52-1.15-2.42.51-2.85,4.15-.43,4.96.45.15.97-.23,1.11-.64.15-.44-.02-.98-.47-1.19-.14-.05-.19-.07-.11-.05-.03-.2-.03-.23-.04-.27,0,.05.05-.13.05-.19.02-.04.04-.08.04-.09.03-.03.06-.07.08-.1.13-.06.2-.08.24-.09.05,0,.17-.02.19-.02.17.02.24.03.32.05.05.01.11.04.14.05.06.02.11.05.16.08,0,0,.12.07.17.1.05.04.14.11.15.12.06.05.12.11.17.16.08.08.16.2.28.39.2.32.29.54.44.95.03.09.06.19.09.28.06.41.22.8.5,1.14.76.93,2.07.5,2.14-.7.03-.43-.11-.91-.28-1.36.03-.05.06-.08.01.02.11-.06.15-.08.18-.09.13-.03.21-.03.28-.03.13,0,.02,0,0,0,.11.02.23.04.34.08-.17-.06.16.09.2.11.11.07.17.12.23.18.14.13.33.41.41.62.11.29.17.59.27.89.12.36.11.14.12.37.01.33.22.69.48.87.4.28.94.23,1.28-.14.35-.38.29-.98.32-1.38.06-.77-.34-1.67-.79-2.28Z"/>
        <path class="cls-2" d="M33.61,355.42c-.1-.78-.26-1.58-.56-2.32-.57-1.4-1.6-2.66-3.04-3.21-1.48-.57-3.04-.34-4.21.76-.98.92-1.5,2.37-1.45,3.7.06,1.82,1.01,3.46,1.91,4.98.43.73,1.72.15,1.36-.65-.51-1.14-1.08-2.34-1.2-3.6-.05-.57-.05-.9.09-1.47.03-.11.06-.22.09-.32-.05.16.07-.16.09-.2.05-.1.1-.2.15-.29.04-.06.07-.13.11-.19.1-.12.18-.22.27-.31.03-.03.12-.11.14-.12.09-.06.18-.12.27-.18.08-.04.13-.06.18-.08.07-.02.14-.04.21-.06-.02,0-.13.02,0,0,.11-.02.23-.02.34-.03.1,0,.16.01.22.02.06,0,.11.02.17.03.02,0,.12.03.15.04.22.08.43.19.63.32.05.03.09.07.13.1.12.1.24.21.36.32.04.04.08.09.12.13-.02-.02-.09-.11,0,0,.09.11.17.22.24.34.17.26.24.41.34.65.26.65.36,1.21.45,1.84.06.41.11,1.03.34,1.39.17.27.38.55.61.81.21.23.7.22.88-.04.1-.14.24-.27.32-.43.08-.16.12-.31.18-.45.19-.43.16-1.03.1-1.5Z"/>
        <path class="cls-2" d="M46.21,119.74c-.35,3.38-.83,6.74-1.2,10.12-.36,3.32-.67,6.64-.99,9.96-.65,6.72-1.33,13.43-2.03,20.14-1.39,13.29-2.9,26.58-4.57,39.84-.47,3.73-.91,7.47-1.35,11.21-.44,3.74-1.06,7.45-1.48,11.19-.23,2.06,2.85,2.77,3.21.66.59-3.43.98-6.89,1.48-10.34.48-3.31.99-6.61,1.41-9.92.84-6.63,1.63-13.27,2.38-19.92,1.49-13.29,2.65-26.62,3.54-39.96.25-3.74.52-7.49.67-11.24.16-3.88.17-7.76.28-11.64.02-.77-1.29-.88-1.37-.1Z"/>
        <path class="cls-2" d="M29.09,284.19c-.06-1.24-1.78-1.27-2.09-.15-.61,2.21-.85,4.55-1.21,6.81-.35,2.15-.63,4.3-.96,6.45-.68,4.44-1.44,8.86-2.22,13.28-1.58,8.91-3.43,17.76-5.55,26.56-.59,2.45-1.18,4.89-1.8,7.33-.63,2.46-1.57,5-1.88,7.52-.22,1.77,2.35,2.97,3.16,1.11.91-2.11,1.34-4.49,1.91-6.72.56-2.17,1.1-4.35,1.62-6.54,1.06-4.43,2.03-8.88,2.95-13.35,1.83-8.93,3.38-17.92,4.6-26.95.35-2.56.71-5.13.97-7.7.25-2.51.61-5.13.5-7.65Z"/>
        <path class="cls-2" d="M51.01,140.72c-1.26,11.39-2.6,22.77-3.67,34.18-.26,2.78-.59,5.56-.95,8.32-.36,2.76-.89,5.5-1.23,8.27-.36,2.9-.65,5.83-1.18,8.7-.5,2.76-.83,5.5-1.13,8.29-.17,1.53-.34,3.06-.51,4.58-.14,1.27-.22,2.46.17,3.7.64,2.03,2.82,3.88,4.7,1.97.76-.77.08-2.23-1.01-2.11-.05,0-.1.01-.15.02-.05-.03-.09-.07-.14-.11-.04-.15-.2-.35-.26-.51-.36-.9-.22-1.79-.12-2.72.28-2.57.55-5.14.83-7.71.27-2.56.3-5.12.48-7.68.19-2.64.59-5.27.7-7.91.22-5.22.73-10.43,1.39-15.62.68-5.26,1.22-10.54,1.79-15.82l1.87-17.51c.11-1.02-1.47-1.37-1.59-.33Z"/>
        <path class="cls-2" d="M58.75,190.56c-.25-2.15-1.12-4.07-2.55-5.69-.36-.4-1.14-.44-1.56-.13-1,.72-1.85,1.75-2.17,2.92-.21.12-.37.31-.41.61-.31,2.39-.52,4.79-.69,7.19-.07,1.01-.2,2.09.38,2.99.52.81,1.46,1.21,2.4,1.07,1.91-.28,3.12-1.96,3.83-3.61.72-1.67,1-3.54.78-5.35ZM55.44,196.07c-.32.52-.91,1.21-1.57,1.26-.17.01-.2.02-.28-.15-.18-.36-.05-.96-.02-1.33.17-2.16.28-4.33.34-6.5.41-.57.81-1.14,1.27-1.65,1.59,2.44,1.76,5.88.26,8.37Z"/>
        <path class="cls-2" d="M64.54,178.21c-1.55-4.99-3.75-9.78-4.15-15.05-.4-5.32.6-10.63,1.52-15.85,1.04-5.84,2.07-11.71,1.39-17.66-.13-1.15-1.89-1.07-1.81.1.66,10.5-3.7,20.5-3.75,30.96-.03,5.18,1.44,9.94,3.14,14.78,1.71,4.87,3.12,9.71,2.28,14.91-.95,5.91-3.86,11.25-6.71,16.43-.84,1.54,1.6,2.78,2.43,1.24,2.5-4.66,5.01-9.43,6.32-14.59,1.32-5.17.91-10.22-.66-15.27Z"/>
        <path class="cls-2" d="M40.98,282.72c-.28-.87-1.75-.65-1.62.3.53,3.71.61,7.47.11,11.19-.51,3.8-1.44,7.58-2.47,11.27-2.04,7.36-5.45,14.27-7.46,21.64-.54,1.99-.98,4.01-1.27,6.05-.15,1.07-.26,2.15-.34,3.23-.07,1.07-.19,2.07.41,3.01.46.72,1.42.57,1.83-.09.48-.78.42-1.61.46-2.5.04-1.04.11-2.08.23-3.12.22-1.86.56-3.7.97-5.52.86-3.78,2.07-7.46,3.39-11.1,1.29-3.56,2.59-7.11,3.87-10.67,1.3-3.62,2.34-7.29,2.78-11.12.49-4.23.42-8.5-.9-12.58Z"/>
        <path class="cls-2" d="M39.84,322.08c-.06-.52-.88-.81-1.1-.23-.99,2.62-1.21,5.43-1.53,8.2-.33,2.83-.61,5.67-.88,8.51-.1,1.07,1.51,1.46,1.68.35.44-2.81.88-5.61,1.25-8.43.37-2.77.89-5.59.58-8.39Z"/>
        <path class="cls-2" d="M77,150.66c-.21-.75-1.47-.93-1.76-.14-.68,1.8-.64,3.82-.78,5.72-.15,1.98-.32,3.96-.5,5.94-.36,3.9-.7,7.8-1.15,11.69-.89,7.85-1.99,15.68-3.37,23.46-.4,2.23-.78,4.47-1.19,6.7-.2,1.08-.38,2.17-.56,3.25-.19,1.15-.25,2.19-.29,3.34-.03.92,1.42,1.21,1.77.37.37-.88.71-1.65.95-2.58.26-1,.52-2,.74-3,.43-1.95.85-3.89,1.22-5.85.73-3.92,1.39-7.85,1.99-11.79,1.19-7.88,2.1-15.81,2.69-23.76.16-2.18.27-4.36.37-6.55.1-2.2.47-4.66-.13-6.8Z"/>
        <path class="cls-2" d="M180.61,117.82c-1.42,1.48-2.48,3.24-3.8,4.81-1.25,1.5-2.59,2.91-4.06,4.21-3.04,2.7-6.53,4.9-10.1,6.82-7.3,3.92-15.13,6.7-22.66,10.12-7.5,3.4-14.95,7.58-20.29,14.01-1.3,1.56-2.36,3.26-3.52,4.92-1.02,1.44-2.21,3.08-3.85,3.85-1.79.83-3.74.03-4.82-1.54-1.36-1.97-1.38-4.48-1.27-6.78.57-11.71,3.11-23.25,5.49-34.68.29-1.37-1.67-1.7-2.09-.43-3.43,10.48-5.12,21.58-6.06,32.55-.39,4.61-.53,10.29,4.2,12.82,4,2.14,7.64-.9,9.89-4.01,1.21-1.67,2.29-3.43,3.62-5.03,1.39-1.66,2.94-3.2,4.61-4.58,3.34-2.77,7.11-5,10.99-6.93,7.95-3.96,16.5-6.48,24.48-10.37,4.36-2.13,8.58-4.59,12.32-7.7,1.83-1.52,3.59-3.17,5.09-5.03,1.5-1.85,2.94-3.86,3.41-6.22.18-.9-.95-1.45-1.58-.8Z"/>
        <path class="cls-2" d="M193.46,125.82c-.66.76-1.31,1.51-1.99,2.25-4.66,5.13-9.72,9.83-15.17,14.17-6.28,5-12.97,9.48-20,13.34-7.17,3.94-14.82,7.07-21.5,11.84-6.89,4.92-11.88,11.8-16.93,18.48-2.64,3.51-5.22,7.04-7.79,10.6-2.57,3.57-4.79,7.27-7.03,11.05-1.04,1.73-3.78.37-2.82-1.44,2.32-4.34,5.18-8.52,7.96-12.58,2.81-4.11,5.87-8.06,8.88-12.04,5.08-6.72,10.35-13.16,17.43-17.87,6.83-4.54,14.47-7.68,21.66-11.59,12.37-6.72,23.57-15.38,33.5-25.34.69-.68,1.37-1.38,2.04-2.08.53.47,1.11.89,1.75,1.21Z"/>
        <path class="cls-2" d="M133.5,123.68c-3.26,1.02-6.84,1.24-9.89-.52-2.63-1.52-4.37-4.22-4.95-7.17-.26-1.34-2.11-1.18-2.68-.21-1.94,3.32-5.39,7.89-9.87,6.59-1.85-.54-2.87-2.32-3.24-4.11-.52-2.5.13-5.03.75-7.45.35-1.36-1.67-1.7-2.09-.43-.96,2.91-1.96,5.97-1.29,9.06.57,2.66,2.33,4.93,4.97,5.77,2.62.84,5.61.14,7.85-1.38,1.53-1.05,2.74-2.44,3.79-3.96,1.11,2.49,2.92,4.62,5.36,6.02,3.71,2.14,8.7,2.37,12.27-.12,1.07-.75.3-2.49-.99-2.09Z"/>
        <path class="cls-2" d="M46.86,75.68c1.65,2.99,4.08,5.63,7.5,6.47,2.95.73,6.08-.01,8.53-1.75,1.12-.79,2.34.61,2.08,1.7-.9,3.74-1.58,9.43,2.56,11.58,1.71.89,3.68.31,5.18-.72,2.11-1.45,3.39-3.72,4.62-5.9.69-1.22,2.38-.07,1.8,1.14-1.32,2.77-2.72,5.66-5.34,7.43-2.26,1.52-5.09,1.94-7.58.72-2.47-1.21-4.15-3.78-4.71-6.43-.38-1.82-.29-3.66,0-5.48-2.52,1.03-5.31,1.31-8.04.63-4.16-1.03-7.92-4.31-8.77-8.58-.26-1.28,1.51-2.01,2.16-.82Z"/>
        <path class="cls-2" d="M217.77,132.59c-1.05,1.96-2.6,3.28-4.79,3.76-2.08.45-4.36.21-6.18-.95-2.41-1.54-3.66-4.25-3.64-6.98-3.19,1.65-7.1,1.85-10.47.32-.41-.19-.83-.41-1.21-.67-.64-.39-1.24-.86-1.8-1.38-2.06-1.92-3.56-4.6-3.88-7.35-.6.37-1.24.67-1.96.88-.73.2-1.48.3-2.23.29-.94,0-1.87-.19-2.77-.52-2.12-.8-3.73-2.54-4.58-4.58-1.46,2.13-3.26,4.12-5.22,5.6-2.67,2.03-6.26,3.1-9.58,2.31-2.96-.72-5.31-2.86-5.9-5.89-.52-2.7.3-5.7,2.9-7,1.2-.62,2.28.97,1.15,1.79-1.56,1.13-1.74,3.35-1.11,5.04.76,2.1,2.7,3.2,4.89,3.26,2.65.07,5.17-1.08,7.14-2.81,2.23-1.95,3.61-4.5,5.45-6.76.67-.83,2.24-.3,2.21.78-.06,2.38,1.26,4.63,3.48,5.6.35.14.74.25,1.17.33.35.05.72.08,1.09.08,1.61,0,3.33-.52,4.12-1.73.65-.99,2.39-.88,2.44.51.06,2.01.28,3.91,1.31,5.69.52.9,1.18,1.71,1.95,2.38.53.47,1.11.89,1.75,1.21.14.08.29.15.43.22,3.51,1.6,7.98.56,10.63-2.17,1.05-1.09,3.17.22,2.28,1.58-1.49,2.28-.81,5.73,1.53,7.23,2.28,1.46,5.76.51,7.46-1.47.9-1.05,2.61.17,1.98,1.37Z"/>
        <path class="cls-2" d="M183.54,29.14c1.04-1.96,2.6-3.28,4.79-3.76,2.08-.46,4.36-.21,6.18.95,2.41,1.54,3.66,4.25,3.64,6.98,3.19-1.65,7.1-1.85,10.47-.32.41.19.83.41,1.21.67.64.39,1.24.86,1.8,1.38,2.06,1.92,3.56,4.6,3.88,7.35.6-.37,1.24-.67,1.96-.89.73-.2,1.48-.3,2.23-.29.94,0,1.87.19,2.77.52,2.12.8,3.73,2.54,4.58,4.58,1.46-2.13,3.26-4.12,5.22-5.6,2.67-2.03,6.26-3.1,9.58-2.31,2.96.72,5.31,2.86,5.9,5.89.52,2.7-.3,5.7-2.9,7-1.2.62-2.28-.97-1.15-1.79,1.56-1.13,1.74-3.35,1.11-5.04-.76-2.1-2.7-3.2-4.89-3.26-2.65-.07-5.17,1.08-7.14,2.81-2.23,1.95-3.61,4.5-5.45,6.76-.67.83-2.24.3-2.21-.78.06-2.38-1.26-4.63-3.48-5.6-.35-.14-.74-.25-1.17-.33-.35-.05-.72-.08-1.09-.08-1.61,0-3.33.52-4.12,1.73-.65.99-2.39.89-2.44-.51-.06-2.01-.28-3.91-1.31-5.69-.52-.9-1.18-1.71-1.95-2.38-.53-.47-1.11-.89-1.75-1.21-.14-.08-.29-.15-.43-.22-3.51-1.6-7.98-.56-10.63,2.17-1.05,1.09-3.17-.22-2.28-1.58,1.49-2.28.81-5.73-1.53-7.23-2.28-1.46-5.76-.51-7.46,1.47-.9,1.05-2.61-.17-1.98-1.37Z"/>
        <path class="cls-2" d="M253.23,137.32c-2.15,4.75-5.26,8.86-10.1,11.11-4.76,2.21-10.29,2.11-15.04-.08-1.34-.61-2.65-1.39-3.84-2.31-.71-1.8-2.11-3.32-4.1-3.93-1.12-.34-2.19,1.21-1.46,2.13.89,1.12,1.82,2.16,2.83,3.11.53,1.53.33,3.3-.93,4.37-1.91,1.61-4.64.41-5.82-1.55-.08-.85-.28-1.68-.63-2.47-.68-1.52-2.7-1.13-2.8.53-.06,1.03.15,2,.57,2.87-.02,1.71-.76,3.39-2.25,4.38-2.24,1.49-5.27.91-7.04-1.01-.58-.62-1.94-.44-2.24.41-1.96,5.58-7.26,9.76-13.23,10.04-2.99.14-5.9-.76-8.42-2.33-2.66-1.65-4.42-4-5.86-6.73-.47-.88-1.75-.67-2.18.11-.32.58-.64,1.07-.81,1.71-.22.84-.48,1.11-1.15,1.66-1.01.84-2.05,1.67-3.21,2.29-2.37,1.26-4.63,2.58-7.22,3.33-2.57.74-5.57,1.25-8.02-.13-1.85-1.04-3.27-3.57-2.37-5.65.53-1.22-1.11-2.02-1.81-.92-1.61,2.52-.79,5.83,1.22,7.87,2.5,2.54,6.41,2.79,9.71,2.17,3.19-.6,6.48-2,9.01-4.05,1.23-1,2.37-2.27,3.36-3.51.48-.6.82-1.29,1.48-1.71.16-.1.33-.19.5-.28,2.2,4.31,6.74,7.47,11.33,8.6,5.4,1.33,11.04-.28,15.21-3.87,1.84-1.58,3.27-3.5,4.31-5.65,2.66,1.68,6.31,1.79,8.97.03,1.45-.95,2.5-2.39,3.09-4,2.41,1.71,5.79,2.12,8.19.13,1.31-1.09,2.03-2.59,2.25-4.17.26.16.52.33.79.48,2.65,1.5,5.66,2.45,8.69,2.71,6.15.53,12.11-1.77,16.52-6.06,2.44-2.37,4.41-5.37,5.14-8.73.33-1.52-1.96-2.38-2.62-.92Z"/>
        <path class="cls-2" d="M36.22,63.37c-.65-2.13-.48-4.16.73-6.05,1.15-1.79,2.93-3.23,5.04-3.69,2.79-.61,5.59.42,7.51,2.36,1.09-3.43,3.72-6.33,7.18-7.63.42-.16.88-.29,1.33-.39.73-.18,1.48-.27,2.25-.3,2.81-.1,5.77.74,7.94,2.45.16-.69.4-1.35.76-2.01.38-.66.83-1.26,1.37-1.79.67-.66,1.45-1.19,2.33-1.59,2.06-.93,4.43-.85,6.48,0-.48-2.54-.61-5.22-.27-7.66.45-3.32,2.23-6.62,5.14-8.41,2.6-1.59,5.77-1.73,8.34,0,2.28,1.54,3.81,4.24,2.9,7-.42,1.29-2.29.92-2.08-.46.3-1.9-1.14-3.59-2.78-4.35-2.02-.95-4.17-.36-5.76,1.15-1.92,1.83-2.9,4.42-3.06,7.03-.2,2.96.63,5.73.92,8.63.11,1.05-1.37,1.8-2.12,1.01-1.64-1.72-4.16-2.39-6.42-1.5-.35.14-.7.35-1.06.6-.28.21-.57.45-.83.71-1.14,1.13-1.98,2.72-1.69,4.14.24,1.16-1.07,2.32-2.08,1.36-1.47-1.38-2.96-2.57-4.95-3.09-1.01-.27-2.04-.38-3.06-.31-.71.04-1.41.16-2.1.38-.16.04-.31.1-.46.15-3.61,1.35-6.04,5.25-5.98,9.05.02,1.51-2.4,2.09-2.73.49-.56-2.67-3.48-4.62-6.2-4.03-2.65.58-4.43,3.72-4.23,6.32.11,1.38-1.97,1.73-2.37.43Z"/>
        <path class="cls-2" d="M5.05,95.26c-1.84-4.88-2.55-9.99-.71-15,1.8-4.93,5.79-8.77,10.69-10.58,1.38-.51,2.86-.89,4.35-1.08,1.78.77,3.84.85,5.68-.12,1.03-.55.69-2.4-.47-2.54-1.42-.17-2.82-.24-4.2-.2-1.45-.71-2.57-2.1-2.43-3.75.21-2.49,3-3.57,5.2-3.02.65.55,1.39,1,2.19,1.3,1.56.59,2.71-1.11,1.61-2.36-.68-.77-1.52-1.3-2.44-1.63-1.19-1.22-1.86-2.93-1.51-4.68.53-2.64,3.08-4.37,5.69-4.26.85.03,1.68-1.07,1.3-1.87-2.56-5.33-1.76-12.04,2.25-16.45,2.01-2.21,4.71-3.63,7.6-4.3,3.05-.71,5.95-.29,8.9.61.96.29,1.71-.77,1.46-1.62-.18-.63-.3-1.21-.64-1.78-.44-.75-.44-1.13-.36-1.99.12-1.31.27-2.63.65-3.89.78-2.56,1.45-5.1,2.75-7.46,1.29-2.34,3.06-4.82,5.77-5.58,2.05-.57,4.84.21,5.67,2.32.49,1.23,2.21.64,1.93-.63C65.36,1.78,62.44.02,59.57,0c-3.56-.03-6.51,2.55-8.4,5.33-1.83,2.68-3.17,6-3.51,9.24-.17,1.58-.07,3.29.11,4.86.09.76.33,1.5.16,2.25-.04.19-.1.37-.16.55-4.6-1.49-10.05-.51-14.09,1.92-4.76,2.88-7.61,8-8.02,13.49-.18,2.42.16,4.79.95,7.04-3.07.7-5.73,3.19-6.37,6.32-.35,1.7-.08,3.46.65,5.01-2.91.49-5.6,2.6-5.88,5.7-.16,1.7.4,3.27,1.36,4.54-.3.07-.6.14-.9.22-2.93.81-5.73,2.27-8.06,4.23C2.68,74.67.09,80.51,0,86.66c-.05,3.41.68,6.92,2.54,9.8.84,1.31,3.07.3,2.5-1.21Z"/>
        <path class="cls-2" d="M72.83,31.84c2.15-4.75,5.26-8.86,10.1-11.11,4.76-2.21,10.29-2.11,15.04.08,1.34.61,2.65,1.39,3.85,2.31.72,1.8,2.11,3.32,4.1,3.93,1.12.34,2.19-1.21,1.46-2.13-.89-1.12-1.82-2.16-2.83-3.11-.53-1.53-.33-3.3.93-4.37,1.91-1.61,4.64-.41,5.82,1.55.08.85.28,1.68.63,2.47.68,1.52,2.7,1.13,2.8-.53.06-1.03-.15-2-.57-2.87.02-1.71.76-3.39,2.25-4.38,2.24-1.49,5.27-.91,7.04,1.01.58.62,1.94.44,2.24-.41,1.96-5.58,7.26-9.76,13.23-10.04,2.99-.14,5.9.76,8.42,2.33,2.66,1.65,4.42,4,5.86,6.73.47.88,1.75.67,2.18-.11.32-.58.64-1.07.81-1.71.22-.84.48-1.11,1.15-1.66,1.01-.84,2.05-1.67,3.21-2.29,2.37-1.26,4.63-2.58,7.22-3.33,2.57-.74,5.57-1.25,8.02.13,1.85,1.04,3.27,3.57,2.37,5.65-.53,1.22,1.11,2.02,1.81.92,1.61-2.52.79-5.83-1.22-7.87-2.5-2.54-6.41-2.79-9.71-2.17-3.19.6-6.48,2-9.01,4.05-1.23,1-2.37,2.27-3.36,3.51-.48.6-.82,1.29-1.48,1.71-.16.1-.33.19-.5.28-2.2-4.31-6.74-7.47-11.33-8.6-5.4-1.33-11.04.28-15.21,3.87-1.84,1.58-3.27,3.5-4.31,5.65-2.66-1.68-6.31-1.79-8.97-.03-1.45.96-2.5,2.39-3.09,4-2.41-1.71-5.79-2.12-8.19-.13-1.31,1.09-2.03,2.59-2.25,4.17-.26-.16-.52-.33-.79-.48-2.65-1.5-5.66-2.45-8.69-2.71-6.15-.53-12.11,1.77-16.52,6.06-2.44,2.37-4.41,5.37-5.13,8.73-.33,1.52,1.96,2.38,2.62.92Z"/>
        <path class="cls-2" d="M138.57,142.66c-1.37.09-2.58.84-3.93,1.05-1.39.22-2.85.13-4.15-.41-2.61-1.09-3.86-3.32-4.62-5.9-.4-1.37-2.6-1.29-2.82.16-.36,2.42-2.87,4.4-5.33,4.1-2.49-.31-4.7-2.94-4.51-5.45.09-1.24-1.74-1.7-1.95-.4-.64,3.88,1.89,7.95,5.9,8.6,2.74.44,5.33-.73,7.02-2.73,1.14,2.01,3,3.68,5.01,4.53,1.71.72,3.64,1.04,5.48.75,1.77-.27,4.14-.97,4.9-2.77.3-.71-.16-1.57-.99-1.52Z"/>
        <path class="cls-2" d="M82.98,125.59c-1.74,1.06-3.25,2-5.36,2.08-2.01.08-4.02-.5-5.71-1.57-3.77-2.39-5.89-7.37-6.45-11.65-.21-1.63-2.24-1.66-2.74-.2-1.25,3.62-5.02,6.44-8.85,6.5-3.84.06-7.68-2.73-8.82-6.39-.48-1.56-2.41-1.12-2.86.16-1.93,5.5-7.71,9.29-13.49,9.12-5.84-.18-11.23-4.63-12.89-10.16-.46-1.53-2.74-.76-2.35.76,1.39,5.44,5.61,9.74,10.9,11.53,5.26,1.78,11.12.49,15.38-3.01,1.57-1.29,2.87-2.8,3.88-4.49,2.22,3.54,6.11,5.91,10.44,5.85,3.88-.06,7.45-2.12,9.58-5.23.39,1.32.87,2.62,1.55,3.89,1.3,2.46,3.21,4.66,5.61,6.09,3.97,2.35,11.21,2.79,13.9-1.72.65-1.08-.77-2.17-1.74-1.57Z"/>
        <path class="cls-2" d="M199.65,100.68c1.67.55,3.11,1.04,4.88.69,1.69-.33,3.26-1.21,4.46-2.43,2.68-2.73,3.48-7.31,3.1-11-.14-1.4,1.54-1.82,2.25-.7,1.75,2.78,5.45,4.39,8.66,3.7,3.22-.7,5.88-3.78,6.12-7.07.1-1.4,1.79-1.41,2.42-.43,2.69,4.22,8.26,6.25,13.05,4.97,4.85-1.29,8.47-6.07,8.77-11.01.08-1.37,2.14-1.18,2.11.18-.1,4.82-2.78,9.23-6.84,11.77-4.05,2.52-9.19,2.59-13.44.5-1.57-.77-2.94-1.77-4.12-2.99-1.16,3.39-3.95,6.14-7.58,6.94-3.25.71-6.64-.31-9.03-2.49-.06,1.18-.22,2.36-.53,3.56-.6,2.31-1.77,4.53-3.5,6.19-2.85,2.74-8.81,4.53-11.95,1.29-.75-.77.22-1.96,1.14-1.66Z"/>
        <path class="cls-2" d="M206.35,198.24c-.2,2.59-.44,5.18-.68,7.77-.2,2.21-.15,4.64-.85,6.76-1.56,4.72-6.72,3.55-10.53,3.05-5.1-.68-10.21-1.35-15.31-2.03-.78-.1-1.12-.9-1.04-1.59.36-3.35.76-6.69,1.14-10.04.2-1.68.38-3.35.58-5.01.19-1.59.35-3.21.96-4.69.06-.15.15-.25.24-.31-.29-.86.13-1.99,1.32-2.14,5.54-.67,11.38-.08,16.85.96,1.92.36,4.2.64,5.78,1.91,1.7,1.36,1.69,3.37,1.54,5.36Z"/>
        <path class="cls-1" d="M201.24,197.34c-1.24.27-2.37,1.13-3.36,1.9-.99.77-1.92,1.61-2.82,2.47-.85.81-1.67,1.65-2.45,2.52-.27.29-.51.6-.75.91-.18-.39-.36-.78-.54-1.17-.32-.68-.65-1.34-.98-2.01-.33-.65-.63-1.3-1.18-1.79-.87-.78-2.17-.08-2.16,1.03,0,.73.31,1.41.58,2.08.24.61.48,1.21.74,1.81.54,1.24,1.07,2.48,1.61,3.72.46,1.07,1.96,1.67,2.82.61,1.49-1.83,3.2-3.57,4.93-5.17.87-.81,1.75-1.55,2.64-2.32.94-.82,1.92-1.6,2.58-2.66.68-1.1-.6-2.14-1.64-1.91Z"/>
      </g>
    </g>
  </g>
</svg>