<?xml version="1.0" encoding="UTF-8"?>
<svg id="Layer_2" xmlns="http://www.w3.org/2000/svg" viewBox="0 0 293.38 304.87">
  <defs>
    <style>
      .cls-1 {
        fill: #fff;
      }

      .cls-2 {
        fill: #dd0b26;
      }

      .cls-3 {
        fill: #520815;
      }
    </style>
  </defs>
  <g id="Layer_1-2" data-name="Layer_1">
    <g>
      <g>
        <path class="cls-2" d="M187.45,94.21l-11.19-2.43s-12.56,18.04-12.47,20.23c.09,2.19.73,9.67-.82,9.58-1.55-.09-3.19-3.1-3.92-5.29-.73-2.19-1.55-4.65-4.11-5.2-2.56-.55-15.51-2.74-14.69-4.84.82-2.1,2.83-1.37,2.83-1.37,0,0-2.46-3.47-1.28-4.56,1.19-1.1,2.19-.55,2.19-.55,0,0,.82-2.74,2.65-2.83,1.83-.09,5.2.82,5.2.82,0,0-1.73-4.93-.18-4.01,1.55.91,6.21,5.84,6.21,5.57s6.02-10.49,5.66-10.4c-.37.09-25-2.01-25-2.01,0,0-25.46,57.4-22.81,59.95,2.65,2.56,51.83,7.12,64.79,8.94,12.96,1.83,32.85,2.74,35.13-1.09,2.28-3.83,4.47-19.62,4.47-19.62l-19.35-4.11s3.29,5.29,1.73,6.84c-1.55,1.55-3.19.73-3.19.73,0,0-1.55,2.28-2.74,1.92-1.19-.37-1.92-1-1.92-1,0,0-.82,2.65-2.46,1.55-1.64-1.1-3.56-6.02-3.56-6.02,0,0,.73,7.76-1.19,7.3-1.92-.46-3.56-3.1-3.74-5.29-.18-2.19-1.64-8.76-1.64-8.76,0,0-7.85,2.92-8.3,1-.46-1.92,8.21-9.86,8.21-9.86l5.51-25.19Z"/>
        <path class="cls-3" d="M186.22,91.79c-.32.22-.63.43-.92.64-.98.66-1.94,1.36-2.86,2.08-2.14-.26-4.27-.55-6.4-.87.67-1.09,1.36-2.19,2.02-3.29,2.74.43,5.45.9,8.16,1.44Z"/>
        <path class="cls-3" d="M221.72,136.87c-1.19,4.93-2.23,9.91-3.54,14.81-.83,3.12-2.4,5.57-5.75,6.22-3.21.63-6.72.23-9.97.16-26.45-.48-52.86-2.81-78.98-6.96-2.62-.41-5.97-.49-7.99-2.48-2.04-2.02-1.61-4.98-.73-7.43,2.23-6.2,4.99-12.26,7.48-18.37,5.08-12.45,10.16-24.89,15.24-37.34.29-.7,1.17-.99,1.86-.9,7.66,1.16,15.33,2.3,22.99,3.46-.59,1.07-1.17,2.13-1.74,3.2-6.85-1.04-13.69-2.07-20.53-3.1-5.21,12.74-10.41,25.49-15.61,38.23-1.18,2.89-2.35,5.79-3.53,8.68-1.11,2.72-2.57,5.49-3.29,8.34-.24.97-.45,2.21.42,2.94.81.66,2.07.76,3.05.92,3.05.5,6.11.97,9.16,1.42,12.31,1.81,24.68,3.21,37.07,4.2,12.41.99,24.85,1.56,37.3,1.72,1.54.02,3.08.05,4.63.04,1.12,0,2.37.02,3.42-.44,1.06-.47,1.54-1.43,1.87-2.49.42-1.34.73-2.72,1.08-4.06.93-3.55,2-7.06,3-10.6.1,0,.19,0,.29,0,.93-.03,1.87-.09,2.79-.16Z"/>
        <g>
          <path class="cls-3" d="M185.93,36.61c-.16,0-.3.06-.44.14-.27.18-.43.49-.41.81,0,.08,0,.15.01.23.05.72.58,1.82,1.22,2.15.77.4,1.59.19,1.79-.71.04-.2.03-.42-.03-.65-.25-.95-1.28-2.03-2.14-1.97Z"/>
          <path class="cls-3" d="M195.62,37.94c.77.4,1.59.19,1.79-.71.04-.2.03-.42-.03-.65-.25-.95-1.28-2.03-2.14-1.97-.16,0-.3.06-.44.14-.27.18-.43.49-.41.81,0,.08,0,.15.01.23.05.72.58,1.82,1.22,2.15Z"/>
          <path class="cls-3" d="M195.18,43.31c-.14-.04-.31-.03-.44.02-.08.03-.14.07-.22.11-.07.03-.11.03-.14.04-.11,0-.21.03-.33.05-.11.02-.22.05-.33.08-.05,0-.09.02-.13.03-.24.05-.31.06-.39.08-.1.03-.18.06-.28.09-.07,0-.13.03-.2.04-.04,0-.08.02-.13.02-.2.03-.39.04-.6.09-.32.06-.44.08-.58.13-.19.08-.34.13-.5.17-.4.1-.55.72-.21.97.1.07.19.13.3.2.09.07.16.13.24.17.21.14.44.21.69.25.53.09,1.05,0,1.58-.11.46-.1.93-.32,1.29-.63.1-.08.18-.15.26-.25.03-.03.06-.06.09-.1.13-.14.16-.17.19-.2.04-.03.09-.07.13-.11.14-.16.2-.36.21-.58,0-.28-.25-.5-.5-.57Z"/>
          <path d="M264.85,98.64c-1.29.58-2.58,1.16-3.87,1.72-5.26,2.34-10.56,4.59-15.89,6.74-3.32,1.34-6.66,2.64-10.01,3.91-1.61.6-3.22,1.18-4.83,1.78-.83.32-1.67.65-2.47,1.03-.83.4-1.51,1-2.31,1.45-.61.33-.28,1.43.42,1.31.85-.14,1.7-.12,2.55-.29.65-.13,1.28-.32,1.92-.53.18-.07.37-.13.55-.19,1.7-.58,3.37-1.22,5.05-1.84,3.35-1.25,6.69-2.54,10.02-3.87,5.38-2.15,10.73-4.41,16.03-6.77.72-.32,1.44-.65,2.17-.97.04,0,.08-.03.11-.05.08-.11.14-.19.2-.3.13-.2.27-.4.39-.6.5-.77.92-1.56,1.3-2.38-.32-.3-.78-.41-1.33-.16ZM227.23,92.62c.04-.26.07-.5-.04-.74-.1-.22-.22-.41-.38-.56-.26-.28-.63-.43-1.09-.44-.44,0-.9.02-1.36.09-1.08.14-2.19.45-3.2.68-1.5.35-2.99.76-4.45,1.23-2.93.96-5.77,2.19-8.5,3.63-.54.28-1.08.58-1.62.89-.71,1.59-1.39,3.21-2.02,4.85,1.64-1.13,3.34-2.17,5.11-3.1,2.55-1.36,5.22-2.48,7.97-3.37,1.35-.43,2.71-.82,4.08-1.15,1.47-.35,3.08-.43,4.52-.92.46-.15.91-.58.97-1.09Z"/>
          <path class="cls-3" d="M291.75,112.08c-1.68-1.73-3.49-3.37-5.27-5.01-3.65-3.35-7.39-6.67-11.31-9.7-1.97-1.52-4.08-2.13-6.46-1.18-.66.26-1.27.6-1.87.97,1.48-4.16,1.56-8.82.07-13.22-.76-2.23-1.87-4.39-3.32-6.24-1.38-1.74-3.12-3.72-5.2-4.66.34-1.67.06-3.38-1.09-4.98-1.98-2.75-4.38-5.29-6.68-7.79-.64-.69-1.29-1.36-1.94-2.04,2.62-.68,3.97-4.01,4.59-6.42.66-2.49.59-5.27-.28-7.7-1.54-4.31-5.28-7.36-9.61-8.36.93-3.79.42-7.87-2.22-10.93-3.03-3.54-7.82-4.72-12.31-4.79-2.73-.04-5.43.33-8.15.49-2.42.15-4.96.21-7.17-.93-1.96-1.01-3.47-2.67-5.05-4.16-1.59-1.49-3.33-2.83-5.37-3.64-4.31-1.7-9.58-1.66-13.49.96-3.78.93-7.18,3.46-9.77,6.28-3.03,3.3-5.11,7.43-6,11.82-.47,2.3-.62,4.69-.43,7.02.19,2.43.94,4.66,1.45,7.01.23,1.05.31,2.12-.22,3.09-.5.89-1.3,1.59-1.94,2.37-1.38,1.73-2.14,3.77-2.21,5.98-.11,3.2,1.86,6.83,4.77,8.53-.28.53-.53,1.06-.78,1.48-.96,1.66-1.88,3.32-2.82,4.99-1.95,3.47-3.9,6.93-5.85,10.39-1.18,2.1-2.34,4.2-3.5,6.31-.59,1.07-1.17,2.13-1.74,3.2-1.06,1.94-2.1,3.87-3.15,5.81-.78-.67-1.56-1.36-2.34-2.03-1.1-.96-2.68-2.86-4.3-1.83-.98.63-1.04,1.74-.79,2.76-1.38-.5-2.81-.72-4.31-.43-1.26.25-2.72.94-2.84,2.4,0,.2.02.4.08.59-.11,0-.2,0-.31.03-2.14.31-2.75,2.61-1.73,4.32.09.14.19.3.3.44-1.36.28-2.45,1.4-2.04,2.9.37,1.36,1.81,2.38,2.99,3.01,2.69,1.44,5.85,1.67,8.79,2.11,2.67.4,5.6,1.43,6.81,4.07.16.35.44.51.71.53.36,1.33.76,2.64,1.14,3.97.39,1.38,1.17,3.1,2.92,2.75,1.84-.37,2.48-2.62,2.63-4.22.2-2.13-.24-4.28-.04-6.41.18-1.97,1.65-3.81,2.69-5.44,1.24-1.95,2.49-3.88,3.73-5.83,1.51-2.37,3.02-4.72,4.52-7.1.67-1.09,1.36-2.19,2.02-3.29.32-.51.63-1.02.93-1.53,2.75-4.59,6.05-8.79,9.01-13.25.04-.04.11-.1.14-.13.05-.04.16-.13.16-.13.35-.26.73-.47,1.12-.68.78-.43,1.56-.85,2.3-1.34,1.33-.88,2.55-1.94,3.63-3.11.32.43.66.84,1.03,1.19.14.13.29.25.43.37.04.03.08.06.12.08-.05.13-.1.24-.14.37-2.37,5.91-4.56,11.9-6.59,17.93-1.41.02-2.78.87-3.99,1.69-.32.22-.63.43-.92.64-.98.66-1.94,1.36-2.86,2.08-.59.46-1.17.93-1.73,1.42-2.7,2.31-5.2,5.07-6.58,8.39-1.33,3.2-1.77,6.89-.49,10.18.89,2.27,2.88,5.02,5.36,5.93-.38.43-.79.86-1.22,1.25-2.47,2.24-5.12,4.06-6.16,7.39-.34,1.1.76,1.97,1.72,1.98,2.95.06,5.81-.53,8.5-1.68.09.81.17,1.61.31,2.43.2,1.32.43,2.63.65,3.94.21,1.25.4,2.51.65,3.76.22,1.1.61,2.2,1.46,2.95.88.77,2.25,1.08,3.31.52.98-.52,1.45-1.54,1.61-2.6v-.12c.15.24.3.46.45.67.6.81,1.4,1.41,2.45,1.44.87.02,1.71-.44,2.25-1.12.11-.13.2-.25.28-.39.47.44,1.12.66,1.78.59,1.29-.14,2.06-1.15,2.33-2.29.97,1.14,3.07.75,3.82-.52,1.01-1.71.21-3.75-.81-5.44.4.31.83.59,1.25.86,4.34,2.73,9.98,3.16,15,3.01.1,0,.19,0,.29,0,.93-.03,1.87-.09,2.79-.16,9.93-.78,19.55-3.87,28.68-7.72,5.66-2.38,11.2-5.06,16.72-7.74.72-.35.91-.95.76-1.52.23-.44.4-.92.56-1.42,1.49-1.16,2.79-2.65,4.72-3.07,2.19-.48,4.36,1.12,6.35,1.82,2.18.76,4.38,1.1,6.68,1.2,1.88.09,4.74.32,6.25-1.06,1.78-1.63.68-3.85-.7-5.29ZM166.03,105.67c-.97,1.52-1.98,3.01-2.65,4.69-.68,1.71-.9,3.27-.84,5.11.03,1.08.09,2.18-.1,3.25-.05.26-.15,1.18-.37,1.33-.16.11-.32-.31-.46-.61-.85-1.65-1.55-3.36-2.42-5-1.35-5.04-8-5.42-12.22-6.09-1.19-.19-2.4-.63-3.42-1.27-.42-.26-.82-.59-1.16-.94,1.44.04,2.87.23,4.29.43,1.44.21,2.98.73,4.44.72,1.4-.02,1.77-2.05.55-2.65-1.48-.72-3.45-.83-5.09-1.04-.62-.08-1.25-.16-1.9-.24-.65-.46-1.26-1-1.64-1.69-.09-.15-.14-.3-.15-.48.25-.14.89-.06,1.21-.03,2.6.24,5.12.93,7.47,2.09,1.54.75,2.75-1.63,1.21-2.37-1.6-.78-3.29-1.39-5.03-1.79-.75-.18-1.51-.31-2.27-.4-.09-.07-.16-.14-.21-.22.26-.25.57-.32.84-.36.83-.13,1.67-.04,2.48.17,1.67.43,3.15,1.45,4.57,2.39,1.29.84,2.58-1.18,1.5-2.18-.39-.37-.73-.77-1.05-1.2.84.73,1.68,1.47,2.51,2.21-.57,1.07-1.15,2.13-1.72,3.19-.97,1.82,1.89,3.27,2.86,1.45,2.22-4.14,4.45-8.26,6.68-12.39.12-.2.22-.41.34-.62.08.17.14.34.22.5.04.08.08.14.12.22.47.92,1.14,1.74,1.92,2.43,1.47,1.31,3.33,2.09,5.28,2.31-1.93,3.02-3.85,6.05-5.78,9.07ZM182.48,79.65c-.98,1.82-1.92,3.65-3.04,5.38-1.1,1.68-2.21,3.34-3.32,5.01-.73,1.09-1.45,2.19-2.18,3.28-.13.19-.25.38-.38.57-.2-.1-.42-.15-.67-.15h-.46c-.23-.04-.45-.06-.66-.1-.24-.04-.48-.1-.71-.16-.11-.03-.21-.06-.32-.09-.49-.19-.92-.39-1.31-.63-.1-.06-.19-.12-.29-.17-.24-.19-.43-.34-.62-.49-.15-.14-.31-.3-.46-.45-.08-.08-.14-.15-.21-.24-.32-.41-.58-.79-.81-1.18-.06-.1-.11-.18-.15-.28,0,0-.08-.13-.11-.19-.08-.17-.15-.36-.22-.54-.08-.19-.13-.4-.19-.59-.06-.21-.13-.35-.21-.53-.04-.11-.08-.19-.09-.21.8-1.53,1.61-3.03,2.42-4.54,1.85-3.43,3.7-6.86,5.58-10.27.92-1.68,1.86-3.34,2.76-5.02.09-.13.15-.28.23-.42.09,1.25.43,2.49,1.14,3.64,1.22,2.03,3.3,3.43,5.64,3.78.11.02.2.02.3.02.1.09.2.16.33.24.12.09.26.15.39.22-.79,1.36-1.62,2.71-2.37,4.1ZM195.11,48.62c-.06.1-.12.19-.16.29-.1,0-.18,0-.27,0-1.44-.05-2.88-.49-4.1-1.26-2.67-1.7-4.18-4.83-5.59-7.55-.85-1.65-1.66-3.4-2.15-5.21.42-.03.84-.03,1.25.04,1.09.16,2.15.57,3.13,1.01.99.45,1.52,1.47,1.85,2.47.16.48.32.99.39,1.49.09.6-.08,1.35.15,1.9.34.8,1.38.91,1.83.14.39-.66.15-1.7,0-2.42-.13-.67-.35-1.31-.67-1.93-.64-1.18-1.63-2.15-2.52-3.14-.98-1.09-2.42-1.63-3.85-1.77-.65-.06-1.32-.07-1.97.03-.08-.7-.11-1.41-.04-2.12.27-2.96,1.61-5.85,3.62-8.01,1.07,1.26,2.43,2.38,3.69,3.35,1.7,1.32,3.53,2.5,5.43,3.49.12.06.25.12.37.18-.65-.13-1.36-.13-2.01-.05-.78.09-1.51.27-2.21.62-.7.35-1.18.81-1.58,1.47-.32.52.28,1.08.8.93.27-.08.54-.13.82-.2.28-.07.54-.2.82-.28.27-.09.56-.16.84-.23.08-.02.15-.04.23-.06.2-.03.35-.05.5-.06.3-.03.59-.03.88-.03.12,0,.17.02.22.02.15.02.31.03.46.05.35.04.68.13,1.03.14.37,0,.69-.03.98-.21.28-.18.34-.48.28-.79-.04-.18-.13-.35-.27-.49,1.2.52,2.45.98,3.71,1.35.16.06.34.1.51.14-.04.09-.07.17-.08.27-.14,1.51-.05,3.01-.29,4.52-.24,1.51-.68,2.99-1.33,4.37-1.24,2.69-3.21,4.98-4.7,7.52ZM197.13,52.04c.25-.6.63-1.38,1.15-2.27.48-.82,1.05-1.68,1.58-2.44,1.4-2.27,2.66-4.6,3.45-7.05.77-2.37,1.21-5.32.59-7.79.11.02.21.05.33.07,1.06.19,2.18.47,3.17-.09.63-.36.66-1.29.14-1.75-.75-.67-1.8-.68-2.76-.86-.98-.17-1.95-.4-2.91-.66-1.91-.54-3.78-1.2-5.57-2.06-1.74-.84-3.42-1.83-4.97-2.98-1.66-1.22-3.04-2.74-4.64-4-.72-.57-1.73,0-1.69.8-.05.02-.1.03-.14.06-3.08,2.22-5.1,5.54-5.43,9.35-.35,4.06,1.17,7.85,3.01,11.38,1.75,3.34,3.7,6.89,7.07,8.83,1.1.65,2.5,1.16,3.96,1.39-.61,1.54-1.01,3.14-1.09,4.83-.1,2.08.46,5.21,2.23,6.74-.14.39-.24.78-.32,1.09-.19.86-.2,1.71-.07,2.58-.11.07-.2.14-.28.25-.6.73-1.24,1.43-1.95,2.06-.07.07-.14.13-.21.19-.28.23-.46.38-.65.52-.38.29-.77.56-1.17.82-.74.47-1.54.86-2.27,1.33-.22.14-.46.31-.69.48-.12-.06-.23-.11-.36-.13-.2-.06-.36-.1-.6-.08-.08,0-.15.02-.23.02h-.22c-.21-.38-.57-.69-1.11-.84-2.77-.76-5.35-3.84-4.06-6.85.31-.72.14-1.79-.69-2.12-1.64-.64-3.21-1.05-4.39-2.46-1.11-1.3-1.58-3.05-1.34-4.74.27-1.94,1.43-3.11,2.61-4.56,1.34-1.63,2.07-3.45,1.85-5.59-.22-2.12-1.11-4.1-1.46-6.19-.35-2.03-.41-4.13-.16-6.17.47-3.93,1.98-7.72,4.46-10.81,1.31-1.63,2.82-3.07,4.53-4.28,1.17-.84,2.42-1.52,3.67-2.2.29.04.6,0,.92-.17,3.38-1.66,7.38-2.22,10.97-.9,3.75,1.38,5.9,4.81,9.03,7.07,7.66,5.53,17.62-.8,25.6,3.63,3.99,2.21,4.83,6.95,3.1,10.94-.61,1.42.34,2.76,1.84,2.8,3.76.13,7.34,2.79,8.5,6.38.58,1.82.54,3.76-.03,5.57-.28.88-.7,1.75-1.23,2.51-.23.33-.52.61-.77.92-.37.47-.53.99-.7,1.54-3.6-3.65-7.4-7.13-11.35-10.39-2.93-2.43-5.93-5.04-9.26-6.89-2.16-1.2-5.22-2.18-7.83-1.66-3.47-.96-6.17,1.97-7.69,4.7-1.79,3.25-3.36,6.63-4.95,9.98-2.55,5.38-4.98,10.83-7.25,16.34-.04-.05-.08-.1-.11-.14-.11-.14-.19-.29-.28-.44-.04-.06-.07-.13-.11-.18-.06-.15-.12-.3-.16-.45-.03-.09-.06-.18-.09-.27,0-.17-.07-.42-.08-.54,0-.17,0-.35,0-.52,0-.2,0-.15,0-.09,0-.08.02-.16.02-.19.03-.18.06-.37.11-.55.03-.1.06-.19.08-.29.08-.17.16-.34.23-.51.18-.4.22-.8.13-1.16.07-.44-.08-.93-.54-1.36-2.9-2.64-2.06-6.26-.46-9.53ZM206.32,58.33c1.62-3.55,3.31-7.07,5.07-10.57,1.39-2.76,2.9-7.67,6.7-7.52.07,0,.13,0,.18,0,.81.02,1.59.1,2.38.34,1.47.44,2.82,1.07,4.13,1.86,2.51,1.51,4.81,3.44,7.08,5.29,4.72,3.83,9.22,7.96,13.46,12.33,2.14,2.22,4.22,4.49,6.22,6.83.9,1.05,1.82,2.09,2.65,3.19.85,1.14.93,2.17.32,3.46-1.23,2.52-3.83,4.32-6.14,5.8-2.51,1.61-5.2,3-7.86,4.35-3.02,1.54-6.26,2.98-9.64,3.44-3.06.42-5.87.1-8.71-1.04-.07-.14-.17-.25-.3-.36-1.29-1.06-2.55-2.17-3.78-3.3-1.13-1.06-2.22-2.17-3.5-3.03.13-.38.27-.76.39-1.15,1.13-3.43,3.39-6.45,5.17-9.56,1.48-2.59,2.89-5.97,5.73-7.33,1.66-.79.1-3.22-1.55-2.41-2.28,1.11-3.73,3.29-4.89,5.47-1.38,2.58-2.82,5.21-3.91,7.94-1.17,2.93-3.02,5.47-4.5,8.25-1.44,2.7-2.75,5.43-3.96,8.26-.42.98-.84,1.96-1.23,2.97-.64,0-1.19.2-1.84.32-.63.11-1.28.13-1.91.11-1.24-.08-2.45-.41-3.54-1.01-.97-.53-1.8-1.34-2.57-2.22-.36-.4-.67-.86-1-1.29-.1-.13-.19-.25-.3-.38,3.43-9.84,7.3-19.52,11.63-29ZM215.54,84.65c-.12,0-.23,0-.35.02-.6.03-1.18.09-1.78.15-.39.05-.77.12-1.16.19.42-.92.84-1.87,1.22-2.81.6.88,1.32,1.68,2.06,2.45ZM202.83,99.72c-.65,1.76-1.27,3.52-1.89,5.28-.12.34-.24.66-.36,1-1,2.84-1.96,5.7-2.87,8.58-.86,2.74-2.21,5.88-1.89,8.78.34,3.07,1.36,5.48,3.16,7.98.84,1.17,1.73,2.32,2.38,3.61.51,1.02,1.08,4.4-1.23,3.26-.77-.38-.73-1.19-.93-1.91-.52-1.92-1.63-3.63-2.98-5.08-.29-.31-1.26-1.64-1.71-1.15-.28.31.25,1.19.41,1.46.82,1.4,1.34,2.87,1.9,4.38.28.75,1.07,2.11.45,2.86-1.39,1.69-2.14-2.18-2.28-2.72-.23-.89-.54-1.76-.93-2.59-.37-.8-.77-1.8-1.42-2.41-.5-.47-1.27.07-1.09.69.61,2.08,2.01,4.21,2.38,6.38.53,3.14-2.03,2.13-2.65,1.1-1.28-2.14-1.43-6.03-2.99-8.02-.32-.4-1.09-.38-1.18.22-.06.4-.19.75-.21,1.16-.03.51.1.97.22,1.45,0,.04.02.07.03.13.21,1.58.42,3.17.56,4.77.04.46.16,1.67-.6,1.71-.54.04-.87-.82-.99-1.21-.58-1.86-.8-3.89-1.17-5.81-.18-.99-.39-1.98-.59-2.97-.22-1.06-.5-2.05-.82-3.08-.07-.76-.67-1.54-1.44-1.54-.16,0-.35.04-.53.13-1.79.84-3.68,1.4-5.63,1.57,1.19-1.47,2.94-2.63,4.26-3.83,2.19-1.99,3.83-4.53,5.05-7.22,1.24-2.76,2.1-5.69,2.93-8.61.95-3.41,1.95-6.8,3-10.18.77-2.47,1.56-4.91,2.4-7.37.05.08.1.16.14.24.84,1.31,2.1,2.38,3.44,3.15,1.45.85,3.1,1.29,4.77,1.39.78.04,1.55,0,2.32-.13.09-.02.17-.03.26-.05-.59,1.52-1.16,3.05-1.7,4.58ZM217.65,95.77c-2.74.9-5.41,2.01-7.97,3.37-1.76.93-3.47,1.97-5.11,3.1.64-1.64,1.31-3.26,2.02-4.85.54-.31,1.08-.61,1.62-.89,2.73-1.44,5.57-2.67,8.5-3.63,1.46-.47,2.95-.89,4.45-1.23,1.01-.23,2.12-.54,3.2-.68.46-.07.91-.1,1.36-.09.46,0,.83.16,1.09.44.15.14.28.34.38.56.11.24.08.48.04.74-.07.51-.51.93-.97,1.09-1.44.48-3.04.57-4.52.92-1.38.33-2.74.71-4.08,1.15ZM264.28,102.08s-.07.04-.11.05c-.72.33-1.44.66-2.17.97-5.3,2.36-10.64,4.62-16.03,6.77-3.32,1.33-6.67,2.62-10.02,3.87-1.68.62-3.35,1.26-5.05,1.84-.18.07-.37.13-.55.19-.64.21-1.27.4-1.92.53-.85.17-1.7.14-2.55.29-.7.12-1.03-.98-.42-1.31.8-.45,1.48-1.05,2.31-1.45.8-.39,1.64-.71,2.47-1.03,1.61-.6,3.22-1.18,4.83-1.78,3.35-1.27,6.68-2.57,10.01-3.91,5.34-2.15,10.63-4.4,15.89-6.73,1.29-.58,2.58-1.16,3.86-1.73.56-.25,1.02-.13,1.34.16-.38.82-.8,1.61-1.3,2.38-.12.2-.26.4-.39.6-.06.11-.13.19-.2.3ZM283.11,114.62c-2.02-.5-3.81-1.36-5.74-2.11-2.08-.81-4.19-1.02-6.28-.1-.62.27-1.24.62-1.84,1.01,0-.72-.05-1.44-.14-2.16-.23-1.7-.72-3.32-1.46-4.86-.38-.79-.8-1.54-1.3-2.26-.24-.35-.5-.68-.78-1.02-.13-.16-.27-.33-.4-.48-.08-.09-.44-.66-.3-.29-.05-.13-.11-.24-.17-.34,1.04-.3,1.98-.89,2.89-1.5.85,1.51,2.98,2.52,4.31,3.36,1.96,1.25,3.92,2.53,5.85,3.84,3.43,2.32,6.71,4.87,9.94,7.46-1.53,0-3.04-.18-4.56-.55Z"/>
        </g>
        <g>
          <path class="cls-1" d="M266.18,98.81c-.38.82-.8,1.61-1.3,2.38-.12.2-.26.4-.39.6-.06.11-.13.19-.2.3-.03.02-.07.04-.11.05-.72.33-1.44.66-2.17.97-5.3,2.36-10.64,4.62-16.03,6.77-3.32,1.33-6.67,2.62-10.02,3.87-1.68.62-3.35,1.26-5.05,1.84-.18.07-.37.13-.55.19-.64.21-1.27.4-1.92.53-.85.17-1.7.14-2.55.29-.7.12-1.03-.98-.42-1.31.8-.45,1.48-1.05,2.31-1.45.8-.39,1.64-.71,2.47-1.03,1.61-.6,3.22-1.18,4.83-1.78,3.35-1.27,6.68-2.57,10.01-3.91,5.34-2.15,10.63-4.4,15.89-6.73,1.29-.58,2.58-1.16,3.86-1.73.56-.25,1.02-.13,1.34.16Z"/>
          <path class="cls-1" d="M227.23,92.62c-.07.51-.51.93-.97,1.09-1.44.48-3.04.57-4.52.92-1.38.33-2.74.71-4.08,1.15-2.74.9-5.41,2.01-7.97,3.37-1.76.93-3.47,1.97-5.11,3.1.64-1.64,1.31-3.26,2.02-4.85.54-.31,1.08-.61,1.62-.89,2.73-1.44,5.57-2.67,8.5-3.63,1.46-.47,2.95-.89,4.45-1.23,1.01-.23,2.12-.54,3.2-.68.46-.07.91-.1,1.36-.09.46,0,.83.16,1.09.44.15.14.28.34.38.56.11.24.08.48.04.74Z"/>
        </g>
        <path class="cls-3" d="M112.39,221.4c.96.62,1.93,1.23,2.89,1.85-.36,1.03-.73,2.06-1.11,3.09-.42,1.2-.86,2.4-1.29,3.59-1.15,3.11-2.33,6.2-3.59,9.26-.64,1.54-3.26.61-2.76-.96.66-2.13,1.39-4.23,2.12-6.33.16-.47.33-.94.5-1.42.7-2,1.42-4,2.13-5.99.37-1.03.74-2.06,1.12-3.09Z"/>
        <path class="cls-3" d="M206.67,213.85c-1.41,4.26-2.76,8.55-4.29,12.77-3.02,8.37-6.14,16.7-9.42,24.97-1.33,3.37-2.61,6.97-5.5,9.35-3.09,2.54-7.11,2.49-10.87,1.99-8.88-1.17-17.73-2.58-26.59-3.87-5.39-.78-10.78-1.56-16.17-2.36-3.54-.53-7.09-1.06-10.63-1.6-2.37-.36-1.59-3.94.75-3.62,2.05.28,4.11.56,6.17.84,1.93.26,3.85.52,5.78.8,6.46.9,12.94,1.86,19.39,2.78,4.2.6,8.39,1.19,12.59,1.79,3.89.56,7.91,1.46,11.85,1.53,1.7.03,3.42-.16,4.85-1.15,1.2-.82,2.01-2.09,2.68-3.36,1.75-3.4,2.98-7.12,4.35-10.68,3.01-7.77,5.8-15.63,8.89-23.38,1.53-3.81,3.09-7.65,4.39-11.55.47-1.43,1.07-3.18.63-4.68-.41-1.39-1.79-1.94-3.07-2.24-3.83-.93-7.87-1.33-11.77-1.89-4.15-.59-8.31-1.13-12.47-1.6-8.34-.96-16.71-1.7-25.09-2.2-8.28-.5-16.66-1-24.97-.81-1.82.04-2.92.52-3.68,2.21-.83,1.83-1.41,3.78-2.09,5.66-.39,1.08-.78,2.17-1.18,3.25-.42,1.17-.84,2.32-1.26,3.49-.91-.72-1.82-1.45-2.73-2.19.19-.52.38-1.05.57-1.57.23-.64.46-1.28.69-1.92.52-1.46,1.05-2.92,1.58-4.37.65-1.8,1.16-3.76,2.28-5.34,2.46-3.46,7.47-2.56,11.14-2.5,17.77.32,35.54,1.65,53.16,3.97,4.47.6,8.93,1.25,13.38,1.98,3.31.53,7.21,1.15,8.56,4.72,1.35,3.55-.82,7.47-1.91,10.78Z"/>
        <path class="cls-2" d="M28.16,154.46c.49-1.46,22.28-53.19,22.28-53.19l67.41-.97-29.93,77.63-31.88,3.41-2.92-4.38s1.86-.42,5.6-7.54c2.32-4.43,1.95-7.54,1.95-7.54l-5.67,7.14c-5.61,1.03-11.27-1.05-14.88-5.33-1.01-1.19-2.11-2.3-3.38-3.2l-8.57-6.02Z"/>
        <path class="cls-3" d="M169.66,231.62c-1.04-.64-2.4-.61-3.68-.41.69-.43,1.37-.88,1.96-1.42,1.13-1,2.06-2.45,1.78-4.01-.18-.98-.78-1.47-1.69-1.57.1-.64-.04-1.31-.39-1.88-.6-.92-1.64-1.26-2.69-1.25-.44,0-.88.09-1.29.23.08-.25.12-.53.12-.82-.02-2.32-2.57-3.57-4.6-3.12-1.07.24-2,.87-2.87,1.5-.94.69-1.89,1.39-2.82,2.09-1.08.82-2.16,1.65-3.24,2.47-.29.22-.58.43-.86.65,0-.29-.02-.58-.03-.88-.02-.67-.04-1.35-.06-2.02-.02-.54-.03-1.12-.23-1.63-.31-.74-.92-1.24-1.74-1.27-.67-.02-1.28.39-1.66.92-.75,1.05-1.21,2.34-1.66,3.53-.26.71-.51,1.43-.73,2.17-.03.1-.04.19-.07.29-6.33-5.5-12.76-10.88-19.28-16.15-.92-.74-1.83-1.48-2.75-2.23-.91-.73-1.81-1.46-2.73-2.19-2.47-1.97-4.95-3.9-7.49-5.75-1.48-1.08-2.95-2.2-4.42-3.32.15-.17.28-.4.35-.66,1.3-5.03-.25-10.28-3.15-14.46-1.08-1.56-2.33-3-3.7-4.33,3.53-2.22,4.84-6.86,5.48-10.8.18-1.15.49-2.39.36-3.55-.13-1.18-.81-1.92-1.69-2.65-1.18-.97-2-2.3-2.72-3.68.03-.85,0-1.69-.13-2.54-.49-3.24-2.11-6.03-4.88-7.82-2.26-1.45-4.84-1.87-7.25-.92-4.51-2.61-10.82-2.1-15.34.08-6.6,3.17-10.46,9.25-13.76,15.48-1.51,2.86-3.16,5.87-5.92,7.7-3.14,2.09-7.16,2.23-10.72,3.15-6.93,1.77-13.61,6.81-16.37,13.54-1.52,3.74-1.78,8.12.51,11.62,1.41,2.17,3.51,3.7,5.88,4.27-1.89,3.85-1.26,8.93,1.94,11.94,1.08,1.01,2.37,1.71,3.75,2.12-.72.77-1.49,1.45-2.3,2.12-1.92,1.6-3.75,3.12-5,5.33-1.12,1.96-1.72,4.45-.91,6.64.84,2.29,2.84,3.68,5.03,4.56.39.15.77.31,1.16.44-1.17,3.55-1.57,7.49-1.73,11.21-.17,3.82.22,7.78,1.61,11.37.04.11.08.21.13.32-1.95.9-3.8,1.89-5.57,3.14-1.97,1.41-3.82,3.01-5.58,4.67-3.5,3.33-6.57,7.14-9.03,11.3-1.26,2.11-2.27,4.54-1.44,6.99.84,2.43,3.27,3.56,5.72,3.18,7.99-1.26,14.81-7.37,21.03-12.1,2.15-1.64,4.13-3.44,6.15-5.23.63.33,1.27.64,1.93.92,3.68,1.57,7.54,2.4,11.45,2.61-.92,1.39-1.57,3.01-2.21,4.5-.92,2.14-1.75,4.32-2.45,6.55-1.38,4.43-2.29,9.02-2.75,13.63-.32,3.28-.13,8.13,4.08,8.68,4.43.59,6.89-5.04,8.76-8.06,2.77-4.49,5.58-8.96,8.39-13.42.1-.03.19-.07.29-.1.04.07.08.14.13.21.19.28.42.55.68.77.68.57,1.57.79,2.45.82.47.02.96-.11,1.43-.28.35.14.75.16,1.2.02,8.53-2.75,16.95-6.04,25.05-9.9,3.99-1.9,7.91-3.96,11.73-6.16,3.71-2.14,7.42-4.33,10.7-7.1,1.67-1.4,3.22-3.07,4.53-4.93.79-1.14,1.49-2.33,2.07-3.58,1.55-3.32,2.22-6.99,1.41-10.6.71.46,1.45.87,2.24,1.19,2.23.9,4.63,1.22,7.03,1.11,2.82-.15,5.47-.76,8.08-1.82,1.94-.78,3.96-1.7,5.67-2.98.14-.04.3-.07.45-.1,1.01-.2,1.99-.45,2.97-.79.96-.33,1.92-.69,2.86-1.11.89-.39,1.87-.77,2.67-1.34.78-.57,1.48-1.33,1.68-2.31.21-1.11-.36-2.19-1.29-2.76ZM96.17,167.76c1.12-1.41,2.16-2.88,3.02-4.46.73-1.35,1.33-2.82,1.73-4.33.06.09.12.17.18.26.59.8,1.34,1.35,2,2.06.72.75.26,2.01.11,2.93-.23,1.35-.54,2.73-.99,4.02-.21-.13-.43-.23-.66-.33-.21-.09-.41-.2-.61-.33-.04-.03-.08-.06-.12-.1-.09-.07-.18-.13-.28-.18-.1-.07-.2-.14-.3-.23-.25-.22-.61-.28-.92-.13-.13.07-.24.15-.33.28-.1.14-.18.35-.15.52.06.36.13.74.31,1.07.15.27.37.52.58.76.22.26.47.45.76.65.19.13.38.19.61.27-.76,1.44-1.91,2.63-3.53,3.41-1.28-1.09-2.63-2.14-4.08-2.99.97-.97,1.84-2.12,2.66-3.14ZM35.8,271.04c-1.69,2.06-3.49,4.03-5.38,5.9-2.08,1.22-4.2,2.37-6.36,3.44-1.03.51-3.81,2.19-4.84.9-1.12-1.41.67-3.8,1.4-4.96,2.18-3.5,4.73-6.74,7.64-9.66,3.04-3.06,6.52-5.76,10.02-8.3.92,1.69,2.08,3.22,3.41,4.59-.83,1.18-1.67,2.35-2.48,3.54-1.07,1.56-2.22,3.07-3.41,4.55ZM39.95,270.7c.61-.85,1.19-1.71,1.76-2.59.72-1.11,1.33-2.22,1.89-3.36.65.55,1.34,1.06,2.04,1.54-1.82,1.54-3.74,3.01-5.69,4.41ZM61.26,299.86c-.41.5-.88.95-1.42,1.27-2.89,1.68-1.97-4.9-1.82-6,.49-3.89,1.32-7.73,2.47-11.48.64-2.07,1.35-4.11,2.17-6.12.81-1.97,1.95-3.93,2.45-6.02,1.99-.06,3.99-.27,5.97-.62.34-.06.67-.12,1-.19-.29.78-.68,1.55-1.01,2.24-.56,1.19-1.27,2.3-2,3.39-1.51,2.21-3,4.39-4.17,6.81-2.42,5.01-3.67,10.48-3.76,16.04,0,.26.04.48.13.67ZM81.98,275.41c-.1.82-.28,1.63-.55,2.41-1.27.55-2.51,1.13-3.77,1.71-.62.28-1.24.55-1.87.84-.71-.43-1.77-.4-2.35.5-2.32,3.67-4.63,7.35-6.98,11-.64.98-1.26,1.96-1.89,2.94.55-4.11,1.82-8.11,3.79-11.78,1.24-2.32,2.84-4.42,4.15-6.7.64-1.1,1.25-2.28,1.58-3.52.22-.84.2-1.71.14-2.56,2.1-.49,4.15-1.11,6.18-1.81.5.79.86,1.53,1.13,2.31.5,1.48.62,3.12.43,4.67ZM118.57,229.67c-1.91-.07-3.8.04-5.69.26-1.25.14-2.49.33-3.74.55-2.08.36-4.15.79-6.21,1.19-4.71.93-9.56,1.62-14.38,1.54.39-.62.64-1.36.92-1.98.48-1.06.92-2.13,1.34-3.22.88-2.3,1.63-4.64,2.21-7.03.56-2.32,1.03-4.69,1.27-7.07.02-.15.04-.32.05-.48,1.63,1.26,3.36,2.35,5.11,3.48,2.34,1.52,4.69,3.02,7.05,4.53,1.6,1.02,3.19,2.03,4.79,3.05.96.62,1.93,1.23,2.9,1.85,1.77,1.13,3.54,2.26,5.33,3.39-.31-.03-.62-.05-.92-.06ZM167.49,234.28c-.38.25-.79.44-1.2.63-.91.42-1.83.8-2.76,1.15-1,.36-2.01.67-3.03.99-.99.32-2.1.45-3.04.9-.37.17-.66.44-.78.81-.86.4-1.7.82-2.55,1.18-2.17.91-4.54,1.74-6.88,2.01-2.19.24-4.54,0-6.57-.87-2.2-.94-3.92-2.58-5.67-4.15-.37-.34-.76-.64-1.14-.95-.04-.04-.07-.09-.11-.13-1.19-1.29-2.61-2.36-4.15-3.23-2.14-1.54-4.32-3-6.53-4.4-2.59-1.66-5.19-3.31-7.78-4.97-.96-.62-1.93-1.23-2.89-1.85-1.01-.65-2.02-1.29-3.03-1.94-2.49-1.59-4.97-3.18-7.46-4.74-2.41-1.51-4.73-3.09-7.31-4.24.05-1.24-.02-2.49-.36-3.62-.19-.65-1.31-.84-1.56-.13-.74,2.07-.78,4.44-1.13,6.61-.38,2.3-.81,4.58-1.41,6.82-.6,2.25-1.31,4.49-2.15,6.66-.42,1.08-.87,2.16-1.35,3.21-.26.56-.62,1.14-.85,1.73-9.72,2.71-20.09,3.42-30.09,2.21-5.04-.61-10.03-1.7-14.85-3.28-1.9-.62-4.3-1.18-5.78-2.58-1.52-1.43-1.02-3.46-.12-5.08,1.16-2.08,3.15-3.55,4.85-5.16.98-.92,2.25-2.12,2.87-3.46,1.68-.09,3.34-.55,4.79-1.39.61,1.55,1.74,2.9,3.21,3.81,2.94,1.84,6.64,1.46,9.85.67,6.42-1.57,12.48-4.72,17.56-8.92.46-.39.76-.9.78-1.44,1.03-.46,1.88-1.42,2.47-2.44,1.21-2.12,2-4.67,2.53-7.04.54-2.44.76-4.95.69-7.45,0-.36-.03-.73-.05-1.1,1.76-.02,3.52-.06,5.27.33,2.39.51,4.61,1.52,6.72,2.74,4.38,2.54,8.38,5.87,12.28,9.07,2.79,2.3,5.62,4.57,8.44,6.83.91.73,1.82,1.46,2.73,2.19,4.53,3.64,9.04,7.28,13.48,11.04,4.55,3.84,9.04,7.74,13.5,11.68,1.66,1.46,3.97-1.06,2.31-2.53-1.36-1.21-2.73-2.41-4.09-3.61.15-.4.31-.81.43-1.21.21-.66.37-1.1.63-1.74.21-.55.45-1.09.69-1.62v.66c0,.72,0,1.45,0,2.18,0,.78-.1,1.66.12,2.42.13.51.73.92,1.26.87.53-.06.95-.39,1.12-.89.91-.38,1.68-.97,2.49-1.56l2.96-2.13c1.03-.73,2.04-1.49,3.05-2.24.62-.45,1.59-1.27,2.3-1.22.14,0,.34.07.43.17-.02.02-.05.06-.12.11-.94.62-1.82,1.44-2.72,2.13-.97.75-1.93,1.52-2.86,2.32-.83.71-1.7,1.36-2.36,2.22-.22.14-.45.29-.67.44-.57.39-.2,1.34.46,1.19.28.34.76.52,1.19.39,1.15-.37,2.08-1.15,3.06-1.82.45-.31.91-.63,1.35-.95.47-.24.95-.47,1.43-.71,1.1-.56,2.2-1.11,3.29-1.67.66-.34,1.92-1.22,2.65-.61.49.41-.43,1-.77,1.23-.97.67-2.03,1.26-3.04,1.89-1.05.65-2.1,1.31-3.15,1.98l-1.69,1.07c-.57.37-1.19.68-1.64,1.19-.8.93.11,2.25,1.25,1.95,1.1-.29,2.16-1.18,3.13-1.77,1.05-.65,2.11-1.3,3.16-1.97,1.01-.64,2.02-1.26,3.02-1.92.35-.22.68-.47,1-.74.1-.01.19-.01.28,0-.13.48-.67.93-1.01,1.24-.78.69-1.61,1.34-2.41,2-.86.73-1.8,1.37-2.71,2.03-.56.4-1.13.91-1.73,1.33-.55.26-1.07.55-1.56.87-1.18.81-.39,2.91,1.14,2.41,1.97-.66,3.84-1.48,5.9-1.89.92-.18,1.87-.34,2.81-.39.12,0,.24,0,.36,0-.08.07-.15.13-.2.15Z"/>
        <path class="cls-1" d="M126.79,249.29c-.7-.45-1.39-.89-2.09-1.34-.36-.23-.88-.14-1.22.06-6.86,4.05-13.93,7.73-21.21,10.95-3.59,1.58-7.23,3.04-10.9,4.43-1.8.68-3.61,1.35-5.42,1.99-.98.34-1.97.65-2.94,1.03-.93.37-1.62.95-2.49,1.43-.49.27-.21,1.07.33,1.02,1.01-.1,1.87,0,2.86-.26,1-.26,1.99-.6,2.97-.93,1.83-.6,3.65-1.23,5.45-1.89,3.82-1.4,7.59-2.96,11.31-4.61,7.08-3.15,13.98-6.7,20.64-10.65.42.3.84.59,1.25.89,1.51,1.07,3.03-1.08,1.45-2.1Z"/>
        <path class="cls-3" d="M116.78,205.05c-.33-1.23-2.06-.97-2.33.13-.17.69-.1,1.42-.31,2.12-.19.63-.34,1.28-.56,1.89-.4,1.11-1.12,2.39-1.85,3.34-.81,1.05-1.75,1.98-2.85,2.72-1.17.79-2.49,1.2-3.72,1.88-1.06.59-.35,2.03.67,2.06,1.62.04,3.27-.83,4.6-1.69,1.33-.86,2.54-1.95,3.52-3.19,1.04-1.32,1.82-2.78,2.37-4.37.28-.81.46-1.58.5-2.44.04-.81.18-1.65-.03-2.44Z"/>
        <polygon class="cls-2" points="194.92 189.57 187.35 211.75 230.6 216.4 235.16 194.59 194.92 189.57"/>
        <path class="cls-3" d="M234.07,195.35c-1.33,6.63-2.47,13.31-3.95,19.91-3.11-.22-6.23-.37-9.35-.56-1.94-.12-3.87-.19-5.8-.39-1.8-.18-3.57-.57-5.37-.76-6.85-.7-13.7-1.5-20.52-2.42.78-3.23,1.7-6.42,2.78-9.57,1.23-3.55,2.73-7.06,3.66-10.71.31-1.22-1.42-1.7-2.01-.7-1.93,3.27-3.12,7.03-4.22,10.65-1.12,3.69-2.14,7.42-3.08,11.16-.17.66.34,1.42,1.01,1.53,7.31,1.2,14.64,2.22,22.01,2.98,1.82.19,3.64.14,5.46.29,1.8.15,3.6.38,5.4.55,3.72.36,7.46.7,11.2.8.6.02,1.19-.55,1.29-1.11,1.25-7.06,2.92-14.04,4.36-21.05.38-1.86-2.52-2.47-2.9-.59Z"/>
        <path class="cls-3" d="M235.95,193.3c-1.28-1.02-3.2-1.13-4.77-1.46-1.68-.35-3.36-.67-5.05-.97-3.45-.6-6.93-1.11-10.41-1.51-3.4-.4-6.8-.68-10.22-.84-3.53-.16-6.96.06-10.47.38-.98.09-1.21,1.7-.13,1.81,3.38.36,6.74.8,10.13,1.07,3.41.27,6.83.59,10.23.99,3.41.4,6.8.9,10.18,1.49,1.61.28,3.22.58,4.83.9,1.64.32,3.5,1.05,5.15.67,1.07-.25,1.39-1.85.54-2.52Z"/>
        <path class="cls-3" d="M117.99,97.87c-17.5,1.4-35.07,1.92-52.63,1.56-5-.1-10.01-.28-15-.53-.58-.03-1.26.45-1.49.97-4,8.99-8,17.98-12,26.97-4,8.98-8.32,17.89-11.7,27.12-.62,1.7,1.68,3,2.57,1.31,4.59-8.68,8.31-17.85,12.3-26.81,3.85-8.65,7.7-17.3,11.55-25.95,17.2.84,34.42.87,51.62.02,4.05-.2,8.09-.46,12.13-.76-7.46,19.5-14.99,38.97-22.42,58.48-2.09,5.49-4.22,10.97-6.25,16.49-11.86.48-23.73.48-35.6.81-2.52.07-2.29,3.95.23,3.9,12.28-.23,24.55-.83,36.84-.86.63,0,1.38-.47,1.62-1.06,8.11-20.35,15.54-40.99,23.33-61.47,2.22-5.83,4.43-11.66,6.65-17.49.47-1.24-.23-2.8-1.75-2.68Z"/>
        <path class="cls-3" d="M132.74,92.38c-.3-.99-1.83-1.16-2.27-.18-.26.59-.57,1.24-.95,1.82.64-6.97-3.35-13.77-10.38-16.09-1.61-.53-3.32-.78-5.04-.76-.36-.57-.78-1.11-1.25-1.61-6.6-6.99-17.78-3.42-24.36,1.64-3.61,2.78-6.6,6.29-8.72,10.33-1.08,2.06-1.92,4.25-2.52,6.49-.28,1.07-.48,2.17-.58,3.27-.11,1.3.05,2.16.7,3.28.28.47,1.08.58,1.43.12.45-.59.89-1.11,1.09-1.85.21-.79.35-1.59.54-2.39.36-1.48.79-2.95,1.37-4.36,1.18-2.87,2.81-5.54,4.83-7.89,4.15-4.84,10.67-9.11,17.29-8.75,2.13.11,4.34.91,5.95,2.36-1.03.31-2.02.74-2.94,1.29-3.42,2.05-5.58,6.94-2.44,10.24,3.18,3.35,8.37.92,10.19-2.6,1-1.94,1.23-4.07.82-6.08.23.02.47.04.69.08,3.55.57,6.66,2.57,8.46,5.7,1.41,2.45,1.96,5.34,1.5,8.11-.89-.67-1.77-1.34-2.66-2.02-1.32-1-3.24.06-2.75,1.77.79,2.74,3.45,4.75,6.29,4.69.2.02.4,0,.6-.04.07,0,.14-.01.2-.02,1.53-.24,2.95-1.07,3.93-2.27,1.07-1.31,1.47-2.64.97-4.28ZM109.92,86.93c-1.04.63-2.62.85-3.27-.42-.63-1.25-.03-2.67.88-3.58,1.13-1.14,2.69-1.81,4.32-2.13.63,2.18.07,4.91-1.93,6.12Z"/>
        <path class="cls-3" d="M147.87,36.19c-1.22-.95-2.58-1.76-4.02-2.4.29-6.54-2.48-12.67-6.67-17.65C128.28,5.56,114.01-.86,100.15.09c-11.9.82-23.47,7.54-29.47,17.93-.65-1.59-3.28-1.37-3.14.6l.41,5.85c.1,1.42,2.26,2.21,3.03.97,3.95-1.35,8.01-2.54,11.79-4.31,1.67-.79.96-3.23-.9-2.77-3.1.76-6.11,1.9-9.1,3.03,4.31-8.31,12.28-14.42,21.36-16.82,11.37-3,23.84.3,33.21,7.12,4.78,3.48,9.3,7.97,11.63,13.5.98,2.33,1.56,4.91,1.6,7.49-3.62-.83-7.45-.48-10.69,1.63-2.71,1.77-4.64,4.88-4.15,8.2.47,3.19,2.96,5.63,6.22,5.75,6,.24,10.01-5.42,11.37-10.82.1.06.21.11.31.16,5.9,3.29,8.41,10,8.62,16.46.25,7.76-2.71,15.01-5.01,22.28-.52,1.64,2.18,2.58,2.87,1.01,3.11-7.12,5.8-14.82,5.74-22.69-.05-6.86-2.41-14.14-7.99-18.49ZM137.94,41.66c-1.35,1.87-3.77,3.63-6.2,3.28-2.46-.36-3.08-3.32-2.12-5.28,1.17-2.4,4.03-3.58,6.56-3.79,1.38-.11,2.76.04,4.08.38-.39,1.93-1.13,3.78-2.32,5.41Z"/>
        <path class="cls-3" d="M88.87,33.58c-.85-.43-2.17-.13-2.55.83-3.74,9.29-7.11,18.75-10.64,28.12-1.35,3.59-2.43,8.71-6.12,10.66-3.39,1.8-7.83,1-11.47.67-10.02-.92-20.05-1.85-30.07-2.77-5.01-.46-10.02-.92-15.04-1.38-2.49-.23-4.99-.39-7.48-.68-.4-.05-1.46-.06-1.69-.48-.33-.61.65-2.52.85-3.09,1.81-5.28,3.62-10.56,5.4-15.84,1.82-5.41,3.73-10.84,5.07-16.4.33-1.37-1.77-2.13-2.37-.83-2.25,4.91-4.01,10.04-5.81,15.12-1.81,5.12-3.6,10.24-5.39,15.37-.77,2.2-2.2,4.85-1.23,7.19.83,2,2.99,2.58,4.95,2.77,5.41.53,10.82,1,16.23,1.5,10.74.99,21.48,1.98,32.22,2.97,4.57.42,9.41,1.32,13.98.48,2.15-.39,4.14-1.24,5.79-2.69,1.65-1.46,2.74-3.46,3.57-5.47,2.22-5.36,4.12-10.87,6.17-16.3,2.16-5.73,4.42-11.43,6.45-17.21.34-.97.17-2.04-.83-2.55Z"/>
        <path class="cls-3" d="M87,34.61c-2.58-.43-5.24-.52-7.85-.75-2.54-.22-5.08-.45-7.62-.67-5.16-.45-10.32-.91-15.48-1.36-10.32-.91-20.64-1.81-30.95-2.72-2.27-.2-4.57-.43-6.83-.04-2.08.35-5.16,1.21-5.48,3.63-.11.82.48,1.74,1.42,1.64.52-.06.92-.04,1.41-.31.33-.17.6-.45.93-.61.82-.41,1.74-.58,2.64-.66,1.94-.16,3.9.08,5.84.25,5,.44,10,.89,15,1.33,9.92.88,19.84,1.76,29.76,2.65,2.78.25,5.55.49,8.33.74,2.85.25,5.74.67,8.6.7,2.18.02,2.43-3.46.28-3.82Z"/>
        <path class="cls-2" d="M91.12,43.38c-4.08,1.53-9.06.76-11.86-3.36-2.7-3.98-1.88-9.94,1.8-13.04,5.7-4.8,15.48-1.2,16.5,6.23.68,4.95-2.44,8.67-6.44,10.17Z"/>
        <path class="cls-3" d="M29.95,115.11c-1.77-1.83-3.54-3.65-5.31-5.48-1.03-1.06-3.05-.09-2.88,1.37.17,1.5.63,2.91,1.33,4.18-.27-.14-.53-.29-.78-.43-2.49-1.41-4.71-3.36-6.39-5.68-3.57-4.93-4.4-11.09-2.77-16.9.91-3.27,2.59-6.33,4.86-8.85,1.2-1.33-.72-2.95-2-1.83-5.27,4.61-7.76,11.82-7.07,18.73.69,6.96,4.65,13.03,10.44,16.86,1.64,1.09,3.39,1.89,5.25,2.5.88.29,1.77.48,2.66.65-.74.19-1.56.24-2.16.36-1.46.29-2.86.83-3.81,2.04-.95,1.22-.2,3.02,1.42,2.98.59-.01,1.18-.05,1.77-.1.9-.07,1.43-.84,1.49-1.6.82-.18,1.7-.24,2.44-.48,1.63-.53,3.32-1.68,3.76-3.43.53-2.08-.92-3.54-2.24-4.9Z"/>
        <path class="cls-3" d="M215.46,164.2c-.02-.12-.03-.24-.05-.35-.18-.84-1.24-1.25-1.99-1.01-.39.12-.76.28-1.14.42-2.91-.15-5.73,1.51-7.21,4.02-.8,1.35.97,2.79,2.21,2,1.7-1.08,3.48-1.98,5.33-2.74-.05,2.77-1.83,5.43-3.95,7.09-3.16,2.47-7.32,3.13-11.22,3.37-7.79.48-16.65-.54-22.84,5.24-2.85,2.66-4.68,6.71-3.36,10.56.36,1.04,1.89.74,1.87-.35-.05-3.5,1.75-6.77,4.52-8.85,3.29-2.47,7.51-3.07,11.51-3.28,7.8-.4,16.84.54,22.85-5.53,1.82-1.84,3.06-4.09,3.51-6.52.49.73.8,1.58.85,2.47.11,2.05,3.34,1.86,3.18-.18-.21-2.65-1.77-5.06-4.05-6.34Z"/>
      </g>
      <path class="cls-2" d="M183.06,213.54c-3.28.85-7.17,2.84-10.46,1.02-.87-.48-1.66-1.28-1.88-2.24,1.55-.97,2.95-2.15,4.05-3.48.72-.87.3-2.07-.77-2.36-2.26-.62-4.45.72-5.53,2.68-.27.49-.45,1-.56,1.52-2.01.99-4.25,1.52-6.54,1.45-1.87-.05-4.49-.49-5.41-2.37-.02-.04-.04-.09-.05-.13,1.23-.55,2.45-.99,3.66-1.23.67-.13,1.09-1.06.85-1.66-1.1-2.69-4.92-3.07-6.61-.71-.42.58-.66,1.2-.76,1.83-.59.28-1.17.58-1.75.89-2.55,1.36-5.45,2.92-8.44,2.6-1.49-.16-3.33-.98-4.22-2.33,1.97-1.03,3.69-2.51,4.98-4.35.33-.47.49-1.26-.08-1.67-2.35-1.71-5.38-.73-6.95,1.57-.69,1.01-.93,2.14-.84,3.25-1.2.42-2.46.67-3.75.71-1.38.04-1.25,2.16.12,2.14,1.44-.02,2.87-.28,4.23-.72.47.96,1.17,1.83,2.03,2.49,5.01,3.85,10.14.86,15.14-1.67.63,1.3,1.74,2.41,3.03,3.04,3.6,1.74,7.86,1.41,11.59-.16.26.71.64,1.4,1.17,2,1.57,1.79,3.98,2.68,6.32,2.73,3.06.06,5.87-1.32,8.28-3.09.9-.66.26-2.05-.83-1.76ZM140.83,204.43c-.75.86-1.63,1.58-2.58,2.18.39-1.08,1.48-2.12,2.58-2.18Z"/>
    </g>
  </g>
</svg>