<?xml version="1.0" encoding="UTF-8"?>
<svg id="Layer_2" xmlns="http://www.w3.org/2000/svg" viewBox="0 0 273.96 342.65">
  <defs>
    <style>
      .cls-1 {
        fill: #fff;
      }

      .cls-2 {
        fill: #ff4a01;
      }

      .cls-3 {
        fill: #520815;
      }
    </style>
  </defs>
  <g id="Layer_1-2" data-name="Layer_1">
    <g>
      <path class="cls-3" d="M163.72,183.22c-1.18-6.7-4.42-12.74-9.3-17.49-2.73-2.66-5.93-4.73-9.58-5.86-1.89-.59-2.45,2.11-1.06,3.03,6.17,4.08,11.49,9,14.24,16.03,3.03,7.71,2.53,16.39-1.37,23.68-1.24,2.32,2.42,4.19,3.64,1.85,3.35-6.41,4.69-14.1,3.43-21.23Z"/>
      <path class="cls-3" d="M161.97,213.24c-1.33.19-2.68.41-4,.64-.15-.75-.19-1.54-.27-2.29s-.16-1.49-.23-2.25c-.01-.11-.25-2.32-.25-2.32-.07-.66-.05-1.32-.05-1.99v-.35c0-.85.54-1.59,1.39-1.75.77-.14,1.73.31,1.92,1.13.21.89.45,1.76.58,2.65.09.64.18,1.28.26,1.91.02.11.04.21.05.32l.32,2.32c.09.65.24,1.33.27,1.98Z"/>
      <path class="cls-3" d="M253.39,258.09c-.09.7-.29,1.42-.58,2.14-.2.49-.52.83-.9,1.03-1.05,1.62-2.47,3.06-4.1,4.2-4.54,3.19-10.39,4.5-15.58,6.21-10.39,3.43-20.77,6.84-31.16,10.29-5.15,1.7-10.31,3.39-15.45,5.12-5.04,1.7-10.12,3.81-15.34,4.89-5.01,1.03-9.78.47-14.27-2.06-4.33-2.44-8.15-5.86-12.02-8.97-4.15-3.34-15.28-12.38-19.36-15.78-4.54-3.79-11.92-8.01-13.84-13.97-2.26-7.04,6.51-10.75,11.7-12.56,14.47-5.06,28.77-10.35,43.1-15.77,10.11-3.83,20.99-7.13,31.8-4.26,4.99,1.32,16.66,9.29,21.13,11.83,4.92,2.8,9.75,5.72,14.62,8.6,4.69,2.77,9.57,5.36,14.1,8.4,1.38.92,2.68,2.03,3.72,3.31,1.75,2.1,2.82,4.62,2.44,7.36Z"/>
      <path class="cls-1" d="M234.6,248.4c-6.81,3.45-13.57,6.99-20.49,10.21-3.46,1.6-6.94,3.16-10.45,4.65-1.75.74-3.51,1.49-5.28,2.19-1.29.51-2.62.87-3.95,1.25-1.41.66-2.83,1.32-4.24,1.98-4.06,1.88-8.11,3.77-12.17,5.65-1.95.9-3.9,1.8-5.87,2.68-2.07.92-4.2,2.07-6.4,2.64-.63.16-1.17-.05-1.52-.42-.04-.03-.08-.05-.12-.08-1.42-1.01-2.67-2.34-3.97-3.49-1.32-1.17-2.68-2.31-4.03-3.43-2.66-2.18-5.34-4.35-8.05-6.48-2.7-2.13-5.4-4.27-8.13-6.37-2.32-1.8-5.05-3.46-7.12-5.61-.32-.23-.58-.53-.75-.87-.04-.04-.08-.08-.12-.13-.33-.42-.29-.84-.08-1.17.1-.44.38-.85.91-1.13,2.28-1.2,4.78-2.05,7.16-3.03,2.31-.95,4.63-1.89,6.95-2.83,8.27-3.32,16.54-6.63,24.81-9.96,4.18-1.67,8.35-3.35,12.53-5.02,4.16-1.67,8.3-3.55,12.54-5,.39-.13.81-.13,1.19-.02.49-.27,1.08-.35,1.65-.06,6.07,3.06,11.81,6.75,17.67,10.2,5.86,3.45,12.07,6.56,17.6,10.52.98.7.79,2.6-.27,3.13Z"/>
      <path class="cls-3" d="M273.57,184.8c-.45,18.38-5.92,36.44-10.65,54.03-1.15,4.26-1.5,11.57-4.8,14.71-1.63,1.55-3.44,2.89-5.36,4.04-.68.4-1.37.79-2.07,1.15-5.3,2.76-11.03,4.55-16.67,6.5-6.94,2.41-13.88,4.8-20.82,7.21-7.02,2.44-14.05,4.86-21.06,7.3-3.48,1.2-6.95,2.39-10.43,3.56-3.52,1.2-7.08,2.71-10.72,3.48-1.61.34-2.83-.75-2.67-2.39.1-1.06.24-2.12.36-3.2-.16-.32-.23-.71-.17-1.17.26-2.06.64-4.09,1.04-6.14,3.24-16.44,6.69-32.86,10.19-49.25,1.46-6.89,2.21-15.45,7.69-20.54,2.69-2.48,5.97-4.02,9.31-5.41,3.76-1.57,7.54-3.08,11.33-4.54,15.18-5.86,35.39-13.28,51.06-17.64,3.36-.93,7.31-2.13,10.56-.21,3.01,1.76,3.97,5.22,3.89,8.53Z"/>
      <path class="cls-1" d="M125.58,257.16c-.31-.31-.65-.6-.98-.89-.34-.31-.67-.62-1.03-.91-.34-.28-.69-.56-1.03-.84-.23-.19-.45-.37-.7-.54-.25-.17-.51-.31-.77-.46-.34-.19-.76-.22-1.13-.15-.36.07-.74.24-.98.53-.49.59-.64,1.49-.18,2.15.12.18.24.36.36.53.21.29.48.54.73.8.32.33.64.66.96.98.31.32.64.61.97.91.33.31.66.63,1.01.93.42.35.95.57,1.51.54.49-.03,1.08-.28,1.4-.67.74-.89.69-2.1-.13-2.92Z"/>
      <path class="cls-1" d="M132.49,263.17c-.11-.34-.3-.63-.56-.88-.15-.1-.3-.21-.45-.31-.33-.17-.68-.24-1.05-.22-.27,0-.52.08-.75.21-.25.09-.46.24-.64.45-.2.2-.33.44-.4.71-.11.25-.16.51-.13.79.03.17.06.34.1.51.11.34.3.63.56.88.15.1.3.21.45.31.33.17.68.24,1.05.22.27,0,.52-.08.75-.21.25-.09.46-.25.64-.45.2-.2.33-.44.4-.71.11-.25.16-.51.13-.79-.03-.17-.06-.34-.1-.51Z"/>
      <path class="cls-1" d="M140.58,268.91c-.17-.27-.41-.48-.69-.63-.04-.03-.09-.06-.13-.08-.3-.15-.62-.22-.96-.2-.33.02-.63.12-.91.29-.28.18-.5.43-.66.73-.15.3-.22.62-.2.96.02.33.12.63.29.91.18.28.43.5.73.66.3.15.62.22.96.2.33-.02.63-.12.91-.29.04-.03.08-.05.12-.08.54-.34.85-.97.82-1.61-.02-.31-.11-.6-.28-.86Z"/>
      <path class="cls-1" d="M151.33,276.79c-2.34,0-2.13,3.64.21,3.64s2.13-3.64-.21-3.64Z"/>
      <path class="cls-1" d="M250.07,255.64c-11.32,4.02-22.52,8.42-33.76,12.65-11.17,4.2-22.34,8.42-33.51,12.62-2.88,1.08-5.76,2.39-8.71,3.25-1.79.52-3.54.59-4.84-.9-.45-.52-1.47-.17-1.53.5-.21,1.99,1.23,3.18,3.11,3.48,2.18.35,4.3-.29,6.32-1.04l17.82-6.67c11.96-4.47,23.92-8.95,35.87-13.43,6.72-2.52,13.47-4.96,20.15-7.6,1.79-.71.91-3.51-.93-2.86Z"/>
      <path class="cls-2" d="M237.11,232.64c-.35,1.69-1.35,3.18-2.52,4.42-1.2,1.25-2.59,2.54-4.12,3.36-1.54.83-3.36,1.18-4.99.37-1.32-.66-2.25-2-2.63-3.4-.42-1.59-.25-3.24.45-4.72.32-.67.73-1.28,1.17-1.85.21-1.44,1.35-2.7,2.47-3.58,1.43-1.1,3.27-1.66,5.08-1.51,1.65.13,3.21.87,4.22,2.21.99,1.32,1.21,3.13.87,4.71Z"/>
      <g>
        <path class="cls-3" d="M113.57,118.1c2.46.71,5.7.07,7.42-1.91.62-.71.65-1.76.04-2.49-.63-.75-1.62-.84-2.46-.38-.09.05-.19.1-.28.16-.36.18-.66.31-.93.48-.14.06-.24.1-.34.14-.2.07-.41.14-.61.19-.03,0-.19.04-.27.05-.31.04-.52.05-.73.05-.12,0-.24,0-.36,0-.24-.03-.47-.07-.69-.12-.1-.02-.2-.05-.29-.08-.02,0-.07-.02-.11-.04-.05-.02-.1-.04-.11-.04-.12-.05-.23-.1-.35-.16-.18-.09-.36-.19-.53-.29-.09-.05-.17-.1-.26-.15-.37-.29-.69-.57-.99-.88-.14-.14-.28-.28-.42-.42-.14-.18-.22-.29-.29-.39-.98-1.42-3.15-.38-2.69,1.28.69,2.54,2.79,4.29,5.26,5.01Z"/>
        <path class="cls-3" d="M217.51,209.92c-4.69-1.27-9.57-1.86-14.4-2.35-4.79-.48-9.6-.76-14.42-.82-9.16-.14-18.31.5-27.37,1.86-.33.04-.65.09-.98.14-.96.15-1.92.31-2.89.48-17.44,2.99-34.62,8.6-50.13,17.15-3.06,1.69-6.07,3.53-9.01,5.51.09-.29.09-.63-.07-.99-1.95-4.56-4.5-8.9-6.77-13.3-2.24-4.37-4.5-8.73-6.72-13.11-4.45-8.75-8.83-17.54-13.13-26.36-2.79-5.73-5.52-11.47-8.24-17.24-.03-.49-.23-.96-.6-1.28-5.47-11.63-10.81-23.34-15.98-35.11-2.2-5.01-4.38-10.03-6.54-15.05-1.88-4.38-3.65-8.81-5.69-13.12.17-.23.25-.54.19-.92-.27-1.55,1.81-2.27,2.94-2.78,1.61-.74,3.36-1.71,3.93-3.51.59-1.88-.23-3.97-1.73-5.18-1.7-1.37-4-1.63-6.11-1.39-3.78.43-7.64,2.18-9.93,5.31-1.15,1.56-1.92,3.4-2.2,5.28-.29-.78-.49-1.61-.55-2.52,0-.12,0-.25,0-.37.34-.47.42-1.18.08-1.67.27-1.94,1.15-3.75,2.47-5.27,1.83-2.12,4.47-3.96,7.31-4.35,1.36-.19,2.73-.02,3.92.68,1.11.64,1.82,1.8,2.73,2.69.7.7,1.98.25,2.15-.7.2-1.1-.08-2.11-.63-2.99,2.3.13,4.81-.87,6.59-2.09,1.45-.99,2.74-2.27,3.81-3.67.61-.8,1.23-1.66,1.78-2.56,3.72,8.19,7.43,16.36,11.15,24.54,7.99,17.52,15.99,35.02,23.97,52.54,2.22,4.85,4.44,9.7,6.65,14.55l3.43,7.51c.56,1.21,1.11,2.43,1.66,3.64.28.6.49,1.31.92,1.82.08.09.17.16.25.23.05.13.12.26.2.39,3.13,4.71,6.53,9.73,11.74,12.34,4.73,2.37,10.62,2.55,14.78-1.05,1.65-1.43,2.82-3.31,3.57-5.36.48.29,1.11.39,1.67.32,2.11-.26,4.21-1.64,5.53-3.28,3.41-4.26,2.74-9.95.31-14.5-1.34-2.51-3.21-4.81-5.18-6.86-1.82-1.9-4.1-3.44-6.79-3.34-.39-1.88-.78-3.77-1.16-5.65-.39-1.87-.81-3.74-1.23-5.59-.22-.99-.42-2.03-.7-3.05,2.39-1.8,4.42-4.2,5.88-6.52,3.05-4.85,4.34-10.69,3.93-16.39-.23-3.25-.96-6.41-2-9.48.23.01.46,0,.66-.09.45-.16.87-.46,1.08-.91.03-.09.06-.17.09-.26.15-.07.29-.17.41-.3,2.1-2.38,2.44-6.04,2.17-9.08-.27-3.16-1.26-6.2-2.81-8.96-3.07-5.46-8.49-9.43-14.25-11.68-10.99-4.29-23.64-3.42-33.95,2.19-.05-.09-.1-.17-.15-.26-.06-.11-.12-.22-.18-.33-.01-.03-.02-.07-.04-.11-.18-.44-.35-.89-.48-1.36-.06-.21-.11-.43-.16-.68-.03-.19-.05-.33-.07-.47-.11-.92-.09-1.86-.07-2.8,0-.27,0-.21.04-.52.03-.23.06-.45.11-.67.01-.04.02-.08.03-.12,4.09-1.07,8.18-2.14,12.27-3.21,2.83-.73,5.65-1.46,8.48-2.18,1.68-.44,3.36-.87,5.04-1.3,1.76-.46,3.54-.92,5.3-1.37,5.36-1.39,10.9-3.35,16.48-3.43,2.23-.04,4.54.34,6.42,1.58,2.01,1.33,3.2,3.55,4,5.75.63,1.72,1.17,3.51,1.64,5.3.38,1.49.72,3.01,1.03,4.52.51,2.51.92,5.03,1.31,7.52,1.97,12.42,2.56,25,3.15,37.55.35,7.32.7,14.64,1.04,21.97.18,3.66.35,7.33.52,10.98.19,3.73.13,7.52.93,11.16.39,1.72,3.24,1.53,3.45-.19.43-3.48.06-6.98-.1-10.47-.15-3.33-.31-6.65-.47-9.98l-.96-20.47c-.61-12.99-1.1-26.01-3-38.9-.43-2.93-.91-5.87-1.5-8.79-.3-1.51-.62-3.03-.99-4.52-.42-1.78-.9-3.56-1.43-5.31-1.61-5.29-4.6-9.83-10.17-11.38-5.21-1.46-10.84,0-15.9,1.32-4.64,1.2-9.28,2.41-13.92,3.61-1.5.39-3.02.78-4.52,1.17-.37.1-.74.19-1.11.29-13.99,3.63-28.07,7.01-41.94,11.12-.45-1-.9-2-1.36-3.01-4.49-9.86-8.77-19.85-13.72-29.49-.18-.35-.44-.58-.73-.72,2.87-4.84,5.24-10.64,4.32-16.27-.48-2.9-1.81-5.81-3.88-7.94.02-.06.04-.12.05-.18.93-4.39-.6-9.1-3.91-12.14C34.75.21,29.98-.83,25.65.69c-.52.18-.87.64-.94,1.16-3.52-.11-7.17,1.35-8.93,4.41-.59.1-1.18.25-1.77.49-2.5,1.01-4.36,3.19-4.74,5.81-1.5.95-2.82,2.27-3.83,3.79-2.89,4.3-2.98,9.9-1.8,14.78.7,2.93,1.95,5.7,3.48,8.29,1.13,1.91,2.37,3.93,3.92,5.57,2.13,3.83,4.1,7.76,5.84,11.78.91,2.1,1.77,4.23,2.58,6.37.38,1,.75,2,1.12,3.01.04.12.08.23.12.35-.82-.75-1.67-1.46-2.61-2.08-1.32-.88-2.73-1.58-4.2-2.17-2.72-1.07-5.89-2.13-8.84-1.67-3.02.47-5.57,2.73-4.95,6.01.69,3.66,4.31,5.1,7.3,6.55,1.85.9,3.71,1.82,5.56,2.74.87.42,1.73.89,2.62,1.34-1,2.01-1.5,4.22-1.25,6.36.27,2.4,1.39,4.53,3.21,5.91,0,.83.07,1.67.26,2.51.55,2.58,2.12,5.26,4.47,6.61.08.2.17.39.26.58,1.79,3.67,6.19,5.95,10.14,4.52.3-.1.52-.28.68-.51.86,2.05,1.74,4.09,2.61,6.13,1.9,4.52,3.84,9.03,5.81,13.53,3.93,8.99,7.96,17.95,12.07,26.86,1.5,3.27,3.03,6.52,4.55,9.77-4.19,1.04-7.4,4.75-8.78,8.96-2.2,6.71.67,14.03,2.69,20.42,4.41,14.01,8.83,28.02,13.27,42.03l7.56,23.87c.21.65.61,1.06,1.09,1.27-.78,1.26-1.54,2.55-2.23,3.87-8.34,15.82-8.56,34.72-1.05,50.91,7.12,15.32,21.69,26.92,38.11,30.77,2,.47,4.04.82,6.08,1.05.99.12,1.95-.31,2.22-1.36.22-.89-.38-2.08-1.37-2.21-15.81-2.13-30.43-11.39-38.66-25.15-8.54-14.28-9.69-32.58-3.06-47.84,6.26-14.4,18.27-25.34,31.52-33.33,15.01-9.06,32.01-14.94,49.17-18.29,1.01-.2,2.02-.38,3.05-.56,1.32-.23,2.67-.45,4-.64,15.79-2.36,31.92-2.4,47.73-.22,2.29.32,4.56.65,6.86.9,2.55.27,3.59-3.29.95-4ZM126.35,159.59c-.15-.72-.3-1.44-.45-2.15,1.56.64,2.82,1.89,3.95,3.15,1.68,1.87,3.31,3.95,4.35,6.25,1.72,3.82,1.69,10.03-3.23,11.43-.17.05-.36.11-.55.17.27-1.56.36-3.16.24-4.69-.33-4.42-2.12-8.66-4.79-12.17.48-.51.63-1.26.48-1.99ZM81.9,121.09c.09-.1.18-.2.27-.3.05-.05.09-.12.13-.18,1.3-.59,2.36-2.11,3.23-3.17,1-1.23,1.93-2.55,2.8-3.89,1.73-2.7,3.11-5.6,4.16-8.64.16-.45.3-.92.44-1.38.17-.04.34-.08.52-.12.28-.06.4-.09.78-.14.69-.11,1.37-.22,2.07-.26.67-.05,1.35-.06,2.02-.05.17.01.34.02.5.02.18.02.36,0,.53-.06.07,0,.11,0,.18-.01.17-.01.33-.03.49-.08.23-.06.43-.16.62-.3.46-.35.72-1.04.34-1.56-.37-.49-.76-.68-1.32-.85-.25-.13-.43-.18-.62-.18-.22-.03-.46-.03-.68-.04-.75-.04-1.49,0-2.24.08-.78.11-1.59.23-2.36.47.71-3.06,1.09-6.22,1.09-9.37,0-1.64-.1-3.28-.32-4.89-.34-2.53-.85-5.13-1.82-7.52.84-.25,1.69-.47,2.56-.64,1.34-.28,2.74-.48,4.16-.61,4.11.85,7.74,3.11,10.91,6.04-1.62,1.12-2.46,3.36-2.54,5.38-.1,2.62.45,5.33,1.43,7.75,1,2.47,2.42,4.68,4.21,6.63,1.54,1.67,4.37,4.45,6.83,3.37.63-.28.9-.82.76-1.5-.41-1.95-2.73-3.05-4.07-4.35-1.39-1.34-2.53-2.94-3.39-4.67-.79-1.6-1.32-3.4-1.52-5.17-.15-1.37-.44-3.89.95-4.7.99,1.11,1.93,2.27,2.83,3.45-.14.13-.26.28-.36.48-.08.16-.13.36-.18.54-.13.43-.25.87-.34,1.3-.19.86-.37,1.71-.55,2.57-.15.69.34,1.49,1.06,1.6.77.13,1.39-.32,1.6-1.06.24-.83.49-1.67.72-2.52.02-.05.02-.09.04-.14.95,1.41,1.85,2.82,2.7,4.19,5.83,9.52,10.43,21.53,5.14,32.31-1.18,2.41-2.77,4.6-4.78,6.36-2.06,1.8-4.42,2.66-6.91,3.65-1.85.75-1.47,3.63.66,3.53,1.45-.06,2.86-.44,4.19-1.02.12.68.26,1.35.37,2.01.34,1.89.68,3.79,1.06,5.68.55,2.77,1.1,5.53,1.66,8.3-2.76-2.31-5.96-4.06-9.42-5.12-.27-7.73-4.31-15.48-10.27-20.3-5.73-4.64-13.47-7.06-20.75-5.83-.51-1.13-1.02-2.26-1.53-3.39.37-.31.74-.62,1.1-.93.29-.24.59-.48.85-.76ZM79.05,71.56c-.34,1.12-.39,2.31-.27,3.47.11,1.13.36,2.27.77,3.32.18.45.4,1.01.68,1.54-.2.14-.42.27-.62.41-5.09,3.56-9.88,8.52-12.49,14.27-2.74-6.03-5.46-12.06-8.21-18.08,6.74-1.51,13.45-3.2,20.13-4.93ZM31.27,3.76c1.53.44,2.99,1.19,4.18,2.31,1.87,1.78,2.97,4.45,3.04,7.09-.71-.3-1.45-.54-2.25-.67-.26-.04-.51-.07-.77-.09.02-1.9-.91-4.02-1.85-5.46-.89-1.38-2.07-2.56-3.46-3.45.37.07.75.16,1.12.26ZM26.73,5.64c1.63.58,3.02,1.74,3.95,3.2.47.71.81,1.47,1.04,2.29.14.5.18,1.01.24,1.52-1.17.28-2.28.73-3.33,1.34-1.79-3.32-5.09-6.46-8.82-7.51,2.13-1.15,4.58-1.68,6.91-.85ZM16.07,9.74c2.63-.53,5.18,1.07,6.94,2.88,1.02,1.05,1.95,2.34,2.62,3.72-.47.47-.91.96-1.33,1.47-1.7-2.78-4.13-5.25-6.96-6.27-1.4-.51-2.8-.63-4.14-.45.83-.67,1.85-1.13,2.88-1.34ZM17.5,74.23c-.43-.21-.87-.42-1.29-.63-1.4-.69-2.81-1.39-4.2-2.09-1.4-.7-2.81-1.4-4.2-2.11-1.14-.58-2.41-1.12-3.32-2.06-.53-.55-1-1.42-.65-2.18.1-.22.32-.42.65-.58.23-.12.67-.23,1-.29,2.23-.34,4.7.36,6.8,1.06,1.35.44,2.66,1.03,3.94,1.65,1.35.67,2.74,1.33,3.97,2.2.62.44,1.33.23,1.7-.23.08.1.16.22.26.32.81.75,2.18.29,2.41-.79.24-1.19-.22-2.32-.57-3.46-.36-1.17-.76-2.32-1.18-3.47-.79-2.15-1.63-4.29-2.53-6.39-1.85-4.37-3.93-8.65-6.19-12.82-.27-.48-.63-.75-1.02-.87-.36-.6-.72-1.17-1.08-1.76-1.06-1.74-2.05-3.55-2.87-5.43-1.56-3.62-2.48-7.64-1.72-11.56.59-3.09,2.43-6.41,5.64-7.36,3.19-.93,5.71,1.84,7.3,4.24.46.69.98,1.47,1.41,2.29-.3.62-.62,1.36-.94,2.16-.05-.14-.12-.28-.18-.4-.19-.36-.47-.68-.77-.94-.2-.17-.41-.32-.64-.45-.19-.25-.43-.49-.65-.7-.51-.47-1.1-.88-1.75-1.15-.71-.3-1.46-.54-2.24-.58-.29-.01-.58,0-.88.03-.13.02-.26.04-.4.06-.16,0-.3.05-.44.13-.12.04-.22.07-.23.07-.97.34-.96,1.88.12,2.06.1.02.19.04.29.06.08.03.16.06.25.08.13.03.26.06.39.09.04.02.08.03.12.04-.24.17-.47.38-.67.61-1.24,1.44-1.5,3.54-.82,5.29.74,1.91,2.25,3.22,4.23,3.75.92.26,1.9.28,2.84.1.28,1.55,1.09,2.86,2.74,3.6,3.26,1.45,6.5-1.58,8.56-3.77,2.16-2.29,4.3-5.35,4.94-8.49.42-2.04-2.48-3.05-3.45-1.2-1.04,1.95-1.83,3.94-3.25,5.69-.65.81-1.37,1.59-2.15,2.29-.67.61-1.63,1.54-2.56,1.71-.74.13-.81-.71-.72-1.52.03-.4.11-.78.16-1.04.03-.12.05-.25.09-.37.44-1.91,1.19-3.84,2.05-5.59.15-.24.28-.5.39-.76.06-.14.14-.27.22-.4.93-1.61,2.22-3.19,3.79-4.27,1.59-1.12,3.48-1.71,5.52-1.29,3.34.69,5.38,4.2,5.91,7.35.92,5.46-2.16,10.6-4.24,15.42-.59,1.37.33,2.45,1.42,2.61,3.29,8.27,7.08,16.31,10.78,24.39-1.76,2.29-3.08,4.93-5.42,6.74-1.07.82-2.27,1.45-3.6,1.75-1.32.3-2.76.17-4.07.16-.15-.01-.29.03-.41.08-.06-.38-.15-.73-.26-1.03-.5-1.35-1.39-2.59-2.52-3.5-2.48-1.98-5.61-2.49-8.63-1.57-2.66.81-5.25,2.66-7.18,5.03ZM15.96,26.38v-.14c0-.09.04-.18.06-.27.04-.08.08-.16.13-.24.18-.1.25-.13.32-.15.12-.01.23,0,.34-.01.26.08.36.13.45.19.07.09.11.14.13.15.06.08.11.15.16.22.22.29.44.54.78.69.42.19.93.28,1.38.11.05-.02.1-.04.15-.07-.14.5-.27,1-.36,1.5-.12.09-.17.1-.23.1-.21.01-.42-.01-.63-.01-.1,0-.21,0-.32,0-.05,0-.15,0-.19-.02-.11-.01-.22-.03-.33-.06-.13-.02-.26-.07-.39-.1-.19-.08-.38-.18-.56-.29-.09-.07-.19-.14-.28-.22-.03-.03-.06-.07-.09-.1-.1-.16-.21-.31-.31-.48-.06-.17-.07-.2-.08-.21-.02-.05-.03-.1-.05-.14-.01,0-.04-.08-.06-.18-.01-.13-.02-.2-.02-.27ZM18.17,85.61c-.51-1.08-.7-2.32-.53-3.51.17-1.18.6-2.32,1.2-3.39.53-.94,1.19-1.83,1.94-2.63.41-.46.86-.89,1.32-1.29,1.9-1.63,4.73-3.01,7.26-2.08,1.09.41,2.09,1.2,2.68,2.22.03.06.06.12.09.19-2.52-.04-5.06.88-7.17,2.15-3.12,1.88-5.65,4.89-6.79,8.33ZM32.38,93.22c-1.09-.15-2.41.93-1.98,2.22.58,1.79,1.25,3.55,1.94,5.3-.08,0-.16,0-.24.01-2.39.32-4.9-.83-6.14-2.91-1.35-2.26-.83-5.37.62-7.46,1.55-2.25,4.22-3.64,6.86-4.08,1.27-.22,2.96-.4,4.06.42.77.57,1.14,1.56.48,2.37-.86,1.05-2.63,1.39-3.74,2.15-.74.52-1.41,1.18-1.86,1.96ZM76.81,252.13c-4.04-12.78-8.07-25.56-12.1-38.34-2.06-6.53-4.14-13.06-6.2-19.58-1.06-3.33-2.12-6.66-3.18-10-.94-3.01-1.89-6.05-2.12-9.22-.22-2.94.2-5.9,1.92-8.37,1.2-1.72,2.95-3.01,4.95-3.46,6.31,13.36,12.81,26.63,19.53,39.77,2.49,4.87,4.99,9.74,7.56,14.57,2.62,4.94,5.04,10.12,8.1,14.8.34.52.87.72,1.41.71-7.58,5.32-14.47,11.65-19.87,19.11Z"/>
      </g>
    </g>
    <g>
      <path class="cls-3" d="M270.53,6.24c-31.84.51-12.2-.67-44.04-.17-31.68.51-63.35.99-95.03,1.54-8.93.16-17.87.28-26.8.48-4.38.1-8.77.2-13.15.31-4.56.11-9.07.38-13.61.76-1.62.13-1.42,2.4.14,2.48,15.9.8,31.89.16,47.8-.07,15.92-.23,31.84-.47,47.76-.72,31.68-.5,79.3-.36,97.16-.65,2.56-.04,2.33-4-.23-3.96Z"/>
      <path class="cls-3" d="M81.82,31.47c-.13-2.18-.29-4.37-.46-6.55-.34-4.27-.67-8.6-1.36-12.84-.38-2.3-3.85-2.22-3.7.21.28,4.29.79,8.57,1.14,12.85.17,2.11.32,4.21.46,6.32.14,2.14.02,4.48.51,6.57.43,1.8,3.35,1.61,3.6-.2.28-2.05-.07-4.3-.2-6.37Z"/>
      <path class="cls-3" d="M226.07,32.15c-4.9,6.55-9.54,13.31-14.3,19.97-2.36,3.3-4.69,6.62-7.03,9.94-1.14,1.63-2.29,3.26-3.43,4.89-1.19,1.69-2.62,3.46-3.35,5.4-.36.97.69,2.42,1.73,1.57,1.6-1.32,2.8-3.12,4.01-4.78l3.5-4.83c2.42-3.34,4.84-6.69,7.24-10.06,4.8-6.72,9.71-13.38,14.35-20.2,1.05-1.54-1.6-3.4-2.72-1.89Z"/>
      <path class="cls-3" d="M271.93,32.63c-31.85.53-12.21-.64-44.06-.11-31.68.52-63.37,1.05-95.05,1.57-8.94.15-17.87.28-26.81.44-8.92.16-17.89.1-26.8.64-2.32.14-2.06,3.49.21,3.55,7.95.22,15.94-.11,23.89-.21,7.96-.1,15.92-.25,23.88-.38,15.92-.26,31.85-.53,47.77-.79,31.68-.52,79.32-.47,97.19-.76,2.54-.04,2.31-3.98-.23-3.94Z"/>
      <g>
        <path class="cls-2" d="M91.18,15.6c0-.37-.02-.73-.04-1.1-1.54.05-3.07.11-4.6.18-.07,0-.13.02-.19.03-.24-.47-.65-.79-1.18-.76-.7.05-1.29.77-1.23,1.59.3,4.79.84,9.56,1.34,14.32.06.53.32,1.01.7,1.28-.02.77.44,1.6,1.33,1.64,1.55.07,3.11.11,4.66.13-.14-2.36-.26-4.72-.38-7.09-.18-3.41-.3-6.82-.4-10.24Z"/>
        <path class="cls-2" d="M101.78,15.95c-.06-.57-.14-1.14-.22-1.72-2.55.05-5.08.1-7.63.18.02.49.05.97.07,1.45.19,3.33.4,6.66.6,10,.14,2.37.3,4.73.46,7.1,2.88,0,5.75-.03,8.63-.07-.25-2.49-.52-4.97-.81-7.45-.36-3.17-.74-6.33-1.1-9.49Z"/>
        <path class="cls-2" d="M112.99,15.12c-.03-.35-.07-.7-.11-1.04-2.72.02-5.45.05-8.17.09.06.45.13.9.19,1.34.46,3.15.88,6.31,1.26,9.47.32,2.61.61,5.23.89,7.84,2.55-.05,5.11-.08,7.67-.12-.19-2.52-.41-5.04-.65-7.56-.32-3.35-.71-6.69-1.07-10.03Z"/>
        <path class="cls-2" d="M125.22,13.97c-3.04.03-6.08.06-9.13.08.02.14.04.27.06.41.5,3.41.88,6.83,1.25,10.25.28,2.65.54,5.29.78,7.94,2.65-.04,5.3-.08,7.95-.12-.15-2.89-.3-5.79-.45-8.68-.17-3.3-.31-6.59-.45-9.89Z"/>
        <path class="cls-2" d="M135.91,13.84c-1.94.03-3.9.06-5.84.08-.56,0-1.13.02-1.69.02.24,3.22.47,6.46.67,9.7.18,2.95.37,5.9.55,8.85,2.37-.04,4.74-.08,7.11-.12-.03-2.36-.09-4.7-.18-7.05-.14-3.83-.38-7.66-.62-11.48Z"/>
        <path class="cls-2" d="M147.89,13.66c-2.86.05-5.72.09-8.58.13.36,3.75.58,7.52.75,11.29.11,2.4.18,4.81.22,7.23,3-.05,5.99-.09,9-.14l-.57-7.13c-.3-3.79-.6-7.59-.82-11.38Z"/>
        <path class="cls-2" d="M158.38,13.69l-.02-.19c-2.48.05-4.97.08-7.45.12.41,3.73.74,7.47,1.07,11.2l.66,7.3c2.47-.05,4.93-.08,7.4-.12-.14-2.6-.32-5.2-.55-7.79-.3-3.52-.69-7.01-1.1-10.52Z"/>
        <path class="cls-2" d="M169.21,13.32c-2.53.05-5.05.08-7.58.13.5,3.52.82,7.07,1.14,10.54.24,2.64.44,5.3.6,7.95.62,0,1.24-.02,1.86-.03l4.54-.07c-.23-2.84-.4-5.66-.5-8.51-.11-3.32-.15-6.66-.06-10.02Z"/>
        <path class="cls-2" d="M181.55,13.09c-2.96.06-5.92.11-8.88.17-.03,3.28,0,6.55.14,9.84.13,2.9.33,5.8.61,8.69l8.34-.13c-.17-2.96-.28-5.93-.31-8.9-.03-3.23,0-6.45.11-9.67Z"/>
        <path class="cls-2" d="M191.73,12.89c-2.4.06-4.79.1-7.2.15.09,3.17.2,6.33.35,9.49.14,3.02.31,6.05.52,9.07l7.4-.11c-.1-1.51-.19-3.01-.29-4.52-.3-4.69-.58-9.38-.78-14.08Z"/>
        <path class="cls-2" d="M203.24,15.59c-.05-.98-.1-1.95-.15-2.94-2.72.06-5.45.12-8.17.17.44,4.55.82,9.11,1.17,13.67.12,1.65.25,3.29.38,4.92l7.63-.12c-.07-1.28-.14-2.56-.22-3.84-.23-3.96-.44-7.91-.63-11.87Z"/>
        <path class="cls-2" d="M214.74,12.41c-2.39.06-4.78.1-7.17.16-.49,0-.98.02-1.47.03.06.93.14,1.86.22,2.79.33,3.95.64,7.9.93,11.86.1,1.33.2,2.67.3,4l7.51-.12c-.04-.98-.07-1.96-.1-2.95-.16-5.22-.3-10.51-.21-15.77Z"/>
        <path class="cls-2" d="M224.95,12.17c-2.39.06-4.77.12-7.15.17.03,1.33.06,2.65.1,3.98.12,3.88.27,7.76.43,11.64.04,1.04.08,2.08.14,3.12l7.08-.12c-.16-2.07-.29-4.14-.38-6.21-.19-4.2-.28-8.39-.22-12.57Z"/>
        <path class="cls-2" d="M237.49,27.01c-.16-1.63-.3-3.26-.41-4.9-.14-2.12-.26-4.23-.33-6.36-.06-1.28-.09-2.56-.1-3.84-1.01,0-2.01.03-3.01.05-1.86.05-3.74.09-5.6.14.15,4.22.34,8.43.62,12.64.14,2.05.29,4.11.46,6.17l5.44-.08,3.35-.06c-.16-1.25-.3-2.5-.42-3.76Z"/>
      </g>
      <path class="cls-2" d="M202.77,81.96c-1.15,1.88-2.84,3.23-4.88,4.05-3.89,1.56-8.63.21-10.68-3.55-.59-1.07-.95-2.23-1.09-3.4-.2-.11-.38-.27-.5-.45-.03-.03-.12-.18-.16-.25-.09-.11-.19-.21-.27-.33-.32-.5-.4-1.01-.36-1.57.05-.68.13-1.32.36-1.96.42-1.22,1.1-2.35,1.99-3.3,1.75-1.85,4.19-3.12,6.76-3.25,4.48-.22,8.72,3.21,9.69,7.56.49,2.17.31,4.51-.87,6.45Z"/>
      <path class="cls-3" d="M204.12,69.9c-1.75-2.13-4.8-4.2-7.67-4.09-.88-.15-1.77-.2-2.63-.09-2.58.32-4.93,1.35-6.89,3.06-4.07,3.57-4.52,9.4-2.12,14.03,2.45,4.73,7.68,7.1,12.84,5.9,5.07-1.18,9.01-5.75,9.23-10.96.11-2.81-.98-5.69-2.75-7.85ZM197.9,84.21c-1.66.64-3.25.79-4.94.3-1.38-.4-2.79-1.54-3.66-2.81-1-1.46-1.5-3-1.54-4.74-.02-.78.06-1.39.34-2.25.02-.04.08-.21.08-.22.09-.23.2-.45.31-.66.1-.2.22-.39.34-.57.02-.01.3-.39.34-.45,1.19-1.43,2.78-2.37,4.7-2.83.74-.18,1.93-.33,2.84-.29.58.02,1.2.04,1.81.11.87.46,1.49,1.1,2.16,1.81,1.2,1.27,2.06,2.96,2.3,4.7.49,3.64-1.88,6.67-5.08,7.91Z"/>
    </g>
  </g>
</svg>