<?xml version="1.0" encoding="UTF-8"?>
<svg id="Layer_2" xmlns="http://www.w3.org/2000/svg" viewBox="0 0 272.54 317.13">
  <defs>
    <style>
      .cls-1 {
        fill: #fff;
      }

      .cls-2 {
        fill: #fcb307;
      }

      .cls-3 {
        fill: #520815;
      }
    </style>
  </defs>
  <g id="Layer_1-2" data-name="Layer_1">
    <g>
      <path class="cls-3" d="M204.34,58.92c1.76-4.8,5.53-9.02,9.52-12.12,4.12-3.21,8.91-5.54,13.99-6.78,4.95-1.2,10.14-1.3,15.11-.21,5.11,1.13,11.05,3.98,12.17,9.65.96,4.89-1.62,8.7-5.08,11.68,1.79-.35,3.62-.56,5.44-.61,3.52-.1,7.1.6,10.21,2.29,5.72,3.11,9.26,10.94,4.88,16.61-.95,1.23-2.87.05-2.05-1.32,1.33-2.24,1.31-5.17.36-7.55-1.04-2.61-3.2-4.55-5.75-5.66-2.73-1.19-5.74-1.53-8.7-1.35-1.77.11-3.52.44-5.26.77-1.85.35-3.78.68-5.59,1.2-1.47.43-1.94-1.65-.83-2.37,4.24-2.74,9.95-6.56,9.48-12.38-.4-4.96-6.09-7.14-10.24-8.04-8.66-1.89-18.21.55-25.25,5.83-1.98,1.48-3.82,3.18-5.41,5.08-1.69,2.03-2.96,4.3-4.26,6.58-.86,1.51-3.35.33-2.75-1.3Z"/>
      <path class="cls-3" d="M197.71,48.43c.04.43.62.67.98.47.42-.25.85-.33,1.22-.7.34-.34.62-.76.91-1.13.6-.78,1.29-1.47,2.05-2.09,1.1-.89,2.36-1.57,3.7-2.02.41-.15.82-.26,1.23-.35.3-.06.61-.12.91-.16,2.94-.39,6.07.4,8.63,1.94.64.37,1.23.79,1.79,1.26.87.74,1.93-.68,1.24-1.47-.3-.35-.63-.68-.95-.98-1.42-1.38-3.02-2.39-4.99-2.99-1.53-.47-3.15-.7-4.75-.65-.83.02-1.66.11-2.46.28-.13.03-.26.05-.38.09-2.16.52-4.18,1.56-5.91,2.95-.9.74-1.72,1.59-2.43,2.52-.35.46-.68.97-.86,1.53-.18.54,0,.96.06,1.5Z"/>
      <path class="cls-3" d="M117.96,11.94c3.23-1.75,6.84-2.78,10.52-2.93,6.25-.26,12.5,1.8,17.13,6.07,4.38,4.04,7.25,9.54,7.93,15.47.23,1.96,3.2,1.32,2.98-.61-.66-5.59,2.11-10.95,6.2-14.59,8.52-7.58,20.61-6.08,29.72-.41,4.71,2.94,8.96,6.89,11.72,11.75,2.28,4,3.66,8.73,2.68,13.26-.14.63-.31,1.24-.54,1.86-.17.45-.03.87.26,1.17.41-.15.82-.26,1.23-.35.3-.06.61-.12.91-.16.43-.95.75-1.91.98-2.89,1.29-5.47-.42-11.12-3.57-15.9-6.85-10.39-19.82-17.97-32.47-16.52-8.52.98-16.42,7.1-19.19,15.1-.43-.99-.91-1.97-1.46-2.9-3.44-5.88-9.03-10.42-15.6-12.31-6.89-1.98-14.48-1.2-20.79,2.24-1.68.93-.33,3.59,1.36,2.67Z"/>
      <path class="cls-3" d="M17.02,68.59c1.39-2.29,3.38-4.28,5.55-5.83,4.65-3.32,10.33-4.83,15.96-4.18.16-6.18,3.45-12.1,8.88-15.26,5.45-3.18,12.59-2.97,17.96.25.25-2,.54-4,1.01-5.96.32-1.32,2.22-.82,2.23.42.01,2.74-.36,5.47-.64,8.19-.11,1-1.33,1.85-2.24,1.14-4.69-3.65-11.38-4.4-16.63-1.47-4.92,2.75-7.96,8.6-7.44,14.2.11,1.23-.8,2.06-2.02,1.8-4.8-1.02-9.88.06-14.05,2.59-2.08,1.26-3.95,2.96-5.36,4.94-.63.88-1.42,2.01-1.37,3.15.06,1.31,1.56,1.43,2.57,1.45,3.17.08,6.41-.32,9.57-.49,3.37-.18,6.74-.31,10.1-.47,6.74-.31,13.47-.62,20.21-.93,7.65-.35,15.31-.7,22.96-1.05.94-.04,1.67.97,1.63,1.83-.05,1.02-.9,1.59-1.83,1.63-15.16.68-30.31,1.36-45.46,2.03-3.83.17-7.65.34-11.48.47-1.64.06-3.27.14-4.91.17-1.43.02-2.94-.1-4.21-.81-3.02-1.69-2.55-5.28-1-7.83Z"/>
      <path class="cls-3" d="M267.97,78.14c-2.88-.38-5.94.05-8.84.18-2.88.13-5.77.3-8.65.42-10.4.43-20.81.56-31.22.2-2.59-.09-5.15-.36-7.74-.38-2.58-.01-5.17.01-7.76-.12-3.47-.17-6.95-.37-10.42-.62-.05.04-.09.09-.15.12-.33.3-.72.51-1.16.64.13.59.11,1.25-.14,1.99,0,.03-.02.05-.03.08,4.67.31,9.34.56,13.99.97,2.57.22,5.16.46,7.73.52,2.57.05,5.18-.04,7.76-.04,5.17,0,10.34-.02,15.51-.11,5.24-.09,10.49-.27,15.72-.53,2.63-.13,5.25-.28,7.87-.49,2.53-.2,5.21-.24,7.65-.96,1.04-.31.95-1.73-.14-1.88Z"/>
      <path class="cls-3" d="M188.59,78.92c.13-.15.4-.33.47-.39.28-.2.47-.42.8-.54.47-.16,1.04-.23,1.53-.28.92-.1,1.85-.13,2.77-.12,1.87.01,3.78.26,5.57.83.62.2,1.07.72,1,1.4-.07.59-.59,1.23-1.25,1.18-1.74-.14-3.48-.25-5.22-.24-.86,0-1.72.06-2.58.15-.44.04-.89.1-1.33.09-.46,0-1.07-.24-1.47-.46-.6-.33-.72-1.11-.28-1.62Z"/>
      <path class="cls-3" d="M3.09,135.74c2.01-2.43,4.11-4.79,6.76-6.54,3.4-2.25,8.32-2.9,11.95-1.07-.27-5.07.82-10.16,4.24-14.14,3.9-4.53,10.08-6.57,15.59-3.76,1.18.6,2.22,1.41,3.1,2.38,1.22-4.54,4.34-8.56,8.43-10.92,5.57-3.21,12.62-2.56,17.83,1.07,2.9,2.02,5.34,4.88,6.06,8.4.26,1.28-1.49,1.83-2.12.74-1.67-2.91-3.77-5.48-6.72-7.17-2.84-1.62-6.24-2.38-9.48-1.79-6.86,1.25-11.82,7.96-11.51,14.82.08,1.74-2.68,1.88-3.01.22-.54-2.8-2.78-4.86-5.44-5.72-2.76-.88-5.69-.21-8.04,1.41-5.97,4.11-6.46,12.16-5.06,18.62.39,1.8-2.24,2.74-3.06,1.07-2.08-4.2-7.82-3.52-11.12-1.37-2.21,1.44-3.98,3.49-5.61,5.52-1.02,1.27-4.05,4.34-1.35,5.35.92.34,1.95.34,2.92.33,1.83,0,3.67-.03,5.5-.04,3.36-.02,6.73-.06,10.09-.11,6.88-.11,13.76-.28,20.63-.51,7.64-.26,15.27-.59,22.91-.99.98-.05,1.76,1.01,1.7,1.91-.06,1.07-.93,1.65-1.91,1.7-15.57.87-31.16,1.39-46.75,1.59-3.82.05-7.64.1-11.46.07-2.64-.02-5.97-.14-7.49-2.7-1.83-3.07.53-6.07,2.44-8.39Z"/>
      <path class="cls-3" d="M250.45,193.67c.88-1.55,1.82-3.06,2.77-4.57.95-1.5,1.93-2.99,2.92-4.47.92-1.37,1.79-2.9,3.2-3.82,3.12-2.03,6.17,1.08,5.5,4.33-.35,1.67-1.31,3.26-2.07,4.77-.79,1.58-1.6,3.15-2.44,4.71-.93,1.73-1.97,3.41-3.01,5.08-.5.81-1,1.62-1.54,2.4-.62.89-1.34,1.62-2.04,2.44-.75.87-2.36-.19-1.89-1.22.78-1.73,1.57-3.38,2.5-5.04.86-1.55,1.69-3.11,2.51-4.68.85-1.63,1.72-3.24,2.55-4.88.4-.79.79-1.58,1.17-2.38.35-.72.83-1.55.83-2.37,0-.44-.12-.24-.31-.05-.49.5-.87,1.03-1.26,1.61-1.08,1.59-2.13,3.19-3.17,4.8-.96,1.5-1.88,3.02-2.83,4.53-.51.81-1.02,1.62-1.52,2.44-.51.83-.9,1.68-1.82,2.12-.75.36-1.96-.02-2.04-.98-.14-1.73,1.16-3.32,1.99-4.78Z"/>
      <path class="cls-3" d="M243.67,194.01c.77-2.95,1.71-5.84,2.84-8.67.6-1.5,1.26-2.99,1.95-4.45.58-1.22,1.27-2.41,2.4-3.21,1.16-.82,2.65-1.18,4.03-.71,1.37.47,2.22,1.69,2.59,3.03.34,1.22.24,2.55.1,3.79-.17,1.48-.46,2.97-.88,4.4-.86,2.98-2.29,6.42-4.8,8.35-.92.7-2.51-.05-2.03-1.31.56-1.47,1.35-2.79,2.02-4.22.59-1.25,1.06-2.58,1.45-3.91.41-1.43.68-2.89.79-4.38.04-.48.07-.97,0-1.45-.03-.18-.13-.58-.15-.63-.06-.14-.12-.26-.19-.29-.74-.35-1.45.74-1.77,1.28-.78,1.32-1.35,2.79-1.93,4.21-1.23,3.01-2.25,6.1-3.08,9.25-.24.92-1.36,1.42-2.23,1.14-.95-.31-1.38-1.3-1.14-2.23Z"/>
      <path class="cls-3" d="M239.33,189.72c.42-1.12.83-2.24,1.25-3.36.78-2.11,1.43-4.36,2.5-6.33,1.01-1.86,2.99-3.44,5.21-3.12,1.98.28,3.47,2.43,2.64,4.36-.44,1.02-2.17.88-2.04-.38.1-1.02-1.34-1.01-1.93-.6-1.13.78-1.51,2.39-1.95,3.6l-1.81,4.98c-.31.85-.62,1.7-.93,2.56-.33.91-.56,2.15-1.35,2.76-.9.7-2.29.39-2.53-.82-.25-1.2.53-2.53.95-3.65Z"/>
      <path class="cls-3" d="M231.2,196c1.02-1.94,1.82-4.1,2.14-6.27.17-1.14.23-2.29.32-3.45.1-1.28.45-2.58,1.5-3.41,1.05-.84,2.49-1.01,3.63-.23.98.67,1.43,1.81,1.72,2.91.63,2.41,1.14,5.26.47,7.7-.36,1.31-2.3,1.11-2.56-.14-.22-1.04-.24-2.09-.36-3.15-.11-.98-.28-1.96-.5-2.92-.07-.28-.14-.56-.22-.84-.03-.09-.05-.19-.08-.28-.05-.14-.11-.24-.17-.34-.09.17-.11.37-.14.56-.14.95-.12,1.91-.28,2.85-.17,1.01-.4,2.01-.65,3.01-.5,1.98-1.27,3.86-2.22,5.67-.39.74-1.47.89-2.13.47-.75-.48-.85-1.39-.47-2.13Z"/>
      <g>
        <path class="cls-2" d="M152.28,140.05s8.61,7.68,13.03,13.26c4.42,5.58,5.82,21.39,5.82,21.39,0,0,1.62,10.7,2.09,26.28.08,2.68.56,6.3,1.31,10.42.14.8.29,1.61.46,2.45,3.65,18.93,11.72,46.2,11.72,46.2,0,0,2.33.23,7.45-1.86,5.11-2.1,11.63-7.68,11.63-7.68l-21.39-52.79s5.11-1.16,10.23-5.58c5.12-4.42,3.72-19.76,3.72-19.76,0,0-14.88-13.96-26.97-25.58-12.1-11.63-16.97-10.94-17.67-11.17l-1.4,4.42Z"/>
        <polygon class="cls-2" points="149.72 193.07 155.54 194.7 157.4 189.58 149.72 193.07"/>
        <path class="cls-2" d="M103.68,216.32c3.93,1.21,13.16-2.1,19.15-4.57.85-.35,1.62-.68,2.31-.98,1.95-.85,3.19-1.44,3.19-1.44,0,0-1.63-3.25-3.95-10-2.33-6.74,3.49-14.88,3.49-14.88,0,0,5.81-3.95,10.93-6.98,5.12-3.02,17.21-14.19,17.21-14.19,0,0-8.61-19.29-21.4-28.37-8.06-5.72-14.42-.23-22.09,8.14-7.67,8.38-14.88,46.28-16.85,53.69-.21.79-.35,1.62-.42,2.47-.67,7.06,3.03,15.44,8.43,17.09Z"/>
        <path class="cls-2" d="M69.03,254.23c-.24.74,10.37,5.16,21.96,9.26,1.08.39,2.16.76,3.25,1.14,9.54,3.29,19.11,6.11,23.39,6.34,6.55.34,8.41-1.45,8.91-2.74.27-.67.16-1.21.16-1.21l-1.67-.53-51.3-16.52-1.22-.39s-.29.31-.72.8c-.92,1.05-2.45,2.89-2.77,3.85Z"/>
      </g>
      <path class="cls-3" d="M156.6,214.86c.11,0,.22.02.33.03,3.07.29,6.2.31,9.29.2,1.57-.06,3.15-.16,4.71-.33,1.21-.13,2.52-.23,3.65-.72.14-.06.27-.12.4-.19.21-.11.41-.24.61-.39.71-.55.29-1.56-.4-1.86-.21-.09-.43-.17-.66-.2-.11-.04-.22-.06-.33-.06-1.14-.18-2.39.02-3.5.07-1.54.07-3.08.15-4.63.18-2.64.06-5.27-.05-7.92-.19-.44-.02-.89-.05-1.34-.07-2.28-.13-2.46,3.31-.2,3.53Z"/>
      <g>
        <path class="cls-3" d="M165.28,87.35c-.1-.05-.16-.07-.21-.09-.18-.07-.35-.14-.52-.24-.23-.14-.46-.28-.7-.41-.24-.13-.47-.28-.7-.41,0,0-.13-.07-.22-.12-.15-.06-.23-.1-.32-.13-.5-.21-1.01-.39-1.54-.51-.04,0-.09-.02-.13-.03-.11,0-.29-.05-.39-.06-.29-.04-.58-.04-.86-.06-.43-.02-.87-.08-1.25-.3-.43-.25-.78-.81-.73-1.31.07-.69.59-1.19,1.24-1.39.36-.11.77-.11,1.15-.09,1.29.09,2.55.44,3.71,1.01.62.31,1.23.7,1.74,1.17.52.49.9,1.04,1.14,1.71.34.93-.49,1.7-1.39,1.26Z"/>
        <path class="cls-3" d="M142.77,97.52c-.19-.02-.4-.04-.57-.1-.2-.06-.38-.18-.56-.27-.17-.09-.35-.18-.52-.27-.35-.19-.68-.45-1.01-.68-.33-.23-.68-.45-1-.7-.15-.12-.31-.25-.46-.37-.37-.3-.67-.61-.77-1.11-.03-.04-.05-.07-.07-.11-.14-.26-.15-.54-.17-.83-.01-.23.12-.47.26-.63.16-.19.36-.31.61-.37.28-.07.53-.08.82,0,1,0,1.88.84,2.58,1.39.39.31.82.6,1.18.95.36.35.74.71.95,1.18.19.43.2.91-.07,1.32-.24.38-.73.67-1.19.61Z"/>
        <path class="cls-3" d="M70.44,249.77c.45.2.9.41,1.36.62.49.21.98.42,1.47.64,7.03,3.08,14.19,5.86,21.47,8.34,1,.34,2.01.68,3.01,1,.58.19,1.16.39,1.74.57,5.53,1.78,11.13,3.38,16.77,4.81,2.69.68,5.4,1.39,8.14,2.02.71.17,1.42.33,2.15.48.24.05.48.1.72.15.31-.92.49-1.91.53-2.93.06-1.34-1.65-1.48-2.14-.41-.19.42-.4.93-.63,1.45l-51.3-16.52c.14-.37.25-.74.34-1.12.43-1.79-1.95-2.52-2.69-.87-.27.62-.58,1.21-.95,1.79ZM124.38,199.35c-2.33-6.74,3.49-14.88,3.49-14.88,0,0,5.81-3.95,10.93-6.98,5.12-3.02,17.21-14.19,17.21-14.19,0,0-8.61-19.29-21.4-28.37-8.06-5.72-14.42-.23-22.09,8.14-7.67,8.38-14.88,46.28-16.85,53.69-.13-.12-.25-.23-.39-.33-.1.96-.19,1.92-.27,2.89-.06.64-.1,1.28-.14,1.92-.37,5.73.5,12.49,6.16,15.45,6.33,3.31,13.5.61,19.57-1.97,1.15-.49,2.28-.99,3.41-1.54.97-.45,1.93-.93,2.88-1.43-.03-.04-.06-.07-.1-.11-.51-.48-1.06-.76-1.66-.87,1.95-.85,3.19-1.44,3.19-1.44,0,0-1.63-3.25-3.95-10ZM125.2,172.83c-.25,1.45-.56,2.88-.92,4.3-.38,1.47-.82,2.93-1.29,4.37-.5,1.5-1.27,3.08-1.13,4.69-3.07,1.72-6.19,3.33-9.34,4.85-2.04.98-.44,4.11,1.59,3.13.33-.16.65-.32.99-.49-.8,2.34-1.12,4.91-1.13,7.18,0,2.13.26,4.27.84,6.33.29,1.01.64,2.02,1.05,2.99.3.72.6,1.46,1.17,1.94-.08.04-.17.06-.25.1-5,1.97-12.33,4.37-16.41-.64-1.6-1.96-2.06-4.73-2.15-7.19-.1-2.92.19-5.85.51-8.74.71-6.65,1.85-13.26,3.36-19.78.77-3.32,1.63-6.64,2.67-9.89,1-3.1,2.26-6.14,3.47-9.18,1.22-3.07,2.47-6.12,3.88-9.1,1.31-2.75,2.81-5.55,4.88-7.82,1.8-1.96,4.05-3.65,6.65-4.35,2.87-.77,5.77-.2,8.4,1.12,5.26,2.67,9.75,7.3,13.53,11.74,3.74,4.37,6.85,9.29,9.77,14.22-2.96,1.18-5.58,3.33-7.94,5.37-3.51,3.03-7.05,6-10.79,8.76-3.35,2.48-6.84,4.78-10.41,6.94.14-.41.27-.82.39-1.19.51-1.49.95-3,1.33-4.53.41-1.63.75-3.27,1.03-4.92.13-.73.23-1.44.31-2.18.1-.93.29-1.84-.17-2.71-.17-.33-.41-.55-.7-.72-.09,0-.18.03-.28.05-.11.03-.23.06-.34.08-.06.02-.13.04-.18.05-.04.02-.1.04-.12.05-.06.02-.11.05-.17.06-.13.06-.26.12-.39.19-.13.06-.26.14-.38.21-.05.03-.14.09-.18.12-.18.15-.38.28-.55.45-.03.03-.06.05-.07.07.03.06.07.11.11.17-.14.55-.16,1.17-.24,1.7-.12.73-.24,1.45-.36,2.18ZM122.34,197.26c-.09,2.22.26,4.4,1.06,6.48.56,1.49,1.45,3.07,2.68,4.15-2.09,1.13-4.23,2.17-6.42,3.12.03-.77-.39-1.45-.72-2.21-.35-.8-.63-1.62-.85-2.47-.46-1.72-.71-3.5-.72-5.28,0-1.86.23-3.67.68-5.48.35-1.41.92-2.74,1.38-4.11,1.7-.9,3.39-1.83,5.05-2.81-1.2,2.73-2.03,5.63-2.15,8.61ZM157.4,189.58l-7.68,3.49,5.82,1.63,1.86-5.12ZM155.35,191.83c-.04.08-.06.16-.1.23-.09.19-.18.38-.33.71-.06.11-.12.22-.18.33-.49-.21-.99-.41-1.51-.55-.36-.1-.73-.18-1.03-.33,1.04.17,2.24-.12,3.16-.39ZM152.28,140.05s8.61,7.68,13.03,13.26c4.42,5.58,5.82,21.39,5.82,21.39,0,0,1.62,10.7,2.09,26.28.08,2.68.56,6.3,1.31,10.42-.11-.04-.22-.06-.33-.06.13.9.26,1.8.4,2.71.14-.06.27-.12.4-.19,3.65,18.93,11.72,46.2,11.72,46.2,0,0,2.33.23,7.45-1.86,5.11-2.1,11.63-7.68,11.63-7.68l-21.39-52.79s5.11-1.16,10.23-5.58c5.12-4.42,3.72-19.76,3.72-19.76,0,0-14.88-13.96-26.97-25.58-12.1-11.63-16.97-10.94-17.67-11.17l-1.4,4.42ZM183.36,189.53c-.19-.82-.37-1.66-.52-2.49.29-.39.55-.8.8-1.17.62-.91,1.19-1.86,1.71-2.84,1.01-1.85,1.89-3.79,2.59-5.79.73-2.04,1.29-4.16,1.64-6.31.17-1.11.41-2.42.41-3.68,2.29,2.02,4.6,4.02,6.93,5.99-.06.09-.14.18-.19.3-.52,1.14-.5,2.61-.64,3.86-.14,1.18-.25,2.36-.41,3.53-.32,2.34-.87,4.66-1.78,6.85-1.42,3.41-4.11,6.72-7.71,7.91-.36.12-.67.3-.92.55-.71-2.21-1.35-4.45-1.89-6.71ZM153.92,139.61c.11-.62.21-1.22.3-1.84,1.14.41,2.29.79,3.4,1.32,1.66.78,3.22,1.78,4.71,2.84,3.05,2.16,5.76,4.74,8.42,7.36,5.38,5.29,10.84,10.48,16.44,15.52-.82,1.68-.76,3.86-1.12,5.67-.4,1.93-.87,3.83-1.54,5.68-.67,1.89-1.5,3.7-2.53,5.51-1.35-10.15-1.96-20.89-9.21-28.58-1.14-1.22-2.86.43-1.88,1.71,4.21,5.53,5.82,12.46,6.75,19.22.55,4.01.99,8.01,1.67,11.98.13.76.26,1.5.4,2.25.37,1.91.81,3.82,1.34,5.71,1.81,6.35,4.3,12.5,6.79,18.61,5.15,12.57,10.32,25.13,15.53,37.68-1.94,2.22-4.24,4.15-6.77,5.64-2.86,1.7-5.88,2.58-9.01,3.57-3.04-10.93-5.63-22-7.59-33.16-1.26-7.14-2.26-14.35-3.18-21.55-.46-3.66-.89-7.35-1.28-11.03-.79-7.33-1.62-14.57-2.71-21.87-.33-2.17-.4-4.6-1.02-6.71-.35-1.17-2.3-3.08-1.81-4.35.1-.26.13-.53.06-.81-.57-2.2-1.94-4.39-3.12-6.31-1.21-1.96-2.52-3.88-3.99-5.65-2.64-3.17-5.76-5.92-9.06-8.39ZM156.6,214.86c.11,0,.22.02.33.03.41-1.16.82-2.32,1.22-3.49-.44-.02-.89-.05-1.34-.07-2.28-.13-2.46,3.31-.2,3.53Z"/>
        <path d="M94.73,151.59c-.11,0-.19,0,0,0h0Z"/>
      </g>
      <path d="M143.41,264.45c.06,1.3.26,2.58.49,3.86.72-1.1,1.43-2.21,2.14-3.31-.11-.35-.23-.69-.36-1.02-.42-1.09-2.31-.69-2.26.48Z"/>
      <path d="M143.41,264.45c.06,1.3.26,2.58.49,3.86.72-1.1,1.43-2.21,2.14-3.31-.11-.35-.23-.69-.36-1.02-.42-1.09-2.31-.69-2.26.48Z"/>
      <path class="cls-3" d="M94.74,259.36c1,.34,2.01.68,3.01,1,.06-.06.09-.14.14-.2.86-1.36-.89-2.69-2.08-1.75-.37.29-.73.62-1.07.95Z"/>
      <path d="M89.37,265.29c1.12.4,2.26.78,3.39,1.16.49-.61.98-1.21,1.48-1.81.06-.07.12-.16.18-.23.2-.25.41-.49.63-.74-1.09-.34-2.17-.7-3.25-1.08-.16.19-.33.38-.5.56-.1.11-.21.23-.31.34-.54.6-1.08,1.19-1.62,1.79Z"/>
      <path class="cls-3" d="M64.33,34.73c2.1,4.34,5.89,7.77,10.18,9.89,4.8,2.38,10.05,3.3,15.39,3.06,5.98-.27,12.09-1.59,17.69-3.73.29.34.6.67.88.99.49.57.97,1.14,1.46,1.72,1.01,1.19,2.02,2.41,3.11,3.53.8.82,2.47.4,2.46-.88,0-1.72.14-3.46.21-5.18.07-1.53.06-3.06,0-4.59,4.11-3.62,6.43-8.96,6.67-14.4.24-5.59-1.77-10.96-5.3-15.26C110.01,1.31,98.38-1.39,87.78.64c-10.33,1.98-20.65,8.35-24.14,18.72-1.68,5-1.62,10.59.7,15.37ZM68.49,17.57c4.51-8.34,14.18-12.89,23.29-13.82,9.1-.93,18.95,2.59,23.96,10.57,4.44,7.09,3.86,16.94-2.71,22.57-.13.11-.23.23-.32.35-.4.1-.75.37-.84.8-.17.83.03,1.76.16,2.6.12.76.22,1.52.29,2.28.06.62.1,1.36.16,2.12-.11-.13-.22-.27-.34-.4-.51-.6-1.01-1.2-1.52-1.8-.54-.64-1.05-1.34-1.71-1.86-.27-.21-.56-.28-.84-.26-.24-.08-.51-.11-.8-.05-6.15,1.39-12.11,3.34-18.48,3.37-5.15.03-10.24-1.1-14.61-3.91-3.4-2.19-6.27-5.42-7.38-9.37-1.23-4.39-.48-9.2,1.68-13.19Z"/>
      <path class="cls-2" d="M84.01,26.34c3.49,2.99,7.11,5.89,10.74,8.71.7.55,1.54.27,2.05-.29.11-.05.22-.11.33-.19,2.79-2.24,4.83-4.95,6.16-8.28,1.23-3.11,2.22-7.32.87-10.54-1.39-3.35-5.31-4.46-8.11-2.07-1.93,1.65-2.41,3.83-2.59,6.11-1.33-1.47-2.94-2.68-4.81-3.54-2.72-1.24-7.33-2.29-9.29.77-2.45,3.83,2.14,7.19,4.64,9.33Z"/>
      <path class="cls-3" d="M67.48,255.51c4.5,2.49,9.17,4.69,13.91,6.68,2.62,1.1,5.28,2.14,7.98,3.09,1.12.4,2.26.78,3.39,1.16,4.88,1.6,9.85,2.95,14.87,4,4.45.94,9.06,1.94,13.61,2.25,3.18.2,5.16-1.74,6.04-4.32.31-.92.49-1.91.53-2.93.06-1.34-1.65-1.48-2.14-.41-.19.42-.4.93-.63,1.45-.19.43-.4.87-.64,1.26-.36.6-.78,1.11-1.31,1.41-.94.52-2.14.22-3.14.09-1.17-.16-2.34-.33-3.51-.52-7.27-1.15-14.41-2.85-21.39-5.07-1.09-.34-2.17-.7-3.25-1.08-7.07-2.4-13.96-5.34-20.62-8.75.83-.84,1.55-1.78,2.09-2.82.17-.34.32-.69.46-1.05.14-.37.25-.74.34-1.12.43-1.79-1.95-2.52-2.69-.87-.27.62-.58,1.21-.95,1.79-.74,1.16-1.67,2.2-2.82,2.96-.92.62-1.31,2.13-.14,2.78Z"/>
      <path class="cls-3" d="M51.36,240.23c5.04,2.83,10.24,5.41,15.46,7.87,1.21.56,2.41,1.12,3.62,1.67.37-.57.68-1.17.95-1.79.74-1.66,3.12-.92,2.69.87-.09.39-.2.75-.34,1.12l51.3,16.52c.23-.52.43-1.02.63-1.45.5-1.08,2.2-.94,2.14.41-.05,1.01-.22,2.01-.53,2.93-.88,2.58-2.85,4.52-6.04,4.32-4.55-.3-9.16-1.31-13.61-2.25-5.02-1.06-9.99-2.4-14.87-4-1.13-.38-2.26-.76-3.39-1.16-.76.86-1.52,1.73-2.26,2.61-4.86,5.7-9.53,11.58-13.84,17.7-2.19,3.11-4.33,6.27-6.42,9.45-1,1.54-1.98,3.08-3,4.61-.29.43-.58.86-.87,1.29-.79,1.15-4.5,6.8-5.28,7.93-.99,1.42,2.05,1.1,3.19,1.16,7.93.37,15.9.52,23.82.82,8.8.34,17.6.68,26.4,1.01,1.45.06,3.39.04,4.67-.63,1.53-.8,4.61-6.52,5.56-7.97.06-.11.14-.22.21-.33,5.53-8.54,11.06-17.08,16.57-25.65,1.92-2.99,3.85-5.98,5.77-8.98.14.78.29,1.56.42,2.33.34,1.95.72,3.89,1.11,5.85.81,4.03,1.63,8.06,2.45,12.1.83,4.03,1.65,8.07,2.47,12.1l.75,3.74.42,2.09c.1.47.3,3.43.48,5.85.14,1.83,1.62,3.26,3.45,3.33.27.01.53.02.8.03,5.06.18,10.13.38,15.18.57,9.25.35,18.54.95,27.79.82,1.77-.02,2.41-1.84,1.75-2.97-.2-.35-.34-.72-.41-1.11-1.68-9.28-8.04-36.92-10.31-44.44-.61-2.03-1.2-4.05-1.77-6.08,3.48-.4,6.9-1.85,9.91-3.6,3.31-1.93,6.16-4.42,8.59-7.37.41-.51.31-1.24.09-1.79-3.03-7.32-6.04-14.66-9.1-21.95-2.73-6.54-5.5-13.05-8.21-19.59-1.22-2.95-2.41-5.94-3.48-8.95.2.03.41.03.61-.04,2.15-.71,4.01-1.86,5.62-3.32,3.61,2.44,7.09,5.07,10.66,7.56,3.83,2.65,7.67,5.28,11.5,7.92,3.02,2.07,5.99,4.32,9.31,5.92,3.46,1.67,7.05,2.26,10.87,1.81,3.9-.47,7.63-1.9,11.32-3.18,3.85-1.34,7.7-2.68,11.54-4,2.82-.98,6.29-1.84,8.01-4.54,1.81-2.83.18-6.12-2.78-7.24-3.53-1.34-6.71.98-10.01,1.86-1.74.47-3.51.65-5.31.61-1.68-.05-3.33-.41-5-.5-1.47-1.01-3.02-1.91-4.52-2.86-1.8-1.15-3.61-2.32-5.39-3.5-3.58-2.37-7.06-4.88-10.53-7.4-12.38-8.96-24.28-18.52-35.55-28.85-5.46-5-10.6-10.34-16.01-15.38-2.49-2.32-5.1-4.57-7.99-6.37-2.24-1.4-5.04-2.98-7.79-3.42.19-.99.38-1.99.56-2.98.63-3.28,1.38-6.6,1.73-9.93,2.81.13,5.65-.22,8.33-1.03,3.31-1.01,6.46-2.67,8.92-5.15,2.72-2.74,4.37-6.2,5.25-9.92.46-1.94.78-3.9,1.01-5.88.04-.29.07-.6.1-.89.52.06,1.04.05,1.54-.06,1.75-.37,3.05-1.62,3.66-3.27.61-1.65.39-3.56-.15-5.2-.29-.9-.64-1.78-1.05-2.63-.4-.83-.88-1.8-1.63-2.37-.37-.29-1.09-.16-1.3.28-.72,1.48.03,3.32.56,4.74.14.38.39,1.2.5,1.79.03.16.05.32.07.49.02.06.02.1.03.12v.11c0,.32,0,.64-.04.97,0,.02-.06.29-.06.3-.04.13-.06.25-.11.37,0,.02-.11.25-.11.28-.06.11-.14.22-.26.4-.06.06-.12.1-.19.16-.04.03-.11.09-.17.12-.06.04-.13.06-.25.11-.05.02-.13.06-.17.06-.12.03-.25.04-.29.05-.05,0-.11,0-.16,0-.03,0-.07,0-.11-.02.04-.61.06-1.21.05-1.82-.05-1.89-.53-3.77-2.01-5.04-.33-.29-.67-.51-1.03-.68.12-.59.18-1.19.14-1.79-.04-.64-.13-1.23-.32-1.84-.11-.33-.22-.67-.36-.98-.08-.19-.19-.4-.34-.55-.19-.2-.43-.29-.68-.4-.44-.18-1.04.05-1.32.46-1.57-4.41-4.36-8.34-8.09-11.27-2.79-2.19-6.17-3.7-9.63-4.44-.87-.18-1.74-.3-2.62-.36-.69-.15-1.39-.28-2.11-.35-1.98-.22-3.96-.33-5.95-.31-3.97.04-7.94.52-11.73,1.7-.82.26-1.62.53-2.41.85-.93-5.5-5.98-9.87-11.44-11.26-3.39-.87-6.89-.91-10.36-.58-3.25.31-6.51,1.13-9.17,3.09-2.61,1.91-4.06,4.85-4.43,7.96-2.43,2.55-2.95,6.81-2.07,10.09,2.14,8.02,11.51,10.93,18.83,8.99.19-.05.41-.11.61-.17-1.03,2.48-2.14,4.93-4.27,6.66-1.21.98-2.57,1.66-4.01,2.13-1.25.14-2.52.17-3.78.13-2.75-.11-5.46-.64-8.15-1.2-4.63-.96-9.45-2.03-14.19-1.09-3.75.75-7.51,2.75-9.52,6.12-2.42,4.07-1.55,8.82-1.1,13.27.2,1.96.17,4.07-.48,5.94h-.02c-2.33.71-5.53-.92-7.67-1.11-3.03-.25-6.05,1.17-7.86,3.59-1.88,2.49-2.21,5.94-1.04,8.8.99,2.42,3.05,4.17,5.25,5.48.79,2.15,2.01,4.21,3.44,6.02,7.2,9.1,19.73,14.65,31.33,13.27.39.16.81.22,1.24.23-1.03.94-2.05,1.88-3.06,2.85-1.17,1.12-2.31,2.27-3.43,3.44-.87.91-1.83,1.82-2.64,2.81-.29.04-.6.17-.89.44-4.61,4.37-8.39,9.68-11.81,15-3.51,5.45-6.64,11.12-9.81,16.76-3.05,5.45-6.1,10.89-9.16,16.33-1.57,2.79-3.13,5.57-4.69,8.36-1.42,2.52-3.22,5.12-3.9,7.96-1.27,5.34,2.71,8.98,6.95,11.35ZM61.55,120.95c-1.29.89-2.38,2.1-3.16,3.47-1.07,1.9-1.52,3.86-1.54,5.82-.59-.7-1.08-1.46-1.33-2.35-.68-2.39.3-5.06,2.5-6.29,1.18-.66,2.35-.77,3.52-.65ZM90.56,96.58c-5.33.38-10.39,1.77-14.37,5.72-1.7,1.7-3.07,3.69-4.1,5.85-.22-2.65-.11-5.29,1.37-7.53,2.06-3.11,6.08-4.55,9.67-4.71,2.5-.12,4.97.21,7.42.67ZM116.62,82.28c-.07.16-.16.31-.23.46-4.24,1.79-9.08,2.2-13.16-.04-2.53-1.38-4.49-3.59-5.09-6.46-.16-.77-.19-1.52-.14-2.24.21.57.45,1.12.75,1.66,3,5.48,9.61,7.89,15.59,7.11.77-.1,1.54-.27,2.28-.49ZM172.04,82.99c-.22,0-.45,0-.67.03-.14.02-.28.06-.41.12-.43-1.19-1.06-2.29-1.87-3.24-1.04-1.21-2.96.19-2.27,1.57,1.31,2.58,2.27,5.17,1.25,8.05-.74,2.07-2.49,3.61-4.7,3.8-2.28.2-4.62-.84-6.32-2.3-1.6-1.37-2.83-3.22-3.51-5.22-.18-.54-.33-1.1-.44-1.68.64-.98,1.24-1.97,1.83-2.97,1.19-2.03,2.32-4.11,3.35-6.24.5-1.04.99-2.11,1.38-3.19.09-.26.19-.52.29-.8,1.98.83,3.84,1.9,5.47,3.18,2.95,2.31,5.22,5.44,6.64,8.9ZM154,117.75c-.88-.1-1.7.71-1.74,1.56-.05.97.67,1.57,1.55,1.74.06,0,.12.02.17.03-.86,3.17-1.35,6.46-1.96,9.67-.32,1.69-.64,3.39-.96,5.08-.29,1.5-.73,3.09-.87,4.64-1.4-1.12-2.87-2.15-4.4-3.08-1.71-1.03-3.51-1.95-5.35-2.75,3.09-2.15,4.26-6.05,4.58-9.65.35-3.99-.39-8.06-2.09-11.68-.83-1.76-2.01-3.27-3.01-4.92-.85-1.41-1.68-3.39-.63-4.89,1.34.32,2.79.41,4.12.08,1.52-.38,3.15-1.29,3.53-2.94.27-1.19-.89-2.5-2.13-1.8-1.03.58-1.73,1.1-2.74,1.24-.91.13-2-.1-3-.5-1.81-.73-3.38-2.19-4.07-4.02-.67-1.78-.43-4.14.82-5.53,1.22-1.35,3.1-2.03,4.83-1.38.68.26,1.49.92,1.88,1.47.59.85.87,1.94,1.63,2.62.35.31.81.38,1.2.12.5.07,1.02,0,1.42-.31.95-.72,1.68-1.88,2.39-2.82.53-.71,1.04-1.43,1.55-2.14.11.27.21.52.32.78,2.47,5.41,8.84,9.94,14.91,7.75,4.36-1.58,6.12-6.01,5.66-10.24.13,0,.27,0,.4,0,.26,0,.51.02.76.05.06,0,.12.02.22.04.29,1.1.48,2.22.58,3.34.1,1.09,1.36,1.35,2.18,1.05,1.57-.6,2.22,2.05,2.24,3.01.06,1.76-.26,3.58-.47,5.32-.07.64-.17,1.28-.29,1.91-.17-.06-.32-.13-.49-.19-.31-.17-.62-.36-.89-.59-.29-.25-.56-.52-.88-.74-.35-.25-.72-.41-1.17-.32-.59.12-1.04.64-1.08,1.23-.03.52.32,1.19.65,1.57.25.29.54.54.85.77.51.39,1.1.69,1.7.91.24.09.51.17.76.21-1.03,4.34-2.95,8.37-6.77,11.04-4.62,3.22-10.47,3.94-15.94,3.27ZM149.53,189.49c-6.01,6.65-13,12.33-20.69,16.85-.78-1.47-1.82-2.75-2.39-4.35-.59-1.63-.75-3.39-.64-5.12.24-3.67,1.62-7.13,2.65-10.62,6.96-4.39,13.66-9.23,19.89-14.6,2.92-2.51,5.95-5.4,9.8-6.33,1.19-.29,2.43-.37,3.65-.17-.83.18-1.63.51-2.35.88-1.51.81-3.37,2.11-3.96,3.77-.42,1.18.98,2.44,2.09,1.79,1.19-.7,2.09-1.92,3.19-2.55,1.05-.6,2.1-.95,3.3-.88.96.06,1.97.45,2.68,1.06.14.12.28.24.4.37-1.65-.29-3.37-.17-4.95.37-1,.34-1.95.77-2.84,1.36-.98.64-2.25,1.44-2.57,2.63-.28,1.04.58,2.21,1.73,1.93.98-.24,1.61-.97,2.4-1.52.58-.41,1.28-.79,1.97-1.06,1.22-.48,2.69-.65,4-.33,1.85.47,3.08,1.64,3.68,3.18-1.63-.79-3.43-1.01-5.25-.79-.89.11-1.76.36-2.6.68-1.09.4-2.13.85-2.78,1.87-.56.87.02,2.28,1.15,2.26,1-.03,1.77-.4,2.68-.78.43-.17.36-.16.81-.29.37-.1.74-.18,1.1-.25.65-.11,1.08-.13,1.84-.04.07,0,.16.03.24.04.15.03.3.07.45.11.16.05.31.1.47.16.04.02.27.11.41.18.09.06.19.11.29.17.14.08.27.18.49.32.02,0,.04.04.07.07.11.11.23.22.33.35.04.04.16.18.19.23.06.09.12.19.17.29.06.1.1.21.15.32,0,.04.07.18.09.26.04.15.06.3.09.45,0,.06.02.22.02.29,0,.28,0,.54-.04.82,0,.04-.03.2-.04.27-.03.12-.06.32-.08.41-.07.27-.16.53-.25.79-.04.09-.06.19-.06.29-.09.1-.19.21-.29.32-.1.11-.19.23-.34.4-.14.14-.27.29-.41.42-.15.13-.3.24-.5.4-.07.04-.14.08-.2.12-.18.11-.37.2-.55.28-.1.05-.19.09-.29.13-.03,0-.1.04-.15.06-.36.11-.73.2-1.1.25-.06,0-.13,0-.16,0-.08,0-.17,0-.25,0-.19,0-.38,0-.64-.04.09-.4.18-.8.26-1.22.6.13,1.14.47,1.78.44,1.27-.06,2.15-1.2,1.58-2.44-.82-1.79-3.61-1.87-5.27-1.56-1.78.33-3.32,1.28-4.71,2.39-1.33,1.06-2.49,2.35-3.95,3.24-.68.41-1.37.77-2.16.93-.67.13-1.26.11-1.84.3-.64-.18-1.36-.07-1.8.41ZM157.4,189.58l-1.86,5.12-5.82-1.63,7.68-3.49ZM164.99,156.87c-.05.06-.09.13-.18.22-.11.13-.24.23-.37.34-.1.05-.19.1-.29.15-.07.02-.16.04-.23.05-.06,0-.13,0-.19,0-.09-.03-.17-.06-.27-.08-.06-.04-.11-.06-.16-.1-.11-.08-.22-.14-.34-.18-.59-1.45-1.28-2.87-2.06-4.24-2.2-3.86-4.99-7.37-8.24-10.39.12-.07.22-.15.32-.25,2.78,2.26,5.25,4.89,7.46,7.71,1.32,1.68,2.57,3.38,3.68,5.2.3.51.62,1.02.9,1.54,0,.02-.02.04-.04.05ZM156.21,157.49c-2.98-5.8-7.05-11.11-11.64-15.73-.99-.99-2.02-2.01-3.1-2.97,4.3,2.2,8.18,5.17,11.42,8.79,2.21,2.47,4.1,5.17,5.64,8.09.81,1.53,1.56,3.08,2.19,4.69.16.41.3.89.48,1.39-.98-.09-2-.06-2.97.08-.08,0-.16.02-.24.05-.53-1.48-1.05-2.98-1.78-4.38ZM194.54,193.7c.92-1.19,1.72-2.49,2.37-3.88,1.15-2.48,1.79-5.15,2.19-7.85.21-1.37.37-2.76.42-4.14.03-.73.1-1.54.09-2.32,1.63,1.34,3.26,2.67,4.91,3.99,5.96,4.73,12.03,9.33,18.29,13.64,3.13,2.16,6.31,4.25,9.48,6.36,3.13,2.08,6.28,4.41,9.66,6.08.69.34,1.34.23,1.8-.12,2.72.98,6.06.82,8.73.3,1.76-.35,3.41-1.01,5.06-1.68,1.37-.54,3.02-1.17,4.46-.48,2.58,1.24-.68,3.24-1.93,3.79-3.24,1.45-6.75,2.44-10.1,3.61-3.36,1.18-6.71,2.43-10.12,3.48-3.25,1-6.72,1.8-10.14,1.21-3.27-.56-6.16-2.37-8.86-4.2-2.97-2-5.91-4.04-8.86-6.07-3.02-2.07-6.05-4.13-9.08-6.19-2.77-1.88-5.62-3.64-8.37-5.52ZM157.77,211.56l.38-.16c1.25-3.62,2.45-7.25,3.6-10.91.52-1.65,1.06-3.29,1.57-4.95l2.07-.26c1.12-.14,2.25-.29,3.35-.51,1.17-.24,2.27-.61,3.42-.93.05.51.09,1.01.14,1.52.4,4.12.86,8.25,1.4,12.36.16,1.21.32,2.4.5,3.61.11,0,.22.03.33.06-.75-4.12-1.22-7.74-1.31-10.42-.47-15.58-2.09-26.28-2.09-26.28,0,0-1.4-15.82-5.82-21.39-4.42-5.58-13.03-13.26-13.03-13.26l1.4-4.42c.7.23,5.58-.46,17.67,11.17,12.1,11.63,26.97,25.58,26.97,25.58,0,0,1.4,15.35-3.72,19.76-5.12,4.42-10.23,5.58-10.23,5.58l21.39,52.79s-6.52,5.58-11.63,7.68c-5.12,2.09-7.45,1.86-7.45,1.86,0,0-8.06-27.28-11.72-46.2-.13.07-.26.14-.4.19-1.14.49-2.46.59-3.66.72-.99.11-1.98.21-2.97.26-3.64.18-7.37.22-11.02-.13-.11,0-.22-.02-.33-.03-2.54-.25-2-4.58,1.17-3.3ZM49.88,225.18c5.91-10.51,11.79-21.04,17.71-31.56,2.67-4.74,5.39-9.46,8.4-13.99,2.9-4.38,6.12-8.46,9.59-12.39.3-.03.6-.14.87-.37,1.22-1.03,2.24-2.38,3.35-3.54,1.12-1.16,2.27-2.31,3.44-3.43,2.29-2.2,4.66-4.32,7.11-6.35,2.44-2.02,4.96-3.97,7.53-5.84.04-.03.08-.06.13-.09-.26.57-.52,1.15-.76,1.72-.28.63-.54,1.26-.81,1.89-3.47,1.39-6.34,3.98-9.09,6.45-2.8,2.52-5.43,5.21-7.93,8.05-.28.31-.45.69-.48,1.08-.06.07-.1.15-.14.23-.24.5-.22,1.32.25,1.71.81.69,1.84,1.09,2.82,1.5.88.37,1.77.71,2.67,1.03,1.62.58,3.32,1.21,5.04,1.45-.65,2.51-1.27,5.03-1.79,7.57-1.07,5.32-1.96,10.72-2.51,16.14.14.1.26.21.39.33,1.96-7.41,9.18-45.32,16.85-53.69,7.68-8.37,14.03-13.85,22.09-8.14,12.8,9.08,21.4,28.37,21.4,28.37,0,0-12.1,11.17-17.21,14.19-5.12,3.03-10.93,6.98-10.93,6.98,0,0-5.82,8.15-3.49,14.88,2.32,6.75,3.95,10,3.95,10,0,0-1.24.59-3.19,1.44.6.1,1.15.39,1.66.87.04.04.07.07.1.11,8.47-4.4,16.24-10.17,22.89-16.99.46.25,1.02.28,1.55.36.11.02.21.04.38.06.2.05.41.09.61.15.43.11.85.25,1.26.4.21.08.41.18.63.27.13.06.24.12.35.18.65.34,1.56.28,1.98-.43.58-1.01,1.1-2.08,1.45-3.19.16-.52.29-1.06.41-1.59.06-.31.1-.63.1-.94.49-.4.97-.78,1.43-1.19.84-.74,1.68-1.54,2.62-2.15-.65,1.8-1.25,3.62-1.82,5.44-.41,1.29-.8,2.59-1.2,3.88-.55,1.84-1.12,3.68-1.72,5.5-3.27,9.91-6.77,19.73-10.58,29.43-1.92,4.88-3.94,9.73-6.01,14.55-1.84,4.24-6.06,14.4-8.2,20.07-2.72-.65-5.46-1.15-8.18-1.76-3.01-.67-6.01-1.4-8.99-2.17-6.1-1.57-12.16-3.36-18.14-5.35-10.65-3.53-21.06-7.71-31.23-12.45-4.87-2.26-9.87-4.54-14.47-7.33-1.64-.99-3.53-2.27-4.16-4.18-.85-2.49.9-5.06,2.06-7.14ZM100.37,169.73c-.77-.31-1.57-.53-2.38-.78-.83-.27-1.65-.55-2.47-.85-1.02-.38-2.04-.79-3.04-1.2v-.03c2.19-2.42,4.49-4.76,6.9-6.97,1.8-1.66,3.73-3.19,5.5-4.87-.53,1.4-1.05,2.81-1.5,4.23-1.1,3.44-2.04,6.97-3.02,10.46Z"/>
      <path class="cls-1" d="M155.95,250.29c.92-.39,1.84-.29,2.8-.34.67-.03,1.43-.1,2.18-.22.78-.12,1.55-.33,2.33-.48.82-.16,1.65-.33,2.46-.51.8-.18,1.53,1.02.78,1.54-.77.54-1.54,1.01-2.41,1.36-.84.34-1.73.55-2.62.73-.9.17-1.8.28-2.71.33-1.02.05-2,.1-2.91-.43-.72-.42-.69-1.65.1-1.98Z"/>
      <path class="cls-1" d="M142.93,265.46c.93-1.32,2.1-2.5,3.16-3.71,1.08-1.23,2.14-2.47,3.21-3.71,2.07-2.39,4.03-5.14,6.6-7.01.88-.64,1.93.23,1.44,1.21-1.42,2.84-3.8,5.24-5.81,7.67-1.01,1.22-2.03,2.44-3.03,3.67-1.05,1.28-2.05,2.68-3.22,3.85-1.23,1.23-3.35-.54-2.34-1.97Z"/>
    </g>
  </g>
</svg>