<?xml version="1.0" encoding="UTF-8"?>
<svg id="Layer_2" xmlns="http://www.w3.org/2000/svg" viewBox="0 0 379.58 389.63">
  <defs>
    <style>
      .cls-1 {
        fill: #ff4a01;
      }

      .cls-2 {
        fill: #ff9b9f;
      }

      .cls-3 {
        fill: #ea9cbb;
      }

      .cls-4 {
        fill: #520815;
      }
    </style>
  </defs>
  <g id="Layer_1-2" data-name="Layer_1">
    <g>
      <path class="cls-4" d="M104,238.22c-.69-.09-1.37-.57-1.51-1.44-.92-5.46-4.19-10.53-8.78-13.63-.66-.45-1.36-.85-2.07-1.22-1.24-.63-2.56-1.13-3.92-1.51-2.84-.79-5.87-1.03-8.81-.77-.97.07-1.94.21-2.88.39-1.23.24-1.8-1.38-.61-1.88,3.69-1.53,7.71-1.85,11.58-1.14,3.02.56,5.93,1.75,8.5,3.47,3.23,2.17,5.82,5.08,7.63,8.43.71,1.3,1.3,2.66,1.75,4.07.29.87.52,1.75.71,2.65.07.31.13.62.19.94.21,1.19-.8,1.76-1.76,1.63Z"/>
      <path class="cls-4" d="M109.8,237.18c-.92-.36-1.84-.7-2.77-1.05-.53-.19-1.05-.39-1.6-.53-.65-.16-1.17-.17-1.82-.02-.71.16-.97,1.11-.6,1.67.62.93,1.61,1.38,2.61,1.8.42.18.84.35,1.26.53-.13.34-.27.67-.4,1.01-.17.44-.34.87-.51,1.31-.21.53-.51,1.11-.61,1.67-.14.81.3,1.6,1.07,1.87.82.29,1.56-.09,2.01-.79.25-.38.37-.87.54-1.29.17-.44.34-.87.51-1.31.34-.87.69-1.74,1.03-2.62.31-.78.17-1.89-.73-2.26Z"/>
      <path class="cls-4" d="M107.25,243.63c-.63-.43-1.57.13-1.69.81-.15.87.14,1.83.34,2.68.18.76.25,1.55.27,2.34.03,1.56-.27,3.14-.8,4.6-.56,1.53-1.4,2.96-2.49,4.17-.5.55-1.04,1.06-1.64,1.5-.8.59-1.71.95-2.2,1.86-.4.74.07,1.75.91,1.9,1.96.34,4.07-1.77,5.29-3.1,1.33-1.47,2.39-3.22,3.08-5.08.71-1.94,1.07-3.97,1-6.03-.07-1.91-.37-4.5-2.08-5.65Z"/>
      <path class="cls-4" d="M108.84,248.44c-.22-.66-.85-.89-1.48-.9-.18,0-.4.02-.58-.01-.11.06-.34-.04-.49-.03-.13,0-.26.01-.39.02-.22,0-.45.02-.67.02-.13,0-.26,0-.39,0-.03,0-.08,0-.12,0-.57-.06-1.11-.2-1.67-.28-.25-.04-.51-.09-.76-.15-.21-.05-.6-.16-.7-.2-.43-.16-.9-.11-1.17.3-.25.38-.21.88.13,1.2.4.37.83.69,1.28.99.5.34,1.01.55,1.6.73,1.01.31,2.24.55,3.29.35.61-.12,1.4-.31,1.84-.77.31-.32.44-.83.3-1.26Z"/>
      <path class="cls-4" d="M100.02,236.1c-.05-.16-.11-.31-.17-.47-.09-.24-.18-.48-.3-.71-.07-.14-.15-.28-.22-.42-.06-.07-.12-.14-.18-.21-.08-.06-.16-.11-.24-.17-.21-.11-.46-.13-.69-.09-.19.04-.35.11-.49.23-.17.14-.35.37-.37.6-.01.15-.03.31-.04.46-.02.19-.03.36-.02.55,0,.08,0,.16.01.25,0,.16.01.33.02.5.02.38.2.73.36,1.06.07.09.15.17.22.26.13.13.28.21.45.26.11.05.22.08.33.07.17.03.33.01.5-.05.21-.08.4-.2.56-.36.13-.13.21-.28.26-.45.07-.16.1-.33.08-.5.01-.27,0-.55-.09-.8Z"/>
      <path class="cls-4" d="M100.69,233.6c-.18-.32-.41-.57-.8-.71-.28-.1-.55-.2-.84-.24-.51-.06-1.01-.12-1.52-.12-.87,0-1.76-.05-2.58.29-.44.18-.76.53-.79,1.03-.04.49.22.87.62,1.12.75.48,1.66.59,2.52.74.5.08,1.01.1,1.52.14.19.01.36,0,.55-.03.3-.05.56-.1.82-.25.17-.1.28-.23.38-.37.44-.44.48-1.08.12-1.59Z"/>
      <path class="cls-4" d="M94.21,233.59c-.01.19-.02.36-.03.54-.01.11-.01.2-.02.3-.22,2.91-.94,5.76-2.13,8.44-.44,1-.94,2.05-1.53,3.06-.62,1.06-1.34,2.06-2.16,2.91-.35.36-.72.69-1.1,1-1.25.96-3.08-.75-2.29-2.08.68-1.15,1.61-2.14,2.32-3.27.64-1.02,1.21-2.08,1.7-3.18.99-2.24,1.6-4.68,1.78-7.12.38-4.73-.75-9.62-3.05-13.78-.2-.36-.41-.73-.63-1.08-.85-1.36,1.12-2.55,2.07-1.32.95,1.23,1.78,2.54,2.48,3.91,1.83,3.59,2.74,7.59,2.58,11.67Z"/>
      <path class="cls-4" d="M58.1,245.74c-.31.73-.68,1.45-1.12,2.18-.04.07-.08.13-.12.21-1.95,3.15-5.03,5.55-8.54,6.69-.52.17-1.05.31-1.59.43-1.49.33-3.03.47-4.54.37-.06.11-.11.23-.17.34-.51,1.11-.86,2.26-1.05,3.45,1.19.13,2.39.18,3.59.11,3.86-.21,7.64-1.49,10.77-3.93,2.33-1.82,4.32-4.14,5.67-6.78.31-.59.59-1.21.83-1.83.09-.25.19-.51.27-.76-1.32-.21-2.65-.37-4-.48ZM75.4,218.16c-1.19.5-.62,2.12.61,1.88.94-.19,1.91-.32,2.88-.39.5-.22,1.01-.41,1.51-.6,2.13-.81,4.33-1.52,6.57-2.02-3.87-.71-7.89-.39-11.58,1.14ZM103.12,228.92c-.36.51-.75.98-.88,1.64-.35,1.79,1.19,2.71,2.63,2.44-.46-1.41-1.05-2.78-1.75-4.07Z"/>
      <path class="cls-4" d="M44.56,259.51c-.12.58-.2,1.18-.2,1.77-.01,1.4.27,2.77.85,4.05.27.6.6,1.16.95,1.73.4.66.59,1.16.59,1.78.29.83-.5,1.87-1.4,1.39-.01,0-.4-.03-.4-.03-.33-.07-.59-.26-.85-.46-.37-.27-.65-.62-.93-.98-.22-.27-.4-.56-.58-.85-.31-.51-.57-1.05-.81-1.61-.67-1.59-1.03-3.37-.98-5.09.01-.61.07-1.22.18-1.82.19-1.19.54-2.34,1.05-3.45.05-.11.1-.23.17-.34.72-1.47,1.83-3.23,3.4-3.77,1.41-.48,2.35,1.02,1.9,2.22-.17.45-.46.82-.76,1.18-.21.25-.41.5-.6.76-.37.53-.69,1.12-.96,1.71-.26.57-.47,1.18-.6,1.81Z"/>
      <path class="cls-4" d="M103.94,270.96c-.71.26-1.57.09-2.04-.65-.08-.11-.16-.25-.21-.39-3.06-8.08-11.68-10.89-19.05-13.83-7.03-2.82-14.24-5.48-21.64-7.28-1.3-.32-2.59-.6-3.9-.86-.04-.01-.08-.02-.12-.03-1.35-.39-.8-2.33.59-2.23.18.01.35.03.53.05,1.35.1,2.69.27,4,.48,7.95,1.26,15.48,4.16,23.01,7.14,1.78.72,3.7,1.45,5.61,2.29,1.07.47,2.14.96,3.18,1.5,2.06,1.05,4.04,2.26,5.76,3.69.84.7,1.61,1.46,2.31,2.27,1.38,1.63,2.46,3.5,3.07,5.71.29,1.07-.31,1.87-1.11,2.14Z"/>
      <path class="cls-4" d="M106.04,232.47c-.35.28-.76.46-1.17.53-.46-1.41-1.05-2.78-1.75-4.07-1.81-3.35-4.4-6.26-7.63-8.43-2.57-1.72-5.48-2.91-8.5-3.47-3.87-.71-7.89-.39-11.58,1.14-1.19.5-.62,2.12.61,1.88.94-.19,1.91-.32,2.88-.39,2.94-.26,5.97-.02,8.81.77,2.3,4.16,3.43,9.05,3.05,13.78-.19,2.45-.8,4.88-1.78,7.12-.49,1.1-1.06,2.17-1.7,3.18-.72,1.13-1.64,2.11-2.32,3.27-.79,1.34,1.04,3.05,2.29,2.08.38-.3.75-.63,1.1-1,.03.03.06.06.09.09.02.02.1.12.16.18.03.04.06.07.07.09.09.11.2.24.29.35.02.03.12.14.16.18.29.37.54.77.77,1.18.05.08.09.18.15.27.09.26.19.48.26.69.08.23.15.45.21.67.01.05.02.11.04.17.05.3.07.4.1.53.01.04.02.19.04.25.04.3.06.51.08.72.01.24.02.47.01.69v.16s-.01.16-.02.22c-.02.11-.03.24-.03.36-1.91-.84-3.83-1.58-5.61-2.29-7.53-2.99-15.05-5.88-23.01-7.14-1.32-.21-2.65-.37-4-.48-.18-.02-.35-.04-.53-.05-1.39-.1-1.94,1.84-.59,2.23-.04.07-.08.13-.12.21-1.95,3.15-5.03,5.55-8.54,6.69-.52.17-1.05.31-1.59.43.3-.36.59-.74.76-1.18.46-1.2-.49-2.7-1.9-2.22-1.57.54-2.68,2.3-3.4,3.77-.06.11-.11.23-.17.34-.51,1.11-.86,2.26-1.05,3.45-1.98-.23-3.92-.74-5.76-1.5-2.39,3.4-5.8,5.89-9.85,7.05-4.48,1.29-9.42.94-13.52-1.38-7.79-4.41-11.43-13.97-8.36-22.37,3.47-9.51,13.3-14.58,22.89-15.45,4.52-.4,9.78.29,13.31-3.14,1.6-1.54,2.85-3.39,4.41-4.97,1.7-1.73,3.68-3.09,5.88-4.11,7.6-3.49,16.68-1.51,22.03,4.62.55-.31,1.12-.59,1.68-.88,1.96-1.01,3.97-1.88,6.02-2.64,4.26-1.57,8.87-2.84,13.45-2.72,6.93.2,14.22,4.03,15.48,11.39.5,2.92-.12,7.16-2.59,9.15Z"/>
      <path class="cls-4" d="M94.52,254.07c-.05,1-.16,2.15-.62,3.08-.15.3-.33.58-.57.83-.94.99-2.57.37-2.7-.95-.03-.33.01-.65.05-.97,0-.2.01-.3.03-.4,0-.12.01-.25.03-.36.01-.06.01-.2.02-.22v-.16c.01-.23,0-.46-.01-.69-.02-.21-.04-.41-.06-.62-.04-.16-.05-.3-.06-.34-.03-.12-.05-.23-.06-.31-.06-.27-.07-.33-.08-.38-.06-.23-.12-.45-.21-.67-.07-.22-.17-.44-.25-.65-.06-.14-.1-.23-.16-.31-.23-.41-.48-.81-.77-1.18-.03-.03-.13-.15-.16-.18-.09-.11-.2-.24-.29-.35-.01-.02-.04-.05-.07-.09-.05-.05-.13-.16-.16-.18-.03-.03-.06-.06-.09-.09-.34-.37-.73-.74-.95-1.2-.24-.49-.33-.99-.07-1.49.23-.45.74-.83,1.25-.82.71.01,1.35.24,1.93.6.67.41,1.26,1.01,1.76,1.62.74.91,1.3,1.97,1.7,3.07.4,1.1.61,2.28.56,3.45Z"/>
      <path class="cls-1" d="M83.92,275.15c-3-2.25-30.12-8.12-35.75-6.68-5.63,1.44-14.67,3.93-17.16,11-2.49,7.07-6.68,13.1-4.71,15.58,1.96,2.49,5.5,3.8,5.5,3.8,0,0-13.62,28.94-4.58,37.98,9.04,9.04,31.95,11.66,41.51,6.15,9.56-5.5,18.99-18.2,18.6-42.04-.39-23.83-2.36-25.01-3.4-25.8Z"/>
      <path class="cls-4" d="M140.43,301.75c-4.22-7.22-10.12-13.26-17.12-17.82-.91-.59-2.24-.02-2.7.88-.54,1.06-.03,2.09.88,2.7,5.43,3.63,10.15,8.4,13.77,13.83,3.74,5.61,7.18,12.63,6.67,19.55-.4,5.41-4.16,11.38-10.08,11.64-3.42.15-6.61-1.64-9.39-3.44-2.99-1.93-5.84-4.12-8.57-6.4-6.09-5.09-11.39-10.96-16.78-16.76-1.02-1.1-2.64.43-1.93,1.63,3.99,6.75,9.58,12.55,15.52,17.62,2.98,2.55,6.12,4.92,9.37,7.11,3.34,2.24,7.03,4.14,11.13,4.29,7.01.25,12.64-5.61,14.31-12.04,2.03-7.8-1.17-16.11-5.07-22.79Z"/>
      <path class="cls-4" d="M117.65,284.17c-.45.31-1.2.36-1.73.08-.13-.06-.26-.16-.35-.26-.27-.32-.5-.64-.76-.98-.18-.2-.27-.31-.38-.41-.03-.03-.2-.17-.36-.3.07.12.15.24.23.36.46.73.87,1.56,1.2,2.34.07.17.12.33.2.5.06.11.1.2.16.28.19.2.31.33.43.48.11.17.2.32.25.49.05.19.08.35.09.54v.13c-.02,1.04-1.2,1.78-2.16,1.28-.34-.19-.6-.4-.81-.75-.08-.17-.16-.33-.23-.51-.01-.07-.02-.11-.03-.13-.05-.01-.1-.08-.16-.16-.02-.01-.04-.03-.09-.09-.11-.1-.22-.22-.32-.33-.59-.63-1.17-1.35-1.65-2.06-.05-.07-.1-.16-.16-.23-.39-.58-.78-1.16-1.17-1.74-.21-.31-.41-.6-.58-.93-.15-.28-.28-.56-.38-.86-.06-.12-.11-.21-.17-.3-.34-.58-.32-1.21-.04-1.7.26-.48.76-.84,1.38-.91.99-.12,2.01-.06,2.99.18.58.12,1.14.32,1.68.57,1.47.68,3.03,1.91,3.64,3.46.28.72-.1,1.54-.71,1.97Z"/>
      <path class="cls-4" d="M120.8,278.81c-.32-1-.74-1.99-1.28-2.9-.91-1.55-2.3-2.95-3.96-3.68-1.65-.73-3.5-.84-5.17-.08-1.7.78-2.78,2.42-2.88,4.27-.03.52.51.96.98.98.55.03.96-.31,1.11-.83.07-.24.18-.48.33-.68.03-.04.37-.4.36-.39.22-.19.48-.34.73-.47.08-.04.39-.19.46-.22-.18.08.2-.07.24-.08.5-.17.96-.21,1.41-.14.65.11,1.09.28,1.73.69.06.04.06.03.22.16.13.11.27.22.39.33.21.19.52.51.64.66.32.4.74,1.08.99,1.6.71,1.53.84,3.27,1.57,4.78.28.59,1.14.8,1.72.61.68-.22,1-.84,1.03-1.51.05-1-.31-2.16-.62-3.11Z"/>
      <path class="cls-4" d="M129.92,278.71c-1.01-3.08-3.58-5.35-6.71-6.09-.72-.17-1.46.35-1.61,1.06-.16.8.36,1.37,1.06,1.61,1.99.69,3.61,2.51,4.21,4.41.31,1,.34,2.14.16,3.16-.11.6-.24,1.06-.47,1.57-.28.62-.7,1.1-.97,1.7-.56,1.24.83,2.74,2.07,1.87,1.35-.95,2.12-2.84,2.49-4.4.38-1.6.29-3.33-.22-4.89Z"/>
      <path class="cls-4" d="M131.72,311.18c-1.12-2.18-2.27-4.34-3.48-6.47-2.39-4.18-5.05-8.19-8.15-11.88-1.11-1.32-2.28-2.58-3.53-3.78.09-.52.1-1.06.05-1.63-.02-.22-.05-.44-.09-.65-.13-.88-.37-1.74-.6-2.52-.04-.14-.07-.26-.11-.38-.53-1.72-1.3-3.4-2.24-4.92-.17-.26-.33-.52-.53-.78-.69-1.04-1.51-2.01-2.42-2.88-.63-.62-1.3-1.2-2-1.73-.9-.67-1.86-1.28-2.84-1.78-.6-.3-1.21-.58-1.85-.81-.66-.26-1.35-.48-2.04-.65-2.29-.61-4.7-.81-7.05-.6-2.72.25-6.38,1.06-8.64,3.03-.22-.33-.6-.57-1.14-.61-4.42-.36-8.72-.95-13.03-1.96-4.13-.96-8.21-2.12-12.39-2.82-7.73-1.31-16.11-1.17-22.86,3.33-6.02,4-10.72,10.93-13,17.74-1.2,3.59-1.13,7.69,1.78,10.45.97.91,2.11,1.56,3.34,2.02-5.34,9.34-7.46,20.61-5.67,31.24.85,5.04,2.91,9.66,7.71,12.05,4.29,2.14,9.44,2.51,14.15,3.06,9.8,1.16,20.69,1.36,29.05-4.72,8.6-6.25,12.09-16.9,13.75-26.96,1.04-6.27,1.88-12.67,2.22-19.01.26-4.64.15-9.56-1.13-14.1.07-.38.1-.78.1-1.17.36,0,.73,0,1.08.01,1.98.03,3.94.22,5.88.63,4.02.86,7.85,2.53,11.32,4.72,7.37,4.62,12.69,11.84,17.01,19.25,1.23,2.11,2.4,4.27,3.53,6.44,1.13,2.19,2.04,5,3.82,6.75,1.02,1,3.04.11,2.84-1.36-.3-2.29-1.79-4.49-2.84-6.52ZM85.19,309.98c-1.3,9.59-3.2,19.71-10.22,26.9-6.5,6.66-15.98,7.47-24.79,6.77-4.46-.35-9.05-.85-13.42-1.86-1.89-.44-3.85-1.08-5.37-2.31-1.72-1.38-2.64-3.28-3.24-5.35-1.47-5-1.47-10.67-.74-15.79.78-5.47,2.55-10.75,5.2-15.6.17-.3.25-.59.26-.86.81.13,1.62.25,2.41.36,10.34,1.49,20.68,2.98,31.04,4.41,1.38.2,2.35-.74,2.42-2.08.33-7.45,3.92-14.73,9.63-19.53.8-.67,1.18-1.71.58-2.67-.5-.8-1.88-1.24-2.67-.58-6.27,5.25-10.26,12.57-11.32,20.6-7.64-1.15-15.28-2.3-22.93-3.41-2.05-.3-4.1-.59-6.15-.89-1.68-.25-3.42-.44-5.03-.99-1.04-.35-2.08-.87-2.78-1.74-1.06-1.33-.92-3.1-.56-4.65.78-3.24,2.69-6.43,4.52-9.17,1.73-2.58,3.87-5.02,6.39-6.84,5.89-4.26,13.26-4.44,20.18-3.33,4.26.69,8.42,1.83,12.62,2.8,3.42.78,7,1.56,10.55,1.67.45.4.87.82,1.31,1.23.17.16.32.33.49.5.07.1.16.21.23.31.29.38.55.79.78,1.22.05.08.11.23.13.26.07.19.13.37.21.56.12.51.26,1.01.38,1.51.07.31.15.62.21.93.04.36.06.58.11.78.03.07.07.13.1.2.77,3.78,1.15,7.56,1.03,11.52-.15,5.06-.87,10.11-1.54,15.13ZM97.78,278.47c-2.33-.51-4.82-.81-7.21-.67-.76.04-1.47.15-2.19.28-.15-.35-.31-.71-.49-1.04-.22-.42-.49-.81-.77-1.19,1.12-.35,2.2-.89,3.31-1.29,1.49-.52,3.06-.87,4.63-1.01,3.08-.27,6.2.26,8.95,1.68,1.78.91,3.35,2.18,4.66,3.67.6.67,1.14,1.39,1.63,2.14.82,1.24,1.46,2.57,1.93,3.99.04.12.07.24.1.36-.44-.33-.87-.65-1.32-.95-3.98-2.82-8.42-4.93-13.24-5.97Z"/>
      <path class="cls-4" d="M111.02,284.44c-3.98-2.82-8.42-4.93-13.24-5.97-2.33-.51-4.82-.81-7.21-.67-.76.04-1.47.15-2.19.28-.15-.35-.31-.71-.49-1.04-.22-.42-.49-.81-.77-1.19,1.12-.35,2.2-.89,3.31-1.29,1.49-.52,3.06-.87,4.63-1.01,3.08-.27,6.2.26,8.95,1.68,1.78.91,3.35,2.18,4.66,3.67-.28.49-.3,1.12.04,1.7.05.09.1.18.16.26.11.34.25.62.39.9.17.33.37.62.58.93.39.58.78,1.16,1.17,1.74Z"/>
      <path class="cls-4" d="M50.5,295.68c-.37,1.61-.51,3.31-.75,4.94-.23,1.56-.46,3.1-.67,4.64-.19,1.26-.21,2.71-.77,3.87-.55,1.12-1.61,1.89-2.78,2.25-2.48.77-4.9-.3-6.38-2.35-1.54-2.17-1.67-5.02-1.05-7.52.33-1.32.82-2.58,1.2-3.88.38-1.29.2-3.58,1.42-4.43,1.79-1.24,10.55-.9,9.76,2.48Z"/>
      <path class="cls-4" d="M105.03,319.67c-2.06,1.03-3.73,2.74-5.55,4.04-.28.2-.53.37-.98.66-.46.3-.92.59-1.4.87-1,.6-2.02,1.16-3.07,1.69-1.92.97-3.89,1.83-5.8,2.49-2.22.77-4.53,1.33-6.76,2.07-1.42.47-2.37,1.56-2.05,2.83.29,1.16,1.63,2.18,3.17,2.04,5.26-.49,10.44-2.52,14.91-4.73,2.12-1.04,4.12-2.23,6.02-3.52,2.12-1.44,4.75-3.12,5.9-5.2,1.24-2.24-1.74-4.57-4.4-3.24Z"/>
      <path class="cls-4" d="M124.5,284.65c-.25-.61-.59-1.11-1.18-1.45-.32-.18-.76-.27-1.13-.33-.61-.1-1.25-.14-1.87-.07-1.24.14-2.49.56-3.47,1.35-1.04.84-1.82,1.88-2.26,3.14-.45,1.29-.48,2.88.38,4.01.4.52.97.82,1.64.7.68-.13,1.07-.61,1.28-1.24-.21.66.06-.16.12-.36.04-.12.07-.25.11-.37-.06.16-.11.32-.17.48.18-.49.27-1,.42-1.49.12-.33.27-.63.45-.93.14-.18.3-.35.47-.52.16-.11.32-.22.49-.31.21-.08.43-.15.65-.21.24-.03.48-.04.72-.04.2.03.39.05.59.1.54.13,1.08.1,1.58-.13.44-.21.86-.45,1.08-.92.19-.43.29-.96.11-1.41Z"/>
      <path class="cls-4" d="M110.43,324.07c-.03-2.49-4.02-2.29-3.88.22.29,5.42.39,11.29-1.98,16.31-.97,2.06-2.33,4.01-4.18,5.37-2.05,1.51-4.46,2.15-6.97,2.39-5.98.57-12.1.33-18.1.44-6.26.11-12.53.23-18.79.36-3.32.07-6.71.34-10.02.12-2.8-.19-5.59-1.27-6.57-4.1-.53-1.52-3.08-1.17-2.87.54.34,2.75,2.31,4.95,4.76,6.13,2.89,1.39,6.13,1.38,9.26,1.33,7.04-.11,14.07-.22,21.11-.36,6.83-.13,13.74.02,20.55-.46,2.94-.21,5.88-.78,8.47-2.26,2.42-1.38,4.34-3.51,5.79-5.87,3.73-6.08,3.49-13.33,3.4-20.19Z"/>
      <path class="cls-4" d="M71.45,374.58c-1.36,1.99-2.64,3.92-3.82,6.02-.92,1.64-3.48,5.98-2.88,7.22.34.7.49,1.79,1.26,1.81.66.02,1.33-.48,1.62-1.06,1.04-2.11,2.43-4.09,3.62-6.13,1.21-2.07,2.23-4.14,3.26-6.31.97-2.05-1.84-3.33-3.05-1.56Z"/>
      <path class="cls-4" d="M29.74,379.62c.1-.59,3.18-9.23,4.69-12.98,2.35-5.81,5.19-11.4,7.64-17.16.65-1.53-1.39-3.24-2.55-1.77-4.04,5.12-6.95,10.97-9.38,17.01-2.45,6.07-4.43,12.33-5.93,18.71-.27,1.15.59,2.66,1.84,2.78.13.01.28.11.39.04.48-.31,3.13-5.62,3.29-6.63Z"/>
      <path class="cls-4" d="M135.65,382.78c-.43-1.92-1.97-3.91-2.97-5.59-1-1.68-2.03-3.34-3.13-4.95-2.26-3.33-4.81-6.45-7.53-9.41-5.42-5.9-11.73-11.26-18.71-15.23-.94-.53-2.21-.06-2.68.87-.54,1.06-.02,2.07.87,2.68,6.38,4.36,12.36,9.16,17.63,14.84,2.58,2.78,4.97,5.74,7.2,8.81,1.15,1.58,2.26,3.19,3.28,4.85,1.01,1.64,1.78,3.62,3.08,5.03,1.35,1.46,3.3-.32,2.94-1.9Z"/>
      <path class="cls-4" d="M90.65,384.67c-.49-1.02-1.67-1.59-2.57-2.23-.9-.64-1.8-1.28-2.7-1.92-1.74-1.24-3.49-2.48-5.23-3.71-3.56-2.53-7.06-5.15-11.01-7.04-1.39-.66-2.51,1.09-1.49,2.16,2.99,3.15,6.52,5.66,9.99,8.24,1.71,1.27,3.42,2.55,5.13,3.82.88.66,1.77,1.32,2.65,1.97.95.71,1.89,1.67,3.1,1.83,1.88.25,2.91-1.52,2.15-3.13Z"/>
      <path class="cls-4" d="M67.84,369.6c-.34-.33-.86-.51-1.27-.75-.4-.25-.95-.39-1.39-.54-.35-.12-.7-.24-1.06-.35-.74-.25-1.49-.46-2.24-.66-.86-.23-1.75.38-2.03,1.16-.27.77.03,1.85.86,2.18.88.35,1.76.68,2.66.98.37.12.74.25,1.11.37.2.06.41.13.62.18.19.05.4.07.6.08.17.03.33.06.5.08.43.07.73.05,1.14-.04.6-.13,1.17-.54,1.22-1.2.04-.6-.32-1.09-.73-1.49Z"/>
      <path class="cls-4" d="M46.7,221.4c-4.09,2.68-9.75,2.04-14.33,1.22-5.77-1.04-11.61-2.67-17.46-1.23-9.39,2.32-15.65,11.9-14.85,21.36.23,2.7.95,5.33,2.1,7.78,1.23,2.62,2.75,5.19,5.44,6.42.95.44,2.42-.48,1.9-1.62-.45-.98-.85-1.85-1.48-2.74-.7-.98-1.36-1.97-1.93-3.04-1.01-1.92-1.69-4.08-1.96-6.24-.52-4.21.43-8.49,2.98-11.92,2.43-3.26,6.03-5.77,10.1-6.4,5.4-.84,10.71,1.03,16.01,1.75,5.25.72,10.59.22,14.81-3.26,1.2-.99.03-2.98-1.34-2.09Z"/>
      <path class="cls-3" d="M76.17,223.7c-.36-2.82-1.27-5.5-3.26-7.57-1.04-1.09-3.15.21-2.53,1.63.89,2.02,1.79,4.22,2.01,6.27.12,1.12.1,2.16,0,3.12-.06.56-.15,1.13-.28,1.68-.17.76-.43,1.43-.16,2.22.34,1.02,1.59,1.48,2.5.89,1.22-.79,1.5-2.78,1.69-4.13.19-1.35.19-2.75.02-4.11Z"/>
      <path class="cls-4" d="M124.64,274.61c-.79-1.33-1.85-2.6-3.13-3.48-1.26-.87-2.79-1.41-4.34-1.22-.75.09-1.62.29-2.24.76-.74.57-1.43,1.32-1.28,2.33.1.64.59,1.23,1.31,1.16.28-.03.54-.06.81-.17.17-.07.35-.18.52-.24.31-.1.53-.19.76-.25.17-.02.32-.05.38-.06.12,0,.24,0,.36,0,.23.04.44.11.64.15.04.02.08.03.12.05.13.06.25.12.37.19.03.02.23.16.32.2.48.38.93.75,1.24,1.17.03.04.06.08.09.13.09.11.17.22.25.34.17.23.33.47.49.72.08.13.16.26.23.39.02.04.07.14.11.21.09.22.18.44.25.66.01.03.05.21.07.29,0,.09.02.2.02.23,0,.05,0,.09,0,.14-.04.26-.1.98-.05.43-.1.92.28,1.77,1.2,2.1.84.29,1.85-.05,2.25-.89.83-1.75.15-3.77-.78-5.34Z"/>
      <path class="cls-4" d="M118.22,284.15c-.04-.1-.08-.19-.13-.29-.08-.16-.15-.33-.23-.49-.2-.31-.46-.54-.79-.71-.17-.11-.34-.17-.53-.18-.34-.07-.68-.05-1.01.06-.17.03-.33.11-.48.22-.24.14-.42.33-.56.56-.11.16-.14.2-.2.34-.03.08-.06.15-.09.23-.11.26-.21.52-.26.8-.02.1-.04.2-.06.29-.05.2-.08.4-.12.59-.02.09-.04.18-.07.27-.08.28-.11.58-.07.87.04.19.07.38.11.57.08.18.17.35.25.53.13.15.25.3.38.45.23.22.49.37.79.45.18.09.38.13.58.12.2.04.39.03.58-.03.2-.01.38-.07.55-.18.28-.1.52-.27.72-.51.15-.18.35-.45.43-.61.11-.22.18-.45.23-.68.02-.11.04-.21.06-.32.07-.4.11-.81.1-1.22-.01-.38-.04-.79-.19-1.14Z"/>
      <path class="cls-4" d="M220.04,251.36c-.78-1.14-2.19-.99-3.4-.85-.94.11-1.89.29-2.8.54-1.78.49-3.5,1.3-4.85,2.57-1.1,1.04.21,3.01,1.59,2.47.18-.07.36-.13.54-.2.17-.08.34-.16.51-.24-.16.08-.15.07.02,0,.36-.15.73-.31,1.1-.44.7-.25,1.4-.51,2.13-.69.19-.05.39-.09.58-.14.16-.03.22-.04.28-.05.34-.06.69-.1,1.03-.13,1.02-.09,2.38.16,3.08-.76.45-.59.63-1.41.18-2.06Z"/>
      <path class="cls-4" d="M214.12,327.63c-1.38-9.34-1.76-18.8-2.22-28.23-.45-9.35-.51-18.72-.17-28.07.1-2.64.23-5.27.38-7.9.15-2.7.44-5.43.36-8.13-.07-2.13-3.28-2.34-3.7-.27-.95,4.62-.97,9.55-1.18,14.25-.21,4.68-.32,9.36-.33,14.04-.02,9.54.38,19.06,1.28,28.55.25,2.63.74,5.24,1.04,7.86.31,2.7.64,5.41.97,8.11.27,2.28,3.9,2.06,3.57-.21Z"/>
      <path class="cls-4" d="M291.39,371.04c-21.76-8.84-42.58-19.91-62.13-32.93-2.68-1.78-5.33-3.61-7.96-5.47-1.43-1.01-2.84-2.05-4.29-3.05-1.4-.96-2.69-2.12-4.43-2.32-1.04-.12-2.22.81-1.75,1.96,1.06,2.61,4.1,4.28,6.32,5.89,2.49,1.81,5.01,3.58,7.55,5.32,4.87,3.35,9.83,6.57,14.87,9.66,10.13,6.22,20.64,11.86,31.38,16.96,6.04,2.87,12.16,5.56,18.36,8.07,1.15.47,2.49.17,3.09-1,.53-1.03.15-2.62-1-3.09Z"/>
      <g>
        <path class="cls-4" d="M297.92,370.68c.21-.6.33-1.05.14-1.68-.28-.93-1.3-1.36-2.19-1.12-.39.1-.7.35-.98.63-.03.03-.05.05-.1.08-.09.08-.25.19-.34.3-.1.07-.2.14-.28.23-.05.05-.11.1-.16.15-.13.13-.25.27-.38.4-.13.13-.27.25-.4.38.5-.48.06-.06-.1.06-.3.21-.61.4-.93.57-.1.06-.13.07-.17.08-.18.07-.35.14-.53.2-.33.11-.67.18-1.01.26-.38.06-.56.08-.75.09-.38.02-.76.05-1.15.03-.92-.03-1.66.87-1.72,1.71-.07.99.57,1.64,1.46,1.94,2.03.68,4.16.23,6.03-.69.87-.43,1.63-1,2.34-1.67.16-.15.32-.31.45-.48.15-.19.31-.39.42-.6.08-.12.13-.25.17-.38.03-.07.07-.13.08-.16-.07.16.39-1.19.09-.33Z"/>
        <path class="cls-4" d="M290.43,371.24c-.28,0-.2.03-.08.01.06,0,.07-.01.08-.01Z"/>
        <path class="cls-4" d="M292.2,370.69c-.3.1-.27.11-.17.08.04-.02.08-.03.12-.05.02,0,.03-.02.05-.03Z"/>
      </g>
      <path class="cls-4" d="M302.45,308.07c-.03-2.98-.09-5.96-.18-8.94-.04-1.45-.09-2.9-.15-4.34-.06-1.5-.09-2.98-1.59-3.76-.47-.24-1.04-.21-1.49.07-1.15.73-1.33,1.9-1.28,3.17.05,1.28.1,2.55.14,3.83.08,2.55.14,5.11.18,7.67.08,5.2.07,10.39-.04,15.59-.2,10.3-.68,20.59-1.55,30.85-.24,2.8-.55,5.6-.77,8.4-.23,2.91-.76,5.95-.29,8.85.18,1.13,1.85,1.78,2.41.51,1.04-2.38,1.33-4.99,1.68-7.54.35-2.53.6-5.07.85-7.61.51-5.18.92-10.37,1.25-15.57.66-10.38.93-20.77.82-31.17Z"/>
      <path class="cls-4" d="M302.03,290.42c-1.04-1.11-2.44-1.61-3.8-2.24-1.49-.69-2.97-1.38-4.46-2.07-2.66-1.23-5.32-2.47-7.98-3.7-5.48-2.54-10.95-5.08-16.43-7.62-10.95-5.08-21.9-10.15-32.87-15.2-3.13-1.44-6.25-2.92-9.4-4.32-1.58-.7-3.15-1.42-4.75-2.07-1.47-.61-3.07-1.57-4.64-.83-.65.31-1,.86-.81,1.59.41,1.57,1.74,2.09,3.07,2.78,1.37.72,2.78,1.38,4.17,2.07,2.71,1.33,5.46,2.58,8.19,3.86,5.47,2.56,10.93,5.12,16.4,7.66,11.03,5.11,22.06,10.23,33.09,15.34,3.13,1.45,6.26,2.9,9.39,4.35,1.49.69,2.97,1.38,4.46,2.07,1.71.79,3.24,1.66,5.16,1.76,1.86.1,2.26-2.34,1.22-3.44Z"/>
      <path class="cls-4" d="M292.39,346.51c-.22-1.28-2.05-1.59-2.38-.17-1.04,4.51-1.14,9.24-1.25,13.86-.11,4.67-.3,9.32.19,13.97.17,1.61,2.67,1.96,2.96.21.74-4.61.82-9.25.96-13.92.14-4.64.32-9.37-.48-13.96Z"/>
      <path class="cls-4" d="M239.18,266.45c-1.93-1.69-4.21-2.81-6.52-3.92-2.26-1.08-4.52-2.16-6.79-3.21-2.27-1.05-4.55-2.1-6.82-3.14-2.31-1.06-4.65-2.25-7.11-2.9-1.39-.36-2.56,1.72-1.33,2.61,2.07,1.5,4.43,2.56,6.72,3.67,2.25,1.09,4.5,2.19,6.76,3.28,2.25,1.09,4.52,2.16,6.79,3.21,2.33,1.08,4.66,2.17,7.2,2.59,1.2.2,2.1-1.33,1.12-2.19Z"/>
      <path class="cls-4" d="M291.4,294.01c-.23-1.02-1.18-1.37-2-1.83-.65-.37-1.31-.73-1.96-1.1-1.41-.77-2.81-1.55-4.22-2.32-2.83-1.56-5.6-3.13-8.63-4.26-.52-.19-1.07-.13-1.4.36-.29.42-.28,1.1.15,1.44,2.59,2.04,5.41,3.63,8.27,5.26,1.39.8,2.79,1.6,4.18,2.39.7.4,1.4.79,2.1,1.19.86.48,1.57,1.01,2.6.66.78-.27,1.08-1.03.91-1.79Z"/>
      <path class="cls-4" d="M294.16,303.07c-.14-.96-.32-1.91-.5-2.86-.34-1.74-.68-3.48-1.02-5.22-.16-.81-1.16-1.25-1.89-1.11-.76.14-1.47.89-1.36,1.72.24,1.73.48,3.46.71,5.19.13.96.28,1.91.47,2.87.22,1.15.8,2.75,2.28,2.47,1.43-.27,1.48-1.9,1.31-3.05Z"/>
      <path class="cls-4" d="M172.19,367.8c1.32-1.18-.03-3.1-1.48-3.12-3.23-.04-3.41-4.81-.21-5.15,2.14-.22,2.35-3.17.27-3.72-3.37-.9-4.04-6.01-1.56-8.15,1.45-1.25-.31-3.39-1.89-2.93-2.17.63-5.09-1.9-3.92-4.16,1.17-2.25,3.79-1.66,5.74-1.11,1.43.4,2.32-1.34,1.68-2.46-1.27-2.25-4.13-2.48-6.4-1.84-2.18.62-4.07,2.26-4.8,4.42-1.27,3.77,1.42,7.47,4.91,8.54-.62,1.54-.76,3.27-.36,5.07.36,1.65,1.18,3.12,2.32,4.26-1.39,1.22-2.27,2.99-2.16,4.95.13,2.21,1.43,4.04,3.23,5.07-1.46,2.25-2.15,4.99-2.03,7.67.16,3.76,1.96,7.02,5.11,9.07,1.3.85,2.54-1.17,1.51-2.18-3.82-3.73-4-10.66.04-14.25Z"/>
      <path class="cls-4" d="M173.14,293.68c-2.7-.34-5.88-.26-8.19,1.37-2.93,2.07-3.06,5.51-2.19,8.7.41,1.49,1.03,2.96,1.12,4.51.11,1.9-.5,3.79-1.04,5.58-1,3.35-1.87,6.65-.64,10.07.56,1.54,1.47,2.88,2.68,3.81-.51.69-.85,1.52-.96,2.46-.25,2.16.49,4.3,2.39,5.48.96.59,1.92-.88,1.11-1.6-.89-.79-1.04-1.92-.62-3.01.3-.8.94-1.89,1.88-2.04,2.18-.34,2.04-3.4-.2-3.44-2.31-.04-3.19-3-3.3-4.87-.19-3.28,1.65-6.39,2.26-9.56.34-1.77.37-3.54,0-5.31-.33-1.62-1.05-3.2-1.2-4.85-.28-2.97,2.54-3.46,4.88-3.43,1.41.02,3.4.62,4.22-.96.81-1.56-.81-2.73-2.21-2.91Z"/>
      <path class="cls-4" d="M173.38,290.45c-2.49.38-5.73-1.24-6.28-3.88-.56-2.65,1.77-5.24,4.36-5.39,1.15-.07,2.05-1.09,2-2.24-.23-4.51-3.82-7.12-6.69-10.1-1.01-1.05-2.36-2.62-2.15-4.2.19-1.39,1.36-2.21,2.68-2.39,1.35-.18,1.98-1.75.97-2.74-1.95-1.92-4.6-.98-6.21.92-1.64,1.92-2.1,4.57-1.24,6.94.86,2.34,2.62,4.16,4.41,5.83,1.32,1.23,2.87,2.57,3.59,4.25-3.92,1.43-6.69,5.67-5.81,9.93.99,4.81,6.33,7.89,10.93,5.97,1.44-.6,1.24-3.16-.54-2.89Z"/>
      <path class="cls-4" d="M178.26,228.56c-.41-1.99-2.88-2.8-4.67-2.8-1.81,0-3.65.78-4.82,2.19-1.45,1.74-1.68,4.05-.99,6.05-2.02.73-3.75,2.39-4.6,4.45-1.3,3.13-.5,6.34.87,9.3-.26.06-.51.14-.76.24-2.1.84-3.39,2.74-3.54,4.98-.29,4.44,3.93,8.57,8.37,8.34.78-.04,1.15-1.06.56-1.58-1.86-1.66-4.61-2.66-5.22-5.36-.21-.91-.11-2.07.71-2.65.69-.5,1.54-.54,2.14.07,1.55,1.57,3.87-.62,2.85-2.4-1.44-2.49-3.41-5.67-2.72-8.69.4-1.74,2.42-3.99,4.37-3.06,2.25,1.08,3.92-2.23,1.76-3.44-1.25-.7-1.74-2.73-.65-3.78,1.41-1.37,3.07-.14,4.58.14,1.22.22,2-.86,1.76-1.97Z"/>
      <path class="cls-4" d="M180.09,301.71c-.06-.22-.15-.42-.28-.61-.16-.23-.33-.46-.49-.68-.17-.23-.36-.45-.55-.66-.16-.26-.36-.48-.51-.73-.14-.23-.28-.46-.42-.69-.08-.14-.15-.28-.23-.42-.19-.57-.41-1.1-.56-1.69-.01-.05-.02-.08-.03-.11-.02-.12-.04-.24-.06-.36-.04-.27-.08-.54-.1-.81-.02-.29-.04-.59-.03-.89,0-.13.01-.27.01-.4,0,.53,0,0,.02-.1.07-.58.17-1.17.32-1.73.07-.25.15-.5.22-.75.04-.16.07-.29.1-.45.01-.15.02-.29.03-.44,0,.18,0,.18.02-.02.2-1.26-1.13-2.2-2.23-1.53-2.85,1.71-3.18,5.96-2.52,8.88.32,1.41.94,2.88,1.85,4.01.57.7,1.17,1.41,1.97,1.87.27.16.57.28.86.39.84.33,1.31.16,2.07-.2.41-.2.6-.74.59-1.16,0,.23,0,.21.02-.06.04-.22.01-.44-.07-.66Z"/>
      <path class="cls-4" d="M211.41,208.6c-2.27-1.22-5.37-1.42-7.89-1.24-2.55.18-5.19.87-7.22,2.48-2.22,1.76-3.71,4.41-3.9,7.15-4.91-1.83-10.79-2.31-15.03.74-4.11,2.96-6.95,9.41-2.82,13.56,1.03,1.04,2.98-.18,2.43-1.57-1.32-3.33.18-7.02,3.21-8.85,4.36-2.65,9.82-.21,14.04,1.44.84.33,1.78.27,2.42-.44.56-.61.77-1.78.21-2.47-2.02-2.46-.14-5.87,2.27-7.34,1.68-1.02,3.76-1.29,5.69-1.33,2.09-.04,4.4.24,6.44-.25.9-.22.88-1.49.15-1.88Z"/>
      <path class="cls-4" d="M233.76,202.22c-1.19-1.83-3.86-2.21-5.87-2.29-2.04-.08-4.14.33-6.02,1.12-1.93.81-3.7,1.97-5.14,3.49-.71.75-1.36,1.59-1.82,2.51-.25.5-.49,1.03-.64,1.57-.05.2-.09.43-.12.63-.05.24-.03.47.04.7.2.32.23.41.09.26-.07,1.08,1.48,1.2,1.93.4-.08.14.45-.37.51-.46.12-.18.24-.37.34-.55.22-.37.41-.76.65-1.12.43-.65.93-1.27,1.48-1.83,1.09-1.11,2.44-1.99,3.89-2.56,1.53-.6,3.13-.91,4.78-.85,1.66.06,3.27.88,4.93.86.93-.01,1.45-1.14.96-1.89Z"/>
      <path class="cls-4" d="M250.57,186.45c-.06-.04-.12-.08-.18-.12-.17-.17-.43-.45-.48-.48-.34-.23-.75-.38-1.15-.45-.66-.11-1.38-.09-2.04.02-2.71.45-4.99,1.86-6.5,4.17-.96,1.47-1.41,3.22-1.38,4.95-2.32-.26-4.65,0-6.45,1.7-2.02,1.92-2.49,5.53-.28,7.47,1.73,1.53,3.94-.97,2.39-2.62.14.15-.05-.13-.05-.07-.02-.09-.05-.22-.07-.25,0-.09,0-.23,0-.26.02-.13.05-.27.09-.4.03-.04.16-.33.17-.33.03-.06.05-.11.07-.14.02-.02.05-.05.08-.1.27-.34.5-.53.64-.62.12-.07.13-.09.11-.1.04-.01.1-.03.21-.06.18-.06.37-.13.56-.17.45-.09.95-.09,1.41-.06,1.13.08,2.26.41,3.35.71,1.51.42,2.94-1.28,2.42-2.71-.32-.88-.38-1.87-.23-2.72.18-.97.51-1.69,1.14-2.39.04-.04.27-.28.31-.32.2-.17.42-.32.64-.46.51-.32.58-.35,1.24-.54.37-.11.63-.15,1.21-.2.24-.02.49,0,.73-.02.16-.01.36-.06.52-.09.41-.1.63-.26.91-.46.15.08.44-.1.53-.15.24-.16.48-.42.61-.68.37-.73.03-1.57-.55-2.07Z"/>
      <path class="cls-4" d="M217.1,207.75c-.15-.12-.31-.23-.48-.33-.05-.03-.11-.06-.16-.09-.05-.06-.14-.12-.18-.15-.35-.28-.71-.43-1.14-.49-.28-.04-.57-.08-.85-.11-1.29-.15-2.61-.37-3.92-.32-1.24.05-1.95,1.29-1.65,2.41.09.32.19.62.3.93.09.28.12.61.18.9.12.62.24,1.24.37,1.86.06.31.4.67.68.79.28.13.56.17.87.11.68-.13,1.11-.72,1.11-1.4,0-.54,0-1.09,0-1.63.48.04.96.08,1.43.12.29.03.57.05.86.07.2.02.41.03.61.04.33-.02.64-.12.91-.3.03-.02.1-.04.15-.07.02,0,.24-.08.24-.08.18-.06.34-.14.51-.23.39-.19.71-.53.74-.97.03-.44-.22-.82-.56-1.08Z"/>
      <path class="cls-4" d="M294.9,175.19c-.07-.7-.59-1.42-1.33-1.53-1.48-.22-2.53.69-3.87,1.1-1.2.37-2.55.36-3.79.23-3.3-.35-6.63-1.37-9.98-1.02-2.92.31-5.43,1.78-6.84,4.4-.67,1.26-.94,2.58-.79,3.85-2.04-.12-4.1-.88-6.02-1.4-2.79-.75-5.9-1.17-8.64,0-4.21,1.81-5.89,7.97-1.67,10.73,1.54,1.01,3.17-1.45,1.82-2.63-.9-.79-.52-2.01.08-2.9,1-1.49,2.79-1.72,4.46-1.55,4.71.47,8.8,3.18,13.64,1.64,1.64-.52,1.85-2.48.79-3.63-.97-1.05.32-2.91,1.15-3.6,2.02-1.66,5.26-.92,7.54-.33,2.48.64,5.04,1.2,7.63.91,2.25-.25,6.12-1.34,5.83-4.28Z"/>
      <path class="cls-4" d="M319.64,228.25c-1.31-.92-2.8-1.54-4.36-1.87-2.99-.64-6.17-.16-8.74,1.53-1.26.83-.04,2.7,1.26,1.96,2.09-1.18,4.62-1.37,6.92-.8,1.15.29,2.23.8,3.22,1.46.42.28.95.64,1.35.98.52.43.97.92,1.6,1.19.61.26,1.29-.14,1.27-.83-.05-1.47-1.4-2.82-2.54-3.62Z"/>
      <path class="cls-4" d="M289.79,170.99c-.07,0-.06.1,0,.1s.06-.1,0-.1Z"/>
      <path class="cls-4" d="M97.03,143.96c-1.96-.6-3.57-2.48-3.83-4.52-.3-2.37,1.08-4.52,3.11-5.62,1.56-.85,1.01-2.84-.18-3.65-1.93-1.31-2.1-4.13-2.1-6.23.01-3.07.61-6.14.82-9.2.26-3.7.04-7.52-.24-11.22-.29-3.8-.87-7.56-1.67-11.29-.44-2.05-3.47-1.01-3.07,1,.77,3.95,1.23,7.96,1.38,11.98.15,3.99-.19,8-.64,11.97-.53,4.6-1.67,10.69,1.32,14.64-2.18,2.1-3.4,5.21-3,8.23.4,2.98,2.13,5.48,4.56,7.02-1.55,3.09-2.01,6.51-1.32,10.04.31,1.61,2.66,1.91,3.64.79.32-.37.73-.77.95-1.21.23-.44.19-.94.35-1.4.34-.95-.15-1.81-.93-2.02.13-2.03.77-3.99,2.03-5.67,1.06-1.4.5-3.13-1.18-3.64Z"/>
      <path class="cls-4" d="M203.35,28.28c-1.95.6-3.59,1.64-5.34,2.66-1.11.64-2.22,1.27-3.34,1.9-1.45-1.68-3.81-2.43-6.12-2.31-3.66.18-6.34,2.29-8.79,4.83-1.26,1.31-2.47,2.73-3.97,3.78-1.69,1.17-3.59,1.56-5.61,1.69-4.08.26-8.3-.25-11.89,2.13-2.15,1.43-3.9,3.68-4.29,6.12-5.86-1.01-12.43,3.13-13.06,9.3-6.07,2.25-12.15,4.49-18.22,6.76-4.22,1.58-12.47,3.62-11.51,9.73.19,1.18.74,2.22,1.36,3.23.3.49,1.41,1.74,1.16,2.4-.47,1.27-4.1.24-4.99.1-5.29-.85-11.63-.74-15.66,3.33-3.49,3.53-4.32,10.17.11,13.34,1.24.88,2.74-.65,1.62-1.78-2.6-2.64-.83-7.61,1.87-9.52,2.06-1.46,4.64-1.87,7.11-1.86,2.47,0,4.83.67,7.27.86,2.07.16,4.42-.11,5.77-1.88,1.59-2.07.82-4.45-.41-6.45-.89-1.45-1.89-2.74-.34-4.1,1.92-1.7,4.84-2.35,7.18-3.21,6.79-2.5,13.56-5.03,20.34-7.55.86-.32,1.48-1.14,1.42-2.08-.29-4.65,6.23-8.78,10.21-5.92,1.79,1.28,4.45-.52,3.12-2.63-1.86-2.94,3.05-5.63,5.34-5.93,4.53-.6,9.14.27,13.33-2.03,3.48-1.91,5.4-5.65,8.73-7.69,1.74-1.06,5.5-1.68,6.21.75.39,1.32,1.94,1.72,3.05,1.09,1.74-.99,3.47-1.99,5.21-2.96,1.79-1,3.44-1.88,4.96-3.26,1.36-1.23-.28-3.32-1.83-2.84Z"/>
      <path class="cls-4" d="M97.57,91.74c-1.62-.3-3.22-.15-4.69.63-1.39.74-2.64,1.96-3.34,3.37-.71,1.43-1.01,3.14-.8,4.72.24,1.76,1.3,4.8,3.44,4.33.28-.03.56-.06.81-.22.22-.14.36-.32.47-.55.03-.09.05-.15.07-.2.54-.95.13-1.85-.2-2.8-.08-.24-.32-.71-.28-.97.01.08.03.16.04.24-.02-.1-.03-.21-.04-.31-.02-.15-.03-.31-.04-.46,0-.16,0-.31,0-.47.05-.37.1-.67.18-.97.08-.15.16-.41.19-.47.07-.14.14-.27.21-.4.03-.06.19-.28.22-.37.14-.18.23-.29.34-.4.1-.11.21-.22.32-.33.07-.07.15-.14.22-.2-.05.05-.11.09-.16.14.14-.21.54-.39.75-.53.25-.16.5-.31.76-.45.07-.03.16-.08.28-.14.12-.05.31-.13.35-.14.14-.05.28-.1.42-.15.07-.02.14-.05.21-.07.78-.12,1.37-.58,1.41-1.34.04-.69-.41-1.38-1.13-1.51Z"/>
      <g>
        <path class="cls-4" d="M115.12,99.99s.04,0,.14-.04c-.06.02-.1.03-.14.04Z"/>
        <path class="cls-4" d="M119.31,101.63c-.15-.58-.37-1.13-.58-1.69-.11-.28-.21-.56-.32-.83-.19-.49-.4-1.07-.84-1.37-.52-.36-1.12-.5-1.75-.52-.54-.02-1.06.18-1.53.41-.91.45-1.72,1.42-1.85,2.44-.07.57.24,1.19.85,1.29.59.09,1.16-.25,1.29-.85.07-.18.1-.23.12-.27.05-.06.08-.09.12-.13.06-.04.1-.06.14-.08.05-.02.11-.03.16-.05,0,0,.06-.02.12-.04.26-.02.31-.02.36-.02.36,1.06.76,2.09,1.26,3.08.18.34.32.65.61.92.14.13.28.26.45.35.38.21.89.14,1.21-.13.75-.63.4-1.72.19-2.53Z"/>
        <path class="cls-4" d="M115.44,99.94s0,0,.09,0c-.03,0-.07,0-.09,0Z"/>
      </g>
      <path class="cls-4" d="M128.45,109.13c.01-.1.02-.2.04-.29.05-.36.11-.72.21-1.08.02-.07.04-.13.06-.2.07-.18.13-.35.21-.52.07-.17.15-.33.24-.49.07-.13.41-.65.12-.23.28-.4.48-.76.45-1.26-.02-.41-.23-.9-.56-1.17-.76-.63-1.74-.56-2.44.11-1.55,1.5-2.27,3.55-2.31,5.67-.02.95.13,1.96.45,2.85.18.51.55,1.42,1.03,1.74.11.1.12.1.02-.02-.17-.21-.1-.12.23.27.05.06.1.12.16.18.32.33.73.5,1.18.53.79.06,1.56-.28,1.74-1.15.06-.31.1-.6.04-.91-.02-.09-.11-.54-.22-.64,0-.04-.01-.09-.02-.13-.04-.19-.07-.3-.13-.47-.06-.17-.12-.35-.17-.52-.06-.17-.12-.35-.17-.52-.03-.1-.05-.2-.08-.3-.01-.07-.02-.13-.03-.16-.01-.08-.02-.16-.03-.24-.02-.2-.03-.41-.04-.61,0-.08,0-.16,0-.25,0-.03,0-.11,0-.17Z"/>
      <path class="cls-4" d="M144.62,124.15c-.59-.19-1.19-.3-1.76-.64-.36-.22-.73-.6-.83-1.07-.03-.16-.04-.21.04-.54.03-.13.05-.18.08-.24.08-.18.16-.36.26-.52.11-.17.27-.32.47-.45.3-.09.59-.21.88-.34.14-.06.28-.12.41-.19,1.62-.88.62-3.35-1.06-3.28-.49.02-.96.12-1.41.27-.08,0-.16.01-.24.01-.03,0-.12,0-.17-.01-.3-.04-.6-.11-.89-.19-.24-.1-.4-.16-.57-.23-.13-.06-.26-.12-.38-.19-.03-.02-.23-.14-.31-.19-.06-.05-.16-.13-.18-.14-.13-.12-.27-.23-.4-.36-.3-.29-.57-.72-.66-1.01-.14-.48-.19-.78-.12-1.21.12-.73.17-.87.59-1.54.06-.08.1-.13.13-.18.09-.12.18-.24.28-.36.16-.2.46-.53.58-.63.4-.35.94-.57,1.54-.71,1.96-.44,1.26-3.43-.63-3.36-4.58.15-7.86,4.98-6.46,9.32.71,2.2,2.39,3.74,4.38,4.45-.3.86-.39,1.8-.2,2.75.31,1.57,1.33,2.84,2.69,3.65,1.28.75,3.24,1,4.45,0,1.1-.91.83-2.41-.53-2.85Z"/>
      <g>
        <path class="cls-4" d="M163.31,126.45c0-.17-.02-.26-.04-.27,0,.08.02.16.03.24,0,0,0,.02,0,.03Z"/>
        <path class="cls-4" d="M169.21,120c-2.88-1.73-7.06-.75-9.09,1.86-1.21,1.55-1.78,3.42-1.41,5.37.38,2.04,1.57,3.66,3.29,4.78.82.53,1.74.77,2.7.88.64.07,1.26.12,1.86-.14.58-.24,1-.52,1.47-.94.85-.75.17-2.05-.74-2.29-.02,0-.08-.02-.13-.03-.14-.05-.21-.07-.25-.09-.42-.21-.84-.34-1.27-.43-.25-.13-.37-.23-.5-.32-.09-.06-.19-.12-.28-.18-.05-.04-.21-.16-.26-.2-.12-.1-.24-.21-.36-.33-.1-.1-.19-.21-.29-.31-.17-.22-.32-.46-.45-.7-.05-.13-.1-.26-.14-.4-.02-.03-.03-.08-.03-.12-.06-.2-.05-.26-.03-.24,0-.06,0-.18,0-.29,0-.05.01-.1.02-.15.02-.1.05-.21.07-.31.04-.09.1-.24.16-.37.06-.06.1-.12.14-.17.08-.1.16-.19.25-.28.07-.07.14-.13.21-.2.22-.17.43-.31.65-.44.11-.06.23-.11.33-.18-.07.05-.13.08-.18.11.06-.03.14-.07.2-.09.14-.05.27-.1.41-.13.03,0,.08-.02.14-.03.1-.01.25-.04.3-.04.14-.01.28-.01.41-.01.13.02.26.04.4.07.04.01.09.02.13.03.11.05.22.09.33.15,1,.52,2.41.12,2.89-.94.51-1.12.1-2.27-.94-2.89Z"/>
        <path class="cls-4" d="M165.57,128.96s-.09-.05-.11-.05c0,0,.07.03.11.05Z"/>
        <path class="cls-4" d="M164.93,123.9c-.14.07-.22.13,0,0h0Z"/>
      </g>
      <g>
        <path class="cls-4" d="M221.61,142.75c-.13.03-.23.07,0,0h0Z"/>
        <path class="cls-4" d="M221.74,142.73c.09,0,.18-.01.27-.01.24.03.44.07.64.13.79.24,1.64-.37,1.89-1.09.28-.79-.07-1.62-.8-2.03-2.38-1.34-5.76-.64-7.43,1.5-.94,1.2-1.55,2.7-1.37,4.25.18,1.52.89,3.01,2.07,4.01.56.48,1.21.9,1.9,1.17.93.36,2.03.57,2.98.21.44-.07.89-.19,1.24-.43.51-.35.85-.89,1.01-1.47.15-.56-.19-1.06-.62-1.36.06.04.11.08.12.08-.07-.05-.11-.08-.16-.11-.11-.07-.17-.11-.27-.16-.21-.11-.47-.23-.69-.27-.09-.02-.19-.02-.29-.03-.12-.02-.16-.03-.21-.04-.28-.14-.58-.25-.91-.36.18.06.37.13.56.19-.38-.14-.75-.33-1.1-.55-.19-.15-.37-.32-.54-.49-.11-.15-.21-.31-.3-.47-.04-.1-.07-.21-.1-.31-.01-.12-.02-.23-.02-.35.02-.1.04-.2.07-.29.06-.13.12-.25.19-.37.21-.26.44-.5.68-.74.06-.05.12-.09.19-.13.1-.06.41-.23.46-.26.1-.04.2-.09.29-.15.11-.04.19-.05.28-.08-.06.02-.1.03-.14.05.04-.01.09-.02.13-.02Z"/>
      </g>
      <g>
        <path class="cls-4" d="M238.58,153.87c.01-.06.02-.11.02-.14-.02.11-.02.13-.02.14Z"/>
        <path class="cls-4" d="M238.71,153.17s0,.07-.02.11c.02-.04.03-.09.04-.14-.01.03-.01.03-.01.03Z"/>
        <path class="cls-4" d="M247.9,160.88c-.06-.12-.12-.23-.2-.34-.23-.34-.49-.53-.82-.74-.07-.06-.23-.18-.28-.23-.14-.13-.28-.26-.41-.39-.03-.03-.05-.06-.08-.1-.09-.13-.19-.26-.28-.4-.09-.13-.15-.28-.24-.4-.02-.05-.04-.1-.06-.14-.06-.16-.11-.33-.16-.49-.01-.04-.02-.09-.03-.15-.03-.31-.06-.62-.08-.94,0,.04-.02.07-.03.12.02-.06.02-.14.02-.2.12-.28.2-.49.27-.71.03-.09.12-.27.13-.4.08-.19.15-.4.19-.59.45-2.12-2.25-3.39-3.69-1.88-.65.68-1.09,1.5-1.34,2.39-.1.05-.19.1-.16.09-.18.07-.32.1-.45.14-.11,0-.23.02-.34.02-.36,0-.26-.03-.13-.03-.1-.01-.21-.01-.27-.03-.03,0-.09-.02-.15-.04-.06-.03-.12-.05-.15-.07-.06-.06-.15-.13-.2-.18-.06-.08-.11-.16-.16-.25-.04-.14-.1-.27-.14-.39,0-.22-.06-.48-.07-.68,0-.23.02-.23.02-.16,0-.07,0-.15.02-.21.01-.06.04-.15.07-.23-.04.11-.09.14.02-.11.06-.12.11-.21.16-.3.07-.08.15-.16.22-.24.97-.66,1.35-1.96.7-2.88-.68-.96-1.81-1.16-2.82-.62-1.38.74-2.26,2.14-2.67,3.62-.42,1.52-.14,3.11.57,4.49.72,1.4,2.18,2.49,3.73,2.77.84.15,1.72.09,2.57-.14.45,1.02,1.05,1.98,1.94,2.69,1.17.94,2.88,1.69,4.27.75.86-.57.96-1.56.53-2.43Z"/>
        <path class="cls-4" d="M239.86,155.54s-.08-.02-.13-.03c.05,0,.08.01.12.03,0,0,0,0,0,0Z"/>
        <path class="cls-4" d="M245.25,156.52s.03-.08.03-.12c-.03.09-.04.1-.03.12Z"/>
      </g>
      <path class="cls-4" d="M270.76,169.68c-.19-1.03-1.08-1.68-2.12-1.67-.31-.08-.51-.13-.71-.17-.17-.03-.33-.08-.49-.13-.18-.07-.35-.16-.52-.25-.15-.12-.29-.24-.42-.38-.09-.12-.17-.24-.24-.37-.03-.09-.06-.18-.09-.28-.02-.2-.03-.4-.03-.59.03-.17.06-.33.11-.49.07-.16.15-.32.24-.47.12-.14.25-.28.37-.42.2-.14.34-.22.49-.29.44-.23.86-.88.93-1.36.07-.46.02-.9-.18-1.33-.42-.89-1.58-1.53-2.56-1.12-2.43,1.02-3.87,3.23-4.02,5.83-.14,2.41,1.47,4.7,3.63,5.68.59.27,1.21.46,1.85.52.61.05,1.11.07,1.7-.13.23-.08.47-.14.69-.23.96-.38,1.56-1.29,1.37-2.33Z"/>
      <path class="cls-4" d="M283.08,173.3c-.03-.24-.06-.49-.13-.72-.19-.66-.8-1.23-1.48-1.34-.57-.09-1.09.06-1.53.43-.21.15-.37.34-.47.57-.06.16-.11.32-.17.48-.01.04-.02.08-.02.12-.02.1-.03.2-.04.3-.01.09-.03.18-.06.27-.07.24-.08.49-.08.74,0,.18,0,.37.02.55.03.39.07.78.1,1.16.04.47.25,1,.63,1.32.14.1.28.2.43.29.23.13.48.19.74.19.4.03.84-.05,1.18-.28.13-.11.26-.22.38-.32.24-.26.39-.57.47-.92.03-.36.06-.73.09-1.09.03-.33.05-.66.06-.99,0-.26-.05-.52-.11-.77Z"/>
      <path class="cls-4" d="M205.79,79.13c-1.67-3.35-4.6-7.26-8.4-8.26-3.67-.96-6.38,1.91-6.78,5.32-3.7-.74-7.84,1.31-9.34,4.82-.62,1.46,1.43,2.54,2.21,1.13,1.37-2.49,4.79-3.66,7.37-2.4.13.56.28,1.13.48,1.68.7,1.99,1.89,4.19,1.49,6.35-.34,1.87,2.01,2.46,2.97,1.04,2.31-3.44,1.27-8.36-1.8-10.98-.08-1.83.52-4.28,2.8-3.48,2.71.95,4.84,4.24,6.03,6.68,1.42,2.9,1.72,6.02,2.29,9.14.26,1.39,2.08,1.62,2.5.18,1.1-3.71-.15-7.88-1.82-11.23Z"/>
      <path class="cls-4" d="M253.08,93.34c-.72-3.98-3.97-6.56-7.86-7.24-4.14-.72-8.96.27-12.52,2.48-.66.41-1.27.89-1.82,1.43-.99-1.74-2.51-3.17-4.55-3.98-3.33-1.32-7.16-.63-9.98,1.44-.65-2.39-2.14-4.38-4.98-4.84-3.65-.59-7.13,3.7-4.72,6.96,1.35,1.83,4.31-.04,2.99-1.92-.74-1.05.91-1.7,1.86-1.1,1.77,1.12,1.62,3.66,1.39,5.46-.25,1.99,2.68,3.37,3.57,1.25,1.31-3.12,5.06-5.06,8.34-3.87,1.65.6,3.08,2.11,3.86,3.85-.8,1.96-.85,4.16.26,6.25.7,1.32,2.46.63,2.82-.53.53-1.7.66-3.51.41-5.23.72-1.14,1.85-2.09,3.09-2.72,2.62-1.34,5.98-2.03,8.9-1.6,2.5.36,4.92,1.64,5.56,4.25.49,1.98-.09,4.04-1.95,5.02-1.55.81-.32,3.25,1.29,2.72,3.37-1.12,4.63-4.8,4.04-8.07Z"/>
      <path class="cls-4" d="M302.69,115.59c-1.02-3.03-3.32-5.18-6.35-6.14-5.04-1.6-9.78.36-13.8,3.31-.27-2.65-1.7-5.16-4.22-6.5-2.88-1.53-6.21-.96-8.68.84-.02-.2-.04-.4-.06-.6-.1-1.09-.93-1.69-1.97-1.75-1.5-.08-2.96.15-4.33.64-.05-.15-.1-.3-.17-.44-1.49-3.35-5.64-4.5-8.78-2.84-1.93,1.02-.09,3.75,1.81,2.82,1.3-.64,3.23.11,3.71,1.48.09.26.12.53.12.8-1.24.97-2.3,2.19-3.08,3.6-.79,1.42.73,3.04,2.2,2.58,1.89-.59,3.37-2.09,4.07-3.88.88-.49,1.84-.81,2.86-.95.1,1.18.21,2.36.32,3.54.2,2.18,3.1,2.27,3.7.27.76-2.57,4.22-4.08,6.6-2.81,2.26,1.2,3.18,4.71,1.67,6.83-1.32,1.85.97,4.09,2.65,2.42,3.45-3.42,7.96-7.06,13.17-6.23,2.01.32,4.16,1.37,5.07,3.29.81,1.71.78,3.89-.44,5.4-1.37,1.69,1.03,3.93,2.51,2.3,1.98-2.19,2.34-5.21,1.41-7.97Z"/>
      <path class="cls-4" d="M359.28,136.57c-2.87-2.22-6.65-2.99-10.19-2.36-1.8.32-3.49.94-5.1,1.74-.03-3.38-1.94-6.23-4.75-7.98-5.85-3.64-12.47-1.31-18.09,1.74-.67-4.31-2.19-8.51-6.21-10.83-4.01-2.33-10.77-.65-11.19,4.66-.19,2.4,2.85,3.01,3.64.75.92-2.65,4.48-2.42,6.22-.89,2.86,2.52,3.09,6.62,3.39,10.16.14,1.71,2.03,2.7,3.51,1.79,4.44-2.74,10.03-6.28,15.43-4.13,1.87.75,3.38,2.17,3.71,4.21.25,1.51-.13,3.02-1.21,4.01-.24.18-.48.35-.71.53-2.14,1.61-.12,4.73,2.24,3.49.67-.35,1.24-.8,1.74-1.32,4.04-2.94,9.14-5.6,13.93-3.07,1.86.99,3.08,2.78,2.84,4.93-.25,2.2-1.86,3.09-3.15,4.63-.53.63-.47,1.79.39,2.15,3.45,1.43,6.14-2.33,6.77-5.34.7-3.32-.52-6.77-3.22-8.85Z"/>
      <path class="cls-4" d="M376.13,164.74c-1.23-1.18-2.72-2.11-4.25-2.85.61-.77,1.02-1.73,1.11-2.83.14-1.8-.47-3.22-1.5-4.32,1.26-.29,2.52-.62,3.74-1.03,1.27-.43,1.95-2.05,1.15-3.21-4.22-6.05-13.11-8.48-19.43-4.2-1.43.97-.38,3.53,1.34,2.83,3.99-1.62,8.9-1.18,12.31,1.44-2.24.56-4.51.94-6.85,1.09-2.69.17-2.36,4,.24,4.11,1.89.08,4.12.55,4.98,2.44.27.59.59,1.52.09,2.06-.06.07-.19.15-.35.23-.77-.28-1.55-.5-2.31-.59-1.49-.17-2.84,1.73-1.45,2.85.5.4,1.04.67,1.58.85.75.31,1.53.55,2.26.86,1.14.49,2.29,1.03,3.32,1.74,1.78,1.23,3.3,3.02,3.66,5.22.27,1.65-.2,3.4-1.82,4.11-1.6.71-2.73.15-4.03-.78-.97-.69-2.79-.26-2.58,1.23.43,3.1,3.95,4.11,6.67,3.52,2.95-.64,5.15-2.99,5.52-6.01.39-3.26-1.06-6.51-3.39-8.75Z"/>
      <path class="cls-4" d="M370.86,179.27c-.95,3.58-1.54,7.22-2.13,10.89-.28,1.73-.69,3.49-.77,5.24-.09,1.89-.14,3.78-.21,5.67-.14,3.69-.27,7.39-.41,11.08-.08,2.14-.08,5.23-2.06,6.58-.9.61-1.25,2.19-.25,2.93,1.27.94,1.96,1.69,2.43,3.24.42,1.38.54,2.87.46,4.31-.16,2.83-1.54,5.26-2.63,7.8-.6,1.39.86,2.86,2.23,2.01,3.26-2.03,4.25-6.21,4.06-9.85-.09-1.79-.54-3.56-1.27-5.2-.48-1.07-1.03-2.2-1.62-3.27,1.54-1.63,2.19-3.9,2.39-6.16.33-3.77.32-7.59.45-11.37.07-1.98.14-3.95.21-5.93.07-1.97.37-3.86.68-5.81.63-3.98,1.26-7.92,1.5-11.94.11-1.81-2.61-1.81-3.03-.22Z"/>
      <path class="cls-4" d="M343.6,200.03c-.7-.11-1.16.26-1.7.64-.82.59-1.56,1.13-2.51,1.61-.03,0-.57.26-.59.27-.21.09-.42.17-.64.24-.56.19-.81.24-1.25.29-1.09.12-1.73.06-2.83-.27-1.79-.54-3.04,1.74-2.17,3.16.25.41.38.99.3,1.45-.03.19-.08.39-.14.57-.04.05-.19.37-.19.37-.08.16-.23.34-.36.45-.51.41-1.03.58-1.73.57-.46,0-1.24-.13-1.72-.5-.61-.46-1.42-.56-2.03-.03-.54.47-.78,1.38-.31,2,1.84,2.49,5.54,3.28,8.1,1.35,1.58-1.2,2.43-3.03,2.49-4.91,1.3-.02,2.59-.27,3.77-.75,1.12-.45,2.11-1.06,2.95-1.94.78-.81,1.8-2.01,1.72-3.23-.04-.68-.51-1.25-1.18-1.36Z"/>
      <g>
        <path class="cls-4" d="M349.73,194.49s-.01,0-.08.01c.05,0,.07,0,.08-.01Z"/>
        <path class="cls-4" d="M353.52,191.04c-.68-.17-1.54.11-1.99.65-.21.25-.34.48-.44.74-.03.08-.09.26-.19.55-.02.13-.04.27-.04.41-.08.29-.14.4-.2.52-.03.03-.05.06-.08.09-.03.04-.07.07-.1.1-.09.07-.19.13-.28.19-.18.08-.3.13-.39.18.15-.04.04.03-.12.04-.05.01-.1.02-.15.04,0-.03-.21-.04-.26-.03-.09-.01-.19-.03-.28-.05-.17-.03-.34-.08-.51-.13-.04-.01-.08-.03-.11-.05-.37-.15-.72-.34-1.07-.54-.35-.2-.7-.41-1.03-.63-.08-.05-.15-.12-.24-.16-.16-.12-.33-.24-.51-.37-.78-.57-1.92-.71-2.61.12-.68.82-.59,1.85.12,2.61.99,1.05,2,2.02,3.24,2.79,1.26.77,2.9,1.29,4.39,1.06,1.7-.27,3.12-1.13,4.11-2.56.56-.81.83-1.67.83-2.65,0-1.35-.74-2.56-2.09-2.9Z"/>
        <path class="cls-4" d="M346.07,192.97c.2.14.18.09,0,0h0Z"/>
        <path class="cls-4" d="M351.08,192.45c-.04.1-.08.21-.12.33.06-.16.1-.27.12-.33Z"/>
      </g>
      <path class="cls-4" d="M231.88,64.34c-.34-.62-1.37-.71-1.8-.15-.91,1.16-1.75,1.07-3.07.58-1.57-.57-3.04-1.05-4.71-.59-3.04.84-4.78,3.88-5.99,6.56-1.26,2.79-2.42,6.04-5.85,6.6-3.05.5-5.94-1.52-6.46-4.58-.28-1.64-2.84-1.58-2.64.15.41,3.74,3.19,7.07,6.95,7.81,4.06.8,7.97-1.57,9.73-5.19.86-1.78,1.18-3.78,2.08-5.54.77-1.51,2.37-3.15,4.21-2.83,2.03.35,3.52,1.67,5.69.96,1.65-.54,2.8-2.11,1.88-3.77Z"/>
      <path class="cls-4" d="M239.56,56.62c-.34-.12-.63-.18-.99-.22-.66-.06-1.32-.06-1.98-.06-.28,0-.57-.01-.85-.03-.21,0-.46.02-.67-.02-.1,0-.19-.02-.27-.02-.12-.01-.25-.02-.37-.03l-.87-.08c-.39-.03-.73-.02-1.07.2-.3.19-.58.57-.64.93-.13.8.34,1.51,1.13,1.71,1.08.27,2.18.52,3.24.88.51.17,1.02.38,1.54.51.38.09.74.17,1.14.15.93-.04,1.83-.68,2.02-1.62.2-.97-.45-1.97-1.35-2.29Z"/>
      <path class="cls-4" d="M304.89,39.26c-1.29-3.46-4.74-5.91-7.78-7.79-3.02-1.87-6.41-3.2-9.87-3.98-7.03-1.59-14.52-.78-20.98,2.44-1.09.55-3.4,2.44-4.54,1.85-.19-.1-.33-.42-.45-.89-.16-.64-.19-1.32-.24-1.97-.11-1.64-.09-3.31-.59-4.89-.57-1.78-1.79-3.17-3.38-4.13-3.4-2.06-7.96-1.84-11.77-1.82-5.06.02-10.11.38-15.15.67-2.87.17-5.74.31-8.62.39-2.58.08-5.18.23-7.69.92-4.53,1.26-8.06,4.26-10.52,8.21-.83,1.34,1.32,2.84,2.3,1.59,2.33-2.99,5.75-5.16,9.41-6.13,2.1-.56,4.32-.61,6.48-.65,2.36-.05,4.71-.1,7.07-.21,4.88-.22,9.76-.6,14.64-.7,2.33-.05,4.69-.08,7.02.08,1.47.1,3.05.32,4.39.98,2.83,1.4,2.11,4.7,2.32,7.33.12,1.49.48,2.96,1.48,4.11,1.34,1.54,3.4,1.97,5.34,1.52,1.9-.44,3.48-1.7,5.23-2.5,1.49-.69,3.06-1.21,4.65-1.6,3.02-.74,6.24-.91,9.32-.55,3.67.43,7.22,1.47,10.48,3.22,1.53.82,2.96,1.77,4.29,2.89,1.54,1.29,2.84,2.73,4.52,3.86,1.35.91,3.14-.82,2.61-2.23Z"/>
      <path class="cls-4" d="M28.98,113.62c.51,1.56.73,3.21.6,4.84-1.54.63-3.04,1.41-4.43,2.31-.04-.27-.04-.53.03-.76.53-1.61.6-3.31.22-4.89-.37-1.62-1.22-3.12-2.52-4.28-2.65-2.37-6.79-2.66-9.86-.96-1.75.97-3.43-1.58-1.69-2.63,4.23-2.58,9.75-2.34,13.7.68,1.88,1.43,3.22,3.45,3.95,5.69Z"/>
      <path class="cls-4" d="M50.31,119.68c-2.58-1.61-5.52-2.63-8.67-3.01-.3-.03-.59-.06-.89-.07,2.1-.32,4.23-.3,6.27.47,1.31.49,2.45,1.44,3.29,2.61Z"/>
      <path class="cls-4" d="M129.38,169.9c-.29,2.18-3.97,1.91-3.85-.28.27-4.78-3.07-9.64-7.92-10.43-4.14-.67-8.35,2.1-9.9,5.89-.15.65-.34,1.3-.62,1.92-.95,2.1-4.23.86-3.77-1.32.15-.67.35-1.32.59-1.95.36-2.26-.6-4.76-2.59-5.98-2.34-1.44-6.06-.79-7.66,1.52-1.39,2-4.35.59-3.42-1.74,1.03-2.55-.01-5.9-2.35-7.36-2.49-1.53-5.87-.91-7.79,1.2-1.01,1.11-3.38.52-3.28-1.16.25-3.79.18-8.79-2.71-11.7-1.46-1.48-5.3-2.87-6.76-.64-.2.3-.48.55-.8.74-1.14.68-2.82.55-3.16-1.05-.4-1.82-1.5-3.36-2.9-4.6-.91-2.34-2.03-4.59-3.42-6.69.78.29,1.53.65,2.26,1.06,2.08,1.19,3.74,2.73,5.18,4.5.47.57.9,1.17,1.34,1.78,3.05-1.91,7.25-1.39,10.27.86,3.82,2.84,4.33,7.5,4.43,11.96,2.96-1.39,6.59-1.38,9.41.42,2.55,1.65,4.08,4.32,4.43,7.17,2.81-1.25,6.18-1.28,8.85.32,1.8,1.08,3.12,2.7,3.9,4.53,2.9-2.8,7-4.36,11.13-3.83,7.04.92,12.03,7.96,11.1,14.85Z"/>
      <path class="cls-4" d="M146.31,207.16c.22-1.9-.41-3.78-1.97-4.95-.27-.21-.57-.37-.87-.52,1.42-4.03.53-9.07-3.53-11.1-1.08-.54-2.35.75-1.62,1.79,2.04,2.9,3.01,6.96.43,9.88-1.43,1.62.65,4.3,2.51,2.97.21-.15.25-.23.69.08.5.36.53.92.45,1.5-.22,1.55-1.41,2.91-2.25,4.17-.97,1.47-1.72,3.04-1.83,4.83-.11,1.8.43,3.53,1.05,5.2,1.09,2.95,1.75,5.85,1.36,9.02-.18,1.48-.52,2.95-1.07,4.34-.58,1.47-1.64,2.74-2.17,4.2-.45,1.23.71,2.54,1.96,1.78,1.59-.96,2.75-3.11,3.52-4.74.8-1.69,1.36-3.54,1.63-5.4.27-1.88.27-3.77-.05-5.65-.36-2.14-1.21-4.06-1.86-6.12-.72-2.25-.28-3.75.98-5.66,1.15-1.75,2.39-3.47,2.64-5.61Z"/>
      <path class="cls-4" d="M142.72,238.65c.02-1.27-2.06-1.43-2.24-.16-.36,2.63-.82,5.2-1.06,7.85-.21,2.41-.58,4.8-.92,7.2-.25,1.77-.49,3.6-1.22,5.25-.35.8-.81,1.51-1.33,2.21-.53.71-1.42,1.48-1.54,2.37-.07.52.14,1.24.7,1.45,2.18.8,4.24-1.46,5.21-3.18,1.07-1.9,1.58-4.13,1.86-6.27.34-2.53.13-5.07.3-7.6.11-1.52.23-3.05.29-4.57.05-1.51-.08-3.04-.06-4.55Z"/>
      <path class="cls-4" d="M139.25,260.69c-.37-.55-1.09-.77-1.69-.48-.54.26-.99,1-.7,1.61,1.14,2.43,1.04,5.06.3,7.46-.2.66-.25.79-.61,1.53-.16.32-.33.64-.51.95-.08.14-.17.28-.26.41-.51.64-.94,1.11-1.41,1.57-.05.04-.07.07-.09.1-.03.02-.06.04-.11.08-.17.13-.34.26-.51.4-.41.34-.37.35-.71.61-.71.55-1.07,1.44-.65,2.3.38.76,1.34,1.3,2.19.96,3.26-1.32,5.51-4.61,6.37-7.95.84-3.28.27-6.73-1.61-9.56Z"/>
      <g>
        <path class="cls-4" d="M99.91,198.3c-.09-.27-.23-.52-.41-.74-.02-.03-.03-.05-.09-.13-.59-.81-1.79-1.06-2.52-.28-.11.12-.23.27-.31.42-.03.09-.07.19-.1.28-.14.33-.23.62-.27.92-.03.24-.07.47-.11.7-.06.18-.1.28-.15.38-.05.11-.12.21-.17.32-.15.23-.33.38-.42.47-.06.06-.14.11-.11.08-.04.03-.08.06-.12.08-.06.04-.13.08-.2.12-.04.02-.1.05-.19.07-.09.03-.18.05-.28.08.44-.13.05-.02-.08,0-.08,0-.27-.02-.3-.03-.08-.02-.16-.03-.24-.05-.1-.02-.18-.08-.12-.06-.07-.03-.15-.07-.22-.1-.01,0-.12-.08-.19-.12-.07-.06-.16-.14-.21-.18-.1-1.08-.44-2.13-1.01-3.13-.36-.64-1.21-.93-1.89-.8-.76.14-1.26.7-1.47,1.43-.39,1.37-.05,2.8.7,4-.04.17-.08.34-.1.5-.02.04-.03.09-.05.13-.07.17-.15.33-.23.49-.06.11-.12.21-.19.31-.02.02-.19.26-.23.31-.06.07-.12.13-.18.19-.13-.21-.26-.42-.39-.62-.39-.63-1.24-.85-1.89-.53-.61.3-1.09,1.11-.79,1.8.32.74.64,1.48.97,2.22.37.85,1.17,1.34,2.11,1.07,1.74-.49,3.05-1.81,3.85-3.39,2.22.9,4.81.22,6.33-1.66.84-1.04,1.35-2.25,1.39-3.6,0-.33-.02-.65-.12-.97Z"/>
        <path class="cls-4" d="M95.36,200.66c-.06.04-.1.07-.11.08.03-.02.07-.05.1-.07,0,0,0,0,0,0Z"/>
        <path class="cls-4" d="M93.86,201.02c-.06-.03-.1-.05-.12-.06.04.02.08.04.12.06,0,0,0,0,0,0Z"/>
      </g>
      <path class="cls-4" d="M120.73,193.12c-.15-.81-.79-1.51-1.62-1.67-.23-.04-.47-.08-.7-.06-.14.01-1.12.15-.26.04-.15.02-.31.04-.46.06-.31.03-.62.06-.93.05-.23-.02-.39-.05-.54-.08-.15-.03-.31-.06-.46-.11-.06-.02-.11-.03-.17-.05-.26-.1-.52-.21-.77-.35-.13-.07-.25-.14-.37-.22-.03-.03-.07-.05-.1-.08-.24-.19-.47-.4-.68-.63-.03-.04-.07-.08-.08-.1-.1-.14-.2-.29-.29-.43-.53-.85-1.8-1.16-2.64-.58-.91.64-1.07,1.69-.58,2.64.8,1.52,2.22,2.77,3.78,3.46.78.35,1.63.62,2.48.71.51.06,1.03.1,1.54.07.65-.04,1.41-.14,1.93-.54.69-.53,1.08-1.27.91-2.15Z"/>
      <path class="cls-4" d="M138.48,282.38c-.59-3.33-2.25-6.41-5.25-8.14-.72-.42-1.7-.11-2.14.55-.5.75-.32,1.54.24,2.2.2.24.63.9.91,1.31.17.24.32.49.47.75.08.14.16.29.23.43.3.71.52,1.29.69,1.89.07.26.13.52.19.78,0,.05.02.13.03.2.02.16.04.33.06.49.06.59.11,1.18.09,1.78,0,0,0,.18-.01.29-.01.1-.02.26-.03.29-.04.29-.08.59-.14.88-.11.56-.27,1.11-.45,1.66-.03.09-.12.32-.15.4-.08.24-.12.42-.16.67.03-.2.07-.18,0,.02-.11.29-.24.57-.29.88-.08.53.02,1.15.37,1.59.22.36.56.59.98.67.53.17,1.18.08,1.63-.22,1.49-1.02,2.27-2.92,2.62-4.63.31-1.53.39-3.19.12-4.73Z"/>
      <path class="cls-4" d="M26.38,95.16c.05-1-.2-2.06-.5-3-.3-.93-.73-1.88-1.3-2.68-.33-.46-.7-.9-1.09-1.3-.48-.5-.97-.85-1.6-.97-.04-.02-.07-.04-.11-.05-.69-.33-1.51-.13-1.94.5-.42.6-.32,1.26.08,1.81.08.27.2.52.39.75.1.12.34.31.46.47-.05-.06-.09-.09.01.04.05.07.11.14.16.21.12.16.23.33.34.5.21.33.4.67.58,1.01.04.09.08.18.11.27.07.19.14.38.2.57.06.17.1.34.15.52.03.11.05.22.08.33.04.16.04.11.02.03.1.31.07.8.09,1.08.04.38.06.76.07,1.14,0,.2,0,.4.03.59.03.14.05.29.08.43.02.11.03.21.03.21.1.59.38,1.07.98,1.28.51.18,1.19.07,1.55-.38.12-.15.24-.31.34-.48.28-.41.43-.74.55-1.19.15-.55.2-1.11.22-1.68Z"/>
      <path class="cls-4" d="M51.01,76.27c-.12-1.23-.49-2.35-1.11-3.42-1.11-1.92-3-3.33-5.18-3.8-1.15-.25-1.84,1.52-.7,2,.23.1.45.2.66.32.11.06.21.13.32.19.32.25.5.41.67.58.07.07.13.14.2.21.01.02.1.12.13.16.28.37.55.76.78,1.17.06.11.11.22.17.33.12.32.21.54.29.78.07.22.12.44.17.66.03.12.06.24.09.36.09.58.13,1.04.12,1.52,0,.24-.01.48,0,.73-.03.35-.08.64.01.92-.02.1-.03.2-.04.3-.01.32.06.64.15.94.16.48.7.76,1.18.6.3-.1.58-.25.81-.45.26-.24.42-.55.6-.84.66-.89.78-2.18.68-3.25Z"/>
      <path class="cls-4" d="M76.79,55.85c-.35-1.44-1.47-2.57-2.91-2.95-1.51-.39-3.16.53-3.15,2.18,0,.52.45,1,.95,1.1.37.08,1.21.08,1.47.36.37.39-.04,1.33-.22,1.7-.7,1.47-1.96,2.67-3.44,3.34-1.91.86-4.02.75-5.81-.1-.86-1.56-2.29-2.82-4.08-3.32-1.53-.42-2.71,1.51-1.89,2.76.85,1.28,1.94,2.33,3.18,3.13.2.8.14,1.64-.3,2.3-1.1,1.61-4.05,1.65-5.21.12-1.15-1.51-3.61,0-2.52,1.61,2.39,3.53,8.09,3.83,10.6.25.61-.87.94-1.83,1.05-2.8,2.88.62,6,.09,8.52-1.85,2.28-1.76,4.49-4.79,3.76-7.84Z"/>
      <path class="cls-4" d="M107.61,41.13c-.38-.22-.78-.36-1.19-.45.24-1.14.19-2.31-.35-3.45-1.19-2.54-4.82-3.96-7.02-1.84-1.01.97.5,2.8,1.6,1.9.09-.07.17-.14.27-.2.11-.07-.09.01.1-.06.02,0,.14-.04.2-.05.06,0,.21-.01.21-.01-.22,0,.27.09.24.05.18.08.34.17.5.27.12.1.21.17.3.25.07.07.14.14.21.21.03.03.07.08.09.12.07.1.13.19.19.29.01.02.07.12.1.19.03.07.09.2.08.2.04.11.07.22.11.33.02.17.03.28.03.39,0,.35,0,.33-.06.66-.12.63-.23.84-.52,1.47-.02.05-.05.1-.07.14-1.12.81-1.75,2.03-1.98,3.41-.23,1.39,1.42,2.2,2.41,1.23.83-.82,1.67-1.82,2.32-2.91.05,0,.1-.01.14-.01.12,0-.07-.03.14,0,.02,0,.17.04.23.06.05.03.19.09.21.1.2.15.28.22.35.3.1.15.16.25.22.33.12.3.19.52.24.75.02.18.03.29.03.4,0,.07,0,.14,0,.21,0,.04-.03.22-.04.24-.02.1-.05.21-.08.31-.26.58-.41,1.11-.42,1.69-.01.6.57.94,1.09.97.88.06,1.65-.65,2-1.39.33-.7.46-1.5.42-2.27-.07-1.55-.94-3.05-2.29-3.83Z"/>
      <path class="cls-4" d="M119.7,26.19c-.68-.15-1.38.33-1.52,1-.15.75.34,1.3,1,1.52,1.26.42,2.15,1.3,2.87,2.38.74,1.11,1.08,2.32,1.07,3.62,0,.25,0,.09-.01.24-.02.17-.05.34-.08.51-.07.37-.16.74-.27,1.1-.05.16.03-.04-.08.21-.08.19-.16.38-.26.56-.16.31-.33.6-.52.89-.28.43-.83,1.09-1.26,1.54-.23.24-.4.52-.63.76-.27.28-.59.48-.77.84-.17.36-.05.83.33,1.01.74.35,2.1.07,2.8-.27.93-.45,1.77-1.06,2.44-1.87,1.33-1.61,2.06-3.64,2.03-5.73-.07-4.05-3.28-7.43-7.13-8.31Z"/>
      <g>
        <path class="cls-4" d="M155.69,24.63s-.04.13-.11.33c.06-.17.1-.28.11-.32,0,0,0,0,0,0Z"/>
        <path class="cls-4" d="M159.95,23.47c-.23-1.22-.88-2.32-1.82-3.15-.92-.81-2.11-1.39-3.34-1.47-1.34-.1-2.59.22-3.79.75-.17-.98-.54-1.93-1.16-2.75-.5-.67-1.47-1.01-2.22-.48-.73.52-.94,1.44-.48,2.22.04.07.07.13.11.2-.01-.01.08.18.1.23.04.12.08.24.12.36.01.04.03.13.05.19.03.19.05.38.06.58,0,.12,0,.24,0,.36-.04.31-.08.54-.14.76,0,.04-.03.07-.04.11-.01.01-.05.16-.1.26-.11.23-.24.45-.35.68-.08.11-.16.21-.24.3-.63.72-.66,1.79-.04,2.52.55.65,1.76,1,2.49.39,1.03-.87,2.08-1.67,3.25-2.32.09-.04.15-.07.21-.09.13-.05.27-.1.4-.15.16-.05.32-.1.48-.14.27-.04.41-.06.55-.07.09,0,.17,0,.26,0,.11.03.39.1.49.11.19.1.24.18.16.12.1.09.21.18.31.27.07.09.13.19.2.28.05.07.09.13.11.19.07.19.12.34.17.49-.01.33-.03.37-.04.42-.04.13-.08.24-.11.31-.02.06-.04.1-.06.18-.06.21-.06.41-.03.61.22,1.39,1.28,2.09,2.64,1.81.98-.2,1.63-1.34,1.83-2.23.13-.62.1-1.23-.01-1.84Z"/>
        <path class="cls-4" d="M155.75,24.27s-.01.06,0,.15c0-.08,0-.11,0-.15Z"/>
        <path class="cls-4" d="M147.4,21.37c-.09.16-.05.11,0,0h0Z"/>
        <path class="cls-4" d="M155.47,23.56c-.07-.09-.09-.08.11.2-.04-.08-.08-.14-.11-.2Z"/>
        <path class="cls-4" d="M154.84,22.87s.09.08.11.1c-.04-.03-.07-.07-.11-.1,0,0,0,0,0,0Z"/>
      </g>
      <g>
        <path class="cls-4" d="M191.72,11.14s.11.02.15,0c-.07,0-.1,0-.15,0Z"/>
        <path class="cls-4" d="M192.48,11.34s.07.08.11.1c-.04-.04-.08-.07-.11-.1Z"/>
        <path class="cls-4" d="M197.24,11.16c-.89-3.59-5.06-5.04-8.26-3.64-.1.04-.19.1-.29.14-1.29-2.37-3.87-4.09-6.64-3.85-.76.07-1.38.72-1.34,1.5.05.85.73,1.28,1.5,1.34-.13,0,.34.07.4.08.03,0,.23.07.27.08.28.11.55.25.8.42.03.03.3.25.33.28.12.1.22.22.34.33.11.13.16.19.2.25.11.15.21.3.3.46.09.16.18.32.27.48-.21-.37.05.12.08.21.06.17.12.34.17.52.02.06.03.13.05.2-.01.31.03.71.07,1.03-.11.37-.2.66-.24.97-.16,1.04.46,2.21,1.58,2.39,1.19.19,2.03-.5,2.39-1.58.01-.06.09-.3.12-.43.03-.06.05-.11.08-.16.18-.31.13-.17.06-.07.1-.11.24-.28.26-.31.2-.16.32-.23.43-.3.06-.03.09-.06.12-.07.17-.06.33-.13.51-.18.01,0,.1-.03.19-.06.17-.02.26-.03.35-.04.04,0,.22,0,.36,0-.07-.01-.08-.03.11,0,.15.02.37.12.5.13.04.02.09.04.13.06.2.11.19.14.13.11.08.06.16.13.22.17.02.03.05.07.1.14.02.08.07.32.12.43,0,.06.01.11.01.17,0,.13,0,.26,0,.4-.05.28-.09.44-.13.61-.11.22-.44.67-.47.9-.11.13-.23.25-.35.38-.07.06-.09.09-.09.09-.08.07-.17.14-.25.22-.18.12-.44.32-.65.54-.07.03-.14.06-.2.1-1.34.7-.82,2.88.58,3.12.2.03.51.12.72.07.15.04.38.05.52.04.58,0,1.25-.27,1.75-.55.76-.43,1.35-1.1,1.84-1.81,1.06-1.54,1.41-3.48.96-5.29Z"/>
      </g>
      <g>
        <path class="cls-4" d="M207.71.01c-.94-.11-1.99.39-2.15,1.42-.17,1.04.43,1.83,1.39,2.14.16.08.28.13.39.19.07.04.14.09.21.13.03.03.06.05.1.08.18.15.36.31.52.48.08.09.13.17.18.24.07.11.14.22.2.33.06.12.08.18.08.21.06.16.12.32.17.48.02.07.03.23.06.32-.05-.13-.04-.39,0-.05.02.18.03.28.03.39,0,.02,0,.2-.02.27-.02.13-.05.25-.08.37-.04.11-.07.18-.09.21-.09.19-.15.3-.21.4-.15.13-.3.38-.41.52-.07.08-.13.17-.21.25-.2.1-.46.34-.59.43-.58.36-1.02.92-1.4,1.48-.32.47-.15,1.4.32,1.74.42.3.77.52,1.29.59.55.07,1.09.11,1.61-.11.83-.36,1.61-.83,2.27-1.45,1.2-1.14,1.82-2.85,1.91-4.48.17-3.15-2.44-6.19-5.57-6.56Z"/>
        <path class="cls-4" d="M208.79,7.02c-.12.23-.12.27-.08.2.02-.05.05-.11.07-.16,0-.01,0-.03.01-.04Z"/>
        <path class="cls-4" d="M208.57,5.07c.06.2.08.22.06.17-.02-.05-.03-.1-.05-.14,0,0,0-.02-.01-.03Z"/>
      </g>
      <path class="cls-4" d="M182.94,162.88c-.47-.52-1.18-.69-1.84-.87-.17-.15-.32-.21-.47-.27-.11-.05-.22-.1-.33-.16-.1-.05-.25-.19-.37-.23-.12-.1-.23-.19-.33-.29-.06-.06-.16-.21-.25-.27-.11-.16-.19-.3-.28-.44-.05-.13-.1-.25-.14-.38-.03-.18-.06-.36-.07-.41,0-.06,0-.13,0-.19.05-.21.08-.44.13-.66.08-.18.13-.29.19-.4.07-.15.16-.29.23-.43.18-.23.37-.43.57-.63.09-.08.15-.12.2-.16.08-.07.14-.11.21-.16.1-.07.2-.14.31-.2.05-.03.11-.06.17-.09.11-.04.23-.09.34-.12.08-.02.15-.04.23-.06.72-.11,1.3-.59,1.35-1.36.05-.67-.43-1.46-1.16-1.55-1.36-.15-2.8.09-3.93.9-1.23.88-2.08,2.05-2.51,3.51-.81,2.77.77,5.72,3.22,7.05.36.2.83.41,1.22.47.15.02.3.03.45.03.28.02.17.02.07.01.16.03.35.03.49.04.97.07,2.1-.25,2.54-1.21.24-.53.11-1.04-.27-1.46Z"/>
      <path class="cls-4" d="M229.58,274.81c-.57-.8-1.49-1.16-2.37-1.5-.68-.26-1.37-.53-2.05-.79-.8-.31-1.6-.57-2.41-.82-.74-.23-1.67-.51-2.42-.24-.56-.03-1.02.42-1.17.84-.15.43-.06.95.27,1.28.08.21.2.4.39.58.18.16.42.29.63.41.31.19.62.39.94.56.68.34,1.36.66,2.05.95.67.28,1.35.56,2.02.84.46.19.91.38,1.38.52.17.05.35.1.52.14.45.1.8.04,1.24-.05,1.14-.22,1.59-1.84.97-2.72Z"/>
      <path class="cls-4" d="M222.31,273.44c-.19-1.16-1.85-1.42-2.14-.16-.87,3.79-.88,7.83-1.04,11.71-.16,4.06-.29,8.11-.43,12.17-.14,3.97-.28,7.94-.4,11.91-.06,1.99-.12,3.97-.18,5.96-.06,2.05-.31,4.04.33,6.02.34,1.05,2.08,1.35,2.53.2.75-1.94.68-3.85.75-5.91l.18-5.7c.13-4.06.25-8.11.36-12.17.11-3.97.22-7.94.32-11.91.11-4.01.36-8.17-.28-12.13Z"/>
      <path class="cls-4" d="M262.46,345.17c-1.68-1.3-3.62-2.33-5.42-3.45-1.75-1.09-3.5-2.17-5.26-3.24-3.59-2.19-7.18-4.38-10.77-6.57-3.51-2.15-7.04-4.27-10.57-6.38-1.76-1.06-3.53-2.12-5.29-3.18-1.57-.94-3.88-2.95-5.81-2.22-.58.22-1.11.83-1.02,1.49.26,2.07,2.67,3.04,4.28,4.02,1.76,1.07,3.52,2.14,5.28,3.21,3.59,2.18,7.18,4.37,10.79,6.52,3.53,2.11,7.07,4.22,10.6,6.33,1.77,1.06,3.53,2.11,5.31,3.15,1.9,1.11,3.79,2.44,5.79,3.34,1.81.82,3.83-1.68,2.1-3.03Z"/>
      <path class="cls-4" d="M278.07,298.76c-.32,17.58-.64,35.16-.88,52.74-1.8-.71-3.64-1.39-5.51-1.65-1.81-.26-2.54,2-1.03,2.96,2.26,1.43,5.03,2.17,7.53,3.1,1.38.52,2.7-.26,2.74-1.79.41-18.53.72-37.05,1.04-55.58.04-2.5-3.84-2.27-3.88.22Z"/>
      <path class="cls-4" d="M278.69,297.74c-.83-1.55-3.36-1.95-4.92-2.54-1.76-.67-3.5-1.35-5.25-2.05-3.48-1.4-6.94-2.86-10.37-4.39-3.43-1.53-6.83-3.11-10.21-4.76-3.35-1.63-6.64-3.42-10.17-4.64-1.4-.48-2.42,1.69-1.31,2.57,2.95,2.31,6.32,3.98,9.65,5.67,3.42,1.73,6.88,3.4,10.37,4.98,3.42,1.54,6.87,3.02,10.35,4.43,1.74.71,3.48,1.39,5.24,2.07,1.62.62,3.95,2.05,5.66,1.36,1.14-.46,1.54-1.63.96-2.7Z"/>
      <path class="cls-4" d="M238.27,282.65c-.03-.47-.14-.92-.15-1.39-.04-1.65-2.65-1.87-2.91-.21-.06.42-.23.82-.31,1.25-.08.42-.14.85-.21,1.27-.13.89-.17,1.79-.24,2.68-.15,1.84-.41,3.71-.42,5.56,0,.97.9,1.74,1.8,1.81.9.06,1.92-.57,2.04-1.53.23-1.83.22-3.72.32-5.57.05-.86.13-1.73.12-2.59,0-.43,0-.86-.03-1.29Z"/>
      <path class="cls-4" d="M268.08,303.05c-2.5-1.28-5.28-2.15-7.89-3.19-2.64-1.05-5.28-2.09-7.93-3.13-2.56-1.01-5.13-2.01-7.69-3.02-1.34-.53-2.67-1.07-4.03-1.53-1.39-.47-2.8-.61-4.21-.97-1.08-.28-1.55,1.28-.63,1.8,1.21.67,2.27,1.52,3.54,2.11,1.32.62,2.69,1.14,4.04,1.69,2.63,1.06,5.26,2.13,7.89,3.2,2.55,1.03,5.11,2.06,7.66,3.08,2.68,1.07,5.36,2.36,8.12,3.18,1.88.55,2.8-2.34,1.12-3.2Z"/>
      <path class="cls-4" d="M229.97,276.54c-.04-1.47-2.29-1.63-2.57-.19-1.18,6.17-1.41,12.53-1.94,18.78-.08.91.35,1.81,1.32,2.01.81.17,1.94-.4,2.01-1.32.5-6.4,1.34-12.86,1.18-19.28Z"/>
      <path class="cls-4" d="M251.35,305.5c-4.04-1.4-8.02-2.83-11.89-4.64-1.94-.91-3.84-1.88-5.71-2.9-1.87-1.02-3.71-2.13-5.71-2.87-1.25-.46-2.39.95-1.37,1.98,3.08,3.1,7.53,5.09,11.43,6.94,4.04,1.92,8.25,3.68,12.55,4.93.91.26,1.88-.49,2.07-1.36.22-1.02-.47-1.76-1.36-2.07Z"/>
      <path class="cls-4" d="M259.78,312.19c-.05-.85-.11-1.69-.2-2.54-.1-.93-.3-1.8-.47-2.71-.09-.48-.68-.8-1.13-.77-.49.03-.94.41-1.03.89-.17.86-.34,1.69-.43,2.57-.1.92-.16,1.84-.21,2.76-.09,1.73-.06,3.48-.07,5.21,0,.95.98,1.8,1.91,1.7,1.02-.1,1.71-.9,1.7-1.91,0-1.73.02-3.47-.07-5.2Z"/>
      <path class="cls-4" d="M258.62,316.55c-8.67-3.38-17.48-6.58-26.46-9.06-1.14-.31-1.74,1.45-.68,1.95,8.27,3.95,16.87,7.25,25.5,10.33.93.33,1.94.16,2.43-.79.42-.8.12-2.08-.79-2.43Z"/>
      <path class="cls-4" d="M269.59,304.42c-.52-1.76-2.78-1.3-3.26.18-.71,2.2-.42,4.87-.48,7.16-.06,2.32-.08,4.64-.1,6.96l-.16,14.43c-.02,1.71-.74,5.26,1.29,6.07.9.36,1.92-.08,2.37-.93.53-.99.32-2.49.33-3.57.08-4.73.15-9.45.23-14.18.04-2.66.11-5.33.12-7.99,0-2.62.4-5.6-.34-8.14Z"/>
      <path class="cls-4" d="M272.64,339.72c-.21-.31-.48-.55-.82-.71l-.31-.15c-.2-.09-.4-.19-.6-.28-.31-.14-.64-.23-.96-.33l-.32-.1c-.2-.06-.41-.07-.61-.04-.21-.02-.4-.03-.62.05-.16.06-.3.15-.43.25-.19.08-.35.22-.44.42-.09.19-.11.39-.08.58-.01.17,0,.34.05.5.08.23.21.39.36.57.09.15.19.3.33.4.09.07.18.13.27.19.28.2.56.43.86.59.19.1.37.19.56.29.1.05.2.11.31.16.34.18.69.27,1.09.26,1.26-.05,2.09-1.58,1.35-2.64Z"/>
      <path class="cls-4" d="M261.88,333.11c-.06-1.2-.12-2.4-.17-3.61-.03-.6-.06-1.2-.09-1.8-.04-.75,0-1.52-.5-2.14-.78-.98-2.06-.93-2.74.14-.65,1.02-.24,2.71-.17,3.87l.22,3.74.21,3.6c.04.61.1,1.2.2,1.8.05.31.09.63.17.94.09.35.25.67.34,1.02.33,1.18,2.19,1.08,2.39-.13.05-.32.17-.6.22-.91.06-.36.06-.73.08-1.09.03-.56.04-1.11.01-1.67-.06-1.25-.12-2.5-.18-3.75Z"/>
      <path class="cls-4" d="M258.5,328.05c-.35-1.24-1.48-1.52-2.57-1.93-1.21-.45-2.4-.92-3.59-1.42-2.3-.96-4.58-1.99-6.81-3.11-2.16-1.09-4.29-2.25-6.36-3.49-2.19-1.31-4.3-2.84-6.69-3.76-.9-.34-2.24.65-1.45,1.6,1.62,1.95,3.71,3.34,5.84,4.68,2.24,1.41,4.55,2.72,6.9,3.94,2.28,1.19,4.61,2.29,6.98,3.28,1.19.49,2.39.96,3.59,1.41,1.18.43,2.48,1.11,3.63.29.48-.35.69-.91.53-1.48Z"/>
      <path class="cls-4" d="M233.85,308.02c-.07-.42-.31-.78-.76-.87-.39-.08-.87.12-1.03.5-.14.32-.23.65-.33.98-.23.45-.36.97-.47,1.45-.13.52-.21,1.05-.31,1.57-.1.5-.2,1-.27,1.51-.1.78-.39,1.78.16,2.43.27.32.56.62,1.01.69.39.06.84.03,1.16-.22.56-.42.79-.87.85-1.54.03-.28.05-.56.08-.83.06-.69.07-1.39.09-2.09.03-1.24.02-2.42-.18-3.57Z"/>
      <path class="cls-4" d="M240.48,378.98v-4.13c0-2.92-.01-5.84-.02-8.77,0-2.84,0-5.67-.05-8.51-.05-2.92,0-5.85-.44-8.74-.25-1.63-2.81-2.11-3.1-.22-.44,2.79-.42,5.6-.46,8.42-.04,2.92-.06,5.85-.06,8.77v8.51s-.02,4.13-.02,4.13c0,1.6-.01,2.86.97,4.2.45.61,1.54.91,2.07.18.34-.47.65-.95.88-1.49.32-.74.22-1.56.22-2.35Z"/>
      <path class="cls-4" d="M250.04,354.82c-.35-.99-1.96-1.29-2.42-.19-1.03,2.52-.71,5.69-.8,8.37-.09,2.9-.19,5.8-.27,8.7-.07,2.81-.18,5.63-.16,8.43.01,1.45.04,2.89.05,4.34,0,1.39-.21,2.66.91,3.68.28.26.85.37,1.17.1,1.07-.9,1.1-1.87,1.16-3.2.06-1.45.16-2.9.25-4.35.17-2.89.21-5.8.28-8.7.08-2.81.11-5.62.16-8.43.03-1.45.05-2.9.08-4.35.03-1.46.09-3-.41-4.39Z"/>
      <path class="cls-4" d="M256.45,382.16c-.06-1.19-.11-2.37-.17-3.56-.11-2.37-.23-4.75-.34-7.12-.11-2.37-.22-4.75-.38-7.12-.14-2.11-.13-4.63-1.25-6.49-.35-.58-1.26-.53-1.56.08-.95,1.97-.71,4.49-.65,6.61.06,2.38.17,4.75.27,7.13.1,2.37.2,4.75.3,7.12.08,1.95-.4,5.02,1.19,6.44.52.47,1.34.43,1.82-.08.83-.89.83-1.87.77-3.01Z"/>
      <path class="cls-4" d="M250.51,360.15c-.27-1.22-1.49-2.06-2.37-2.85-.77-.69-1.54-1.37-2.31-2.06-.75-.67-1.49-1.34-2.24-2-.36-.33-.72-.65-1.11-.95-.31-.23-.62-.48-.96-.69-.33-.2-.68-.29-1.04-.29-1.39-.5-2.78,1.03-2.14,2.37.04.33.15.65.35.94.21.32.5.59.76.87.33.36.69.69,1.05,1.02.76.7,1.52,1.39,2.28,2.09.74.68,1.48,1.36,2.21,2.03.9.83,1.89,2,3.18,2.15.72.09,1.41-.06,1.92-.62.53-.58.6-1.28.43-2.01Z"/>
      <path class="cls-4" d="M249.33,356.24c-.33-.19-.67-.37-1.01-.56-.22-.57-.69-1.06-1.06-1.52-.4-.5-.81-1-1.21-1.5-.46-.56-.96-1.08-1.46-1.61-.51-.54-1.04-.95-1.52-1.36-.42-.35-1.02-.39-1.44-.02-.44.39-.46.91-.22,1.42.1.2.2.41.3.62-.59.56-.71,1.41-.29,2.14.7,1.22,1.59,2.39,2.64,3.34.57.51,1.18.96,1.81,1.39.56.38,1.14.74,1.77.97.48.18.91.28,1.42.11.43-.14.89-.5,1.08-.92.44-.96.09-1.98-.81-2.5Z"/>
      <path class="cls-4" d="M253.49,356.15c-.19-.5-.53-.97-1.03-1.2-.26-.12-.54-.19-.83-.22-.34-.41-.83-.7-1.34-.8-.3-.07-.6-.07-.89.01-.3.03-.58.13-.83.31-.06.03-.12.06-.19.1-.26.14-.52.27-.78.41-.53.3-1.06.61-1.58.93-.49.3-.93.93-1.02,1.49-.08.51-.03.99.19,1.46.21.45.57.87,1.03,1.09.2.07.39.14.59.21.4.08.8.06,1.19-.07.7-.16,1.4-.31,2.1-.49.69-.18,1.41-.32,2.06-.62.26-.07.49-.21.68-.4.23-.16.4-.37.52-.63.23-.45.3-1.09.12-1.58Z"/>
      <path class="cls-2" d="M32.85,184.4l18.07,13.36s-2.55-17.48.2-17.68c2.75-.2,10.21,3.34,13.55-4.91,3.34-8.25,4.52-30.64-2.16-43.61-6.68-12.96-21.41-21.22-34.38-15.72-12.96,5.5-22.98,23.97-18.07,46.16,4.91,22.2,6.09,26.13,11.79,25.14,5.7-.98,11-2.75,11-2.75Z"/>
      <path class="cls-4" d="M67.96,146.15c-.35-2.52-.81-5.05-1.41-7.55-.54-2.3-1.21-4.57-2.04-6.78-.89-2.36-1.98-4.67-3.3-6.84-3.78-6.22-9.52-11.01-16.74-12.51-5.13-1.08-10.53-.58-15.49,1.16-1.22.41-2.42.92-3.58,1.5-.6.3-1.19.61-1.77.95-13.52,7.89-18.71,24.66-17.93,39.49.48,8.77,2.66,17.56,5.68,25.78,1.37,3.74,3.62,6.8,7.56,7.98,3.29,1,6.94.33,10.13-.68,1.63-.52,3.2-1.17,4.76-1.89.28-.13.54-.3.77-.49,5.23,4.47,10.44,8.95,15.66,13.43,1.11.95,2.92.45,3.22-1.05.87-4.3-1.5-7.72-2.34-11.77-.5-2.36-.24-5.74,2.83-5.74,1.89,0,3.71.63,5.61.36,1.6-.23,3.02-.88,4.24-1.94,2.32-2.01,3.51-5.08,4.16-8.01.85-3.88.9-8.02.91-11.97.02-4.49-.3-8.99-.93-13.44ZM64.35,169.08c-.35,2.5-1.04,5.3-2.83,7.17-2.3,2.41-5.55.64-8.39.92-3.22.31-5.45,2.71-6.01,5.83-.6,3.34.54,6.3,1.67,9.38.18.47.34.94.49,1.42-4.28-3.59-8.56-7.17-12.85-10.75-.57-.48-1.2-.53-1.75-.33-.63-.58-1.56-.9-2.34-.53-4.47,2.06-12.26,5.34-15.49-.29-.9-1.59-1.39-3.44-1.95-5.16-.64-1.95-1.23-3.91-1.76-5.89-1.08-3.99-1.92-8.03-2.36-12.15-1.43-13.29,1.69-28.79,13.16-37.1.39-.29.81-.57,1.22-.83,1.39-.9,2.88-1.68,4.43-2.31,3.54-1.45,7.39-2.16,11.18-1.87.3.01.59.04.89.07,3.15.37,6.09,1.4,8.67,3.01,2.66,1.64,4.96,3.88,6.75,6.58,1.39,2.09,2.51,4.34,3.42,6.69,1.51,3.84,2.47,7.92,3.13,11.95,1.3,7.86,1.87,16.27.74,24.18Z"/>
      <g>
        <path class="cls-4" d="M43.16,159.27c.71-.57,1.1-1.39.82-2.3-.41-1.3-.43-2.75-.57-4.09-.16-1.37-.3-2.74-.46-4.11-.29-2.64-.57-5.29-.86-7.94-.59-5.37-1.18-10.75-1.77-16.13-.17-1.5-1.71-2.3-3.03-1.54-2.07,1.2-4.18,2.36-6.27,3.55-1.97,1.11-4.54,2.14-5.73,4.12-.36.59-.25,1.24.09,1.73-.05.14-.09.26-.11.43-.16,1.88.4,3.63.89,5.43.45,1.64.87,3.29,1.35,4.91,1.03,3.5,2.02,7.03,3.17,10.49.87,2.63,1.81,5.81,4.25,7.43,2.62,1.74,6.15-.29,8.23-1.97Z"/>
        <path class="cls-4" d="M45.72,167.37c-1.27-2.19-4.17-3.18-6.54-2.39-1.35.46-2.51,1.49-3.12,2.78-.35.75-.52,1.48-.54,2.3,0,.1,0,.22.02.32-.1.4-.15.82-.11,1.23.11,1.52,1.12,2.71,2.33,3.52.98.66,2.28.94,3.45.84,1.35-.11,2.54-.66,3.56-1.54,1.97-1.74,2.23-4.85.95-7.06Z"/>
      </g>
      <path class="cls-4" d="M146.35,188.88c-.11.66-.32,1.31-.63,1.94-1.44,2.9-5.05,4.9-8.28,4.1-4.59-1.16-.71-7.98,2.18-4.99.41.43.49.97.31,1.44,1.6-.33,2.7-1.73,2.92-3.4.11-.77.03-1.59-.26-2.38-1.45-3.91-5.9-5.07-9.66-4.97-.55.02-1-.18-1.32-.49-.92-.87-.87-2.65.63-3.12,2.32-.72,7.24-2.52,4.73-5.74-2.71-3.48-7.81-1.17-11.04.12-1.73.69-3.08-2.14-1.41-2.97,2.94-1.45,5.97-2.8,9.34-2.54,2.57.2,5.11,1.61,6.47,3.84,1.41,2.3,1.24,5.11-.47,7.21-.26.33-.56.61-.87.89,1.79.6,3.45,1.54,4.76,2.98.39.44.76.9,1.08,1.4,1.3,1.97,1.96,4.4,1.52,6.69Z"/>
    </g>
  </g>
</svg>