<?xml version="1.0" encoding="UTF-8"?>
<svg id="Layer_2" xmlns="http://www.w3.org/2000/svg" viewBox="0 0 101.21 246.6">
  <defs>
    <style>
      .cls-1 {
        fill: #520815;
      }
    </style>
  </defs>
  <g id="Layer_1-2" data-name="Layer_1">
    <path class="cls-1" d="M58.14,240.84c-1.08-.68-2.37-.37-3.56-.24-1.2.13-2.39.27-3.59.39-2.39.25-4.79.46-7.19.65-4.72.36-9.45.61-14.19.74-4.73.13-9.47.16-14.2.08-2.4-.04-4.81-.14-7.21-.21-2.34-.06-4.82-.41-7.13.05-1.28.26-1.49,2.47-.23,2.92,1.76.63,3.65.68,5.51.82,1.89.14,3.79.26,5.69.34,3.76.15,7.52.23,11.28.23,7.59,0,15.19-.37,22.75-1.02,2.1-.18,4.19-.38,6.29-.61,1.05-.11,2.09-.23,3.14-.37,1.2-.16,2.26-.24,3.12-1.16.8-.85.41-2.04-.47-2.6Z"/>
    <g>
      <path class="cls-1" d="M96.53,19.1c-.76-.51-1.57-.37-2.45-.33-.91.04-1.82.12-2.73.18-1.82.13-3.64.26-5.46.39-3.57.25-7.13.51-10.7.76-3.57.25-7.13.53-10.69.81-3.55.28-7.23.4-10.7,1.24-.53.13-.74.68-.66,1.16-.03.03-.07.06-.1.09-1.64,1.46-3.3,2.9-4.92,4.38-.58.53-1.15,1.06-1.72,1.6-.6-.47-1.35-.8-2.09-.91-1.12-.16-2.18.02-3.19.51-.43.21-.81.49-1.15.83-.41.41-.65,1.04-.8,1.59-.06.2-.03.41.03.61-.06.08-.12.17-.16.25-.09.17-.15.38-.2.57-.35,1.26.31,2.45,1.11,3.37,1.42,1.64,3.94,2.08,5.78.93,1.55-.97,2.5-2.96,2.29-4.78-.03-.27-.09-.53-.16-.79,2.19-1.77,4.3-3.64,6.41-5.49.58-.5,1.45-1.1,1.77-1.84,2.88.07,5.78-.21,8.64-.39,3.64-.23,7.29-.46,10.93-.72,3.64-.26,7.28-.51,10.93-.77,1.74-.12,3.49-.25,5.24-.37,1.65-.12,3.83.12,5.12-1.04.64-.57.24-1.49-.34-1.87ZM42.29,33.79c-.08-.11-.16-.21-.23-.33-.05-.08-.09-.17-.14-.26-.03-.05-.12-.23-.13-.24-.06-.13-.1-.21-.15-.3-.03-.04-.05-.09-.07-.13.04-.05.07-.1.12-.15.03-.03.14-.12.18-.17.07-.06.14-.12.21-.18.02,0,.13-.1.18-.13.08-.05.16-.1.24-.15.07-.03.14-.06.21-.08.08-.03.16-.05.24-.07.18-.02.34-.04.51-.04.1,0,.14,0,.18.02.11.02.21.05.32.08-.34.47-.75.92-1.15,1.37-.32.36-.27.81-.06,1.15-.19-.14-.32-.26-.45-.39Z"/>
      <path class="cls-1" d="M97.93,11.5c-.65.6-1.6.69-2.45.47,1.53-.74,2.99-1.65,4.07-2.91,1.49-1.73,2.19-4.24,1.21-6.4-1.12-2.49-4.14-3.28-6.54-2.19-2.5,1.13-3.95,3.91-4.21,6.55-.13,1.31.02,2.67.49,3.89-1.28.46-2.58.86-3.9,1.18-1.86.45-3.89.9-5.81.7-1.01-.11-2.09-.46-2.89-1.11,1.18-.87,2.31-1.76,3.41-2.58,1.88-1.4,3.97-3.34,3.05-5.95-.89-2.53-3.76-2.4-5.64-1.13-1.93,1.31-3.86,3.53-4.55,5.78-.3.99-.29,1.99-.06,2.93-1.54,1-3.14,1.87-4.89,2.35-1.5.41-3.29.44-4.78-.11,1.83-1.62,3.87-3.74,3.34-6.34-.42-2.06-2.37-3.16-4.37-3.11-2.16.06-3.99,1.45-4.68,3.48-.71,2.09-.19,4.5,1.1,6.25.02.03.05.06.08.09-1.28.98-2.61,1.91-4,2.72-.97.56-.2,2.26.85,1.8,1.79-.79,3.46-1.72,5.03-2.81,1.31.83,2.85,1.26,4.43,1.35,3.39.19,6.47-1.22,9.31-3.07.22.24.46.46.72.66,2.16,1.69,4.97,1.88,7.59,1.53,2.82-.38,5.61-1.12,8.27-2.13.28.26.58.5.91.71,2.26,1.42,5.13,1.22,7.1-.56,1.43-1.29-.8-3.33-2.21-2.02ZM62.3,11.38c-.28-.38-.5-.82-.65-1.34-.33-1.17-.17-2.74,1.01-3.37.82-.43,2.47-.43,2.49.82.01,1.01-.91,1.96-1.55,2.63-.42.43-.85.85-1.3,1.26ZM78.24,6.29c.47-.58,2.51-3.21,3.48-2.5.53.38-.01,1.28-.31,1.62-.59.69-1.44,1.17-2.17,1.68-.81.56-1.61,1.16-2.43,1.76.2-.94.83-1.83,1.42-2.55ZM92.81,7.57c.07-1.5.69-3.19,1.88-4.17,1.03-.84,2.96-1.07,3.56.39,1.21,2.93-2.6,4.96-5.1,6.05-.28-.73-.38-1.54-.35-2.28Z"/>
    </g>
  </g>
</svg>