<?xml version="1.0" encoding="UTF-8"?>
<svg id="Layer_2" xmlns="http://www.w3.org/2000/svg" viewBox="0 0 694.39 359.11">
  <defs>
    <style>
      .cls-1 {
        fill: #520815;
      }
    </style>
  </defs>
  <g id="Layer_1-2" data-name="Layer_1">
    <g>
      <path class="cls-1" d="M138.9,292.5c-1.08-.68-2.37-.37-3.56-.24-1.2.13-2.39.27-3.59.39-2.39.25-4.79.46-7.19.65-4.72.36-9.45.61-14.19.74-4.73.13-9.47.16-14.2.08-2.4-.04-4.81-.14-7.21-.21-2.34-.06-4.82-.41-7.13.05-1.28.26-1.49,2.47-.23,2.92,1.76.63,3.65.68,5.51.82,1.89.14,3.79.26,5.69.34,3.76.15,7.52.23,11.28.23,7.59,0,15.19-.37,22.75-1.02,2.1-.18,4.19-.38,6.29-.61,1.05-.11,2.09-.23,3.14-.37,1.2-.16,2.26-.24,3.12-1.16.8-.85.41-2.04-.47-2.6Z"/>
      <path class="cls-1" d="M48.38,319.44c-.1-2.91-.18-5.82-.29-8.73-.23-5.82-.45-11.63-.68-17.45l-5.25-142.54c-.9-23.11-1.7-46.23-2.91-69.32-.69-13.01-1.19-26.01-1.56-39.03-.06-2.19-3.51-2-3.4.2,1.14,23.11,1.69,46.23,2.46,69.35.77,23.12,4.76,139.27,5.67,162.38.25,6.43,1.45,27.91,1.7,34.34.13,3.29.28,6.58.43,9.87.15,3.27.19,6.55.87,9.76.3,1.43,2.65,1.25,2.83-.16.38-2.88.23-5.77.13-8.67Z"/>
      <path class="cls-1" d="M675.9,38.96c-23.56,1-47.12,1.72-70.7,2.18-23.5.46-505.34.66-528.84.59-6.58-.02-13.17-.06-19.75-.12-6.65-.06-13.32-.28-19.96.09-1.6.09-1.91,2.75-.21,2.9,5.93.52,11.9.54,17.85.61,5.82.06,11.64.11,17.45.14,11.79.06,23.58.06,35.37-.02,23.58-.15,505.49-.55,529.06-1.24,13.31-.39,26.63-.88,39.93-1.44,2.37-.1,2.16-3.78-.21-3.68Z"/>
      <path class="cls-1" d="M691.96,336.6c-.05-1.94-8.05-239.37-8.14-241.3-.18-3.87-.44-7.74-.79-11.61-.71-7.81-1.75-15.59-3.21-23.29-.4-2.13-.83-4.26-1.28-6.38-.46-2.13-.74-4.47-1.76-6.41-.82-1.55-2.89-.48-2.94.95-.06,1.89.62,3.88.99,5.72.37,1.82.71,3.64,1.04,5.46.66,3.74,1.27,7.5,1.79,11.26,1.05,7.53,1.77,15.11,2.16,22.71.11,2.09.19,4.17.24,6.26.06,2.22,7.85,240,8.1,242.2.23,2.02,3.53,2.54,3.78.27.21-1.94.08-3.92.03-5.87Z"/>
      <g>
        <path class="cls-1" d="M177.29,70.76c-.76-.51-1.57-.37-2.45-.33-.91.04-1.82.12-2.73.18-1.82.13-3.64.26-5.46.39-3.57.25-7.13.51-10.7.76-3.57.25-7.13.53-10.69.81-3.55.28-7.23.4-10.7,1.24-.53.13-.74.68-.66,1.16-.03.03-.07.06-.1.09-1.64,1.46-3.3,2.9-4.92,4.38-.58.53-1.15,1.06-1.72,1.6-.6-.47-1.35-.8-2.09-.91-1.12-.16-2.18.02-3.19.51-.43.21-.81.49-1.15.83-.41.41-.65,1.04-.8,1.59-.06.2-.03.41.03.61-.06.08-.12.17-.16.25-.09.17-.15.38-.2.57-.35,1.26.31,2.45,1.11,3.37,1.42,1.64,3.94,2.08,5.78.93,1.55-.97,2.5-2.96,2.29-4.78-.03-.27-.09-.53-.16-.79,2.19-1.77,4.3-3.64,6.41-5.49.58-.5,1.45-1.1,1.77-1.84,2.88.07,5.78-.21,8.64-.39,3.64-.23,7.29-.46,10.93-.72,3.64-.26,7.28-.51,10.93-.77,1.74-.12,3.49-.25,5.24-.37,1.65-.12,3.83.12,5.12-1.04.64-.57.24-1.49-.34-1.87ZM123.05,85.45c-.08-.11-.16-.21-.23-.33-.05-.08-.09-.17-.14-.26-.03-.05-.12-.23-.13-.24-.06-.13-.1-.21-.15-.3-.03-.04-.05-.09-.07-.13.04-.05.07-.1.12-.15.03-.03.14-.12.18-.17.07-.06.14-.12.21-.18.02,0,.13-.1.18-.13.08-.05.16-.1.24-.15.07-.03.14-.06.21-.08.08-.03.16-.05.24-.07.18-.02.34-.04.51-.04.1,0,.14,0,.18.02.11.02.21.05.32.08-.34.47-.75.92-1.15,1.37-.32.36-.27.81-.06,1.15-.19-.14-.32-.26-.45-.39Z"/>
        <path class="cls-1" d="M178.7,63.16c-.65.6-1.6.69-2.45.47,1.53-.74,2.99-1.65,4.07-2.91,1.49-1.73,2.19-4.24,1.21-6.4-1.12-2.49-4.14-3.28-6.54-2.19-2.5,1.13-3.95,3.91-4.21,6.55-.13,1.31.02,2.67.49,3.89-1.28.46-2.58.86-3.9,1.18-1.86.45-3.89.9-5.81.7-1.01-.11-2.09-.46-2.89-1.11,1.18-.87,2.31-1.76,3.41-2.58,1.88-1.4,3.97-3.34,3.05-5.95-.89-2.53-3.76-2.4-5.64-1.13-1.93,1.31-3.86,3.53-4.55,5.78-.3.99-.29,1.99-.06,2.93-1.54,1-3.14,1.87-4.89,2.35-1.5.41-3.29.44-4.78-.11,1.83-1.62,3.87-3.74,3.34-6.34-.42-2.06-2.37-3.16-4.37-3.11-2.16.06-3.99,1.45-4.68,3.48-.71,2.09-.19,4.5,1.1,6.25.02.03.05.06.08.09-1.28.98-2.61,1.91-4,2.72-.97.56-.2,2.26.85,1.8,1.79-.79,3.46-1.72,5.03-2.81,1.31.83,2.85,1.26,4.43,1.35,3.39.19,6.47-1.22,9.31-3.07.22.24.46.46.72.66,2.16,1.69,4.97,1.88,7.59,1.53,2.82-.38,5.61-1.12,8.27-2.13.28.26.58.5.91.71,2.26,1.42,5.13,1.22,7.1-.56,1.43-1.29-.8-3.33-2.21-2.02ZM143.06,63.03c-.28-.38-.5-.82-.65-1.34-.33-1.17-.17-2.74,1.01-3.37.82-.43,2.47-.43,2.49.82.01,1.01-.91,1.96-1.55,2.63-.42.43-.85.85-1.3,1.26ZM159,57.95c.47-.58,2.51-3.21,3.48-2.5.53.38-.01,1.28-.31,1.62-.59.69-1.44,1.17-2.17,1.68-.81.56-1.61,1.16-2.43,1.76.2-.94.83-1.83,1.42-2.55ZM173.57,59.22c.07-1.5.69-3.19,1.88-4.17,1.03-.84,2.96-1.07,3.56.39,1.21,2.93-2.6,4.96-5.1,6.05-.28-.73-.38-1.54-.35-2.28Z"/>
      </g>
      <g>
        <path class="cls-1" d="M641.45,83.6c-.4-1-1.06-1.8-1.99-2.36-.82-.48-1.85-.67-2.79-.57-.17.02-.33.06-.5.09-.59-7.87-2.38-15.67-4.57-23.23-2.3-7.94-5.29-15.67-8.85-23.14-1.01-2.11-2.06-4.2-3.17-6.27-.52-.97-1.02-1.95-1.55-2.93-.59-1.11-1.04-2.09-2.3-2.48-.03-.55-.36-1.06-1.12-1.22-2.15-.45-4.6-.17-6.79-.19-2.29-.02-4.57-.04-6.86-.06-4.65-.04-9.3-.08-13.95-.12-4.57-.04-9.14-.07-13.72-.05-2.28,0-4.57.02-6.85.08-2.37.06-4.69.42-7.05.56-.73.04-.87,1.26-.1,1.32,2.21.17,4.39.58,6.61.68,2.29.11,4.58.18,6.87.23,4.65.11,9.3.18,13.96.24,4.57.05,9.15.11,13.72.16,2.29.03,4.57.05,6.86.08,1.14.01,2.29.03,3.43.04,1.07.01,2.2.11,3.27-.02.04.67.36,1.25.73,1.88.56.94,1.13,1.89,1.66,2.86.96,1.75,1.86,3.54,2.73,5.33,1.78,3.65,3.39,7.37,4.87,11.15,2.92,7.5,5.27,15.24,7,23.1.96,4.39,1.75,8.83,2.59,13.25-.77.67-1.35,1.56-1.52,2.62-.02.13-.01.26,0,.39-.3.41-.41.81-.39,1.33.02.64.27,1.23.59,1.78.52.9,1.47,1.67,2.4,2.1,1.09.5,2.23.65,3.4.39.95-.21,1.88-.8,2.47-1.57,1.17-1.52,1.63-3.65.9-5.48ZM639.04,85.85c-.03.17-.06.34-.11.5-.03.1-.05.13-.06.16-.07.15-.18.3-.24.46-.04.05-.08.1-.12.15-.05.05-.1.11-.15.16-.16.12-.25.2-.36.27-.12.06-.18.08-.24.1-.07.02-.15.04-.22.06-.16.02-.33,0-.49.03-.07,0-.15-.02-.22-.03-.08-.01-.19-.03-.31-.05-.11-.05-.16-.07-.21-.09-.1-.04-.19-.09-.29-.14-.08-.04-.16-.09-.24-.14-.15-.12-.3-.24-.44-.37-.02-.02-.06-.05-.09-.08-.03-.05-.07-.1-.11-.15-.12-.16-.23-.32-.33-.49-.02-.03-.04-.07-.06-.1-.08-.16-.14-.29-.2-.42-.02-.04-.05-.09-.07-.13-.1-.22-.17-.32-.25-.43.02-.08.04-.14.06-.21.06-.13.27-.43.27-.52.05-.07.1-.13.16-.19.05-.05.1-.11.15-.16.05-.05.25-.26.13-.12-.12.13.04-.03.08-.06.07-.05.14-.1.21-.15.07-.05.15-.09.22-.13.16-.03.36-.16.47-.19.08-.03.17-.05.25-.07.25-.06.2-.04.14-.02.13,0,.27-.04.39-.05.07,0,.15,0,.22,0,.23.02.37.03.5.06.08.02.16.04.25.06.16.07.3.13.44.21.06.05.13.1.19.15.05.05.11.1.16.15.1.14.19.26.27.4.05.09.06.14.08.17.06.16.09.32.14.48,0,.08.02.15.03.23.01.17.01.33.01.5,0,.07-.02.14-.03.21Z"/>
        <path class="cls-1" d="M559.81,18.67c.79-.43,1.56-.9,2.3-1.39.23.29.51.57.83.81,2.66,2,6.18.71,8.9-.44,3.3-1.4,6.46-3.17,9.37-5.28.09-.07.19-.14.28-.2.6.8,1.31,1.52,2.1,2.12,4.36,3.32,10.07,2.7,14.69.26.8.4,1.65.69,2.52.83,2.73.44,5.71-.36,8.1-1.85.26.13.53.24.79.33,1.61.51,3.18.39,4.78-.04,1.06-.28.65-1.77-.34-1.79-.93-.02-2.03-.04-3.09-.22,1.65-1.81,2.89-4.76.72-6.61-1.99-1.69-5.17-.43-6.05,1.86-.65,1.7-.07,3.46,1.06,4.8-1.74.91-3.72,1.45-5.66,1.09-.08-.01-.16-.04-.24-.06.25-.19.49-.37.72-.57,2.22-1.86,4.19-4.97,2.27-7.75-1.51-2.18-4.7-2.96-7-1.6-2.34,1.39-3.25,4.46-2.58,7.01.31,1.19.97,2.21,1.83,3.05-3.24,1.45-7.03,1.92-10.2.11-.94-.53-1.85-1.35-2.61-2.32,2.01-1.54,4.01-3.41,4.45-5.77.51-2.72-1.64-5.76-4.61-4.89-2.92.85-4.06,4.34-3.73,7.08.13,1.08.45,2.12.93,3.1-3.61,2.71-7.91,5.32-12.32,6.42-1.58.4-3.24.24-4.16-.77,1.47-1.16,2.82-2.46,4.04-3.93.9-1.09,1.7-2.45,1.71-3.91,0-1.43-.96-2.76-2.4-3.05-3.07-.6-4.95,3.23-5.68,5.58-.48,1.52-.72,3.27-.32,4.81-.73.67-1.47,1.32-2.23,1.92-.76.6-.05,1.74.82,1.27ZM607.8,7.22c.48-.53,1.54-.83,2.15-.37,1.38,1.04-.29,2.94-1.43,3.9-.27-.23-.53-.49-.72-.82-.46-.78-.67-1.98,0-2.71ZM598.21,5.04c1.36-.79,3.57-.09,4.03,1.49.64,2.19-2.16,4.17-3.69,5.17-.04.03-.09.06-.13.08-.78-.58-1.4-1.35-1.7-2.29-.48-1.55.01-3.6,1.49-4.45ZM582.45,3.41c.52-.72,1.54-1.58,2.45-.98.83.55.89,1.82.6,2.66-.53,1.52-1.91,2.78-3.29,3.86-.82-1.82-.96-3.85.25-5.54ZM565.78,8.03c.93-.62,1.5-.3,1.13.8-.37,1.08-1.25,2-1.98,2.84-.57.65-1.16,1.29-1.77,1.92.06-1.96.99-4.46,2.62-5.56Z"/>
      </g>
      <g>
        <path class="cls-1" d="M597.21,294.97c.4.9,1.04,1.62,1.93,2.11.78.43,1.77.59,2.67.48.16-.02.32-.06.48-.09.66,7.14,6.13,23.89,9.62,30.62.99,1.9,2.02,3.79,3.1,5.65.51.88,1,1.76,1.51,2.63.58,1,1.02,1.88,2.23,2.22.03.5.36.96,1.08,1.1,2.06.38,4.39.09,6.48.08,2.18-.01,4.37-.03,6.55-.04,4.44-.03,8.88-.05,13.31-.08,4.36-.03,8.73-.06,13.09-.14,2.18-.04,4.36-.08,6.54-.16,2.26-.09,4.47-.44,6.72-.6.69-.05.82-1.16.07-1.2-2.11-.13-4.2-.47-6.32-.53-2.19-.07-4.37-.1-6.56-.12-4.44-.04-8.88-.04-13.32-.03-4.37.01-8.73.03-13.1.04-2.18,0-4.37.01-6.55.02-1.09,0-2.18,0-3.28.01-1.02,0-2.1-.07-3.12.06-.05-.61-.36-1.13-.72-1.7-.55-.85-1.1-1.7-1.62-2.57-.94-1.57-1.82-3.19-2.68-4.8-1.74-3.29-6.23-12.53-7.98-19.64-.98-3.98-1.78-7.99-2.64-11.99.73-.62,1.26-1.44,1.42-2.4.02-.12,0-.24-.01-.36.28-.37.38-.74.36-1.21-.03-.58-.28-1.12-.58-1.61-.51-.81-1.42-1.5-2.32-1.87-1.04-.44-2.14-.56-3.25-.31-.91.2-1.78.75-2.34,1.46-1.1,1.4-1.51,3.34-.78,4.98ZM599.48,292.9c.02-.15.06-.31.1-.45.03-.09.04-.12.05-.15.06-.14.16-.28.22-.42.04-.05.07-.09.11-.13.04-.05.09-.1.14-.14.15-.11.24-.19.34-.25.12-.06.17-.08.22-.1.07-.02.14-.04.21-.06.16-.02.32-.01.47-.03.07,0,.14.01.21.03.07.01.19.02.29.04.1.04.15.06.2.08.09.04.19.08.28.12.08.04.16.08.23.12.15.11.29.21.42.33.02.02.05.05.08.07.03.04.07.09.11.13.11.14.22.29.32.44.02.03.04.06.06.09.08.14.14.26.2.37.02.04.05.08.07.12.1.19.17.29.24.38-.02.07-.04.13-.05.19-.05.12-.25.39-.25.48-.05.06-.1.12-.15.18-.05.05-.09.1-.14.15-.04.04-.24.24-.12.11.11-.12-.04.02-.08.05-.07.05-.13.09-.2.14-.07.04-.14.08-.21.12-.15.03-.34.15-.44.18-.08.03-.16.05-.24.07-.24.06-.2.04-.13.02-.12,0-.26.04-.37.05-.07,0-.14,0-.21,0-.22-.01-.35-.02-.48-.05-.08-.01-.16-.03-.24-.05-.15-.06-.29-.11-.42-.19-.06-.05-.13-.09-.18-.13-.05-.04-.1-.09-.15-.13-.1-.13-.19-.24-.26-.36-.05-.09-.06-.12-.08-.16-.06-.14-.09-.29-.14-.44,0-.07-.02-.14-.03-.21-.02-.15-.02-.3-.02-.45,0-.06.01-.12.02-.19Z"/>
        <path class="cls-1" d="M620.73,358.78c.75-.41,1.48-.84,2.18-1.3.23.26.49.51.8.73,2.56,1.78,5.91.56,8.49-.52,3.14-1.31,6.13-2.96,8.87-4.92.09-.06.18-.13.27-.19.59.72,1.27,1.36,2.03,1.89,4.2,2.95,9.64,2.32,14.02.03.77.35,1.59.6,2.41.72,2.61.36,5.44-.4,7.7-1.79.25.11.5.21.76.29,1.54.44,3.04.31,4.57-.1,1.01-.27.6-1.61-.34-1.62-.88,0-1.94,0-2.95-.16,1.56-1.66,2.69-4.36.6-6.01-1.92-1.51-4.94-.32-5.75,1.77-.6,1.55-.02,3.14,1.07,4.34-1.65.85-3.53,1.37-5.38,1.07-.08-.01-.16-.03-.23-.05.23-.17.46-.34.68-.52,2.1-1.71,3.94-4.57,2.07-7.07-1.47-1.96-4.52-2.63-6.7-1.36-2.22,1.29-3.04,4.09-2.37,6.4.31,1.07.96,1.99,1.79,2.75-3.07,1.36-6.69,1.83-9.73.24-.9-.47-1.79-1.2-2.52-2.07,1.89-1.42,3.78-3.15,4.17-5.3.46-2.48-1.64-5.21-4.46-4.38-2.77.81-3.82,3.99-3.47,6.48.14.98.46,1.92.92,2.8-3.42,2.51-7.48,4.93-11.67,5.99-1.5.38-3.09.26-3.98-.64,1.39-1.07,2.66-2.27,3.8-3.63.85-1,1.59-2.25,1.58-3.57-.01-1.3-.95-2.49-2.33-2.73-2.94-.51-4.68,3-5.35,5.14-.43,1.38-.64,2.98-.24,4.37-.68.62-1.38,1.22-2.11,1.78-.72.55-.02,1.58.79,1.14ZM666.39,347.73c.46-.49,1.46-.78,2.05-.37,1.33.93-.24,2.68-1.32,3.56-.26-.21-.51-.44-.7-.73-.45-.7-.67-1.78-.04-2.46ZM657.21,345.89c1.29-.73,3.4-.13,3.86,1.3.64,1.98-2.01,3.81-3.45,4.74-.04.03-.08.05-.13.08-.75-.52-1.35-1.2-1.65-2.06-.48-1.4-.03-3.27,1.36-4.06ZM642.14,344.62c.48-.66,1.45-1.46,2.32-.92.8.49.87,1.64.6,2.41-.48,1.39-1.79,2.55-3.09,3.55-.81-1.64-.97-3.48.17-5.03ZM626.3,349.04c.88-.58,1.43-.29,1.09.71-.34.99-1.16,1.83-1.85,2.6-.54.6-1.09,1.19-1.66,1.77.03-1.78.89-4.07,2.43-5.08Z"/>
      </g>
      <path class="cls-1" d="M692.47,321.41c-15.62,1.35-549.76,2.33-565.42,2.95-15.67.62-31.34.86-47.02.83-8.81-.02-14.16-.72-22.95-.11-1.28.09-1.53,2.15-.17,2.33,7.75,1,12.09,1.19,19.89,1.29,7.92.09,15.83.08,23.75-.03,15.68-.21,31.35-.77,47-1.68,8.89-.52,536.26-1.11,545.13-1.82,2.4-.19,2.2-3.96-.22-3.75Z"/>
      <path class="cls-1" d="M49.39,110.42c-.77-.91-1.87-.75-2.94-.7-1.06.05-2.13.1-3.19.14-1.98.08-3.95.16-5.93.25-4.03.18-8.06.34-12.09.48-4.03.14-8.06.25-12.09.35-1.98.05-3.96.07-5.93.13-1.06.03-2.13.08-3.19.12-.46.02-.91.04-1.36.09-.49.06-.91.3-1.35.38-1.44.26-1.93,2.53-.2,2.8.6.09,1.12.33,1.74.38.46.04.92.04,1.39.04,1.07,0,2.13.02,3.2.01,1.98,0,3.96-.07,5.93-.11,4.11-.09,8.21-.2,12.32-.33,4.11-.13,8.21-.28,12.32-.46,1.98-.09,3.95-.2,5.93-.31,1.06-.06,2.13-.11,3.19-.18,1.18-.08,1.9-.26,2.59-1.29.4-.59.07-1.32-.32-1.79Z"/>
      <path class="cls-1" d="M69.91,126.08c-.68-.92-1.59-1.54-2.49-2.23-.93-.72-1.86-1.43-2.79-2.14-1.81-1.39-3.62-2.77-5.43-4.16-1.76-1.34-3.51-2.69-5.27-4.03-1.86-1.42-3.69-3.01-5.76-4.12-1.68-.9-3,1.35-1.81,2.62,1.5,1.6,3.36,2.88,5.09,4.22,1.8,1.4,3.6,2.8,5.4,4.19,1.74,1.36,3.49,2.71,5.23,4.07.87.68,1.74,1.36,2.62,2.03.93.72,1.86,1.61,2.95,2.05,1.46.59,3.39-.98,2.26-2.5Z"/>
      <path class="cls-1" d="M30.37,96.52c-.61-1.14-1.86-1.67-3.11-1.58-3.67.25-5.5,4.43-4.57,7.62-.04.02-.08.05-.12.08-1.79,1.07-4.53,1.71-6.54.78.09-.09.18-.16.26-.25,1.59-1.63,3.28-4.12,2.45-6.51-.96-2.78-4.45-2.52-6.25-.79-1.61,1.55-1.98,4.03-1.4,6.12.11.41.28.78.46,1.14-.8.53-1.65,1-2.49,1.39-.53.25-.89.7-.78,1.32.1.52.63,1.05,1.2.95,1.45-.24,2.78-.73,3.99-1.43.75.56,1.62.98,2.53,1.25,2.54.74,5.23.19,7.53-.99.29-.15.59-.31.88-.49.18.14.37.27.58.38,1.19.64,2.2-.86,1.5-1.83,1.2-.95,2.3-2.05,3.16-3.18.87-1.14,1.44-2.62.71-3.98ZM14.01,99.02c.15-.47,1.4-2.15,1.76-1.29.42,1.04-.99,2.58-1.76,3.35-.19-.68-.21-1.41,0-2.06ZM26.53,99.34c-.38.39-.77.77-1.16,1.14.08-.9.45-1.74,1.23-2.24.18-.11.37-.22.58-.27.12-.02.24-.02.36-.03.07,0,.11,0,.13.02.01.28-.92,1.16-1.14,1.38Z"/>
      <g>
        <path class="cls-1" d="M52.8,102.95c-.35-.55-1.1-.84-1.73-.62-.11.04-.23.07-.34.11.39-.12-.06,0-.3.06-.1.02-.2.04-.3.08-.26.03-.49.02-.71.06-.12-.02-.24-.04-.36-.06-.08-.02-.16-.04-.24-.07-.13-.07-.25-.12-.36-.18-.07-.04-.32-.26-.12-.07.21.2-.05-.05-.1-.09-.08-.07-.15-.14-.22-.21,1.11-.94,2.15-1.98,2.98-3.15.36-.51.56-1.03.36-1.66-.17-.53-.68-1.07-1.26-1.13-1.82-.19-3.52.45-4.66,1.93-.57.74-.97,1.61-1.12,2.52-1.17.66-2.34,1.14-3.73,1.5-.54.14-.86.76-.75,1.28.12.58.59.91,1.17.92,1.32.02,2.61-.22,3.85-.66.73,1.27,1.95,2.12,3.38,2.51,1.55.42,3.44.13,4.42-1.25.39-.55.54-1.21.15-1.82Z"/>
        <path class="cls-1" d="M50.19,102.56c.11-.03.17-.07,0,0h0Z"/>
      </g>
    </g>
  </g>
</svg>