<?xml version="1.0" encoding="UTF-8"?>
<svg id="Layer_2" xmlns="http://www.w3.org/2000/svg" viewBox="0 0 1313.17 700.25">
  <defs>
    <style>
      .cls-1 {
        fill: #520815;
      }
    </style>
  </defs>
  <g id="Layer_1-2" data-name="Layer_1">
    <path class="cls-1" d="M270.86,570.36c-2.1-1.32-4.61-.72-6.94-.47-2.33.25-4.66.52-6.99.76-4.67.48-9.34.9-14.01,1.26-9.21.71-18.43,1.19-27.67,1.44-9.23.25-18.47.32-27.7.15-4.69-.09-9.37-.27-14.06-.4-4.57-.12-9.4-.81-13.9.11-2.5.51-2.91,4.82-.45,5.7,3.44,1.23,7.12,1.32,10.74,1.59,3.69.28,7.39.51,11.09.66,7.33.29,14.66.44,21.99.45,14.8,0,29.61-.72,44.36-1.99,4.09-.35,8.18-.75,12.26-1.19,2.04-.22,4.08-.45,6.12-.72,2.33-.31,4.4-.47,6.09-2.27,1.55-1.65.81-3.98-.92-5.07Z"/>
    <g>
      <path class="cls-1" d="M345.72,137.97c-1.49-.99-3.06-.73-4.78-.65-1.78.08-3.55.23-5.33.36-3.55.25-7.1.51-10.65.76-6.95.49-13.91.99-20.86,1.48-6.95.49-13.9,1.03-20.85,1.58-6.93.55-14.09.78-20.87,2.42-1.03.25-1.44,1.32-1.29,2.27-.06.06-.13.12-.19.17-3.2,2.84-6.43,5.66-9.59,8.54-1.13,1.03-2.25,2.07-3.36,3.12-1.17-.92-2.64-1.56-4.08-1.77-2.18-.31-4.25.04-6.22,1-.83.4-1.58.96-2.24,1.61-.8.8-1.27,2.04-1.57,3.1-.11.38-.05.8.06,1.2-.12.16-.24.34-.31.48-.18.34-.29.75-.39,1.12-.68,2.46.61,4.78,2.17,6.58,2.77,3.19,7.67,4.05,11.28,1.81,3.02-1.88,4.88-5.77,4.46-9.31-.06-.53-.17-1.04-.31-1.54,4.27-3.45,8.38-7.11,12.51-10.71,1.13-.98,2.82-2.14,3.45-3.58,5.61.14,11.28-.4,16.84-.75,7.11-.44,14.21-.9,21.31-1.4,7.1-.5,14.2-1,21.31-1.5,3.4-.24,6.81-.48,10.21-.72,3.22-.23,7.47.22,9.98-2.02,1.25-1.12.46-2.91-.66-3.66ZM239.95,166.62c-.16-.21-.32-.41-.45-.64-.1-.16-.18-.34-.27-.5-.05-.1-.23-.44-.25-.46-.12-.25-.19-.4-.3-.58-.05-.09-.1-.18-.14-.26.07-.1.15-.2.23-.29.05-.06.27-.23.34-.33.14-.11.28-.23.42-.34.03-.02.26-.2.35-.26.15-.1.3-.2.46-.29.14-.06.27-.11.41-.16.15-.05.31-.1.47-.14.35-.04.67-.08.99-.08.19.01.28.02.36.03.21.04.42.1.62.16-.66.93-1.46,1.79-2.25,2.67-.62.7-.54,1.58-.11,2.24-.36-.27-.62-.51-.87-.77Z"/>
      <path class="cls-1" d="M348.45,123.16c-1.27,1.17-3.12,1.34-4.79.91,2.99-1.45,5.83-3.23,7.93-5.67,2.91-3.38,4.27-8.26,2.37-12.47-2.19-4.85-8.08-6.39-12.75-4.28-4.87,2.2-7.7,7.63-8.21,12.78-.26,2.56.05,5.2.96,7.58-2.49.9-5.03,1.68-7.6,2.3-3.62.88-7.58,1.75-11.33,1.36-1.97-.21-4.07-.89-5.64-2.17,2.29-1.7,4.5-3.44,6.65-5.04,3.66-2.74,7.74-6.52,5.95-11.6-1.74-4.94-7.34-4.68-10.99-2.2-3.76,2.56-7.53,6.89-8.87,11.28-.59,1.93-.57,3.89-.11,5.72-3,1.95-6.13,3.64-9.53,4.58-2.93.8-6.42.85-9.32-.22,3.58-3.16,7.54-7.3,6.52-12.36-.81-4.02-4.61-6.16-8.52-6.06-4.22.11-7.78,2.82-9.12,6.78-1.38,4.07-.38,8.77,2.15,12.19.05.06.1.11.15.17-2.5,1.92-5.08,3.72-7.81,5.31-1.88,1.1-.39,4.41,1.66,3.51,3.49-1.54,6.74-3.34,9.81-5.48,2.55,1.61,5.56,2.46,8.63,2.63,6.61.37,12.61-2.38,18.16-6,.43.46.89.9,1.4,1.3,4.22,3.3,9.68,3.67,14.81,2.98,5.5-.74,10.94-2.18,16.13-4.16.54.5,1.12.98,1.77,1.38,4.42,2.76,9.99,2.39,13.85-1.09,2.79-2.51-1.57-6.49-4.32-3.94ZM278.96,122.92c-.54-.75-.98-1.61-1.27-2.61-.65-2.27-.34-5.35,1.97-6.57,1.61-.84,4.83-.84,4.85,1.59.02,1.97-1.78,3.82-3.03,5.13-.81.85-1.66,1.66-2.53,2.45ZM310.04,113c.92-1.12,4.89-6.26,6.79-4.88,1.03.74-.02,2.49-.6,3.15-1.15,1.34-2.8,2.28-4.24,3.28-1.57,1.09-3.14,2.26-4.73,3.43.4-1.83,1.62-3.57,2.78-4.98ZM338.46,115.49c.14-2.92,1.35-6.23,3.67-8.13,2.01-1.65,5.77-2.09,6.94.77,2.35,5.71-5.08,9.67-9.94,11.8-.55-1.42-.75-2.99-.68-4.44Z"/>
    </g>
    <g>
      <path class="cls-1" d="M1250.81,163.01c-.78-1.95-2.07-3.52-3.88-4.59-1.59-.94-3.6-1.31-5.43-1.1-.33.04-.65.12-.97.18-1.14-15.35-4.64-30.55-8.91-45.3-4.49-15.49-10.32-30.56-17.26-45.11-1.96-4.12-4.02-8.19-6.17-12.22-1.01-1.9-2-3.81-3.01-5.7-1.16-2.16-2.04-4.07-4.49-4.83-.06-1.07-.7-2.07-2.18-2.38-4.19-.88-8.96-.34-13.24-.37-4.46-.04-8.92-.08-13.38-.11-9.07-.08-18.13-.16-27.2-.23-8.92-.08-17.83-.14-26.75-.1-4.46.02-8.91.03-13.36.15-4.62.12-9.15.82-13.75,1.09-1.42.08-1.7,2.46-.19,2.58,4.31.34,8.56,1.13,12.89,1.33,4.47.21,8.93.34,13.4.45,9.07.22,18.14.36,27.21.46,8.92.1,17.84.21,26.76.31,4.46.05,8.92.1,13.38.16,2.23.03,4.46.05,6.69.08,2.09.02,4.29.22,6.38-.04.08,1.3.7,2.45,1.43,3.66,1.1,1.84,2.2,3.69,3.23,5.57,1.88,3.41,3.62,6.9,5.33,10.4,3.47,7.11,6.62,14.38,9.49,21.75,5.69,14.63,10.28,29.71,13.65,45.05,1.88,8.57,3.41,17.22,5.05,25.83-1.51,1.32-2.62,3.05-2.96,5.12-.04.25-.03.51.02.76-.58.79-.79,1.58-.77,2.59.03,1.25.53,2.41,1.14,3.47,1.01,1.76,2.86,3.26,4.68,4.1,2.12.98,4.35,1.27,6.63.76,1.86-.41,3.66-1.56,4.82-3.07,2.29-2.97,3.18-7.13,1.75-10.68ZM1246.12,167.4c-.05.33-.13.65-.22.97-.06.19-.09.26-.12.32-.13.3-.34.59-.46.89-.08.1-.15.19-.23.28-.09.11-.19.21-.29.31-.3.23-.49.39-.71.52-.24.12-.35.16-.46.2-.14.05-.29.08-.43.13-.32.03-.65.02-.96.05-.14-.02-.29-.04-.43-.06-.15-.03-.38-.05-.6-.1-.21-.09-.31-.13-.4-.17-.19-.08-.38-.17-.56-.27-.16-.09-.32-.18-.47-.27-.3-.23-.59-.47-.85-.73-.05-.05-.11-.1-.17-.16-.07-.1-.14-.19-.21-.28-.23-.31-.45-.62-.64-.96-.04-.07-.07-.13-.11-.2-.15-.31-.27-.56-.4-.81-.05-.09-.09-.17-.14-.26-.19-.42-.33-.63-.49-.83.04-.16.08-.28.12-.41.11-.25.52-.84.53-1.01.1-.13.2-.25.31-.37.1-.11.19-.21.3-.31.09-.09.49-.51.25-.24-.23.26.08-.05.17-.11.14-.1.27-.19.42-.28.14-.09.29-.18.44-.26.31-.06.69-.3.91-.37.16-.05.32-.1.49-.14.49-.12.4-.08.27-.05.25-.01.53-.08.76-.09.14,0,.29-.01.43-.01.45.04.72.06.98.11.16.03.32.08.48.12.3.13.58.25.85.41.11.1.26.19.36.29.11.09.21.19.31.29.2.28.38.51.52.77.09.19.13.27.15.34.12.31.18.63.28.94.02.15.04.3.05.45.03.32.02.65.02.97-.02.13-.03.27-.05.4Z"/>
      <path class="cls-1" d="M1091.61,36.42c1.55-.85,3.04-1.75,4.48-2.72.46.57.99,1.11,1.62,1.58,5.18,3.89,12.06,1.38,17.36-.87,6.44-2.73,12.6-6.17,18.27-10.29.18-.13.37-.27.55-.4,1.18,1.56,2.56,2.96,4.1,4.13,8.5,6.47,19.63,5.27,28.64.5,1.56.78,3.22,1.35,4.9,1.62,5.32.85,11.13-.7,15.79-3.6.51.25,1.02.47,1.55.64,3.13.99,6.2.76,9.33-.07,2.07-.55,1.27-3.45-.66-3.49-1.8-.04-3.96-.07-6.02-.43,3.23-3.52,5.63-9.28,1.4-12.88-3.87-3.3-10.08-.83-11.79,3.63-1.27,3.31-.14,6.75,2.06,9.36-3.39,1.77-7.25,2.83-11.03,2.13-.16-.03-.32-.08-.48-.11.48-.36.96-.72,1.41-1.1,4.33-3.62,8.18-9.7,4.44-15.12-2.94-4.26-9.17-5.78-13.65-3.12-4.57,2.71-6.33,8.7-5.03,13.67.6,2.31,1.9,4.31,3.58,5.95-6.32,2.84-13.71,3.74-19.88.21-1.82-1.04-3.62-2.63-5.08-4.53,3.91-3,7.81-6.66,8.68-11.25,1-5.31-3.19-11.24-8.99-9.54-5.69,1.67-7.92,8.46-7.27,13.8.25,2.1.89,4.14,1.8,6.04-7.05,5.29-15.42,10.36-24.02,12.52-3.08.77-6.31.47-8.11-1.5,2.86-2.26,5.5-4.8,7.88-7.67,1.76-2.12,3.31-4.78,3.33-7.62.01-2.79-1.88-5.39-4.68-5.94-5.99-1.18-9.65,6.3-11.08,10.88-.93,2.96-1.4,6.38-.62,9.38-1.41,1.3-2.86,2.57-4.36,3.75-1.48,1.17-.09,3.4,1.59,2.48ZM1185.2,14.08c.94-1.03,3.01-1.63,4.2-.73,2.7,2.03-.57,5.74-2.8,7.6-.53-.45-1.02-.96-1.4-1.59-.9-1.52-1.31-3.85,0-5.28ZM1166.49,9.83c2.66-1.54,6.96-.17,7.86,2.9,1.25,4.26-4.22,8.12-7.19,10.08-.08.06-.17.11-.26.16-1.52-1.13-2.73-2.63-3.31-4.47-.94-3.03.03-7.02,2.9-8.68ZM1135.76,6.66c1.01-1.4,3.01-3.09,4.77-1.91,1.61,1.08,1.73,3.55,1.16,5.19-1.02,2.96-3.73,5.42-6.42,7.52-1.61-3.55-1.88-7.51.49-10.8ZM1103.27,15.66c1.81-1.21,2.93-.59,2.2,1.57-.72,2.11-2.43,3.89-3.86,5.53-1.11,1.27-2.27,2.52-3.45,3.74.11-3.83,1.93-8.7,5.11-10.84Z"/>
    </g>
    <g>
      <path class="cls-1" d="M1164.55,575.19c.77,1.76,2.02,3.17,3.76,4.12,1.53.84,3.45,1.14,5.2.93.31-.04.62-.11.93-.18,1.29,13.92,11.95,46.58,18.76,59.7,1.93,3.71,3.94,7.38,6.05,11.01.99,1.71,1.96,3.43,2.95,5.14,1.13,1.95,2,3.66,4.35,4.32.07.97.69,1.87,2.11,2.14,4.01.75,8.56.18,12.64.16,4.26-.03,8.51-.05,12.77-.08,8.65-.05,17.31-.1,25.96-.16,8.51-.05,17.02-.12,25.53-.27,4.25-.08,8.5-.15,12.75-.32,4.41-.17,8.73-.87,13.11-1.17,1.35-.09,1.59-2.26.14-2.34-4.12-.25-8.18-.91-12.32-1.03-4.26-.13-8.53-.19-12.79-.23-8.66-.08-17.32-.08-25.98-.05-8.51.03-17.03.05-25.54.08-4.26.01-8.51.03-12.77.04-2.13,0-4.26.01-6.39.02-1.99,0-4.1-.14-6.09.12-.09-1.18-.7-2.21-1.41-3.31-1.07-1.66-2.14-3.32-3.15-5.01-1.84-3.07-3.54-6.21-5.22-9.36-3.4-6.41-12.14-24.43-15.56-38.3-1.91-7.75-3.47-15.58-5.15-23.38,1.42-1.21,2.46-2.8,2.76-4.68.04-.23.02-.47-.03-.69.54-.73.74-1.44.7-2.36-.05-1.13-.54-2.18-1.14-3.14-.99-1.59-2.77-2.92-4.52-3.66-2.04-.86-4.17-1.09-6.34-.6-1.77.4-3.47,1.47-4.56,2.85-2.15,2.73-2.94,6.51-1.53,9.72ZM1168.98,571.15c.05-.3.11-.59.19-.89.06-.17.08-.23.11-.29.12-.27.32-.54.43-.82.07-.09.14-.18.22-.26.09-.1.18-.19.27-.28.29-.22.47-.36.67-.48.22-.11.33-.15.44-.19.13-.04.27-.08.41-.12.3-.03.62-.02.92-.06.14.02.27.03.41.05.14.02.36.04.57.08.2.08.3.11.39.15.18.07.36.15.54.24.15.08.3.16.46.24.29.21.57.42.82.65.05.04.11.09.17.14.06.09.14.17.21.26.22.28.44.56.62.86.04.06.07.12.11.18.15.28.26.51.39.73.04.08.09.16.13.24.19.38.32.57.47.75-.04.14-.07.26-.11.37-.1.23-.48.77-.49.93-.09.12-.19.23-.29.34-.09.1-.18.19-.28.29-.08.08-.46.47-.23.22.22-.24-.07.05-.16.11-.13.09-.26.18-.39.26-.13.08-.27.16-.41.24-.29.06-.66.28-.86.35-.15.05-.31.1-.46.14-.46.12-.38.07-.25.05-.24.01-.51.08-.72.1-.14,0-.28.02-.41.02-.43-.03-.69-.05-.94-.09-.16-.03-.31-.07-.46-.1-.29-.11-.56-.22-.82-.36-.11-.09-.25-.17-.35-.26-.1-.08-.2-.17-.3-.26-.19-.25-.37-.46-.51-.69-.09-.17-.12-.24-.15-.31-.12-.28-.18-.57-.28-.85-.02-.13-.04-.27-.05-.4-.03-.29-.03-.59-.03-.88.02-.12.03-.24.05-.36Z"/>
      <path class="cls-1" d="M1210.41,699.62c1.46-.79,2.88-1.63,4.24-2.53.44.51.96.99,1.57,1.41,4.99,3.46,11.52,1.09,16.56-1.02,6.12-2.56,11.95-5.77,17.3-9.59.17-.12.35-.25.52-.37,1.14,1.4,2.48,2.65,3.96,3.69,8.2,5.76,18.8,4.52,27.34.06,1.5.68,3.1,1.18,4.7,1.4,5.09.7,10.62-.78,15.02-3.49.49.22.98.41,1.49.56,3,.86,5.92.6,8.9-.19,1.97-.52,1.17-3.15-.67-3.16-1.72,0-3.78-.01-5.75-.31,3.03-3.24,5.25-8.5,1.17-11.71-3.74-2.94-9.63-.62-11.21,3.45-1.17,3.02-.04,6.13,2.09,8.47-3.21,1.65-6.88,2.66-10.5,2.08-.15-.02-.3-.07-.46-.1.45-.33.9-.67,1.33-1.02,4.09-3.34,7.68-8.91,4.04-13.78-2.86-3.83-8.82-5.12-13.07-2.65-4.32,2.52-5.93,7.98-4.63,12.47.61,2.09,1.87,3.89,3.49,5.36-5.99,2.66-13.04,3.58-18.97.46-1.75-.92-3.48-2.34-4.91-4.04,3.69-2.78,7.37-6.15,8.14-10.33.89-4.83-3.19-10.16-8.7-8.54-5.41,1.59-7.45,7.79-6.76,12.63.27,1.9.9,3.74,1.8,5.46-6.66,4.9-14.58,9.62-22.76,11.69-2.93.74-6.02.51-7.76-1.26,2.7-2.09,5.18-4.43,7.42-7.07,1.65-1.95,3.1-4.38,3.08-6.96-.03-2.54-1.86-4.86-4.55-5.33-5.74-.99-9.13,5.85-10.44,10.02-.85,2.7-1.25,5.81-.47,8.52-1.33,1.2-2.69,2.37-4.11,3.47-1.4,1.08-.04,3.09,1.55,2.23ZM1299.45,678.08c.89-.95,2.85-1.52,4-.72,2.6,1.8-.47,5.22-2.57,6.94-.52-.4-.99-.85-1.36-1.43-.88-1.37-1.3-3.48-.07-4.79ZM1281.54,674.47c2.52-1.43,6.64-.25,7.54,2.53,1.24,3.85-3.92,7.43-6.74,9.25-.08.05-.16.1-.25.15-1.47-1-2.64-2.35-3.21-4.01-.94-2.73-.07-6.37,2.66-7.92ZM1252.17,672.01c.94-1.28,2.83-2.84,4.53-1.8,1.55.95,1.7,3.2,1.18,4.69-.94,2.7-3.49,4.97-6.03,6.91-1.58-3.2-1.89-6.79.33-9.81ZM1221.27,680.61c1.71-1.13,2.79-.57,2.12,1.39-.66,1.92-2.27,3.57-3.61,5.08-1.04,1.17-2.13,2.31-3.25,3.44.06-3.48,1.73-7.93,4.74-9.91Z"/>
    </g>
    <path class="cls-1" d="M96.3,215.32c-1.5-1.77-3.66-1.46-5.74-1.36-2.08.09-4.15.19-6.23.28-3.85.17-7.71.31-11.56.48-7.85.35-15.71.66-23.57.93-7.86.27-15.72.5-23.58.68-3.86.09-7.71.13-11.57.25-2.07.06-4.15.15-6.22.23-.9.03-1.77.08-2.66.18-.95.11-1.78.59-2.63.74-2.81.5-3.76,4.93-.4,5.45,1.17.18,2.18.65,3.4.75.9.08,1.8.08,2.7.09,2.08.02,4.16.04,6.24.03,3.86-.02,7.72-.13,11.57-.21,8.01-.17,16.02-.39,24.03-.64,8.01-.26,16.01-.55,24.02-.91,3.85-.17,7.7-.39,11.56-.6,2.07-.11,4.15-.21,6.22-.35,2.29-.16,3.7-.51,5.06-2.52.78-1.15.13-2.58-.63-3.49Z"/>
    <path class="cls-1" d="M136.32,245.86c-1.33-1.79-3.1-3-4.85-4.35-1.81-1.4-3.63-2.79-5.45-4.18-3.53-2.7-7.06-5.4-10.59-8.1-3.42-2.62-6.85-5.24-10.27-7.86-3.63-2.78-7.2-5.87-11.23-8.04-3.27-1.76-5.85,2.63-3.54,5.11,2.92,3.13,6.56,5.61,9.93,8.23,3.51,2.73,7.01,5.45,10.52,8.18,3.4,2.64,6.8,5.29,10.2,7.93,1.7,1.32,3.4,2.65,5.11,3.96,1.81,1.39,3.62,3.14,5.75,4,2.85,1.15,6.62-1.92,4.42-4.88Z"/>
    <path class="cls-1" d="M59.22,188.21c-1.18-2.22-3.62-3.25-6.07-3.08-7.15.49-10.72,8.65-8.92,14.87-.08.05-.15.11-.23.15-3.48,2.08-8.83,3.34-12.75,1.51.17-.17.35-.32.51-.49,3.1-3.18,6.4-8.03,4.79-12.69-1.87-5.42-8.68-4.92-12.19-1.54-3.15,3.02-3.86,7.86-2.74,11.93.22.79.54,1.52.9,2.23-1.56,1.04-3.21,1.95-4.86,2.72-1.04.48-1.74,1.37-1.51,2.58.19,1.01,1.23,2.04,2.35,1.85,2.83-.47,5.42-1.42,7.79-2.79,1.47,1.08,3.15,1.91,4.94,2.43,4.94,1.43,10.19.36,14.68-1.93.57-.29,1.15-.61,1.72-.95.36.26.71.53,1.12.75,2.32,1.24,4.28-1.68,2.93-3.57,2.33-1.86,4.48-4,6.16-6.2,1.69-2.22,2.8-5.11,1.39-7.76ZM27.32,193.1c.3-.92,2.74-4.2,3.42-2.51.82,2.02-1.94,5.02-3.42,6.53-.37-1.32-.41-2.75,0-4.02ZM51.74,193.7c-.74.76-1.5,1.5-2.27,2.22.15-1.75.87-3.4,2.39-4.37.34-.22.73-.43,1.13-.52.23-.05.47-.03.7-.06.14-.02.21,0,.26.03.02.54-1.8,2.27-2.22,2.7Z"/>
    <g>
      <path class="cls-1" d="M102.96,200.76c-.69-1.07-2.15-1.64-3.36-1.2-.22.08-.45.14-.67.21.77-.24-.12,0-.59.11-.19.05-.4.08-.58.16-.51.07-.96.05-1.39.11-.23-.04-.46-.07-.69-.12-.16-.04-.32-.09-.47-.13-.26-.14-.49-.23-.7-.35-.13-.07-.62-.5-.23-.13.4.39-.1-.1-.19-.18-.15-.13-.28-.27-.42-.41,2.17-1.84,4.2-3.87,5.82-6.14.7-.99,1.09-2.02.7-3.23-.34-1.03-1.33-2.09-2.47-2.21-3.55-.37-6.87.88-9.09,3.76-1.11,1.43-1.89,3.14-2.19,4.92-2.28,1.29-4.56,2.22-7.27,2.93-1.05.27-1.68,1.49-1.47,2.5.23,1.13,1.15,1.78,2.28,1.8,2.57.04,5.1-.43,7.5-1.29,1.42,2.47,3.81,4.14,6.59,4.89,3.01.81,6.71.25,8.61-2.43.76-1.08,1.06-2.37.3-3.55Z"/>
      <path class="cls-1" d="M97.87,199.99c.22-.06.32-.13,0,0h0Z"/>
    </g>
  </g>
</svg>